<svg width="90" height="90" viewBox="0 0 90 90" fill="none" xmlns="http://www.w3.org/2000/svg">
<path fill-rule="evenodd" clip-rule="evenodd" d="M42.8872 9.92625C38.5211 12.3518 35.9638 15.6229 35.9638 19.1199C35.9638 22.6169 38.5211 25.888 42.8872 28.3135C47.2363 30.7297 53.2784 32.2398 59.9796 32.2398C66.6809 32.2398 72.723 30.7297 77.0721 28.3135C81.4382 25.888 83.9955 22.6169 83.9955 19.1199C83.9955 15.6229 81.4382 12.3518 77.0721 9.92625C72.723 7.51008 66.6809 6 59.9796 6C53.2784 6 47.2363 7.51008 42.8872 9.92625ZM42.4015 9.0521C46.9254 6.53884 53.1412 5 59.9796 5C66.8181 5 73.0339 6.53884 77.5578 9.0521C82.0647 11.5559 84.9955 15.0948 84.9955 19.1199L84.9956 32.7398L84.9955 32.7736L84.9956 46.3597L84.9955 46.3935V59.9796H83.9955V50.3474C82.7743 52.7139 80.5025 54.7916 77.5579 56.4275C73.034 58.9408 66.8182 60.4796 59.9797 60.4796C58.286 60.4796 56.6313 60.3853 55.0317 60.2053L55.0317 70.8754C55.0317 71.5279 54.9547 72.1676 54.8064 72.7921C56.4725 72.9934 58.2035 73.0995 59.9798 73.0995C66.681 73.0995 72.7231 71.5895 77.0723 69.1733C81.4383 66.7477 83.9956 63.4766 83.9956 59.9796H84.9956C84.9956 64.0047 82.0648 67.5436 77.5579 70.0474C73.034 72.5607 66.8182 74.0995 59.9798 74.0995C58.1028 74.0995 56.2738 73.9836 54.5146 73.7638C53.4859 76.5873 50.9865 79.0585 47.594 80.9432C43.0701 83.4565 36.8543 84.9953 30.0159 84.9953C23.1774 84.9953 16.9616 83.4565 12.4377 80.9432C7.9308 78.4394 5.00004 74.9005 5.00004 70.8754V57.2555V43.6602L5 43.6357C5 39.6106 7.93077 36.0717 12.4377 33.5679C16.9616 31.0546 23.1773 29.5158 30.0158 29.5158C31.7087 29.5158 33.3635 29.6101 34.9638 29.7901V19.1199L34.9638 19.1199C34.9638 15.0948 37.8946 11.5559 42.4015 9.0521ZM55.0317 59.1988C56.6284 59.3828 58.2834 59.4796 59.9797 59.4796C66.681 59.4796 72.7231 57.9696 77.0722 55.5534C81.4252 53.1351 83.9802 49.8763 83.9955 46.3911V36.7275C82.7743 39.094 80.5025 41.1717 77.5579 42.8076C73.034 45.3209 66.8182 46.8597 59.9797 46.8597C58.286 46.8597 56.6313 46.7654 55.0317 46.5854V59.1988ZM54.0317 47.623V57.2555H54.0317C54.0317 60.7525 51.4744 64.0236 47.1083 66.4492C42.7592 68.8653 36.7171 70.3754 30.0159 70.3754C23.3146 70.3754 17.2725 68.8653 12.9234 66.4492C8.55732 64.0236 6.00004 60.7525 6.00004 57.2555V47.6233C7.22121 49.9898 9.49303 52.0675 12.4377 53.7035C16.9616 56.2167 23.1773 57.7556 30.0158 57.7556C36.8543 57.7556 43.0701 56.2167 47.5939 53.7035C50.5387 52.0675 52.8106 49.9897 54.0317 47.623ZM55.0317 45.5789V43.6356H55.0316C55.0316 39.6106 52.1008 36.0717 47.5939 33.5679C44.4249 31.8073 40.4257 30.5249 35.9638 29.9147V23.1074C37.185 25.474 39.4568 27.5518 42.4015 29.1877C46.9254 31.701 53.1412 33.2398 59.9796 33.2398C66.8181 33.2398 73.0339 31.701 77.5578 29.1877C80.5025 27.5517 82.7743 25.4739 83.9955 23.1073V32.7712C83.9802 36.2564 81.4252 39.5152 77.0722 41.9335C72.7231 44.3497 66.681 45.8597 59.9797 45.8597C58.2834 45.8597 56.6284 45.7629 55.0317 45.5789ZM54.0317 61.243L54.0317 70.8754C54.0317 74.3724 51.4744 77.6435 47.1083 80.0691C42.7592 82.4852 36.7171 83.9953 30.0159 83.9953C23.3146 83.9953 17.2725 82.4852 12.9234 80.0691C8.55732 77.6435 6.00004 74.3724 6.00004 70.8754V61.243C7.2212 63.6096 9.49304 65.6874 12.4377 67.3233C16.9616 69.8366 23.1774 71.3754 30.0159 71.3754C36.8543 71.3754 43.0701 69.8366 47.594 67.3233C50.5387 65.6874 52.8105 63.6095 54.0317 61.243ZM12.9233 52.8293C8.56679 50.409 6.01114 47.1469 6.00004 43.6585V43.6356H6C6.00003 40.1386 8.55731 36.8676 12.9233 34.442C17.2725 32.0259 23.3146 30.5158 30.0158 30.5158C36.7171 30.5158 42.7592 32.0259 47.1083 34.442C51.4743 36.8676 54.0316 40.1387 54.0316 43.6357C54.0316 47.1327 51.4743 50.4037 47.1083 52.8293C42.7592 55.2455 36.7171 56.7556 30.0158 56.7556C23.3146 56.7556 17.2725 55.2455 12.9233 52.8293Z" fill="url(#paint0_linear_429_3989)"/>
<g opacity="0.5" filter="url(#filter0_f_429_3989)">
<ellipse cx="59.9797" cy="19.1199" rx="24.5158" ry="13.6199" stroke="#0038FF" stroke-width="3"/>
<path d="M84.4956 32.7398C84.4956 40.2619 73.5195 46.3597 59.9798 46.3597C58.1073 46.3597 56.2839 46.2431 54.5318 46.0222" stroke="#0038FF" stroke-width="3"/>
<path d="M84.4956 46.3597C84.4956 53.8818 73.5195 59.9796 59.9798 59.9796C58.1073 59.9796 56.2839 59.863 54.5318 59.6421" stroke="#0038FF" stroke-width="3"/>
<path d="M84.4956 59.9796C84.4956 67.5017 73.5195 73.5995 59.9798 73.5995C58.0007 73.5995 56.0763 73.4693 54.233 73.2233" stroke="#0038FF" stroke-width="3"/>
<path d="M35.4639 19.1199V30.2287" stroke="#0038FF" stroke-width="3"/>
<path d="M84.4955 19.1199V59.9796" stroke="#0038FF" stroke-width="3"/>
<ellipse cx="30.0158" cy="43.6358" rx="24.5158" ry="13.6199" stroke="#0038FF" stroke-width="3"/>
<path d="M54.5317 57.2556C54.5317 64.7777 43.5556 70.8755 30.0159 70.8755C16.4762 70.8755 5.50006 64.7777 5.50006 57.2556" stroke="#0038FF" stroke-width="3"/>
<path d="M54.5317 70.8755C54.5317 78.3976 43.5556 84.4954 30.0159 84.4954C16.4762 84.4954 5.50006 78.3976 5.50006 70.8755" stroke="#0038FF" stroke-width="3"/>
<path d="M5.50006 43.6357V70.8755" stroke="#0038FF" stroke-width="3"/>
<path d="M54.5317 43.6357V70.8755" stroke="#0038FF" stroke-width="3"/>
<g opacity="0.8" filter="url(#filter1_f_429_3989)">
<path d="M5 34C5.82843 34 6.00002 51.8726 6.00002 58.5C6.00002 65.1274 5.8284 66.5 4.99998 66.5C4.17155 66.5 4 65.6274 4 59C4 52.3726 4.17157 34 5 34Z" fill="#01EDFF"/>
</g>
<g filter="url(#filter2_f_429_3989)">
<circle cx="35" cy="18" r="2" fill="#01EDFF"/>
</g>
</g>
<defs>
<filter id="filter0_f_429_3989" x="0" y="0" width="89.9957" height="89.9954" filterUnits="userSpaceOnUse" color-interpolation-filters="sRGB">
<feFlood flood-opacity="0" result="BackgroundImageFix"/>
<feBlend mode="normal" in="SourceGraphic" in2="BackgroundImageFix" result="shape"/>
<feGaussianBlur stdDeviation="2" result="effect1_foregroundBlur_429_3989"/>
</filter>
<filter id="filter1_f_429_3989" x="0" y="30" width="10" height="40.5" filterUnits="userSpaceOnUse" color-interpolation-filters="sRGB">
<feFlood flood-opacity="0" result="BackgroundImageFix"/>
<feBlend mode="normal" in="SourceGraphic" in2="BackgroundImageFix" result="shape"/>
<feGaussianBlur stdDeviation="2" result="effect1_foregroundBlur_429_3989"/>
</filter>
<filter id="filter2_f_429_3989" x="29" y="12" width="12" height="12" filterUnits="userSpaceOnUse" color-interpolation-filters="sRGB">
<feFlood flood-opacity="0" result="BackgroundImageFix"/>
<feBlend mode="normal" in="SourceGraphic" in2="BackgroundImageFix" result="shape"/>
<feGaussianBlur stdDeviation="2" result="effect1_foregroundBlur_429_3989"/>
</filter>
<linearGradient id="paint0_linear_429_3989" x1="44.8878" y1="6.15952" x2="44.8878" y2="84.3922" gradientUnits="userSpaceOnUse">
<stop stop-color="#01E5FF"/>
<stop offset="0.9999" stop-color="#017AF2"/>
<stop offset="1" stop-color="#41889E"/>
</linearGradient>
</defs>
</svg>
