<svg width="80" height="80" viewBox="0 0 80 80" fill="none" xmlns="http://www.w3.org/2000/svg">
<g clip-path="url(#clip0_595_7100)">
<path fill-rule="evenodd" clip-rule="evenodd" d="M76.96 38.48C76.96 50.0263 71.5958 60.3197 63.2235 67.0041C66.096 67.1093 68.4529 69.2337 68.917 72C68.9204 72.0202 68.9237 72.0405 68.9269 72.0608C72.0271 72.471 74.4871 74.91 74.9291 78C74.9758 78.3266 75 78.6605 75 79H74H7H6C6 78.6605 6.02417 78.3266 6.07089 78C6.51288 74.91 8.9729 72.471 12.0731 72.0608C12.0763 72.0405 12.0796 72.0202 12.083 72C12.545 69.2459 14.8832 67.1281 17.7384 67.0056C9.36504 60.3213 4 50.0272 4 38.48C4 18.3327 20.3327 2 40.48 2C47.226 2 53.5444 3.83112 58.9651 7.02345L58.3608 7.82846C53.1104 4.75903 47.0006 3 40.48 3C20.8849 3 5 18.8849 5 38.48C5 50.1678 10.6515 60.5357 19.3708 67H25.2615C15.5012 61.7809 8.7329 51.6981 8.19462 39.9894L8.00023 39.9827C8.02493 39.2664 8.08066 38.5644 8.1655 37.8777C8.29055 31.0348 10.5423 24.7115 14.2877 19.5408L15.0457 20.1992C12.6412 23.5388 10.8781 27.3712 9.93702 31.5159C11.4815 28.1197 13.8308 25.4171 16.5746 23.6641C21.337 20.6213 27.2877 20.4508 32.1594 24.4952C36.5407 28.1326 37.3739 32.2189 36.5049 35.6798C35.6496 39.0865 33.154 41.8476 30.9394 42.9293C26.6573 45.0208 22.1246 42.8257 20.3493 39.6861C19.4841 38.1559 19.2289 35.9174 19.9714 34.0594C20.3469 33.12 20.981 32.2705 21.9256 31.6699C22.8699 31.0696 24.0926 30.7379 25.6139 30.7802L25.5861 31.7798C24.2273 31.7421 23.2093 32.0387 22.4621 32.5138C21.7153 32.9886 21.2073 33.6617 20.9 34.4305C20.2771 35.9892 20.4942 37.9108 21.2198 39.1939C22.775 41.9441 26.7636 43.8559 30.5006 42.0307C32.446 41.0806 34.7504 38.5617 35.535 35.4363C36.3061 32.3652 35.6193 28.6673 31.5206 25.2646C27.0225 21.5303 21.5533 21.6698 17.113 24.5068C13.1037 27.0684 9.9336 31.8387 9.16443 37.9479C9.16148 38.1249 9.16 38.3023 9.16 38.48C9.16 51.1543 16.6884 62.0702 27.5173 67H53.4427C57.5481 65.1311 61.1791 62.4018 64.1053 59.0425L64.8912 59.6627C62.3108 62.6339 59.1968 65.1294 55.6985 67H61.5892C70.3085 60.5357 75.96 50.1678 75.96 38.48C75.96 27.2441 70.7372 17.2281 62.5868 10.7272L63.1875 9.92717C71.5804 16.6107 76.96 26.9171 76.96 38.48ZM67.9345 55.5421C71.0185 50.5902 72.8 44.7432 72.8 38.48C72.8 20.6302 58.3298 6.16 40.48 6.16C31.5462 6.16 23.459 9.78474 17.6089 15.6438L18.3657 16.3012C24.031 10.6523 31.8476 7.16 40.48 7.16C48.5832 7.16 55.9676 10.2373 61.5285 15.2869L61.5166 15.2956C64.7208 19.6649 65.2064 25.5306 65.3877 28.378C64.2281 28.4405 63.3272 28.925 62.6837 29.51C61.9575 30.1701 61.5338 30.9813 61.4297 31.5019C61.3428 31.9367 61.2007 32.8185 61.641 33.8382C62.0528 34.7918 62.9401 35.7911 64.6744 36.6638C64.3975 37.5014 63.8178 39.0069 62.9678 40.585C61.5828 40.1135 60.3937 39.9924 59.3783 40.1437C58.258 40.3105 57.38 40.8045 56.7116 41.4687C55.7506 42.4236 55.2366 43.7132 55.0069 44.8695C53.1634 42.7923 50.6967 41.3095 48.1085 40.8251C45.1295 40.2674 42.0005 41.038 39.54 43.7173C36.6836 46.8278 36.4208 49.8615 37.3619 52.281C38.2827 54.6484 40.3348 56.3692 42.0215 56.9647C45.3079 58.125 48.3963 56.1286 49.4081 53.6866C49.9048 52.488 49.8955 50.8289 49.1929 49.5292C48.8363 48.8695 48.2962 48.2948 47.5478 47.9316C46.7996 47.5684 45.8775 47.4332 44.7829 47.5944L44.9286 48.5837C45.8608 48.4464 46.5741 48.5705 47.1112 48.8312C47.6481 49.0918 48.0433 49.5054 48.3132 50.0048C48.8638 51.0233 48.8729 52.3658 48.4843 53.3038C47.6427 55.3349 45.0617 56.9776 42.3544 56.0218C40.9319 55.5195 39.1051 54.0041 38.2939 51.9185C37.5029 49.8849 37.6549 47.2485 40.2766 44.3937C42.4855 41.9883 45.2574 41.3088 47.9245 41.808C50.6101 42.3107 53.1996 44.0143 54.9577 46.3955L55.801 47.5376L55.8596 46.1191C55.9101 44.8956 56.3448 43.2429 57.4164 42.178C57.9427 41.6551 58.6286 41.2663 59.5256 41.1328C60.4288 40.9982 61.5762 41.1183 63.0225 41.6675L63.4248 41.8202L63.6358 41.4451C64.8087 39.3599 65.5378 37.3178 65.7608 36.5374L65.8788 36.1244L65.4884 35.9455C63.6466 35.1013 62.877 34.178 62.5591 33.4418C62.2394 32.7015 62.3372 32.0633 62.4103 31.6981C62.4662 31.4187 62.7625 30.7899 63.3563 30.25C63.932 29.7266 64.7636 29.3087 65.8888 29.379L66.4544 29.4144L66.419 28.8488L66.4057 28.6327C66.2771 26.5406 66.0078 22.1602 64.2247 18.0553C68.9459 23.539 71.8 30.6762 71.8 38.48C71.8 44.5091 70.0964 50.1403 67.1444 54.9185L67.9345 55.5421ZM73.917 78C73.441 75.1623 70.973 73 68 73H13C10.027 73 7.55904 75.1623 7.08296 78H73.917ZM13.1 72H67.9C67.4367 69.7178 65.419 68 63 68H18C15.581 68 13.5633 69.7178 13.1 72ZM47.16 14.96C47.16 15.7332 46.5332 16.36 45.76 16.36C44.9868 16.36 44.36 15.7332 44.36 14.96C44.36 14.1868 44.9868 13.56 45.76 13.56C46.5332 13.56 47.16 14.1868 47.16 14.96ZM48.16 14.96C48.16 16.2855 47.0855 17.36 45.76 17.36C44.4345 17.36 43.36 16.2855 43.36 14.96C43.36 13.6345 44.4345 12.56 45.76 12.56C47.0855 12.56 48.16 13.6345 48.16 14.96ZM37.6 13.48C37.5779 13.48 37.56 13.4979 37.56 13.52C37.56 13.5421 37.5779 13.56 37.6 13.56C37.6221 13.56 37.64 13.5421 37.64 13.52C37.64 13.4979 37.6221 13.48 37.6 13.48ZM37.6 14.48C38.1302 14.48 38.56 14.0502 38.56 13.52C38.56 12.9898 38.1302 12.56 37.6 12.56C37.0698 12.56 36.64 12.9898 36.64 13.52C36.64 14.0502 37.0698 14.48 37.6 14.48ZM45.88 34.96C45.88 34.9379 45.8979 34.92 45.92 34.92C45.9421 34.92 45.96 34.9379 45.96 34.96C45.96 34.9821 45.9421 35 45.92 35C45.8979 35 45.88 34.9821 45.88 34.96ZM46.88 34.96C46.88 35.4902 46.4502 35.92 45.92 35.92C45.3898 35.92 44.96 35.4902 44.96 34.96C44.96 34.4298 45.3898 34 45.92 34C46.4502 34 46.88 34.4298 46.88 34.96ZM58.4 30.12C58.3779 30.12 58.36 30.1379 58.36 30.16C58.36 30.1821 58.3779 30.2 58.4 30.2C58.4221 30.2 58.44 30.1821 58.44 30.16C58.44 30.1379 58.4221 30.12 58.4 30.12ZM58.4 31.12C58.9302 31.12 59.36 30.6902 59.36 30.16C59.36 29.6298 58.9302 29.2 58.4 29.2C57.8698 29.2 57.44 29.6298 57.44 30.16C57.44 30.6902 57.8698 31.12 58.4 31.12ZM26.36 17.36C26.36 17.3379 26.3779 17.32 26.4 17.32C26.4221 17.32 26.44 17.3379 26.44 17.36C26.44 17.3821 26.4221 17.4 26.4 17.4C26.3779 17.4 26.36 17.3821 26.36 17.36ZM27.36 17.36C27.36 17.8902 26.9302 18.32 26.4 18.32C25.8698 18.32 25.44 17.8902 25.44 17.36C25.44 16.8298 25.8698 16.4 26.4 16.4C26.9302 16.4 27.36 16.8298 27.36 17.36ZM53.643 21.4974L53.12 17.3994L52.597 21.4974C52.499 22.2655 51.9663 22.9081 51.2297 23.1468L49.1314 23.8268L51.116 24.356C51.9184 24.57 52.5051 25.2576 52.5901 26.0837L53.12 31.2322L53.6499 26.0837C53.7349 25.2576 54.3216 24.57 55.124 24.356L57.1086 23.8268L55.0103 23.1468C54.2737 22.9081 53.741 22.2655 53.643 21.4974ZM54.112 17.2728C53.9633 16.1082 52.2767 16.1082 52.128 17.2728L51.6051 21.3708C51.556 21.7549 51.2897 22.0761 50.9214 22.1955L48.8231 22.8755C47.875 23.1827 47.9107 24.5362 48.8737 24.793L50.8583 25.3222C51.2595 25.4292 51.5529 25.773 51.5954 26.1861L52.1253 31.3346C52.2484 32.5314 53.9916 32.5314 54.1147 31.3346L54.6446 26.1861C54.6871 25.773 54.9805 25.4292 55.3817 25.3222L57.3663 24.793C58.3293 24.5362 58.365 23.1827 57.4169 22.8755L55.3186 22.1955C54.9503 22.0761 54.684 21.7549 54.6349 21.3708L54.112 17.2728Z" fill="url(#paint0_linear_595_7100)"/>
<g opacity="0.5" filter="url(#filter0_f_595_7100)">
<mask id="path-2-outside-1_595_7100" maskUnits="userSpaceOnUse" x="3" y="1" width="75" height="79" fill="black">
<rect fill="white" x="3" y="1" width="75" height="79"/>
<path fill-rule="evenodd" clip-rule="evenodd" d="M76.96 38.48C76.96 50.0263 71.5958 60.3197 63.2235 67.0041C66.096 67.1093 68.4529 69.2337 68.917 72C68.9204 72.0202 68.9237 72.0405 68.9269 72.0608C72.0271 72.471 74.4871 74.91 74.9291 78C74.9758 78.3266 75 78.6605 75 79H74H7H6C6 78.6605 6.02417 78.3266 6.07089 78C6.51288 74.91 8.9729 72.471 12.0731 72.0608C12.0763 72.0405 12.0796 72.0202 12.083 72C12.545 69.2459 14.8832 67.1281 17.7384 67.0056C9.36504 60.3213 4 50.0272 4 38.48C4 18.3327 20.3327 2 40.48 2C47.226 2 53.5444 3.83112 58.9651 7.02345L58.3608 7.82846C53.1104 4.75903 47.0006 3 40.48 3C20.8849 3 5 18.8849 5 38.48C5 50.1678 10.6515 60.5357 19.3708 67H25.2615C15.5012 61.7809 8.7329 51.6981 8.19462 39.9894L8.00023 39.9827C8.02493 39.2664 8.08066 38.5644 8.1655 37.8777C8.29055 31.0348 10.5423 24.7115 14.2877 19.5408L15.0457 20.1992C12.6412 23.5388 10.8781 27.3712 9.93702 31.5159C11.4815 28.1197 13.8308 25.4171 16.5746 23.6641C21.337 20.6213 27.2877 20.4508 32.1594 24.4952C36.5407 28.1326 37.3739 32.2189 36.5049 35.6798C35.6496 39.0865 33.154 41.8476 30.9394 42.9293C26.6573 45.0208 22.1246 42.8257 20.3493 39.6861C19.4841 38.1559 19.2289 35.9174 19.9714 34.0594C20.3469 33.12 20.981 32.2705 21.9256 31.6699C22.8699 31.0696 24.0926 30.7379 25.6139 30.7802L25.5861 31.7798C24.2273 31.7421 23.2093 32.0387 22.4621 32.5138C21.7153 32.9886 21.2073 33.6617 20.9 34.4305C20.2771 35.9892 20.4942 37.9108 21.2198 39.1939C22.775 41.9441 26.7636 43.8559 30.5006 42.0307C32.446 41.0806 34.7504 38.5617 35.535 35.4363C36.3061 32.3652 35.6193 28.6673 31.5206 25.2646C27.0225 21.5303 21.5533 21.6698 17.113 24.5068C13.1037 27.0684 9.9336 31.8387 9.16443 37.9479C9.16148 38.1249 9.16 38.3023 9.16 38.48C9.16 51.1543 16.6884 62.0702 27.5173 67H53.4427C57.5481 65.1311 61.1791 62.4018 64.1053 59.0425L64.8912 59.6627C62.3108 62.6339 59.1968 65.1294 55.6985 67H61.5892C70.3085 60.5357 75.96 50.1678 75.96 38.48C75.96 27.2441 70.7372 17.2281 62.5868 10.7272L63.1875 9.92717C71.5804 16.6107 76.96 26.9171 76.96 38.48ZM67.9345 55.5421C71.0185 50.5902 72.8 44.7432 72.8 38.48C72.8 20.6302 58.3298 6.16 40.48 6.16C31.5462 6.16 23.459 9.78474 17.6089 15.6438L18.3657 16.3012C24.031 10.6523 31.8476 7.16 40.48 7.16C48.5832 7.16 55.9676 10.2373 61.5285 15.2869L61.5166 15.2956C64.7208 19.6649 65.2064 25.5306 65.3877 28.378C64.2281 28.4405 63.3272 28.925 62.6837 29.51C61.9575 30.1701 61.5338 30.9813 61.4297 31.5019C61.3428 31.9367 61.2007 32.8185 61.641 33.8382C62.0528 34.7918 62.9401 35.7911 64.6744 36.6638C64.3975 37.5014 63.8178 39.0069 62.9678 40.585C61.5828 40.1135 60.3937 39.9924 59.3783 40.1437C58.258 40.3105 57.38 40.8045 56.7116 41.4687C55.7506 42.4236 55.2366 43.7132 55.0069 44.8695C53.1634 42.7923 50.6967 41.3095 48.1085 40.8251C45.1295 40.2674 42.0005 41.038 39.54 43.7173C36.6836 46.8278 36.4208 49.8615 37.3619 52.281C38.2827 54.6484 40.3348 56.3692 42.0215 56.9647C45.3079 58.125 48.3963 56.1286 49.4081 53.6866C49.9048 52.488 49.8955 50.8289 49.1929 49.5292C48.8363 48.8695 48.2962 48.2948 47.5478 47.9316C46.7996 47.5684 45.8775 47.4332 44.7829 47.5944L44.9286 48.5837C45.8608 48.4464 46.5741 48.5705 47.1112 48.8312C47.6481 49.0918 48.0433 49.5054 48.3132 50.0048C48.8638 51.0233 48.8729 52.3658 48.4843 53.3038C47.6427 55.3349 45.0617 56.9776 42.3544 56.0218C40.9319 55.5195 39.1051 54.0041 38.2939 51.9185C37.5029 49.8849 37.6549 47.2485 40.2766 44.3937C42.4855 41.9883 45.2574 41.3088 47.9245 41.808C50.6101 42.3107 53.1996 44.0143 54.9577 46.3955L55.801 47.5376L55.8596 46.1191C55.9101 44.8956 56.3448 43.2429 57.4164 42.178C57.9427 41.6551 58.6286 41.2663 59.5256 41.1328C60.4288 40.9982 61.5762 41.1183 63.0225 41.6675L63.4248 41.8202L63.6358 41.4451C64.8087 39.3599 65.5378 37.3178 65.7608 36.5374L65.8788 36.1244L65.4884 35.9455C63.6466 35.1013 62.877 34.178 62.5591 33.4418C62.2394 32.7015 62.3372 32.0633 62.4103 31.6981C62.4662 31.4187 62.7625 30.7899 63.3563 30.25C63.932 29.7266 64.7636 29.3087 65.8888 29.379L66.4544 29.4144L66.419 28.8488L66.4057 28.6327C66.2771 26.5406 66.0078 22.1602 64.2247 18.0553C68.9459 23.539 71.8 30.6762 71.8 38.48C71.8 44.5091 70.0964 50.1403 67.1444 54.9185L67.9345 55.5421ZM73.917 78C73.441 75.1623 70.973 73 68 73H13C10.027 73 7.55904 75.1623 7.08296 78H73.917ZM13.1 72H67.9C67.4367 69.7178 65.419 68 63 68H18C15.581 68 13.5633 69.7178 13.1 72ZM47.16 14.96C47.16 15.7332 46.5332 16.36 45.76 16.36C44.9868 16.36 44.36 15.7332 44.36 14.96C44.36 14.1868 44.9868 13.56 45.76 13.56C46.5332 13.56 47.16 14.1868 47.16 14.96ZM48.16 14.96C48.16 16.2855 47.0855 17.36 45.76 17.36C44.4345 17.36 43.36 16.2855 43.36 14.96C43.36 13.6345 44.4345 12.56 45.76 12.56C47.0855 12.56 48.16 13.6345 48.16 14.96ZM37.6 13.48C37.5779 13.48 37.56 13.4979 37.56 13.52C37.56 13.5421 37.5779 13.56 37.6 13.56C37.6221 13.56 37.64 13.5421 37.64 13.52C37.64 13.4979 37.6221 13.48 37.6 13.48ZM37.6 14.48C38.1302 14.48 38.56 14.0502 38.56 13.52C38.56 12.9898 38.1302 12.56 37.6 12.56C37.0698 12.56 36.64 12.9898 36.64 13.52C36.64 14.0502 37.0698 14.48 37.6 14.48ZM45.88 34.96C45.88 34.9379 45.8979 34.92 45.92 34.92C45.9421 34.92 45.96 34.9379 45.96 34.96C45.96 34.9821 45.9421 35 45.92 35C45.8979 35 45.88 34.9821 45.88 34.96ZM46.88 34.96C46.88 35.4902 46.4502 35.92 45.92 35.92C45.3898 35.92 44.96 35.4902 44.96 34.96C44.96 34.4298 45.3898 34 45.92 34C46.4502 34 46.88 34.4298 46.88 34.96ZM58.4 30.12C58.3779 30.12 58.36 30.1379 58.36 30.16C58.36 30.1821 58.3779 30.2 58.4 30.2C58.4221 30.2 58.44 30.1821 58.44 30.16C58.44 30.1379 58.4221 30.12 58.4 30.12ZM58.4 31.12C58.9302 31.12 59.36 30.6902 59.36 30.16C59.36 29.6298 58.9302 29.2 58.4 29.2C57.8698 29.2 57.44 29.6298 57.44 30.16C57.44 30.6902 57.8698 31.12 58.4 31.12ZM26.36 17.36C26.36 17.3379 26.3779 17.32 26.4 17.32C26.4221 17.32 26.44 17.3379 26.44 17.36C26.44 17.3821 26.4221 17.4 26.4 17.4C26.3779 17.4 26.36 17.3821 26.36 17.36ZM27.36 17.36C27.36 17.8902 26.9302 18.32 26.4 18.32C25.8698 18.32 25.44 17.8902 25.44 17.36C25.44 16.8298 25.8698 16.4 26.4 16.4C26.9302 16.4 27.36 16.8298 27.36 17.36ZM53.643 21.4974L53.12 17.3994L52.597 21.4974C52.499 22.2655 51.9663 22.9081 51.2297 23.1468L49.1314 23.8268L51.116 24.356C51.9184 24.57 52.5051 25.2576 52.5901 26.0837L53.12 31.2322L53.6499 26.0837C53.7349 25.2576 54.3216 24.57 55.124 24.356L57.1086 23.8268L55.0103 23.1468C54.2737 22.9081 53.741 22.2655 53.643 21.4974ZM54.112 17.2728C53.9633 16.1082 52.2767 16.1082 52.128 17.2728L51.6051 21.3708C51.556 21.7549 51.2897 22.0761 50.9214 22.1955L48.8231 22.8755C47.875 23.1827 47.9107 24.5362 48.8737 24.793L50.8583 25.3222C51.2595 25.4292 51.5529 25.773 51.5954 26.1861L52.1253 31.3346C52.2484 32.5314 53.9916 32.5314 54.1147 31.3346L54.6446 26.1861C54.6871 25.773 54.9805 25.4292 55.3817 25.3222L57.3663 24.793C58.3293 24.5362 58.365 23.1827 57.4169 22.8755L55.3186 22.1955C54.9503 22.0761 54.684 21.7549 54.6349 21.3708L54.112 17.2728Z"/>
</mask>
<path d="M63.2235 67.0041L62.5996 66.2226L60.4927 67.9048L63.1869 68.0034L63.2235 67.0041ZM68.917 72L69.9033 71.8346V71.8345L68.917 72ZM68.9269 72.0608L67.9391 72.2163L68.0552 72.9542L68.7958 73.0522L68.9269 72.0608ZM74.9291 78L75.919 77.8584V77.8584L74.9291 78ZM75 79V80H76V79H75ZM6 79H5V80H6V79ZM6.07089 78L7.06081 78.1416L7.06081 78.1416L6.07089 78ZM12.0731 72.0608L12.2042 73.0522L12.9449 72.9542L13.0609 72.2161L12.0731 72.0608ZM12.083 72L13.0692 72.1655L13.0692 72.1655L12.083 72ZM17.7384 67.0056L17.7813 68.0047L20.4494 67.8902L18.3623 66.2241L17.7384 67.0056ZM58.9651 7.02345L59.7648 7.62383L60.4364 6.72935L59.4726 6.16177L58.9651 7.02345ZM58.3608 7.82846L57.8561 8.69175L58.6254 9.14153L59.1605 8.42884L58.3608 7.82846ZM19.3708 67L18.7752 67.8033L19.0405 68H19.3708V67ZM25.2615 67V68L25.733 66.1182L25.2615 67ZM8.19462 39.9894L9.19357 39.9435L9.1512 39.0218L8.22908 38.99L8.19462 39.9894ZM8.00023 39.9827L7.00082 39.9483L6.96636 40.9477L7.96577 40.9821L8.00023 39.9827ZM8.1655 37.8777L9.15795 38.0003L9.16438 37.9484L9.16533 37.896L8.1655 37.8777ZM14.2877 19.5408L14.9434 18.7858L14.1186 18.0694L13.4778 18.9541L14.2877 19.5408ZM15.0457 20.1992L15.8573 20.7835L16.3906 20.0428L15.7015 19.4442L15.0457 20.1992ZM9.93702 31.5159L8.96184 31.2945L10.8473 31.9299L9.93702 31.5159ZM16.5746 23.6641L17.113 24.5068L16.5746 23.6641ZM32.1594 24.4952L32.7981 23.7258L32.1594 24.4952ZM36.5049 35.6798L35.535 35.4363L36.5049 35.6798ZM30.9394 42.9293L31.3783 43.8278V43.8278L30.9394 42.9293ZM20.3493 39.6861L21.2198 39.1939L20.3493 39.6861ZM19.9714 34.0594L20.9 34.4305L19.9714 34.0594ZM21.9256 31.6699L22.4621 32.5138L22.4621 32.5138L21.9256 31.6699ZM25.6139 30.7802L26.6135 30.808L26.6413 29.8083L25.6416 29.7806L25.6139 30.7802ZM25.5861 31.7798L25.5583 32.7794L26.558 32.8072L26.5857 31.8076L25.5861 31.7798ZM22.4621 32.5138L21.9256 31.6699H21.9256L22.4621 32.5138ZM20.9 34.4305L21.8286 34.8017L20.9 34.4305ZM21.2198 39.1939L22.0903 38.7017L21.2198 39.1939ZM30.5006 42.0307L30.0617 41.1322H30.0617L30.5006 42.0307ZM35.535 35.4363L34.5652 35.1928L35.535 35.4363ZM31.5206 25.2646L30.8819 26.034L31.5206 25.2646ZM17.113 24.5068L17.6514 25.3494L17.113 24.5068ZM9.16443 37.9479L8.17226 37.8229L8.16547 37.8769L8.16457 37.9312L9.16443 37.9479ZM27.5173 67L27.103 67.9101L27.3004 68H27.5173V67ZM53.4427 67V68H53.6596L53.857 67.9101L53.4427 67ZM64.1053 59.0425L64.7248 58.2575L63.977 57.6674L63.3513 58.3857L64.1053 59.0425ZM64.8912 59.6627L65.6462 60.3184L66.3336 59.527L65.5107 58.8777L64.8912 59.6627ZM55.6985 67L55.227 66.1182L55.6985 68V67ZM61.5892 67V68H61.9195L62.1848 67.8033L61.5892 67ZM62.5868 10.7272L61.7871 10.1269L61.2041 10.9035L61.9632 11.509L62.5868 10.7272ZM63.1875 9.92717L63.8104 9.1449L63.0055 8.50393L62.3877 9.32679L63.1875 9.92717ZM67.9345 55.5421L67.3151 56.3271L68.1925 57.0195L68.7834 56.0707L67.9345 55.5421ZM17.6089 15.6438L16.9012 14.9372L16.1438 15.6958L16.9531 16.3988L17.6089 15.6438ZM18.3657 16.3012L17.71 17.0561L18.4127 17.6665L19.0718 17.0093L18.3657 16.3012ZM61.5285 15.2869L62.1199 16.0934L63.1069 15.3695L62.2007 14.5466L61.5285 15.2869ZM61.5166 15.2956L60.9253 14.4892L60.1189 15.0806L60.7102 15.887L61.5166 15.2956ZM65.3877 28.378L65.4415 29.3766L66.4499 29.3223L66.3857 28.3145L65.3877 28.378ZM62.6837 29.51L62.011 28.7701V28.7701L62.6837 29.51ZM61.4297 31.5019L62.4103 31.6981L62.4103 31.698L61.4297 31.5019ZM61.641 33.8382L62.5591 33.4418H62.559L61.641 33.8382ZM64.6744 36.6638L65.6239 36.9777L65.8947 36.1583L65.1239 35.7705L64.6744 36.6638ZM62.9678 40.585L62.6455 41.5316L63.4468 41.8044L63.8482 41.0592L62.9678 40.585ZM59.3783 40.1437L59.231 39.1546L59.3783 40.1437ZM56.7116 41.4687L56.0067 40.7593H56.0067L56.7116 41.4687ZM55.0069 44.8695L54.259 45.5332L55.5955 47.0392L55.9878 45.0643L55.0069 44.8695ZM48.1085 40.8251L47.9245 41.808L48.1085 40.8251ZM39.54 43.7173L40.2766 44.3937L40.2766 44.3937L39.54 43.7173ZM37.3619 52.281L36.4299 52.6435L37.3619 52.281ZM42.0215 56.9647L41.6886 57.9077H41.6886L42.0215 56.9647ZM49.4081 53.6866L48.4843 53.3038L49.4081 53.6866ZM49.1929 49.5292L48.3132 50.0048V50.0048L49.1929 49.5292ZM47.5478 47.9316L47.9845 47.0319L47.5478 47.9316ZM44.7829 47.5944L44.6372 46.6051L43.6478 46.7508L43.7936 47.7401L44.7829 47.5944ZM44.9286 48.5837L43.9393 48.7295L44.085 49.7188L45.0744 49.573L44.9286 48.5837ZM47.1112 48.8312L47.5478 47.9316H47.5478L47.1112 48.8312ZM48.3132 50.0048L47.4335 50.4803V50.4803L48.3132 50.0048ZM48.4843 53.3038L47.5604 52.921V52.921L48.4843 53.3038ZM42.3544 56.0218L42.0215 56.9647L42.3544 56.0218ZM38.2939 51.9185L39.2259 51.556V51.556L38.2939 51.9185ZM40.2766 44.3937L39.54 43.7173L40.2766 44.3937ZM47.9245 41.808L47.7405 42.7909L47.9245 41.808ZM54.9577 46.3955L55.7622 45.8015L54.9577 46.3955ZM55.801 47.5376L54.9965 48.1316L56.6831 50.4158L56.8002 47.5788L55.801 47.5376ZM55.8596 46.1191L56.8587 46.1603L55.8596 46.1191ZM57.4164 42.178L56.7116 41.4687H56.7116L57.4164 42.178ZM59.5256 41.1328L59.3783 40.1437H59.3783L59.5256 41.1328ZM63.0225 41.6675L62.6675 42.6023H62.6675L63.0225 41.6675ZM63.4248 41.8202L63.0698 42.7551L63.8744 43.0606L64.2964 42.3105L63.4248 41.8202ZM63.6358 41.4451L62.7642 40.9549L63.6358 41.4451ZM65.7608 36.5374L66.7223 36.8121V36.8121L65.7608 36.5374ZM65.8788 36.1244L66.8403 36.3991L67.0763 35.5732L66.2954 35.2153L65.8788 36.1244ZM65.4884 35.9455L65.0717 36.8545L65.0717 36.8545L65.4884 35.9455ZM62.5591 33.4418L63.4771 33.0453L63.4771 33.0453L62.5591 33.4418ZM62.4103 31.6981L63.3909 31.8942V31.8942L62.4103 31.6981ZM63.3563 30.25L62.6837 29.51V29.51L63.3563 30.25ZM65.8888 29.379L65.9512 28.381L65.8888 29.379ZM66.4544 29.4144L66.392 30.4124L67.5231 30.4831L67.4524 29.352L66.4544 29.4144ZM66.419 28.8488L65.4209 28.9105L65.421 28.9112L66.419 28.8488ZM66.4057 28.6327L65.4076 28.694L65.4076 28.6944L66.4057 28.6327ZM64.2247 18.0553L64.9825 17.4029L63.3074 18.4537L64.2247 18.0553ZM67.1444 54.9185L66.2937 54.393L65.8251 55.1513L66.5249 55.7036L67.1444 54.9185ZM73.917 78V79H75.0988L74.9033 77.8345L73.917 78ZM7.08296 78L6.09674 77.8345L5.90121 79H7.08296V78ZM67.9 72V73H69.1234L68.88 71.8011L67.9 72ZM13.1 72L12.12 71.8011L11.8766 73H13.1V72ZM53.12 17.3994L54.112 17.2728H52.128L53.12 17.3994ZM53.643 21.4974L52.651 21.624V21.624L53.643 21.4974ZM52.597 21.4974L53.589 21.624V21.624L52.597 21.4974ZM51.2297 23.1468L50.9214 22.1955H50.9214L51.2297 23.1468ZM49.1314 23.8268L48.8231 22.8755L45.6 23.92L48.8737 24.793L49.1314 23.8268ZM51.116 24.356L51.3736 23.3898H51.3736L51.116 24.356ZM52.5901 26.0837L51.5954 26.1861L52.5901 26.0837ZM53.12 31.2322L52.1253 31.3346H54.1147L53.12 31.2322ZM53.6499 26.0837L54.6446 26.1861L53.6499 26.0837ZM55.124 24.356L54.8664 23.3898H54.8664L55.124 24.356ZM57.1086 23.8268L57.3663 24.793L60.64 23.92L57.4169 22.8755L57.1086 23.8268ZM55.0103 23.1468L55.3186 22.1955H55.3186L55.0103 23.1468ZM52.128 17.2728L53.12 17.3994V17.3994L52.128 17.2728ZM54.112 17.2728L53.12 17.3994L54.112 17.2728ZM51.6051 21.3708L50.6131 21.2442V21.2442L51.6051 21.3708ZM50.9214 22.1955L50.6131 21.2442H50.6131L50.9214 22.1955ZM48.8231 22.8755L49.1314 23.8268H49.1314L48.8231 22.8755ZM48.8737 24.793L49.1314 23.8268H49.1314L48.8737 24.793ZM50.8583 25.3222L50.6006 26.2885L50.6006 26.2885L50.8583 25.3222ZM51.5954 26.1861L52.5901 26.0837L51.5954 26.1861ZM52.1253 31.3346L51.1305 31.4369V31.4369L52.1253 31.3346ZM54.1147 31.3346L53.12 31.2322V31.2322L54.1147 31.3346ZM54.6446 26.1861L55.6394 26.2885L54.6446 26.1861ZM55.3817 25.3222L55.6394 26.2885L55.6394 26.2885L55.3817 25.3222ZM57.3663 24.793L57.1086 23.8268H57.1086L57.3663 24.793ZM57.4169 22.8755L57.7252 21.9242L57.4169 22.8755ZM55.3186 22.1955L55.6269 21.2442L55.6269 21.2442L55.3186 22.1955ZM54.6349 21.3708L53.643 21.4974V21.4974L54.6349 21.3708ZM63.8474 67.7856C72.4472 60.9196 77.96 50.3433 77.96 38.48H75.96C75.96 49.7093 70.7444 59.7198 62.5996 66.2226L63.8474 67.7856ZM69.9033 71.8345C69.3617 68.6062 66.613 66.1275 63.2601 66.0048L63.1869 68.0034C65.5789 68.091 67.5442 69.8612 67.9308 72.1655L69.9033 71.8345ZM69.9148 71.9053C69.911 71.8817 69.9072 71.8582 69.9033 71.8346L67.9308 72.1654C67.9337 72.1823 67.9364 72.1993 67.9391 72.2163L69.9148 71.9053ZM75.919 77.8584C75.4136 74.3252 72.6031 71.5385 69.0581 71.0695L68.7958 73.0522C71.4511 73.4035 73.5606 75.4948 73.9392 78.1416L75.919 77.8584ZM76 79C76 78.6129 75.9724 78.2318 75.919 77.8584L73.9392 78.1416C73.9792 78.4214 74 78.708 74 79H76ZM74 80H75V78H74V80ZM7 80H74V78H7V80ZM6 80H7V78H6V80ZM5.08096 77.8584C5.02756 78.2318 5 78.613 5 79H7C7 78.708 7.02078 78.4214 7.06081 78.1416L5.08096 77.8584ZM11.9419 71.0695C8.39693 71.5385 5.58636 74.3252 5.08096 77.8584L7.06081 78.1416C7.4394 75.4948 9.54887 73.4035 12.2042 73.0522L11.9419 71.0695ZM11.0967 71.8345C11.0928 71.8582 11.0889 71.8819 11.0852 71.9055L13.0609 72.2161C13.0636 72.1992 13.0664 72.1823 13.0692 72.1655L11.0967 71.8345ZM17.6955 66.0065C14.3627 66.1495 11.636 68.6205 11.0967 71.8345L13.0692 72.1655C13.454 69.8714 15.4037 68.1067 17.7813 68.0047L17.6955 66.0065ZM3 38.48C3 50.3442 8.51368 60.9212 17.1145 67.7871L18.3623 66.2241C10.2164 59.7214 5 49.7102 5 38.48H3ZM40.48 1C19.7804 1 3 17.7804 3 38.48H5C5 18.8849 20.8849 3 40.48 3V1ZM59.4726 6.16177C53.9023 2.88136 47.4093 1 40.48 1V3C47.0427 3 53.1865 4.78088 58.4577 7.88513L59.4726 6.16177ZM58.1654 6.42307L57.5611 7.22808L59.1605 8.42884L59.7648 7.62383L58.1654 6.42307ZM58.8655 6.96516C53.4662 3.80864 47.1828 2 40.48 2V4C46.8185 4 52.7547 5.70942 57.8561 8.69175L58.8655 6.96516ZM40.48 2C20.3327 2 4 18.3327 4 38.48H6C6 19.4372 21.4372 4 40.48 4V2ZM4 38.48C4 50.4979 9.81244 61.1585 18.7752 67.8033L19.9663 66.1967C11.4905 59.9129 6 49.8377 6 38.48H4ZM19.3708 68H25.2615V66H19.3708V68ZM25.733 66.1182C16.2723 61.0593 9.71507 51.2874 9.19357 39.9435L7.19568 40.0353C7.75072 52.1087 14.7301 62.5026 24.7899 67.8818L25.733 66.1182ZM8.22908 38.99L8.03469 38.9833L7.96577 40.9821L8.16016 40.9888L8.22908 38.99ZM8.99963 40.0172C9.02332 39.3302 9.07675 38.6575 9.15795 38.0003L7.17305 37.7551C7.08457 38.4712 7.02653 39.2027 7.00082 39.9483L8.99963 40.0172ZM9.16533 37.896C9.28653 31.2641 11.4681 25.138 15.0975 20.1274L13.4778 18.9541C9.61645 24.285 7.29458 30.8055 7.16567 37.8595L9.16533 37.896ZM15.7015 19.4442L14.9434 18.7858L13.6319 20.2957L14.39 20.9542L15.7015 19.4442ZM14.2342 19.6149C11.7531 23.0609 9.93324 27.0162 8.96184 31.2945L10.9122 31.7373C11.8229 27.7263 13.5292 24.0168 15.8573 20.7835L14.2342 19.6149ZM10.8473 31.9299C12.3172 28.6977 14.5425 26.1491 17.113 24.5068L16.0362 22.8214C13.119 24.6852 10.6458 27.5417 9.02673 31.102L10.8473 31.9299ZM17.113 24.5068C21.5536 21.6696 27.0228 21.5305 31.5206 25.2646L32.7981 23.7258C27.5526 19.371 21.1203 19.573 16.0362 22.8214L17.113 24.5068ZM31.5206 25.2646C35.6193 28.6674 36.3061 32.3653 35.535 35.4363L37.4748 35.9233C38.4417 32.0725 37.4621 27.5979 32.7981 23.7258L31.5206 25.2646ZM35.535 35.4363C34.7504 38.5617 32.4459 41.0806 30.5006 42.0307L31.3783 43.8278C33.8622 42.6147 36.5489 39.6112 37.4748 35.9233L35.535 35.4363ZM30.5006 42.0307C26.7648 43.8554 22.7756 41.9453 21.2198 39.1939L19.4789 40.1783C21.4736 43.706 26.5497 46.1862 31.3783 43.8278L30.5006 42.0307ZM21.2198 39.1939C20.4942 37.9107 20.2772 35.9891 20.9 34.4305L19.0428 33.6883C18.1806 35.8458 18.4739 38.4012 19.4789 40.1783L21.2198 39.1939ZM20.9 34.4305C21.2073 33.6616 21.7154 32.9886 22.4621 32.5138L21.3891 30.8261C20.2466 31.5525 19.4864 32.5783 19.0428 33.6883L20.9 34.4305ZM22.4621 32.5138C23.2093 32.0388 24.2273 31.7421 25.5861 31.7798L25.6416 29.7806C23.958 29.7338 22.5305 30.1004 21.3891 30.8261L22.4621 32.5138ZM24.6143 30.7524L24.5865 31.752L26.5857 31.8076L26.6135 30.808L24.6143 30.7524ZM25.6139 30.7802C24.0925 30.7379 22.8698 31.0696 21.9256 31.6699L22.9987 33.3577C23.5489 33.0079 24.3622 32.7462 25.5583 32.7794L25.6139 30.7802ZM21.9256 31.6699C20.9811 32.2705 20.3469 33.1198 19.9714 34.0594L21.8286 34.8017C22.0676 34.2036 22.4496 33.7068 22.9987 33.3577L21.9256 31.6699ZM19.9714 34.0594C19.2289 35.9173 19.484 38.1558 20.3493 39.6861L22.0903 38.7017C21.5045 37.6657 21.3253 36.0611 21.8286 34.8017L19.9714 34.0594ZM20.3493 39.6861C22.1254 42.827 26.6585 45.0201 30.9394 42.9293L30.0617 41.1322C26.8687 42.6917 23.4245 41.0612 22.0903 38.7017L20.3493 39.6861ZM30.9394 42.9293C33.154 41.8476 35.6496 39.0865 36.5049 35.6798L34.5652 35.1928C33.8511 38.0369 31.7379 40.3135 30.0617 41.1322L30.9394 42.9293ZM36.5049 35.6798C37.3739 32.219 36.5408 28.1327 32.1594 24.4952L30.8819 26.034C34.6977 29.2019 35.2384 32.5113 34.5652 35.1928L36.5049 35.6798ZM32.1594 24.4952C27.288 20.451 21.3373 20.6211 16.5746 23.6641L17.6514 25.3494C21.7692 22.7185 26.7571 22.6097 30.8819 26.034L32.1594 24.4952ZM16.5746 23.6641C12.2959 26.3978 8.97562 31.4422 8.17226 37.8229L10.1566 38.0728C10.8916 32.2352 13.9116 27.7389 17.6514 25.3494L16.5746 23.6641ZM8.16457 37.9312C8.16153 38.1138 8.16 38.2967 8.16 38.48H10.16C10.16 38.3078 10.1614 38.136 10.1643 37.9645L8.16457 37.9312ZM8.16 38.48C8.16 51.5605 15.9305 62.824 27.103 67.9101L27.9316 66.0899C17.4462 61.3165 10.16 50.7481 10.16 38.48H8.16ZM27.5173 68H53.4427V66H27.5173V68ZM53.857 67.9101C58.0941 65.9813 61.8404 63.165 64.8593 59.6993L63.3513 58.3857C60.5177 61.6386 57.0021 64.2809 53.0284 66.0899L53.857 67.9101ZM63.4858 59.8275L64.2718 60.4477L65.5107 58.8777L64.7248 58.2575L63.4858 59.8275ZM64.1362 59.007C61.635 61.887 58.6169 64.3055 55.227 66.1182L56.1701 67.8818C59.7768 65.9533 62.9865 63.3808 65.6462 60.3184L64.1362 59.007ZM55.6985 68H61.5892V66H55.6985V68ZM62.1848 67.8033C71.1476 61.1585 76.96 50.4979 76.96 38.48H74.96C74.96 49.8377 69.4695 59.9129 60.9937 66.1967L62.1848 67.8033ZM76.96 38.48C76.96 26.927 71.5884 16.6279 63.2104 9.94547L61.9632 11.509C69.8859 17.8283 74.96 27.5613 74.96 38.48H76.96ZM63.3865 11.3276L63.9872 10.5276L62.3877 9.32679L61.7871 10.1269L63.3865 11.3276ZM77.96 38.48C77.96 26.5997 72.4313 16.01 63.8104 9.1449L62.5645 10.7094C70.7294 17.2114 75.96 27.2346 75.96 38.48H77.96ZM71.8 38.48C71.8 44.5509 70.0737 50.2156 67.0857 55.0134L68.7834 56.0707C71.9632 50.9648 73.8 44.9354 73.8 38.48H71.8ZM40.48 7.16C57.7776 7.16 71.8 21.1824 71.8 38.48H73.8C73.8 20.0779 58.8821 5.16 40.48 5.16V7.16ZM18.3165 16.3503C23.9867 10.6715 31.8223 7.16 40.48 7.16V5.16C31.2701 5.16 22.9313 8.89799 16.9012 14.9372L18.3165 16.3503ZM16.9531 16.3988L17.71 17.0561L19.0215 15.5462L18.2646 14.8888L16.9531 16.3988ZM40.48 6.16C31.5723 6.16 23.5047 9.7649 17.6596 15.593L19.0718 17.0093C24.5572 11.5397 32.123 8.16 40.48 8.16V6.16ZM62.2007 14.5466C56.4631 9.33639 48.8413 6.16 40.48 6.16V8.16C48.3251 8.16 55.4722 11.1382 60.8562 16.0273L62.2007 14.5466ZM62.108 16.102L62.1199 16.0934L60.9371 14.4805L60.9253 14.4892L62.108 16.102ZM66.3857 28.3145C66.2053 25.4807 65.7194 19.3355 62.323 14.7043L60.7102 15.887C63.7223 19.9942 64.2076 25.5805 64.3898 28.4416L66.3857 28.3145ZM63.3563 30.25C63.8574 29.7944 64.5469 29.4248 65.4415 29.3766L65.334 27.3795C63.9094 27.4562 62.797 28.0555 62.011 28.7701L63.3563 30.25ZM62.4103 31.698C62.4661 31.4189 62.7623 30.79 63.3563 30.25L62.011 28.7701C61.1528 29.5503 60.6016 30.5436 60.4491 31.3058L62.4103 31.698ZM62.559 33.4418C62.2393 32.7014 62.3373 32.0632 62.4103 31.6981L60.4491 31.3058C60.3483 31.8101 60.162 32.9356 60.7229 34.2347L62.559 33.4418ZM65.1239 35.7705C63.5435 34.9753 62.8557 34.1287 62.5591 33.4418L60.7229 34.2347C61.2498 35.4548 62.3368 36.607 64.2249 37.5571L65.1239 35.7705ZM63.8482 41.0592C64.7307 39.4209 65.3322 37.8601 65.6239 36.9777L63.725 36.3499C63.4629 37.1427 62.905 38.593 62.0874 40.1107L63.8482 41.0592ZM59.5256 41.1328C60.3488 41.0102 61.3744 41.0989 62.6455 41.5316L63.2901 39.6383C61.7912 39.128 60.4387 38.9747 59.231 39.1546L59.5256 41.1328ZM57.4164 42.178C57.9427 41.6551 58.6287 41.2663 59.5256 41.1328L59.231 39.1546C57.8874 39.3547 56.8172 39.954 56.0067 40.7593L57.4164 42.178ZM55.9878 45.0643C56.1935 44.0285 56.6423 42.9472 57.4164 42.178L56.0067 40.7593C54.8588 41.9 54.2796 43.398 54.0261 44.6746L55.9878 45.0643ZM47.9245 41.808C50.27 42.247 52.5454 43.6024 54.259 45.5332L55.7548 44.2057C53.7815 41.9821 51.1233 40.372 48.2925 39.8421L47.9245 41.808ZM40.2766 44.3937C42.4854 41.9884 45.2573 41.3087 47.9245 41.808L48.2925 39.8421C45.0017 39.2262 41.5156 40.0876 38.8035 43.0409L40.2766 44.3937ZM38.2939 51.9185C37.503 49.8851 37.6547 47.2487 40.2766 44.3937L38.8035 43.0409C35.7125 46.4069 35.3386 49.8378 36.4299 52.6435L38.2939 51.9185ZM42.3544 56.0218C40.9318 55.5195 39.1051 54.0041 38.2939 51.9185L36.4299 52.6435C37.4604 55.2928 39.7379 57.219 41.6886 57.9077L42.3544 56.0218ZM48.4843 53.3038C47.6419 55.3368 45.0599 56.977 42.3544 56.0218L41.6886 57.9077C45.5558 59.273 49.1506 56.9204 50.332 54.0694L48.4843 53.3038ZM48.3132 50.0048C48.8637 51.0232 48.873 52.3657 48.4843 53.3038L50.332 54.0694C50.9365 52.6103 50.9272 50.6347 50.0726 49.0537L48.3132 50.0048ZM47.1112 48.8312C47.648 49.0918 48.0432 49.5053 48.3132 50.0048L50.0726 49.0537C49.6293 48.2336 48.9444 47.4979 47.9845 47.0319L47.1112 48.8312ZM44.9286 48.5837C45.8609 48.4464 46.5742 48.5706 47.1112 48.8312L47.9845 47.0319C47.025 46.5663 45.8941 46.4199 44.6372 46.6051L44.9286 48.5837ZM45.9179 48.438L45.7722 47.4487L43.7936 47.7401L43.9393 48.7295L45.9179 48.438ZM47.5478 47.9316C46.7997 47.5685 45.8777 47.4331 44.7829 47.5944L45.0744 49.573C45.844 49.4597 46.3485 49.5726 46.6745 49.7309L47.5478 47.9316ZM49.1929 49.5292C48.8362 48.8693 48.2961 48.2948 47.5478 47.9316L46.6745 49.7309C47.0001 49.8889 47.2504 50.1416 47.4335 50.4803L49.1929 49.5292ZM49.4081 53.6866C49.9048 52.4878 49.8954 50.8287 49.1929 49.5292L47.4335 50.4803C47.8322 51.2178 47.8411 52.2438 47.5604 52.921L49.4081 53.6866ZM42.0215 56.9647C45.3058 58.1242 48.3953 56.1309 49.4081 53.6866L47.5604 52.921C46.8901 54.5389 44.8176 55.8309 42.6873 55.0788L42.0215 56.9647ZM37.3619 52.281C38.2827 54.6484 40.3348 56.3692 42.0215 56.9647L42.6873 55.0788C41.5289 54.6698 39.9275 53.3598 39.2259 51.556L37.3619 52.281ZM39.54 43.7173C36.6834 46.828 36.4209 49.8617 37.3619 52.281L39.2259 51.556C38.5849 49.908 38.6265 47.669 41.0131 45.0701L39.54 43.7173ZM48.1085 40.8251C45.1293 40.2674 42.0004 41.0381 39.54 43.7173L41.0131 45.0701C42.9706 42.9385 45.3856 42.3501 47.7405 42.7909L48.1085 40.8251ZM55.7622 45.8015C53.8705 43.2394 51.0689 41.3792 48.1085 40.8251L47.7405 42.7909C50.1513 43.2422 52.5287 44.7892 54.1533 46.9895L55.7622 45.8015ZM56.6055 46.9436L55.7622 45.8015L54.1533 46.9895L54.9965 48.1316L56.6055 46.9436ZM54.8604 46.0779L54.8019 47.4963L56.8002 47.5788L56.8587 46.1603L54.8604 46.0779ZM56.7116 41.4687C55.394 42.7778 54.9166 44.7164 54.8604 46.0779L56.8587 46.1603C56.9035 45.0748 57.2955 43.7079 58.1213 42.8874L56.7116 41.4687ZM59.3783 40.1437C58.2581 40.3105 57.38 40.8045 56.7116 41.4687L58.1213 42.8874C58.5053 42.5058 58.9992 42.2222 59.673 42.1218L59.3783 40.1437ZM63.3775 40.7326C61.8157 40.1395 60.4924 39.9777 59.3783 40.1437L59.6729 42.1218C60.3653 42.0187 61.3368 42.097 62.6675 42.6023L63.3775 40.7326ZM63.7798 40.8853L63.3775 40.7326L62.6675 42.6023L63.0698 42.7551L63.7798 40.8853ZM62.7642 40.9549L62.5532 41.33L64.2964 42.3105L64.5073 41.9354L62.7642 40.9549ZM64.7993 36.2626C64.5956 36.9755 63.8952 38.9442 62.7642 40.9549L64.5073 41.9354C65.7223 39.7756 66.48 37.6602 66.7223 36.8121L64.7993 36.2626ZM64.9173 35.8497L64.7993 36.2626L66.7223 36.8121L66.8403 36.3991L64.9173 35.8497ZM65.0717 36.8545L65.4622 37.0335L66.2954 35.2153L65.905 35.0364L65.0717 36.8545ZM61.641 33.8382C62.083 34.8618 63.0732 35.9385 65.0717 36.8545L65.905 35.0364C64.2201 34.2641 63.6709 33.4942 63.4771 33.0453L61.641 33.8382ZM61.4297 31.5019C61.3428 31.9365 61.2006 32.8185 61.641 33.8382L63.4771 33.0453C63.2781 32.5845 63.3317 32.1901 63.3909 31.8942L61.4297 31.5019ZM62.6837 29.51C61.9574 30.1703 61.5338 30.9815 61.4297 31.5019L63.3909 31.8942C63.3891 31.9031 63.4202 31.785 63.5397 31.5851C63.6503 31.4003 63.8124 31.1868 64.029 30.9899L62.6837 29.51ZM65.9512 28.381C64.5168 28.2913 63.4282 28.8331 62.6837 29.51L64.029 30.9899C64.4359 30.6201 65.0104 30.3261 65.8264 30.3771L65.9512 28.381ZM66.5168 28.4163L65.9512 28.381L65.8264 30.3771L66.392 30.4124L66.5168 28.4163ZM65.421 28.9112L65.4563 29.4768L67.4524 29.352L67.4171 28.7864L65.421 28.9112ZM65.4076 28.6944L65.4209 28.9105L67.4171 28.7871L67.4038 28.571L65.4076 28.6944ZM63.3074 18.4537C65.0129 22.3799 65.2787 26.5987 65.4076 28.694L67.4038 28.5713C67.2754 26.4824 67.0026 21.9405 65.1419 17.6569L63.3074 18.4537ZM72.8 38.48C72.8 30.4278 69.8541 23.0611 64.9825 17.4029L63.4668 18.7078C68.0378 24.0169 70.8 30.9246 70.8 38.48H72.8ZM67.9951 55.4441C71.0419 50.5125 72.8 44.7 72.8 38.48H70.8C70.8 44.3182 69.1509 49.7681 66.2937 54.393L67.9951 55.4441ZM68.554 54.7571L67.7639 54.1335L66.5249 55.7036L67.3151 56.3271L68.554 54.7571ZM68 74C70.4765 74 72.5342 75.8015 72.9308 78.1655L74.9033 77.8345C74.3477 74.5231 71.4695 72 68 72V74ZM13 74H68V72H13V74ZM8.06918 78.1655C8.46578 75.8015 10.5235 74 13 74V72C9.53051 72 6.65229 74.5231 6.09674 77.8345L8.06918 78.1655ZM73.917 77H7.08296V79H73.917V77ZM67.9 71H13.1V73H67.9V71ZM63 69C64.934 69 66.5494 70.3736 66.92 72.1989L68.88 71.8011C68.324 69.062 65.9039 67 63 67V69ZM18 69H63V67H18V69ZM14.08 72.1989C14.4506 70.3736 16.066 69 18 69V67C15.0961 67 12.676 69.062 12.12 71.8011L14.08 72.1989ZM45.76 17.36C47.0855 17.36 48.16 16.2855 48.16 14.96H46.16C46.16 15.1809 45.9809 15.36 45.76 15.36V17.36ZM43.36 14.96C43.36 16.2855 44.4345 17.36 45.76 17.36V15.36C45.5391 15.36 45.36 15.1809 45.36 14.96H43.36ZM45.76 12.56C44.4345 12.56 43.36 13.6345 43.36 14.96H45.36C45.36 14.7391 45.5391 14.56 45.76 14.56V12.56ZM48.16 14.96C48.16 13.6345 47.0855 12.56 45.76 12.56V14.56C45.9809 14.56 46.16 14.7391 46.16 14.96H48.16ZM45.76 18.36C47.6378 18.36 49.16 16.8378 49.16 14.96H47.16C47.16 15.7332 46.5332 16.36 45.76 16.36V18.36ZM42.36 14.96C42.36 16.8378 43.8822 18.36 45.76 18.36V16.36C44.9868 16.36 44.36 15.7332 44.36 14.96H42.36ZM45.76 11.56C43.8822 11.56 42.36 13.0822 42.36 14.96H44.36C44.36 14.1868 44.9868 13.56 45.76 13.56V11.56ZM49.16 14.96C49.16 13.0822 47.6378 11.56 45.76 11.56V13.56C46.5332 13.56 47.16 14.1868 47.16 14.96H49.16ZM38.56 13.52C38.56 14.0502 38.1301 14.48 37.6 14.48V12.48C37.0257 12.48 36.56 12.9456 36.56 13.52H38.56ZM37.6 12.56C38.1302 12.56 38.56 12.9898 38.56 13.52H36.56C36.56 14.0944 37.0257 14.56 37.6 14.56V12.56ZM36.64 13.52C36.64 12.9898 37.0698 12.56 37.6 12.56V14.56C38.1743 14.56 38.64 14.0944 38.64 13.52H36.64ZM37.6 14.48C37.0699 14.48 36.64 14.0502 36.64 13.52H38.64C38.64 12.9456 38.1743 12.48 37.6 12.48V14.48ZM37.56 13.52C37.56 13.4979 37.5779 13.48 37.6 13.48V15.48C38.6825 15.48 39.56 14.6025 39.56 13.52H37.56ZM37.6 13.56C37.5779 13.56 37.56 13.5421 37.56 13.52H39.56C39.56 12.4375 38.6825 11.56 37.6 11.56V13.56ZM37.64 13.52C37.64 13.5421 37.6221 13.56 37.6 13.56V11.56C36.5175 11.56 35.64 12.4375 35.64 13.52H37.64ZM37.6 13.48C37.6221 13.48 37.64 13.4979 37.64 13.52H35.64C35.64 14.6025 36.5175 15.48 37.6 15.48V13.48ZM45.92 33.92C45.3456 33.92 44.88 34.3856 44.88 34.96H46.88C46.88 35.4902 46.4502 35.92 45.92 35.92V33.92ZM46.96 34.96C46.96 34.3856 46.4944 33.92 45.92 33.92V35.92C45.3898 35.92 44.96 35.4902 44.96 34.96H46.96ZM45.92 36C46.4944 36 46.96 35.5344 46.96 34.96H44.96C44.96 34.4298 45.3898 34 45.92 34V36ZM44.88 34.96C44.88 35.5344 45.3456 36 45.92 36V34C46.4502 34 46.88 34.4298 46.88 34.96H44.88ZM45.92 36.92C47.0025 36.92 47.88 36.0425 47.88 34.96H45.88C45.88 34.9379 45.8979 34.92 45.92 34.92V36.92ZM43.96 34.96C43.96 36.0425 44.8375 36.92 45.92 36.92V34.92C45.9421 34.92 45.96 34.9379 45.96 34.96H43.96ZM45.92 33C44.8375 33 43.96 33.8775 43.96 34.96H45.96C45.96 34.9821 45.9421 35 45.92 35V33ZM47.88 34.96C47.88 33.8775 47.0025 33 45.92 33V35C45.8979 35 45.88 34.9821 45.88 34.96H47.88ZM59.36 30.16C59.36 30.6903 58.9301 31.12 58.4 31.12V29.12C57.8257 29.12 57.36 29.5856 57.36 30.16H59.36ZM58.4 29.2C58.9302 29.2 59.36 29.6298 59.36 30.16H57.36C57.36 30.7344 57.8257 31.2 58.4 31.2V29.2ZM57.44 30.16C57.44 29.6298 57.8698 29.2 58.4 29.2V31.2C58.9743 31.2 59.44 30.7344 59.44 30.16H57.44ZM58.4 31.12C57.8699 31.12 57.44 30.6903 57.44 30.16H59.44C59.44 29.5856 58.9743 29.12 58.4 29.12V31.12ZM58.36 30.16C58.36 30.1379 58.3779 30.12 58.4 30.12V32.12C59.4825 32.12 60.36 31.2425 60.36 30.16H58.36ZM58.4 30.2C58.3779 30.2 58.36 30.1821 58.36 30.16H60.36C60.36 29.0775 59.4825 28.2 58.4 28.2V30.2ZM58.44 30.16C58.44 30.1821 58.4221 30.2 58.4 30.2V28.2C57.3175 28.2 56.44 29.0775 56.44 30.16H58.44ZM58.4 30.12C58.4221 30.12 58.44 30.1379 58.44 30.16H56.44C56.44 31.2425 57.3175 32.12 58.4 32.12V30.12ZM26.4 16.32C25.8256 16.32 25.36 16.7856 25.36 17.36H27.36C27.36 17.8902 26.9302 18.32 26.4 18.32V16.32ZM27.44 17.36C27.44 16.7856 26.9744 16.32 26.4 16.32V18.32C25.8698 18.32 25.44 17.8902 25.44 17.36H27.44ZM26.4 18.4C26.9744 18.4 27.44 17.9344 27.44 17.36H25.44C25.44 16.8298 25.8698 16.4 26.4 16.4V18.4ZM25.36 17.36C25.36 17.9343 25.8256 18.4 26.4 18.4V16.4C26.9302 16.4 27.36 16.8298 27.36 17.36H25.36ZM26.4 19.32C27.4825 19.32 28.36 18.4425 28.36 17.36H26.36C26.36 17.3379 26.3779 17.32 26.4 17.32V19.32ZM24.44 17.36C24.44 18.4425 25.3175 19.32 26.4 19.32V17.32C26.4221 17.32 26.44 17.3379 26.44 17.36H24.44ZM26.4 15.4C25.3175 15.4 24.44 16.2775 24.44 17.36H26.44C26.44 17.3821 26.4221 17.4 26.4 17.4V15.4ZM28.36 17.36C28.36 16.2775 27.4825 15.4 26.4 15.4V17.4C26.3779 17.4 26.36 17.3821 26.36 17.36H28.36ZM52.128 17.5259L52.651 21.624L54.6349 21.3708L54.112 17.2728L52.128 17.5259ZM53.589 21.624L54.112 17.5259L52.128 17.2728L51.6051 21.3708L53.589 21.624ZM51.538 24.0981C52.6429 23.74 53.4419 22.7762 53.589 21.624L51.6051 21.3708C51.556 21.7549 51.2897 22.0761 50.9214 22.1955L51.538 24.0981ZM49.4397 24.7781L51.538 24.0981L50.9214 22.1955L48.8231 22.8755L49.4397 24.7781ZM51.3736 23.3898L49.3891 22.8605L48.8737 24.793L50.8583 25.3222L51.3736 23.3898ZM53.5849 25.9813C53.4573 24.7422 52.5773 23.7107 51.3736 23.3898L50.8583 25.3222C51.2595 25.4292 51.5529 25.773 51.5954 26.1861L53.5849 25.9813ZM54.1147 31.1298L53.5849 25.9813L51.5954 26.1861L52.1253 31.3346L54.1147 31.1298ZM52.6551 25.9813L52.1253 31.1298L54.1147 31.3346L54.6446 26.1861L52.6551 25.9813ZM54.8664 23.3898C53.6627 23.7107 52.7827 24.7422 52.6551 25.9813L54.6446 26.1861C54.6871 25.773 54.9805 25.4292 55.3817 25.3222L54.8664 23.3898ZM56.8509 22.8605L54.8664 23.3898L55.3817 25.3222L57.3663 24.793L56.8509 22.8605ZM54.702 24.0981L56.8003 24.7781L57.4169 22.8755L55.3186 22.1955L54.702 24.0981ZM52.651 21.624C52.7981 22.7762 53.597 23.74 54.702 24.0981L55.3186 22.1955C54.9503 22.0761 54.684 21.7549 54.6349 21.3708L52.651 21.624ZM53.12 17.3994C53.1217 17.3857 53.1239 17.378 53.1248 17.3752C53.1257 17.3724 53.1258 17.3731 53.1241 17.3762C53.1224 17.3792 53.1198 17.3831 53.1163 17.3873C53.1127 17.3915 53.1091 17.3949 53.1058 17.3975C53.0992 17.4029 53.0961 17.4033 53.0994 17.4022C53.103 17.401 53.1103 17.3994 53.12 17.3994C53.1297 17.3994 53.137 17.401 53.1406 17.4022C53.1439 17.4033 53.1408 17.4029 53.1342 17.3975C53.1309 17.3949 53.1273 17.3915 53.1237 17.3873C53.1202 17.3831 53.1176 17.3792 53.1159 17.3762C53.1142 17.3731 53.1143 17.3724 53.1152 17.3752C53.1161 17.378 53.1183 17.3857 53.12 17.3994L55.1039 17.1462C54.8067 14.8171 51.4333 14.8171 51.1361 17.1462L53.12 17.3994ZM52.597 21.4974L53.12 17.3994L51.1361 17.1462L50.6131 21.2442L52.597 21.4974ZM51.2297 23.1468C51.9663 22.9081 52.499 22.2655 52.597 21.4974L50.6131 21.2442L50.6131 21.2442L51.2297 23.1468ZM49.1314 23.8268L51.2297 23.1468L50.6131 21.2442L48.5148 21.9242L49.1314 23.8268ZM49.1314 23.8268H49.1314L48.5148 21.9242C46.6186 22.5387 46.6901 25.2456 48.6161 25.7592L49.1314 23.8268ZM51.116 24.356L49.1314 23.8268L48.6161 25.7592L50.6006 26.2885L51.116 24.356ZM52.5901 26.0837C52.5051 25.2576 51.9184 24.57 51.116 24.356L50.6006 26.2885L50.6006 26.2885L52.5901 26.0837ZM53.12 31.2322L52.5901 26.0837L50.6006 26.2885L51.1305 31.4369L53.12 31.2322ZM53.12 31.2322C53.1185 31.2471 53.1163 31.2555 53.1153 31.2586C53.1144 31.2616 53.1143 31.2609 53.1161 31.2576C53.1179 31.2543 53.1206 31.25 53.1244 31.2454C53.1282 31.2408 53.1321 31.2371 53.1356 31.2341C53.1428 31.2283 53.1461 31.2278 53.1425 31.229C53.1386 31.2304 53.1306 31.2322 53.12 31.2322C53.1094 31.2322 53.1014 31.2304 53.0975 31.229C53.0939 31.2278 53.0972 31.2283 53.1044 31.2341C53.1079 31.2371 53.1118 31.2408 53.1156 31.2454C53.1194 31.25 53.1221 31.2543 53.1239 31.2576C53.1256 31.2609 53.1256 31.2616 53.1247 31.2586C53.1237 31.2555 53.1215 31.2471 53.12 31.2322L51.1305 31.4369C51.3769 33.8306 54.8631 33.8306 55.1095 31.4369L53.12 31.2322ZM53.6499 26.0837L53.12 31.2322L55.1095 31.4369L55.6394 26.2885L53.6499 26.0837ZM55.124 24.356C54.3216 24.57 53.7349 25.2576 53.6499 26.0837L55.6394 26.2885L55.6394 26.2885L55.124 24.356ZM57.1086 23.8268L55.124 24.356L55.6394 26.2885L57.6239 25.7592L57.1086 23.8268ZM57.1086 23.8268L57.1086 23.8268L57.6239 25.7592C59.55 25.2456 59.6214 22.5387 57.7252 21.9242L57.1086 23.8268ZM55.0103 23.1468L57.1086 23.8268L57.7252 21.9242L55.6269 21.2442L55.0103 23.1468ZM53.643 21.4974C53.741 22.2655 54.2737 22.9081 55.0103 23.1468L55.6269 21.2442L55.6269 21.2442L53.643 21.4974ZM53.12 17.3994L53.643 21.4974L55.6269 21.2442L55.1039 17.1462L53.12 17.3994Z" fill="#0038FF" mask="url(#path-2-outside-1_595_7100)"/>
</g>
<g opacity="0.4" filter="url(#filter1_f_595_7100)">
<path d="M33.3472 6.54214C34.0257 7.60174 22.4353 15.3331 21.3757 16.0117C20.3161 16.6902 18.9071 16.3813 18.2286 15.3217C17.55 14.2621 17.859 12.853 18.9186 12.1745C19.9782 11.496 32.6686 5.48254 33.3472 6.54214Z" fill="#01EDFF"/>
</g>
<g opacity="0.4" filter="url(#filter2_f_595_7100)">
<path d="M53.5297 67.16C53.5719 68.4175 22.9737 69.7071 20.2092 69.8001C17.4446 69.8931 15.1691 68.949 15.1269 67.6915C15.0846 66.434 17.2914 65.3392 20.056 65.2462C22.8206 65.1533 53.4874 65.9025 53.5297 67.16Z" fill="#01EDFF"/>
</g>
<g opacity="0.8" filter="url(#filter3_f_595_7100)">
<circle cx="18.3019" cy="15.851" r="2" transform="rotate(-32.6337 18.3019 15.851)" fill="#01EDFF"/>
</g>
<g opacity="0.4" filter="url(#filter4_f_595_7100)">
<circle cx="44.7628" cy="14.7628" r="2" transform="rotate(-32.6337 44.7628 14.7628)" fill="#01EDFF"/>
</g>
<g opacity="0.8" filter="url(#filter5_f_595_7100)">
<circle cx="52.7628" cy="23.7628" r="2" transform="rotate(-32.6337 52.7628 23.7628)" fill="#01EDFF"/>
</g>
</g>
<defs>
<filter id="filter0_f_595_7100" x="-1" y="-3" width="82.96" height="87" filterUnits="userSpaceOnUse" color-interpolation-filters="sRGB">
<feFlood flood-opacity="0" result="BackgroundImageFix"/>
<feBlend mode="normal" in="SourceGraphic" in2="BackgroundImageFix" result="shape"/>
<feGaussianBlur stdDeviation="2" result="effect1_foregroundBlur_595_7100"/>
</filter>
<filter id="filter1_f_595_7100" x="13.8687" y="2.41727" width="23.5071" height="17.9543" filterUnits="userSpaceOnUse" color-interpolation-filters="sRGB">
<feFlood flood-opacity="0" result="BackgroundImageFix"/>
<feBlend mode="normal" in="SourceGraphic" in2="BackgroundImageFix" result="shape"/>
<feGaussianBlur stdDeviation="2" result="effect1_foregroundBlur_595_7100"/>
</filter>
<filter id="filter2_f_595_7100" x="11.1263" y="61.2385" width="46.4034" height="12.568" filterUnits="userSpaceOnUse" color-interpolation-filters="sRGB">
<feFlood flood-opacity="0" result="BackgroundImageFix"/>
<feBlend mode="normal" in="SourceGraphic" in2="BackgroundImageFix" result="shape"/>
<feGaussianBlur stdDeviation="2" result="effect1_foregroundBlur_595_7100"/>
</filter>
<filter id="filter3_f_595_7100" x="12.3016" y="9.85074" width="12.0005" height="12.0005" filterUnits="userSpaceOnUse" color-interpolation-filters="sRGB">
<feFlood flood-opacity="0" result="BackgroundImageFix"/>
<feBlend mode="normal" in="SourceGraphic" in2="BackgroundImageFix" result="shape"/>
<feGaussianBlur stdDeviation="2" result="effect1_foregroundBlur_595_7100"/>
</filter>
<filter id="filter4_f_595_7100" x="38.7626" y="8.7626" width="12.0005" height="12.0005" filterUnits="userSpaceOnUse" color-interpolation-filters="sRGB">
<feFlood flood-opacity="0" result="BackgroundImageFix"/>
<feBlend mode="normal" in="SourceGraphic" in2="BackgroundImageFix" result="shape"/>
<feGaussianBlur stdDeviation="2" result="effect1_foregroundBlur_595_7100"/>
</filter>
<filter id="filter5_f_595_7100" x="46.7626" y="17.7626" width="12.0005" height="12.0005" filterUnits="userSpaceOnUse" color-interpolation-filters="sRGB">
<feFlood flood-opacity="0" result="BackgroundImageFix"/>
<feBlend mode="normal" in="SourceGraphic" in2="BackgroundImageFix" result="shape"/>
<feGaussianBlur stdDeviation="2" result="effect1_foregroundBlur_595_7100"/>
</filter>
<linearGradient id="paint0_linear_595_7100" x1="40.48" y1="2" x2="40.48" y2="79" gradientUnits="userSpaceOnUse">
<stop stop-color="#00C2FF"/>
<stop offset="1" stop-color="#0038FF"/>
</linearGradient>
<clipPath id="clip0_595_7100">
<rect width="80" height="80" fill="white"/>
</clipPath>
</defs>
</svg>
