<svg width="128" height="128" viewBox="0 0 128 128" fill="none" xmlns="http://www.w3.org/2000/svg">
<g clip-path="url(#clip0_449_5299)">
<path opacity="0.1" d="M63.7807 127.822C98.7242 127.822 127.052 99.7327 127.052 65.0827C127.052 30.4327 98.7242 2.34338 63.7807 2.34338C28.8371 2.34338 0.509766 30.4327 0.509766 65.0827C0.509766 99.7327 28.8371 127.822 63.7807 127.822Z" fill="url(#paint0_radial_449_5299)"/>
<path opacity="0.4" d="M63.7814 121.821C95.3825 121.821 121 96.4184 121 65.0828C121 33.7471 95.3825 8.3446 63.7814 8.3446C32.1803 8.3446 6.5625 33.7471 6.5625 65.0828C6.5625 96.4184 32.1803 121.821 63.7814 121.821Z" fill="url(#paint1_radial_449_5299)"/>
<path opacity="0.5" d="M15.6952 35.2586C23.2246 23.3237 34.9952 14.6219 48.6823 10.874C62.3694 7.12594 76.9763 8.60466 89.617 15.0176" stroke="url(#paint2_linear_449_5299)"/>
<path opacity="0.6" d="M11.5457 73.1679C9.88943 62.6479 11.5034 51.8771 16.173 42.2887C20.8427 32.7003 28.3469 24.7488 37.6875 19.493" stroke="url(#paint3_linear_449_5299)"/>
<path opacity="0.5" d="M101.793 106.822C95.8697 112.126 88.8837 116.13 81.292 118.574C73.7003 121.017 65.674 121.844 57.7377 121.001" stroke="url(#paint4_linear_449_5299)"/>
<path opacity="0.6" d="M92.2118 109.278C86.0539 113.173 79.1486 115.761 71.9316 116.877C64.7146 117.994 57.3424 117.615 50.2801 115.765" stroke="url(#paint5_linear_449_5299)"/>
<path d="M50.3308 116.079L49.1524 113.411C49.1524 113.411 46.2295 112.925 41.8102 111.037C38.9298 109.806 34.376 106.832 34.376 106.832" stroke="url(#paint6_linear_449_5299)"/>
<path opacity="0.4" d="M86.6283 21.8295C80.9001 18.8543 74.637 17.027 68.1966 16.4519C61.7562 15.8768 55.2646 16.5653 49.0925 18.4779C42.9204 20.3905 37.1887 23.4899 32.2245 27.599C27.2604 31.7082 23.1611 36.7467 20.1607 42.4268C17.1602 48.1069 15.3174 54.3173 14.7375 60.7036C14.1576 67.0899 14.8518 73.5269 16.7807 79.6472C18.7095 85.7674 21.8351 91.451 25.9791 96.3734C30.1231 101.296 35.2042 105.361 40.9324 108.336C46.6607 111.311 52.9238 113.138 59.3642 113.714C65.8046 114.289 72.2962 113.6 78.4682 111.688C84.6403 109.775 90.3721 106.676 95.3362 102.566C100.3 98.4572 104.4 93.4188 107.4 87.7387C110.401 82.0586 112.243 75.8481 112.823 69.4618C113.403 63.0755 112.709 56.6385 110.78 50.5183C109.775 47.3286 108.444 44.2574 106.814 41.3509" stroke="url(#paint7_linear_449_5299)"/>
<g opacity="0.5" filter="url(#filter0_f_449_5299)">
<path opacity="0.5" d="M89.8432 14.5717C77.0917 8.1025 62.357 6.61093 48.5502 10.3917C34.7434 14.1725 22.8688 22.9506 15.2723 34.9918" stroke="#0038FF" stroke-width="3"/>
<path opacity="0.6" d="M11.0518 73.2456C9.37957 62.6244 11.0091 51.75 15.7235 42.0698C20.4379 32.3896 28.0136 24.3626 37.4423 19.0573" stroke="#0038FF" stroke-width="3"/>
</g>
<g filter="url(#filter1_bi_449_5299)">
<path d="M108.32 63.5862C108.331 63.9174 108.339 64.2495 108.342 64.5826L107.843 64.5882C107.844 64.7528 107.845 64.9177 107.845 65.0828C107.845 65.2478 107.844 65.4127 107.843 65.5774L108.342 65.583C108.339 65.916 108.331 66.2481 108.32 66.5793L107.82 66.5626C107.809 66.8908 107.795 67.2181 107.777 67.5445L108.276 67.5724C108.257 67.9053 108.235 68.2371 108.209 68.568L107.71 68.5287C107.685 68.8558 107.655 69.1819 107.622 69.5069L108.12 69.5573C108.086 69.889 108.049 70.2197 108.008 70.5492L107.512 70.4875C107.471 70.8134 107.427 71.1381 107.379 71.4618L107.874 71.5347C107.825 71.8641 107.773 72.1922 107.717 72.5191L107.224 72.4349C107.169 72.7588 107.11 73.0816 107.047 73.403L107.538 73.4985C107.475 73.8248 107.408 74.1499 107.337 74.4737L106.848 74.3671C106.778 74.6883 106.705 75.0083 106.627 75.3268L107.113 75.4446C107.035 75.7674 106.953 76.0889 106.868 76.4089L106.385 76.2801C106.3 76.5979 106.212 76.9143 106.12 77.2292L106.6 77.369C106.507 77.6878 106.411 78.005 106.311 78.3208L105.834 78.17C105.735 78.4836 105.633 78.7957 105.527 79.1063L106 79.2679C105.892 79.5821 105.782 79.8946 105.667 80.2056L105.198 80.0332C105.085 80.3419 104.968 80.6489 104.848 80.9543L105.313 81.1373C105.191 81.4464 105.066 81.7537 104.938 82.0593L104.477 81.8657C104.35 82.1687 104.219 82.4699 104.085 82.7694L104.542 82.9735C104.406 83.2767 104.267 83.5782 104.125 83.8778L103.674 83.6634C103.533 83.9601 103.389 84.255 103.241 84.5481L103.688 84.7727C103.539 85.0695 103.386 85.3644 103.231 85.6573L102.789 85.4227C102.635 85.7126 102.478 86.0006 102.317 86.2867L102.753 86.5313C102.591 86.821 102.425 87.1087 102.256 87.3944L101.826 87.14C101.659 87.4226 101.489 87.7032 101.315 87.9817L101.74 88.2458C101.565 88.5279 101.386 88.8079 101.204 89.0857L100.786 88.8121C100.606 89.0869 100.424 89.3595 100.238 89.63L100.65 89.9129C100.462 90.1868 100.271 90.4585 100.077 90.7279L99.6716 90.4358C99.4799 90.7021 99.2852 90.9663 99.0876 91.2282L99.4867 91.5294C99.2867 91.7945 99.0837 92.0573 98.8779 92.3178L98.4856 92.0077C98.282 92.2653 98.0757 92.5205 97.8665 92.7733L98.2517 93.0921C98.0401 93.3479 97.8256 93.6013 97.6083 93.8523L97.2303 93.525C97.0154 93.7732 96.7978 94.019 96.5774 94.2623L96.948 94.5979C96.7252 94.844 96.4996 95.0875 96.2713 95.3286L95.9083 94.9847C95.6826 95.2231 95.4542 95.4589 95.2232 95.6921L95.5785 96.044C95.3449 96.2798 95.1087 96.5131 94.8698 96.7437L94.5225 96.384C94.2864 96.612 94.0477 96.8374 93.8065 97.0602L94.1458 97.4275C93.9019 97.6527 93.6555 97.8752 93.4066 98.095L93.0757 97.7202C92.8297 97.9374 92.5812 98.1519 92.3303 98.3637L92.6528 98.7458C92.3992 98.9599 92.1431 99.1712 91.8847 99.3798L91.5707 98.9906C91.3153 99.1966 91.0576 99.3998 90.7975 99.6002L91.1027 99.9963C90.8398 100.199 90.5745 100.399 90.3069 100.596L90.0106 100.193C89.7464 100.387 89.4799 100.579 89.2112 100.767L89.4985 101.177C89.2267 101.367 88.9527 101.555 88.6765 101.74L88.3985 101.324C88.126 101.507 87.8513 101.686 87.5745 101.862L87.8432 102.284C87.5632 102.463 87.2812 102.638 86.997 102.81L86.7377 102.383C86.4574 102.553 86.1749 102.72 85.8905 102.884L86.1402 103.317C85.8526 103.482 85.563 103.645 85.2714 103.805L85.0315 103.366C84.7438 103.523 84.4542 103.677 84.1627 103.829L84.3927 104.272C84.0981 104.425 83.8016 104.575 83.5032 104.721L83.2831 104.272C82.9887 104.416 82.6924 104.557 82.3943 104.695L82.6043 105.149C82.3033 105.288 82.0004 105.424 81.6958 105.557L81.4961 105.099C81.1954 105.23 80.893 105.358 80.5888 105.482L80.7783 105.945C80.4715 106.071 80.163 106.193 79.8529 106.312L79.6738 105.845C79.3675 105.963 79.0594 106.077 78.7498 106.188L78.9184 106.658C78.6065 106.77 78.293 106.878 77.978 106.983L77.82 106.509C77.5085 106.613 77.1954 106.713 76.8809 106.81L77.0282 107.288C76.7119 107.385 76.3941 107.479 76.0748 107.57L75.9382 107.089C75.6226 107.179 75.3054 107.265 74.9869 107.348L75.1127 107.832C74.7923 107.915 74.4704 107.995 74.1472 108.071L74.0323 107.585C73.7131 107.66 73.3926 107.732 73.0708 107.8L73.1749 108.289C72.8509 108.358 72.5255 108.424 72.1989 108.486L72.1058 107.994C71.7839 108.056 71.4608 108.113 71.1364 108.167L71.2186 108.66C70.8915 108.715 70.5633 108.766 70.2338 108.813L70.1626 108.318C69.8387 108.365 69.5136 108.408 69.1875 108.447L69.2477 108.944C68.9181 108.984 68.5874 109.02 68.2556 109.053L68.2064 108.555C67.8812 108.588 67.555 108.616 67.2277 108.641L67.2659 109.14C66.935 109.165 66.6031 109.187 66.2702 109.205L66.2429 108.706C65.9165 108.724 65.5891 108.738 65.2608 108.749L65.2772 109.249C64.9459 109.259 64.6138 109.267 64.2808 109.27L64.2753 108.77C64.1106 108.772 63.9457 108.773 63.7806 108.773C63.6154 108.773 63.4505 108.772 63.2858 108.77L63.2803 109.27C62.9473 109.267 62.6151 109.259 62.2839 109.249L62.3003 108.749C61.972 108.738 61.6446 108.724 61.3181 108.706L61.2909 109.205C60.958 109.187 60.626 109.165 60.2951 109.14L60.3334 108.641C60.0061 108.616 59.6799 108.588 59.3546 108.555L59.3054 109.053C58.9737 109.02 58.643 108.984 58.3134 108.944L58.3736 108.447C58.0474 108.408 57.7224 108.365 57.3984 108.318L57.3273 108.813C56.9978 108.766 56.6695 108.715 56.3425 108.66L56.4247 108.167C56.1003 108.113 55.7772 108.056 55.4553 107.994L55.3621 108.486C55.0355 108.424 54.7102 108.358 54.3862 108.289L54.4903 107.8C54.1685 107.732 53.848 107.66 53.5288 107.585L53.4139 108.071C53.0907 107.995 52.7688 107.915 52.4484 107.832L52.5742 107.348C52.2557 107.265 51.9385 107.179 51.6229 107.089L51.4863 107.57C51.167 107.479 50.8492 107.385 50.5329 107.288L50.6802 106.81C50.3657 106.713 50.0526 106.613 49.7411 106.509L49.5831 106.983C49.2681 106.878 48.9546 106.77 48.6427 106.658L48.8113 106.188C48.5016 106.077 48.1936 105.962 47.8873 105.845L47.7082 106.312C47.398 106.193 47.0896 106.071 46.7828 105.945L46.9723 105.482C46.6681 105.358 46.3657 105.23 46.065 105.099L45.8652 105.557C45.5606 105.424 45.2578 105.288 44.9568 105.149L45.1668 104.695C44.8687 104.557 44.5724 104.416 44.278 104.272L44.0579 104.721C43.7595 104.575 43.463 104.425 43.1684 104.272L43.3984 103.828C43.1069 103.677 42.8173 103.523 42.5296 103.366L42.2897 103.805C41.9981 103.645 41.7085 103.482 41.4209 103.317L41.6706 102.884C41.3861 102.72 41.1037 102.553 40.8234 102.383L40.5641 102.81C40.2799 102.638 39.9979 102.462 39.7179 102.284L39.9866 101.862C39.7098 101.686 39.4351 101.507 39.1626 101.324L38.8846 101.74C38.6084 101.555 38.3344 101.367 38.0626 101.176L38.3499 100.767C38.0812 100.579 37.8147 100.387 37.5505 100.193L37.2542 100.596C36.9866 100.399 36.7213 100.199 36.4584 99.9963L36.7636 99.6002C36.5035 99.3998 36.2458 99.1966 35.9904 98.9906L35.6764 99.3797C35.418 99.1712 35.1619 98.9599 34.9082 98.7458L35.2308 98.3637C34.9799 98.1519 34.7314 97.9374 34.4854 97.7202L34.1545 98.095C33.9056 97.8752 33.6592 97.6527 33.4153 97.4275L33.7546 97.0602C33.5134 96.8374 33.2747 96.612 33.0386 96.384L32.6913 96.7437C32.4524 96.5131 32.2162 96.2798 31.9826 96.044L32.3379 95.6921C32.1069 95.4589 31.8785 95.223 31.6528 94.9847L31.2898 95.3285C31.0615 95.0875 30.8359 94.8439 30.6131 94.5979L30.9837 94.2623C30.7633 94.019 30.5457 93.7732 30.3308 93.525L29.9528 93.8523C29.7355 93.6013 29.521 93.3479 29.3094 93.092L29.6946 92.7733C29.4854 92.5205 29.2791 92.2653 29.0755 92.0077L28.6832 92.3177C28.4774 92.0573 28.2744 91.7945 28.0744 91.5293L28.4735 91.2282C28.2759 90.9663 28.0812 90.7021 27.8895 90.4357L27.4837 90.7279C27.2897 90.4584 27.0988 90.1868 26.9108 89.9129L27.3231 89.63C27.1375 89.3595 26.9549 89.0869 26.7753 88.8121L26.3567 89.0857C26.1751 88.8079 25.9966 88.5279 25.8212 88.2458L26.2457 87.9817C26.0725 87.7032 25.9024 87.4226 25.7354 87.14L25.3049 87.3944C25.1361 87.1087 24.9704 86.821 24.8078 86.5312L25.2439 86.2866C25.0835 86.0006 24.9262 85.7126 24.7721 85.4226L24.3306 85.6573C24.1749 85.3643 24.0224 85.0694 23.8731 84.7726L24.3199 84.5481C24.1725 84.255 24.0284 83.9601 23.8876 83.6634L23.4359 83.8778C23.2937 83.5782 23.1548 83.2767 23.0192 82.9735L23.4757 82.7694C23.3418 82.4699 23.2112 82.1687 23.084 81.8657L22.623 82.0593C22.4946 81.7537 22.3697 81.4463 22.2481 81.1373L22.7134 80.9543C22.5932 80.6489 22.4764 80.3418 22.3631 80.0332L21.8937 80.2055C21.7795 79.8946 21.6688 79.582 21.5614 79.2679L22.0346 79.1063C21.9285 78.7957 21.8259 78.4836 21.7267 78.17L21.25 78.3207C21.1501 78.005 21.0537 77.6877 20.9609 77.369L21.4409 77.2292C21.3492 76.9143 21.261 76.5979 21.1762 76.2801L20.6931 76.4089C20.6078 76.0889 20.526 75.7674 20.4477 75.4445L20.9337 75.3268C20.8565 75.0082 20.7828 74.6883 20.7127 74.3671L20.2242 74.4737C20.1535 74.1499 20.0864 73.8248 20.023 73.4984L20.5138 73.403C20.4513 73.0815 20.3923 72.7588 20.337 72.4349L19.8441 72.5191C19.7882 72.1922 19.736 71.864 19.6874 71.5347L20.1821 71.4617C20.1343 71.1381 20.0901 70.8133 20.0496 70.4874L19.5534 70.5492C19.5124 70.2197 19.4751 69.889 19.4415 69.5573L19.9389 69.5068C19.9059 69.1818 19.8766 68.8558 19.8508 68.5287L19.3524 68.5679C19.3264 68.2371 19.304 67.9052 19.2854 67.5724L19.7846 67.5444C19.7663 67.2181 19.7516 66.8908 19.7406 66.5625L19.2409 66.5793C19.2298 66.2481 19.2223 65.916 19.2186 65.5829L19.7186 65.5774C19.7167 65.4127 19.7158 65.2478 19.7158 65.0828C19.7158 64.9177 19.7167 64.7528 19.7186 64.5881L19.2186 64.5825C19.2223 64.2495 19.2298 63.9174 19.2409 63.5862L19.7406 63.6029C19.7516 63.2747 19.7663 62.9474 19.7846 62.621L19.2854 62.5931C19.304 62.2602 19.3264 61.9284 19.3524 61.5976L19.8508 61.6368C19.8766 61.3097 19.9059 60.9836 19.9389 60.6586L19.4415 60.6082C19.4751 60.2765 19.5124 59.9458 19.5534 59.6163L20.0496 59.678C20.0902 59.3522 20.1343 59.0274 20.1821 58.7038L19.6874 58.6308C19.736 58.3015 19.7882 57.9733 19.8441 57.6464L20.337 57.7306C20.3923 57.4067 20.4513 57.0839 20.5138 56.7625L20.023 56.667C20.0865 56.3407 20.1535 56.0156 20.2242 55.6918L20.7127 55.7984C20.7828 55.4772 20.8565 55.1573 20.9337 54.8387L20.4477 54.721C20.526 54.3981 20.6078 54.0766 20.6931 53.7566L21.1762 53.8854C21.261 53.5676 21.3492 53.2512 21.4409 52.9363L20.9609 52.7965C21.0537 52.4777 21.1501 52.1605 21.25 51.8448L21.7267 51.9955C21.8259 51.6819 21.9285 51.3698 22.0346 51.0592L21.5615 50.8976C21.6688 50.5835 21.7795 50.2709 21.8937 49.96L22.3631 50.1323C22.4765 49.8237 22.5932 49.5166 22.7134 49.2112L22.2481 49.0282C22.3697 48.7191 22.4947 48.4118 22.623 48.1062L23.084 48.2998C23.2112 47.9968 23.3418 47.6956 23.4757 47.3961L23.0192 47.192C23.1548 46.8888 23.2937 46.5873 23.4359 46.2877L23.8876 46.5021C24.0284 46.2054 24.1726 45.9105 24.3199 45.6174L23.8732 45.3928C24.0224 45.096 24.1749 44.8011 24.3306 44.5082L24.7721 44.7429C24.9262 44.4529 25.0835 44.1649 25.2439 43.8789L24.8078 43.6343C24.9704 43.3445 25.1361 43.0568 25.3049 42.7711L25.7354 43.0255C25.9024 42.7429 26.0725 42.4623 26.2458 42.1838L25.8212 41.9197C25.9966 41.6376 26.1752 41.3576 26.3568 41.0798L26.7753 41.3534C26.9549 41.0786 27.1375 40.806 27.3231 40.5355L26.9108 40.2526C27.0988 39.9787 27.2897 39.7071 27.4837 39.4376L27.8895 39.7298C28.0812 39.4634 28.276 39.1992 28.4735 38.9373L28.0744 38.6362C28.2744 38.371 28.4774 38.1082 28.6833 37.8478L29.0755 38.1578C29.2791 37.9002 29.4855 37.645 29.6946 37.3922L29.3094 37.0734C29.5211 36.8176 29.7356 36.5642 29.9528 36.3132L30.3309 36.6405C30.5457 36.3923 30.7633 36.1465 30.9837 35.9032L30.6131 35.5676C30.8359 35.3216 31.0615 35.078 31.2898 34.837L31.6528 35.1808C31.8785 34.9425 32.1069 34.7066 32.3379 34.4734L31.9827 34.1215C32.2162 33.8857 32.4525 33.6524 32.6913 33.4218L33.0386 33.7815C33.2747 33.5535 33.5134 33.3281 33.7546 33.1053L33.4154 32.738C33.6592 32.5128 33.9056 32.2903 34.1545 32.0705L34.4854 32.4453C34.7314 32.2281 34.9799 32.0136 35.2308 31.8018L34.9083 31.4197C35.1619 31.2056 35.418 30.9943 35.6765 30.7858L35.9904 31.1749C36.2458 30.9689 36.5035 30.7657 36.7636 30.5653L36.4584 30.1692C36.7213 29.9666 36.9866 29.7669 37.2542 29.57L37.5505 29.9728C37.8147 29.7784 38.0812 29.5869 38.3499 29.3983L38.0627 28.989C38.3344 28.7983 38.6084 28.6105 38.8846 28.4257L39.1626 28.8412C39.4352 28.6589 39.7098 28.4795 39.9866 28.3031L39.7179 27.8814C39.9979 27.703 40.28 27.5276 40.5641 27.3553L40.8234 27.7828C41.1037 27.6128 41.3862 27.4459 41.6706 27.282L41.4209 26.8487C41.7085 26.683 41.9981 26.5204 42.2897 26.3609L42.5296 26.7996C42.8173 26.6423 43.1069 26.4881 43.3984 26.337L43.1684 25.8931C43.463 25.7404 43.7595 25.5909 44.0579 25.4447L44.278 25.8936C44.5724 25.7493 44.8687 25.6081 45.1668 25.4702L44.9569 25.0164C45.2578 24.8771 45.5607 24.7411 45.8653 24.6083L46.065 25.0667C46.3657 24.9356 46.6682 24.8078 46.9723 24.6833L46.7828 24.2206C47.0896 24.095 47.3981 23.9726 47.7082 23.8537L47.8873 24.3205C48.1937 24.203 48.5017 24.0888 48.8113 23.9779L48.6427 23.5072C48.9546 23.3955 49.2681 23.2872 49.5831 23.1823L49.7411 23.6567C50.0526 23.5529 50.3657 23.4525 50.6803 23.3556L50.5329 22.8778C50.8492 22.7802 51.167 22.6861 51.4863 22.5955L51.6229 23.0764C51.9386 22.9868 52.2557 22.9005 52.5742 22.8177L52.4484 22.3338C52.7689 22.2505 53.0907 22.1707 53.4139 22.0943L53.5289 22.5809C53.848 22.5055 54.1685 22.4336 54.4903 22.3651L54.3862 21.8761C54.7103 21.8071 55.0356 21.7417 55.3622 21.6798L55.4553 22.171C55.7772 22.11 56.1003 22.0525 56.4247 21.9984L56.3425 21.5052C56.6696 21.4507 56.9979 21.3998 57.3273 21.3524L57.3985 21.8473C57.7224 21.8007 58.0475 21.7576 58.3736 21.718L58.3134 21.2217C58.643 21.1817 58.9737 21.1453 59.3055 21.1125L59.3547 21.6101C59.6799 21.5779 60.0061 21.5493 60.3334 21.5241L60.2952 21.0256C60.6261 21.0002 60.958 20.9784 61.2909 20.9603L61.3182 21.4595C61.6446 21.4417 61.972 21.4274 62.3003 21.4166L62.2839 20.9169C62.6152 20.9061 62.9473 20.8988 63.2804 20.8952L63.2858 21.3952C63.4505 21.3934 63.6154 21.3925 63.7806 21.3925C63.9457 21.3925 64.1106 21.3934 64.2753 21.3952L64.2808 20.8952C64.6138 20.8988 64.946 20.9061 65.2772 20.9169L65.2609 21.4166C65.5892 21.4274 65.9165 21.4417 66.243 21.4595L66.2702 20.9603C66.6031 20.9784 66.9351 21.0002 67.266 21.0256L67.2277 21.5242C67.555 21.5493 67.8813 21.5779 68.2065 21.6101L68.2557 21.1125C68.5874 21.1453 68.9181 21.1817 69.2477 21.2217L69.1875 21.718C69.5137 21.7576 69.8387 21.8007 70.1627 21.8473L70.2339 21.3524C70.5633 21.3998 70.8916 21.4507 71.2186 21.5052L71.1365 21.9984C71.4608 22.0525 71.7839 22.11 72.1058 22.171L72.199 21.6798C72.5256 21.7417 72.8509 21.8071 73.1749 21.8761L73.0709 22.3651C73.3927 22.4336 73.7131 22.5056 74.0323 22.581L74.1472 22.0943C74.4704 22.1707 74.7923 22.2505 75.1127 22.3338L74.9869 22.8178C75.3055 22.9006 75.6226 22.9868 75.9383 23.0764L76.0749 22.5955C76.3941 22.6861 76.7119 22.7803 77.0282 22.8778L76.8809 23.3556C77.1955 23.4526 77.5085 23.5529 77.82 23.6567L77.978 23.1823C78.2931 23.2872 78.6065 23.3955 78.9184 23.5072L78.7498 23.9779C79.0595 24.0888 79.3675 24.203 79.6738 24.3205L79.8529 23.8537C80.1631 23.9727 80.4715 24.095 80.7783 24.2206L80.5888 24.6833C80.893 24.8078 81.1954 24.9356 81.4961 25.0667L81.6959 24.6083C82.0005 24.7411 82.3033 24.8771 82.6043 25.0164L82.3943 25.4702C82.6924 25.6081 82.9887 25.7493 83.2832 25.8936L83.5032 25.4447C83.8016 25.5909 84.0982 25.7404 84.3927 25.8931L84.1627 26.337C84.4542 26.4881 84.7439 26.6423 85.0315 26.7996L85.2714 26.361C85.563 26.5204 85.8526 26.683 86.1402 26.8488L85.8905 27.282C86.175 27.4459 86.4574 27.6129 86.7377 27.7829L86.997 27.3553C87.2812 27.5276 87.5633 27.703 87.8432 27.8814L87.5745 28.3031C87.8513 28.4795 88.126 28.6589 88.3985 28.8413L88.6766 28.4257C88.9528 28.6105 89.2267 28.7983 89.4985 28.989L89.2112 29.3983C89.4799 29.5869 89.7464 29.7784 90.0107 29.9728L90.3069 29.57C90.5745 29.7669 90.8398 29.9666 91.1027 30.1692L90.7976 30.5653C91.0576 30.7657 91.3154 30.9689 91.5707 31.1749L91.8847 30.7858C92.1432 30.9943 92.3992 31.2056 92.6529 31.4197L92.3303 31.8018C92.5812 32.0136 92.8297 32.2281 93.0757 32.4454L93.4067 32.0706C93.6555 32.2903 93.9019 32.5128 94.1458 32.738L93.8065 33.1054C94.0477 33.3281 94.2864 33.5535 94.5225 33.7815L94.8699 33.4218C95.1087 33.6525 95.3449 33.8857 95.5785 34.1216L95.2232 34.4734C95.4542 34.7067 95.6826 34.9425 95.9083 35.1808L96.2714 34.837C96.4996 35.078 96.7252 35.3216 96.9481 35.5676L96.5775 35.9033C96.7978 36.1466 97.0154 36.3923 97.2303 36.6405L97.6083 36.3132C97.8256 36.5642 98.0401 36.8176 98.2517 37.0735L97.8665 37.3922C98.0757 37.645 98.2821 37.9003 98.4856 38.1578L98.8779 37.8478C99.0837 38.1082 99.2867 38.3711 99.4867 38.6362L99.0876 38.9373C99.2852 39.1992 99.4799 39.4634 99.6716 39.7298L100.077 39.4377C100.271 39.7071 100.462 39.9788 100.65 40.2526L100.238 40.5355C100.424 40.806 100.606 41.0786 100.786 41.3534L101.204 41.0798C101.386 41.3577 101.565 41.6376 101.74 41.9197L101.315 42.1838C101.489 42.4623 101.659 42.7429 101.826 43.0255L102.256 42.7711C102.425 43.0568 102.591 43.3445 102.753 43.6343L102.317 43.8789C102.478 44.1649 102.635 44.4529 102.789 44.7429L103.231 44.5082C103.386 44.8012 103.539 45.0961 103.688 45.3929L103.241 45.6175C103.389 45.9105 103.533 46.2054 103.674 46.5021L104.125 46.2878C104.267 46.5874 104.406 46.8888 104.542 47.192L104.085 47.3961C104.219 47.6956 104.35 47.9968 104.477 48.2998L104.938 48.1062C105.066 48.4118 105.191 48.7192 105.313 49.0282L104.848 49.2112C104.968 49.5166 105.085 49.8237 105.198 50.1324L105.667 49.96C105.782 50.2709 105.892 50.5835 106 50.8976L105.527 51.0592C105.633 51.3698 105.735 51.6819 105.834 51.9955L106.311 51.8448C106.411 52.1605 106.507 52.4778 106.6 52.7965L106.12 52.9364C106.212 53.2513 106.3 53.5676 106.385 53.8854L106.868 53.7566C106.953 54.0767 107.035 54.3981 107.113 54.721L106.627 54.8387C106.705 55.1573 106.778 55.4772 106.848 55.7984L107.337 55.6918C107.408 56.0156 107.475 56.3407 107.538 56.6671L107.047 56.7625C107.11 57.084 107.169 57.4067 107.224 57.7306L107.717 57.6464C107.773 57.9733 107.825 58.3015 107.874 58.6308L107.379 58.7038C107.427 59.0274 107.471 59.3522 107.512 59.6781L108.008 59.6163C108.049 59.9459 108.086 60.2765 108.12 60.6082L107.622 60.6587C107.655 60.9837 107.685 61.3097 107.71 61.6368L108.209 61.5976C108.235 61.9284 108.257 62.2603 108.276 62.5931L107.777 62.6211C107.795 62.9474 107.809 63.2747 107.82 63.603L108.32 63.5862Z" stroke="url(#paint8_linear_449_5299)" stroke-dasharray="1 1"/>
</g>
<g opacity="0.5" filter="url(#filter2_f_449_5299)">
<ellipse cx="63.7806" cy="65.0828" rx="44.5647" ry="44.1903" stroke="#0038FF" stroke-width="3" stroke-dasharray="1 1"/>
</g>
<g opacity="0.5" filter="url(#filter3_f_449_5299)">
<ellipse cx="63.7806" cy="65.0828" rx="44.5647" ry="44.1903" stroke="url(#paint9_linear_449_5299)" stroke-dasharray="1 1"/>
</g>
<path opacity="0.8" d="M47.4612 83.6318H39.0508C38.6043 83.6318 38.176 83.4561 37.8611 83.1429C37.5461 82.8295 37.3702 82.4054 37.3721 81.9628L37.5249 48.7577C37.5294 47.8429 38.2794 47.1032 39.2036 47.1032H46.2549C46.7005 47.1032 47.128 47.2787 47.4422 47.5904L80.247 80.0911H87.3824V50.4069L81.4423 50.4244L69.7951 61.8836L67.4281 59.527L79.5642 47.5865C79.8776 47.278 80.3008 47.1048 80.7429 47.1032L89.056 47.0793H89.061C89.505 47.0793 89.9317 47.2535 90.2462 47.5636C90.562 47.8753 90.7397 48.2985 90.7397 48.7407V81.7531C90.7397 82.6702 89.9882 83.4139 89.0609 83.4139H79.5505C79.1047 83.4139 78.6775 83.2389 78.3628 82.9267L45.5589 50.4264H40.8745L40.7368 80.3089H46.7533L57.3704 69.5227L59.7752 71.8413L48.6642 83.13C48.3481 83.451 47.9144 83.6318 47.4612 83.6318Z" fill="url(#paint10_linear_449_5299)"/>
<g opacity="0.4" filter="url(#filter4_f_449_5299)">
<path d="M47.4612 83.6318H39.0508C38.6043 83.6318 38.176 83.4561 37.8611 83.1429C37.5461 82.8295 37.3702 82.4054 37.3721 81.9628L37.5249 48.7577C37.5294 47.8429 38.2794 47.1032 39.2036 47.1032H46.2549C46.7005 47.1032 47.128 47.2787 47.4422 47.5904L80.247 80.0911H87.3824V50.4069L81.4423 50.4244L69.7951 61.8836L67.4281 59.527L79.5642 47.5865C79.8776 47.278 80.3008 47.1048 80.7429 47.1032L89.056 47.0793H89.061C89.505 47.0793 89.9317 47.2535 90.2462 47.5636C90.562 47.8753 90.7397 48.2985 90.7397 48.7407V81.7531C90.7397 82.6702 89.9882 83.4139 89.0609 83.4139H79.5505C79.1047 83.4139 78.6775 83.2389 78.3628 82.9267L45.5589 50.4264H40.8745L40.7368 80.3089H46.7533L57.3704 69.5227L59.7752 71.8413L48.6642 83.13C48.3481 83.451 47.9144 83.6318 47.4612 83.6318Z" fill="url(#paint11_linear_449_5299)"/>
<path d="M37.5084 83.4973L37.5085 83.4974C37.9179 83.9046 38.4733 84.1318 39.0508 84.1318H47.4612C48.0473 84.1318 48.6096 83.898 49.0205 83.4808L49.0206 83.4807L60.1315 72.192L60.4859 71.832L60.1222 71.4813L57.7174 69.1628L57.3612 68.8193L57.0141 69.172L46.5439 79.8089H41.2391L41.3722 50.9264H45.3531L78.0107 83.2817C78.0108 83.2818 78.0108 83.2819 78.0109 83.2819C78.42 83.6876 78.974 83.9139 79.5505 83.9139H89.0609C90.2592 83.9139 91.2397 82.9514 91.2397 81.7531V48.7407C91.2397 48.1639 91.0079 47.6128 90.5974 47.2078L90.5973 47.2076C90.1885 46.8045 89.6354 46.5793 89.061 46.5793L89.056 46.5793L89.0545 46.5793L80.7415 46.6032L80.7411 46.6032C80.1695 46.6052 79.6208 46.8293 79.2135 47.2301C79.2135 47.2301 79.2135 47.2301 79.2135 47.2301L67.0774 59.1706L66.7173 59.5249L67.0753 59.8814L69.4423 62.2379L69.793 62.587L70.1457 62.24L81.6476 50.9238L86.8824 50.9084V79.5911H80.4527L47.7943 47.2354C47.7943 47.2353 47.7942 47.2353 47.7941 47.2352C47.3856 46.8301 46.8314 46.6032 46.2549 46.6032H39.2036C38.0086 46.6032 37.0308 47.5609 37.025 48.7552L37.025 48.7554L36.8721 81.9605L36.8721 81.9607C36.8696 82.5379 37.0992 83.0902 37.5084 83.4973Z" stroke="#0038FF"/>
</g>
<g opacity="0.8" filter="url(#filter5_f_449_5299)">
<path d="M46.1752 11.1991C41.7737 12.5597 34.9912 16.2176 31.8705 18.0877C28.7498 19.9578 28.2645 21.2929 28.0287 20.9061C27.793 20.5192 27.6494 19.9578 30.7701 18.0877C33.8908 16.2176 42.141 12.0267 46.1752 11.1991Z" fill="#01EDFF"/>
</g>
<g opacity="0.8" filter="url(#filter6_f_449_5299)">
<path d="M12.1275 53.3437C11.1906 57.8199 11.1232 65.4755 11.2572 69.0888C11.3911 72.702 12.3327 73.7708 11.8772 73.7875C11.4217 73.8041 10.857 73.6559 10.723 70.0427C10.5891 66.4295 10.8989 57.2428 12.1275 53.3437Z" fill="#01EDFF"/>
</g>
<g opacity="0.4" filter="url(#filter7_f_449_5299)">
<path d="M40.3885 21.7896C36.4021 24.0863 30.6091 29.1474 27.9857 31.6585C25.3622 34.1696 25.1882 35.5783 24.8717 35.2531C24.5551 34.9279 24.2893 34.4122 26.9128 31.9011C29.5362 29.39 36.6407 23.4856 40.3885 21.7896Z" fill="#01EDFF"/>
</g>
<path d="M101.744 107.091H108.346C108.346 107.091 110.894 105.402 113.848 101.635C115.774 99.1802 118.25 94.543 118.25 94.543" stroke="url(#paint12_linear_449_5299)"/>
<path opacity="0.6" d="M15.6399 35.077L9.00598 37.3156C9.00598 37.3156 7.00356 39.9847 5.33161 45.0122C4.24185 48.2891 3.37342 54.0851 3.37342 54.0851" stroke="url(#paint13_linear_449_5299)"/>
<path opacity="0.5" d="M106.854 41.3788L108.022 36.0769C108.022 36.0769 106.803 33.2889 103.596 29.7314C101.505 27.4126 97.3486 24.1658 97.3486 24.1658" stroke="url(#paint14_linear_449_5299)"/>
<path opacity="0.6" d="M86.6138 21.7107L87.0405 24.5929C87.0405 24.5929 89.7307 25.8256 93.491 28.8031C95.942 30.7438 99.5431 34.8042 99.5431 34.8042" stroke="url(#paint15_linear_449_5299)"/>
</g>
<defs>
<filter id="filter0_f_449_5299" x="4.91309" y="2.84448" width="89.6084" height="74.6344" filterUnits="userSpaceOnUse" color-interpolation-filters="sRGB">
<feFlood flood-opacity="0" result="BackgroundImageFix"/>
<feBlend mode="normal" in="SourceGraphic" in2="BackgroundImageFix" result="shape"/>
<feGaussianBlur stdDeviation="2" result="effect1_foregroundBlur_449_5299"/>
</filter>
<filter id="filter1_bi_449_5299" x="7.21582" y="8.89246" width="113.13" height="112.381" filterUnits="userSpaceOnUse" color-interpolation-filters="sRGB">
<feFlood flood-opacity="0" result="BackgroundImageFix"/>
<feGaussianBlur in="BackgroundImageFix" stdDeviation="6"/>
<feComposite in2="SourceAlpha" operator="in" result="effect1_backgroundBlur_449_5299"/>
<feBlend mode="normal" in="SourceGraphic" in2="effect1_backgroundBlur_449_5299" result="shape"/>
<feColorMatrix in="SourceAlpha" type="matrix" values="0 0 0 0 0 0 0 0 0 0 0 0 0 0 0 0 0 0 127 0" result="hardAlpha"/>
<feOffset dy="2.54662"/>
<feGaussianBlur stdDeviation="5.09324"/>
<feComposite in2="hardAlpha" operator="arithmetic" k2="-1" k3="1"/>
<feColorMatrix type="matrix" values="0 0 0 0 1 0 0 0 0 1 0 0 0 0 1 0 0 0 0.15 0"/>
<feBlend mode="normal" in2="shape" result="effect2_innerShadow_449_5299"/>
</filter>
<filter id="filter2_f_449_5299" x="13.7158" y="15.3925" width="100.13" height="99.3806" filterUnits="userSpaceOnUse" color-interpolation-filters="sRGB">
<feFlood flood-opacity="0" result="BackgroundImageFix"/>
<feBlend mode="normal" in="SourceGraphic" in2="BackgroundImageFix" result="shape"/>
<feGaussianBlur stdDeviation="2" result="effect1_foregroundBlur_449_5299"/>
</filter>
<filter id="filter3_f_449_5299" x="14.7158" y="16.3925" width="98.1299" height="97.3806" filterUnits="userSpaceOnUse" color-interpolation-filters="sRGB">
<feFlood flood-opacity="0" result="BackgroundImageFix"/>
<feBlend mode="normal" in="SourceGraphic" in2="BackgroundImageFix" result="shape"/>
<feGaussianBlur stdDeviation="2" result="effect1_foregroundBlur_449_5299"/>
</filter>
<filter id="filter4_f_449_5299" x="32.3721" y="42.0793" width="63.3672" height="46.5525" filterUnits="userSpaceOnUse" color-interpolation-filters="sRGB">
<feFlood flood-opacity="0" result="BackgroundImageFix"/>
<feBlend mode="normal" in="SourceGraphic" in2="BackgroundImageFix" result="shape"/>
<feGaussianBlur stdDeviation="2" result="effect1_foregroundBlur_449_5299"/>
</filter>
<filter id="filter5_f_449_5299" x="23.9189" y="7.1991" width="26.2559" height="17.7739" filterUnits="userSpaceOnUse" color-interpolation-filters="sRGB">
<feFlood flood-opacity="0" result="BackgroundImageFix"/>
<feBlend mode="normal" in="SourceGraphic" in2="BackgroundImageFix" result="shape"/>
<feGaussianBlur stdDeviation="2" result="effect1_foregroundBlur_449_5299"/>
</filter>
<filter id="filter6_f_449_5299" x="6.69434" y="49.3436" width="9.43359" height="28.4448" filterUnits="userSpaceOnUse" color-interpolation-filters="sRGB">
<feFlood flood-opacity="0" result="BackgroundImageFix"/>
<feBlend mode="normal" in="SourceGraphic" in2="BackgroundImageFix" result="shape"/>
<feGaussianBlur stdDeviation="2" result="effect1_foregroundBlur_449_5299"/>
</filter>
<filter id="filter7_f_449_5299" x="20.6768" y="17.7897" width="23.7119" height="21.5098" filterUnits="userSpaceOnUse" color-interpolation-filters="sRGB">
<feFlood flood-opacity="0" result="BackgroundImageFix"/>
<feBlend mode="normal" in="SourceGraphic" in2="BackgroundImageFix" result="shape"/>
<feGaussianBlur stdDeviation="2" result="effect1_foregroundBlur_449_5299"/>
</filter>
<radialGradient id="paint0_radial_449_5299" cx="0" cy="0" r="1" gradientUnits="userSpaceOnUse" gradientTransform="translate(63.7807 65.0827) scale(63.2709 62.7393)">
<stop stop-color="#19001B" stop-opacity="0"/>
<stop offset="0.19" stop-color="#1A0724" stop-opacity="0.02"/>
<stop offset="0.39" stop-color="#1E1D40" stop-opacity="0.06"/>
<stop offset="0.6" stop-color="#23426E" stop-opacity="0.14"/>
<stop offset="0.8" stop-color="#2B76AD" stop-opacity="0.26"/>
<stop offset="1" stop-color="#35B7FF" stop-opacity="0.4"/>
</radialGradient>
<radialGradient id="paint1_radial_449_5299" cx="0" cy="0" r="1" gradientUnits="userSpaceOnUse" gradientTransform="translate(63.7814 65.0828) scale(57.2189 56.7382)">
<stop stop-color="#19001B" stop-opacity="0"/>
<stop offset="0.19" stop-color="#1A0724" stop-opacity="0.02"/>
<stop offset="0.39" stop-color="#1E1D40" stop-opacity="0.06"/>
<stop offset="0.6" stop-color="#23426E" stop-opacity="0.14"/>
<stop offset="0.8" stop-color="#2B76AD" stop-opacity="0.26"/>
<stop offset="1" stop-color="#35B7FF" stop-opacity="0.4"/>
</radialGradient>
<linearGradient id="paint2_linear_449_5299" x1="63.7814" y1="8.3446" x2="63.7814" y2="121.821" gradientUnits="userSpaceOnUse">
<stop stop-color="#00C2FF"/>
<stop offset="1" stop-color="#0038FF"/>
</linearGradient>
<linearGradient id="paint3_linear_449_5299" x1="63.7807" y1="12.1635" x2="63.7807" y2="118.002" gradientUnits="userSpaceOnUse">
<stop stop-color="#00C2FF"/>
<stop offset="1" stop-color="#0038FF"/>
</linearGradient>
<linearGradient id="paint4_linear_449_5299" x1="63.7811" y1="121.821" x2="63.7811" y2="8.34465" gradientUnits="userSpaceOnUse">
<stop stop-color="#00C2FF"/>
<stop offset="1" stop-color="#0038FF"/>
</linearGradient>
<linearGradient id="paint5_linear_449_5299" x1="34.0738" y1="109.046" x2="92.7971" y2="20.6617" gradientUnits="userSpaceOnUse">
<stop stop-color="#00C2FF"/>
<stop offset="1" stop-color="#0038FF"/>
</linearGradient>
<linearGradient id="paint6_linear_449_5299" x1="56.7984" y1="121.009" x2="33.8278" y2="103.103" gradientUnits="userSpaceOnUse">
<stop stop-color="#0D7AA7"/>
<stop offset="0.9999" stop-color="#017AF2"/>
<stop offset="1" stop-color="#41889E"/>
</linearGradient>
<linearGradient id="paint7_linear_449_5299" x1="63.7804" y1="16.2551" x2="63.7804" y2="113.91" gradientUnits="userSpaceOnUse">
<stop stop-color="#00C2FF"/>
<stop offset="1" stop-color="#0038FF"/>
</linearGradient>
<linearGradient id="paint8_linear_449_5299" x1="63.658" y1="22.1735" x2="63.658" y2="108.607" gradientUnits="userSpaceOnUse">
<stop stop-color="#01E5FF"/>
<stop offset="0.9999" stop-color="#017AF2"/>
<stop offset="1" stop-color="#41889E"/>
</linearGradient>
<linearGradient id="paint9_linear_449_5299" x1="63.658" y1="22.1735" x2="63.658" y2="108.607" gradientUnits="userSpaceOnUse">
<stop stop-color="#01E5FF"/>
<stop offset="0.9999" stop-color="#017AF2"/>
<stop offset="1" stop-color="#41889E"/>
</linearGradient>
<linearGradient id="paint10_linear_449_5299" x1="64.0559" y1="47.0793" x2="64.0559" y2="83.6318" gradientUnits="userSpaceOnUse">
<stop stop-color="#00C2FF"/>
<stop offset="1" stop-color="#0038FF"/>
</linearGradient>
<linearGradient id="paint11_linear_449_5299" x1="63.9825" y1="47.6092" x2="63.9825" y2="83.3562" gradientUnits="userSpaceOnUse">
<stop stop-color="#01E5FF"/>
<stop offset="0.9999" stop-color="#017AF2"/>
<stop offset="1" stop-color="#41889E"/>
</linearGradient>
<linearGradient id="paint12_linear_449_5299" x1="96.7925" y1="111.455" x2="119.754" y2="93.5371" gradientUnits="userSpaceOnUse">
<stop stop-color="#0D7AA7"/>
<stop offset="0.9999" stop-color="#017AF2"/>
<stop offset="1" stop-color="#41889E"/>
</linearGradient>
<linearGradient id="paint13_linear_449_5299" x1="23.0674" y1="24.1658" x2="4.56485" y2="49.4107" gradientUnits="userSpaceOnUse">
<stop stop-color="#017AF2"/>
<stop offset="0.9999" stop-color="#017AF2"/>
<stop offset="1" stop-color="#41889E"/>
</linearGradient>
<linearGradient id="paint14_linear_449_5299" x1="110.28" y1="48.1306" x2="97.0107" y2="22.3174" gradientUnits="userSpaceOnUse">
<stop stop-color="#0D7AA7"/>
<stop offset="0.9999" stop-color="#017AF2"/>
<stop offset="1" stop-color="#41889E"/>
</linearGradient>
<linearGradient id="paint15_linear_449_5299" x1="81.687" y1="15.2634" x2="99.0819" y2="38.543" gradientUnits="userSpaceOnUse">
<stop stop-color="#0D7AA7"/>
<stop offset="0.9999" stop-color="#017AF2"/>
<stop offset="1" stop-color="#41889E"/>
</linearGradient>
<clipPath id="clip0_449_5299">
<rect width="126.458" height="128" fill="white" transform="translate(0.771484)"/>
</clipPath>
</defs>
</svg>
