<svg width="86" height="85" viewBox="0 0 86 85" fill="none" xmlns="http://www.w3.org/2000/svg">
<path fill-rule="evenodd" clip-rule="evenodd" d="M30.7571 10.5259C33.5752 11.3687 36.6288 10.6161 38.7325 8.56018C41.1001 6.2463 44.8822 6.2463 47.2499 8.56018C49.3536 10.6161 52.4071 11.3687 55.2253 10.5259C58.3971 9.57741 61.7459 11.335 62.7671 14.4842C63.6744 17.2822 66.0284 19.3677 68.9154 19.9311C72.1647 20.5652 74.3131 23.6778 73.7538 26.9408C73.2569 29.84 74.3721 32.7805 76.6666 34.6211C79.249 36.6926 79.7048 40.4471 77.6932 43.0764C75.9059 45.4126 75.5268 48.5346 76.7031 51.2306C78.0271 54.2649 76.6859 57.8012 73.6828 59.1945C71.0145 60.4325 69.228 63.0207 69.0167 65.9545C68.7788 69.2566 65.9479 71.7645 62.6413 71.6026C59.7034 71.4588 56.9187 72.9203 55.3681 75.4199C53.623 78.2332 49.9508 79.1383 47.0982 77.4583C44.5636 75.9655 41.4187 75.9655 38.8841 77.4583C36.0315 79.1383 32.3594 78.2332 30.6142 75.4199C29.0637 72.9203 26.279 71.4588 23.341 71.6026C20.0344 71.7645 17.2035 69.2566 16.9657 65.9545C16.7543 63.0207 14.9678 60.4325 12.2995 59.1945C9.29642 57.8012 7.95529 54.2649 9.27921 51.2306C10.4555 48.5346 10.0764 45.4126 8.28912 43.0764C6.2775 40.4471 6.73337 36.6926 9.31578 34.6211C11.6103 32.7805 12.7255 29.84 12.2285 26.9408C11.6692 23.6778 13.8177 20.5652 17.067 19.9311C19.954 19.3677 22.308 17.2822 23.2153 14.4842C24.2365 11.335 27.5853 9.57741 30.7571 10.5259ZM38.0335 7.845C40.7898 5.15136 45.1925 5.15136 47.9488 7.845C49.7926 9.64686 52.4688 10.3065 54.9387 9.56786C58.6311 8.46366 62.5295 10.5097 63.7183 14.1757C64.5135 16.628 66.5766 18.4558 69.1069 18.9496C72.8895 19.6878 75.3905 23.3112 74.7394 27.1097C74.3039 29.6507 75.2813 32.2279 77.2923 33.841C80.2985 36.2525 80.8292 40.6232 78.4874 43.684C76.921 45.7315 76.5887 48.4678 77.6197 50.8307C79.1609 54.363 77.5997 58.4796 74.1037 60.1016C71.7651 61.1866 70.1993 63.455 70.0141 66.0264C69.7372 69.8703 66.4417 72.7899 62.5924 72.6014C60.0175 72.4754 57.5769 73.7563 56.2179 75.947C54.1864 79.222 49.9115 80.2757 46.5907 78.3199C44.3693 77.0117 41.613 77.0117 39.3916 78.3199C36.0708 80.2757 31.796 79.222 29.7644 75.947C28.4055 73.7563 25.9649 72.4754 23.3899 72.6014C19.5406 72.7899 16.2451 69.8703 15.9682 66.0264C15.783 63.455 14.2172 61.1866 11.8787 60.1016C8.38269 58.4796 6.82145 54.363 8.36266 50.8307C9.39362 48.4678 9.06138 45.7315 7.4949 43.684C5.15313 40.6232 5.68383 36.2525 8.69006 33.841C10.701 32.2279 11.6784 29.6507 11.2429 27.1097C10.5918 23.3112 13.0929 19.6878 16.8754 18.9496C19.4057 18.4558 21.4688 16.628 22.264 14.1757C23.4528 10.5097 27.3512 8.46366 31.0436 9.56786C33.5135 10.3065 36.1898 9.64686 38.0335 7.845ZM58.5675 28.1309C58.7628 27.9356 58.7628 27.619 58.5675 27.4238C58.3723 27.2285 58.0557 27.2285 57.8604 27.4238L27.2531 58.0311C27.0579 58.2263 27.0579 58.5429 27.2531 58.7382C27.4484 58.9334 27.765 58.9334 27.9602 58.7382L58.5675 28.1309ZM33.7605 38.9232C36.6069 38.9232 38.9143 36.6157 38.9143 33.7693C38.9143 30.9229 36.6069 28.6155 33.7605 28.6155C30.9141 28.6155 28.6066 30.9229 28.6066 33.7693C28.6066 36.6157 30.9141 38.9232 33.7605 38.9232ZM33.7605 39.9232C37.1592 39.9232 39.9143 37.168 39.9143 33.7693C39.9143 30.3707 37.1592 27.6155 33.7605 27.6155C30.3618 27.6155 27.6066 30.3707 27.6066 33.7693C27.6066 37.168 30.3618 39.9232 33.7605 39.9232ZM57.3759 52.2308C57.3759 55.0772 55.0685 57.3846 52.2221 57.3846C49.3757 57.3846 47.0682 55.0772 47.0682 52.2308C47.0682 49.3844 49.3757 47.0769 52.2221 47.0769C55.0685 47.0769 57.3759 49.3844 57.3759 52.2308ZM58.3759 52.2308C58.3759 55.6295 55.6207 58.3846 52.2221 58.3846C48.8234 58.3846 46.0682 55.6295 46.0682 52.2308C46.0682 48.8321 48.8234 46.0769 52.2221 46.0769C55.6207 46.0769 58.3759 48.8321 58.3759 52.2308Z" fill="url(#paint0_linear_429_4030)"/>
<g opacity="0.5" filter="url(#filter0_f_429_4030)">
<path d="M38.0335 7.84499C40.7898 5.15135 45.1925 5.15135 47.9488 7.84499V7.84499C49.7926 9.64685 52.4688 10.3065 54.9387 9.56785V9.56785C58.6311 8.46366 62.5295 10.5097 63.7183 14.1757V14.1757C64.5135 16.628 66.5766 18.4558 69.1069 18.9496V18.9496C72.8895 19.6878 75.3905 23.3112 74.7394 27.1097V27.1097C74.3039 29.6507 75.2813 32.2279 77.2923 33.841V33.841C80.2985 36.2525 80.8292 40.6232 78.4874 43.684V43.684C76.9209 45.7315 76.5887 48.4678 77.6197 50.8307V50.8307C79.1609 54.363 77.5996 58.4796 74.1036 60.1016V60.1016C71.7651 61.1866 70.1993 63.455 70.0141 66.0264V66.0264C69.7372 69.8703 66.4417 72.7899 62.5924 72.6014V72.6014C60.0175 72.4754 57.5769 73.7563 56.2179 75.947V75.947C54.1863 79.222 49.9115 80.2757 46.5907 78.3199V78.3199C44.3693 77.0116 41.613 77.0116 39.3916 78.3199V78.3199C36.0708 80.2757 31.796 79.222 29.7644 75.947V75.947C28.4054 73.7563 25.9648 72.4754 23.3899 72.6014V72.6014C19.5406 72.7899 16.2451 69.8703 15.9682 66.0264V66.0264C15.783 63.455 14.2172 61.1866 11.8787 60.1016V60.1016C8.38267 58.4796 6.82143 54.363 8.36264 50.8307V50.8307C9.3936 48.4678 9.06136 45.7315 7.49488 43.684V43.684C5.15311 40.6232 5.68381 36.2525 8.69004 33.841V33.841C10.701 32.2279 11.6784 29.6507 11.2429 27.1097V27.1097C10.5918 23.3112 13.0928 19.6878 16.8754 18.9496V18.9496C19.4057 18.4558 21.4688 16.628 22.264 14.1757V14.1757C23.4528 10.5097 27.3512 8.46366 31.0436 9.56785V9.56785C33.5135 10.3065 36.1897 9.64685 38.0335 7.84499V7.84499Z" stroke="#0038FF" stroke-width="3"/>
<path d="M27.6065 58.3845L58.2138 27.7772" stroke="#0038FF" stroke-width="3" stroke-linecap="round"/>
<circle cx="33.7604" cy="33.7692" r="6.15385" stroke="#0038FF" stroke-width="3"/>
<circle cx="52.2219" cy="52.2307" r="6.15385" stroke="#0038FF" stroke-width="3"/>
</g>
<g opacity="0.8" filter="url(#filter1_f_429_4030)">
<path d="M50.688 34.7071C51.2738 35.2929 38.7573 48.052 34.071 52.7383C29.3847 57.4246 28.2928 58.2738 27.707 57.688C27.1212 57.1023 27.6169 56.3639 32.3032 51.6777C36.9895 46.9914 50.1022 34.1213 50.688 34.7071Z" fill="#01EDFF"/>
</g>
<g opacity="0.8" filter="url(#filter2_f_429_4030)">
<circle cx="31.9999" cy="29" r="2" fill="#01EDFF"/>
</g>
<g opacity="0.6" filter="url(#filter3_f_429_4030)">
<circle cx="27.9999" cy="10" r="2" fill="#01EDFF"/>
</g>
<defs>
<filter id="filter0_f_429_4030" x="0.534912" y="0.324768" width="84.9125" height="84.4775" filterUnits="userSpaceOnUse" color-interpolation-filters="sRGB">
<feFlood flood-opacity="0" result="BackgroundImageFix"/>
<feBlend mode="normal" in="SourceGraphic" in2="BackgroundImageFix" result="shape"/>
<feGaussianBlur stdDeviation="2" result="effect1_foregroundBlur_429_4030"/>
</filter>
<filter id="filter1_f_429_4030" x="23.5098" y="30.6877" width="31.1981" height="31.1632" filterUnits="userSpaceOnUse" color-interpolation-filters="sRGB">
<feFlood flood-opacity="0" result="BackgroundImageFix"/>
<feBlend mode="normal" in="SourceGraphic" in2="BackgroundImageFix" result="shape"/>
<feGaussianBlur stdDeviation="2" result="effect1_foregroundBlur_429_4030"/>
</filter>
<filter id="filter2_f_429_4030" x="25.9999" y="23" width="12" height="12" filterUnits="userSpaceOnUse" color-interpolation-filters="sRGB">
<feFlood flood-opacity="0" result="BackgroundImageFix"/>
<feBlend mode="normal" in="SourceGraphic" in2="BackgroundImageFix" result="shape"/>
<feGaussianBlur stdDeviation="2" result="effect1_foregroundBlur_429_4030"/>
</filter>
<filter id="filter3_f_429_4030" x="21.9999" y="4" width="12" height="12" filterUnits="userSpaceOnUse" color-interpolation-filters="sRGB">
<feFlood flood-opacity="0" result="BackgroundImageFix"/>
<feBlend mode="normal" in="SourceGraphic" in2="BackgroundImageFix" result="shape"/>
<feGaussianBlur stdDeviation="2" result="effect1_foregroundBlur_429_4030"/>
</filter>
<linearGradient id="paint0_linear_429_4030" x1="42.8895" y1="6.88981" x2="42.8895" y2="78.7481" gradientUnits="userSpaceOnUse">
<stop stop-color="#01E5FF"/>
<stop offset="0.9999" stop-color="#017AF2"/>
<stop offset="1" stop-color="#41889E"/>
</linearGradient>
</defs>
</svg>
