<svg width="168" height="170" viewBox="0 0 168 170" fill="none" xmlns="http://www.w3.org/2000/svg">
<g opacity="0.8" filter="url(#filter0_f_768_2598)">
<path d="M90 6.99999C90 7.8284 50.4054 8 35.7231 8C21.0408 8 18 7.82838 18 6.99997C18 6.17155 19.9331 6 34.6154 6C49.2977 6 90 6.17157 90 6.99999Z" fill="#01EDFF"/>
</g>
<g opacity="0.8" filter="url(#filter1_f_768_2598)">
<path d="M109 124C109 124.828 79.8539 125 69.0462 125C58.2384 125 56 124.828 56 124C56 123.172 57.423 123 68.2308 123C79.0386 123 109 123.172 109 124Z" fill="#01EDFF"/>
</g>
<path fill-rule="evenodd" clip-rule="evenodd" d="M90 7.70711V32C90 34.7614 92.2386 37 95 37H119.293L90 7.70711ZM120.707 37H121V37.5V38V75.5H137.293L142.146 70.6464C142.24 70.5527 142.367 70.5 142.5 70.5H154.031C154.277 68.5268 155.96 67 158 67C160.209 67 162 68.7909 162 71C162 73.2091 160.209 75 158 75C155.96 75 154.277 73.4732 154.031 71.5H142.707L137.854 76.3536C137.76 76.4473 137.633 76.5 137.5 76.5H121V87.5H146.031C146.277 85.5268 147.96 84 150 84C152.209 84 154 85.7909 154 88C154 90.2091 152.209 92 150 92C147.96 92 146.277 90.4732 146.031 88.5H121V99.5H134.031C134.277 97.5268 135.96 96 138 96C140.209 96 142 97.7909 142 100C142 102.209 140.209 104 138 104C135.96 104 134.277 102.473 134.031 100.5H121V111H132.308L137.166 106.628C137.257 106.546 137.376 106.5 137.5 106.5H148.031C148.277 104.527 149.96 103 152 103C154.209 103 156 104.791 156 107C156 109.209 154.209 111 152 111C149.96 111 148.277 109.473 148.031 107.5H137.692L132.834 111.872C132.743 111.954 132.624 112 132.5 112H121V156C121 158.761 118.761 161 116 161H19C16.2386 161 14 158.761 14 156V11C14 8.23858 16.2386 6 19 6H89H89.4999H89.5001H90V6.29289L120.707 37ZM95 38H120V156C120 158.209 118.209 160 116 160H19C16.7909 160 15 158.209 15 156V11C15 8.79086 16.7909 7 19 7H89V32C89 35.3137 91.6863 38 95 38ZM25.5 112C25.5 111.724 25.7239 111.5 26 111.5H112C112.276 111.5 112.5 111.724 112.5 112C112.5 112.276 112.276 112.5 112 112.5H26C25.7239 112.5 25.5 112.276 25.5 112ZM56 123.5C55.7239 123.5 55.5 123.724 55.5 124C55.5 124.276 55.7239 124.5 56 124.5H112C112.276 124.5 112.5 124.276 112.5 124C112.5 123.724 112.276 123.5 112 123.5H56ZM25.5 124C25.5 123.724 25.7239 123.5 26 123.5H45C45.2761 123.5 45.5 123.724 45.5 124C45.5 124.276 45.2761 124.5 45 124.5H26C25.7239 124.5 25.5 124.276 25.5 124ZM25 147.5C24.7239 147.5 24.5 147.724 24.5 148C24.5 148.276 24.7239 148.5 25 148.5H44C44.2761 148.5 44.5 148.276 44.5 148C44.5 147.724 44.2761 147.5 44 147.5H25ZM25.5 136C25.5 135.724 25.7239 135.5 26 135.5H75C75.2761 135.5 75.5 135.724 75.5 136C75.5 136.276 75.2761 136.5 75 136.5H26C25.7239 136.5 25.5 136.276 25.5 136ZM80 99.5C79.7239 99.5 79.5 99.7239 79.5 100C79.5 100.276 79.7239 100.5 80 100.5H112C112.276 100.5 112.5 100.276 112.5 100C112.5 99.7239 112.276 99.5 112 99.5H80ZM161 71C161 72.6569 159.657 74 158 74C156.343 74 155 72.6569 155 71C155 69.3431 156.343 68 158 68C159.657 68 161 69.3431 161 71ZM150 91C151.657 91 153 89.6569 153 88C153 86.3431 151.657 85 150 85C148.343 85 147 86.3431 147 88C147 89.6569 148.343 91 150 91ZM141 100C141 101.657 139.657 103 138 103C136.343 103 135 101.657 135 100C135 98.3431 136.343 97 138 97C139.657 97 141 98.3431 141 100ZM152 110C153.657 110 155 108.657 155 107C155 105.343 153.657 104 152 104C150.343 104 149 105.343 149 107C149 108.657 150.343 110 152 110Z" fill="url(#paint0_linear_768_2598)"/>
<g opacity="0.59" filter="url(#filter2_f_768_2598)">
<path d="M134.5 100H120.5" stroke="#0038FF" stroke-width="3" stroke-linejoin="round"/>
<path d="M146.5 88H120.5" stroke="#0038FF" stroke-width="3" stroke-linejoin="round"/>
<path d="M154.5 71H142.5L137.5 76H121" stroke="#0038FF" stroke-width="3" stroke-linejoin="round"/>
<path d="M90 6H19C16.2386 6 14 8.23858 14 11V156C14 158.761 16.2386 161 19 161H116C118.761 161 121 158.761 121 156V37M90 6V32C90 34.7614 92.2386 37 95 37H121M90 6L121 37" stroke="#0038FF" stroke-width="3"/>
<path d="M89.5 6.5L120.5 37.5" stroke="#0038FF" stroke-width="3" stroke-linejoin="round"/>
<path d="M112 112H26" stroke="#0038FF" stroke-width="3" stroke-linejoin="round"/>
<path d="M112 124L56 124" stroke="#0038FF" stroke-width="3" stroke-linejoin="round"/>
<path d="M45 124H26" stroke="#0038FF" stroke-width="3" stroke-linejoin="round"/>
<path d="M44 148H25" stroke="#0038FF" stroke-width="3" stroke-linejoin="round"/>
<path d="M75 136H26" stroke="#0038FF" stroke-width="3" stroke-linejoin="round"/>
<path d="M112 100L80 100" stroke="#0038FF" stroke-width="3" stroke-linejoin="round"/>
<circle cx="158" cy="71" r="4" stroke="#0038FF" stroke-width="3"/>
<circle cx="150" cy="88" r="4" stroke="#0038FF" stroke-width="3"/>
<circle cx="138" cy="100" r="4" stroke="#0038FF" stroke-width="3"/>
<circle cx="152" cy="107" r="4" stroke="#0038FF" stroke-width="3"/>
<path d="M148.5 107H137.5L132.5 111.5H120.5" stroke="#0038FF" stroke-width="3" stroke-linejoin="round"/>
</g>
<g filter="url(#filter3_bi_768_2598)">
<mask id="path-20-inside-1_768_2598" fill="white">
<path fill-rule="evenodd" clip-rule="evenodd" d="M42 99C63.5391 99 81 81.5391 81 60C81 38.4609 63.5391 21 42 21C20.4609 21 3 38.4609 3 60C3 81.5391 20.4609 99 42 99ZM70.6 60.4333C70.6 75.9894 57.9894 88.6 42.4333 88.6C26.8773 88.6 14.2667 75.9894 14.2667 60.4333C14.2667 44.8773 26.8773 32.2667 42.4333 32.2667C57.9894 32.2667 70.6 44.8773 70.6 60.4333ZM74.9333 60.4333C74.9333 78.3826 60.3826 92.9333 42.4333 92.9333C24.4841 92.9333 9.93333 78.3826 9.93333 60.4333C9.93333 42.4841 24.4841 27.9333 42.4333 27.9333C60.3826 27.9333 74.9333 42.4841 74.9333 60.4333Z"/>
</mask>
<path fill-rule="evenodd" clip-rule="evenodd" d="M42 99C63.5391 99 81 81.5391 81 60C81 38.4609 63.5391 21 42 21C20.4609 21 3 38.4609 3 60C3 81.5391 20.4609 99 42 99ZM70.6 60.4333C70.6 75.9894 57.9894 88.6 42.4333 88.6C26.8773 88.6 14.2667 75.9894 14.2667 60.4333C14.2667 44.8773 26.8773 32.2667 42.4333 32.2667C57.9894 32.2667 70.6 44.8773 70.6 60.4333ZM74.9333 60.4333C74.9333 78.3826 60.3826 92.9333 42.4333 92.9333C24.4841 92.9333 9.93333 78.3826 9.93333 60.4333C9.93333 42.4841 24.4841 27.9333 42.4333 27.9333C60.3826 27.9333 74.9333 42.4841 74.9333 60.4333Z" fill="url(#paint1_linear_768_2598)" fill-opacity="0.1"/>
<path d="M80 60C80 80.9868 62.9868 98 42 98V100C64.0914 100 82 82.0914 82 60H80ZM42 22C62.9868 22 80 39.0132 80 60H82C82 37.9086 64.0914 20 42 20V22ZM4 60C4 39.0132 21.0132 22 42 22V20C19.9086 20 2 37.9086 2 60H4ZM42 98C21.0132 98 4 80.9868 4 60H2C2 82.0914 19.9086 100 42 100V98ZM42.4333 89.6C58.5416 89.6 71.6 76.5416 71.6 60.4333H69.6C69.6 75.4371 57.4371 87.6 42.4333 87.6V89.6ZM13.2667 60.4333C13.2667 76.5416 26.325 89.6 42.4333 89.6V87.6C27.4296 87.6 15.2667 75.4371 15.2667 60.4333H13.2667ZM42.4333 31.2667C26.325 31.2667 13.2667 44.325 13.2667 60.4333H15.2667C15.2667 45.4296 27.4296 33.2667 42.4333 33.2667V31.2667ZM71.6 60.4333C71.6 44.325 58.5416 31.2667 42.4333 31.2667V33.2667C57.4371 33.2667 69.6 45.4296 69.6 60.4333H71.6ZM42.4333 93.9333C60.9349 93.9333 75.9333 78.9349 75.9333 60.4333H73.9333C73.9333 77.8303 59.8303 91.9333 42.4333 91.9333V93.9333ZM8.93333 60.4333C8.93333 78.9349 23.9318 93.9333 42.4333 93.9333V91.9333C25.0364 91.9333 10.9333 77.8303 10.9333 60.4333H8.93333ZM42.4333 26.9333C23.9318 26.9333 8.93333 41.9318 8.93333 60.4333H10.9333C10.9333 43.0364 25.0364 28.9333 42.4333 28.9333V26.9333ZM75.9333 60.4333C75.9333 41.9318 60.9349 26.9333 42.4333 26.9333V28.9333C59.8303 28.9333 73.9333 43.0364 73.9333 60.4333H75.9333Z" fill="url(#paint2_linear_768_2598)" fill-opacity="0.1" mask="url(#path-20-inside-1_768_2598)"/>
</g>
<path d="M56 55.9159L43.2131 37L30 55.9159M56 55.9159L43.2131 83L30 55.9159M56 55.9159L43.2131 60.6449L30 55.9159" stroke="url(#paint3_linear_768_2598)" stroke-linejoin="round"/>
<g opacity="0.5" filter="url(#filter4_f_768_2598)">
<path d="M55 55.9159L42.2131 37L29 55.9159M55 55.9159L42.2131 83L29 55.9159M55 55.9159L42.2131 60.6449L29 55.9159" stroke="#0038FF" stroke-width="3" stroke-linejoin="round"/>
</g>
<defs>
<filter id="filter0_f_768_2598" x="14" y="2" width="80" height="10" filterUnits="userSpaceOnUse" color-interpolation-filters="sRGB">
<feFlood flood-opacity="0" result="BackgroundImageFix"/>
<feBlend mode="normal" in="SourceGraphic" in2="BackgroundImageFix" result="shape"/>
<feGaussianBlur stdDeviation="2" result="effect1_foregroundBlur_768_2598"/>
</filter>
<filter id="filter1_f_768_2598" x="52" y="119" width="61" height="10" filterUnits="userSpaceOnUse" color-interpolation-filters="sRGB">
<feFlood flood-opacity="0" result="BackgroundImageFix"/>
<feBlend mode="normal" in="SourceGraphic" in2="BackgroundImageFix" result="shape"/>
<feGaussianBlur stdDeviation="2" result="effect1_foregroundBlur_768_2598"/>
</filter>
<filter id="filter2_f_768_2598" x="8.5" y="0.5" width="159" height="166" filterUnits="userSpaceOnUse" color-interpolation-filters="sRGB">
<feFlood flood-opacity="0" result="BackgroundImageFix"/>
<feBlend mode="normal" in="SourceGraphic" in2="BackgroundImageFix" result="shape"/>
<feGaussianBlur stdDeviation="2" result="effect1_foregroundBlur_768_2598"/>
</filter>
<filter id="filter3_bi_768_2598" x="-9" y="9" width="102" height="102" filterUnits="userSpaceOnUse" color-interpolation-filters="sRGB">
<feFlood flood-opacity="0" result="BackgroundImageFix"/>
<feGaussianBlur in="BackgroundImageFix" stdDeviation="6"/>
<feComposite in2="SourceAlpha" operator="in" result="effect1_backgroundBlur_768_2598"/>
<feBlend mode="normal" in="SourceGraphic" in2="effect1_backgroundBlur_768_2598" result="shape"/>
<feColorMatrix in="SourceAlpha" type="matrix" values="0 0 0 0 0 0 0 0 0 0 0 0 0 0 0 0 0 0 127 0" result="hardAlpha"/>
<feOffset dy="2.54662"/>
<feGaussianBlur stdDeviation="5.09324"/>
<feComposite in2="hardAlpha" operator="arithmetic" k2="-1" k3="1"/>
<feColorMatrix type="matrix" values="0 0 0 0 1 0 0 0 0 1 0 0 0 0 1 0 0 0 0.15 0"/>
<feBlend mode="normal" in2="shape" result="effect2_innerShadow_768_2598"/>
</filter>
<filter id="filter4_f_768_2598" x="23.5" y="31.5" width="37" height="57" filterUnits="userSpaceOnUse" color-interpolation-filters="sRGB">
<feFlood flood-opacity="0" result="BackgroundImageFix"/>
<feBlend mode="normal" in="SourceGraphic" in2="BackgroundImageFix" result="shape"/>
<feGaussianBlur stdDeviation="2" result="effect1_foregroundBlur_768_2598"/>
</filter>
<linearGradient id="paint0_linear_768_2598" x1="173.663" y1="161" x2="105.679" y2="160.007" gradientUnits="userSpaceOnUse">
<stop stop-color="#0038FF"/>
<stop offset="1" stop-color="#16E3D8"/>
</linearGradient>
<linearGradient id="paint1_linear_768_2598" x1="41.8927" y1="22.1306" x2="89.438" y2="95.919" gradientUnits="userSpaceOnUse">
<stop stop-color="#CCEFF3"/>
<stop offset="0.9999" stop-color="#017AF2"/>
<stop offset="1" stop-color="#9DC8D6"/>
</linearGradient>
<linearGradient id="paint2_linear_768_2598" x1="41.8927" y1="22.1306" x2="41.8927" y2="98.4119" gradientUnits="userSpaceOnUse">
<stop stop-color="#01E5FF"/>
<stop offset="0.9999" stop-color="#017AF2"/>
<stop offset="1" stop-color="#41889E"/>
</linearGradient>
<linearGradient id="paint3_linear_768_2598" x1="58.0488" y1="83.0001" x2="46.1041" y2="82.8967" gradientUnits="userSpaceOnUse">
<stop stop-color="#0038FF"/>
<stop offset="1" stop-color="#16E3D8"/>
</linearGradient>
</defs>
</svg>
