<svg width="94" height="90" viewBox="0 0 94 90" fill="none" xmlns="http://www.w3.org/2000/svg">
<path fill-rule="evenodd" clip-rule="evenodd" d="M6.64053 6.98581C6.73641 6.88664 6.86899 6.83148 7.00692 6.83339C11.3331 6.89324 16.626 6.92792 22.3349 6.94536L22.3318 7.94536C16.8521 7.92862 11.7531 7.89599 7.52272 7.84044C7.62065 10.2734 7.61169 12.9465 7.60211 15.806C7.57446 24.0577 7.54161 33.8621 10.0569 43.9313C13.4785 57.6283 21.6199 71.7539 41.0011 82.7636C44.9 80.6992 48.3436 78.4518 51.3853 76.0571C51.3511 75.8208 51.3333 75.5792 51.3333 75.3333V67.2279C48.5084 69.85 45.1742 72.2748 41.241 74.4381C41.0861 74.5233 40.8978 74.5204 40.7456 74.4305C15.1019 59.2774 15.1842 36.4821 15.2394 21.1993C15.248 18.8299 15.2559 16.6411 15.1672 14.6894C15.1609 14.5517 15.2118 14.4176 15.3077 14.3186C15.4036 14.2197 15.5361 14.1647 15.6739 14.1667C27.9826 14.3451 50.7752 14.237 61.216 14.1875C63.7779 14.1753 65.5961 14.1667 66.3333 14.1667C66.6095 14.1667 66.8333 14.3905 66.8333 14.6667C66.8333 15.4673 66.836 16.286 66.8387 17.1208C66.8565 22.5631 66.8764 28.6919 66.1745 34.9694C66.852 34.8798 67.5708 34.8333 68.3333 34.8333C70.2147 34.8333 71.8609 35.1162 73.2963 35.6238C74.5473 26.8211 74.5182 18.1661 74.4924 10.4861V10.486C74.4893 9.58825 74.4864 8.70379 74.4855 7.83398C73.297 7.83653 71.0861 7.84654 68.1384 7.85989L68.138 7.8599L68.1376 7.8599C65.7247 7.87083 62.8181 7.88399 59.5746 7.89713C51.7221 7.92894 41.8979 7.96057 32.3333 7.95984L32.3334 6.95984C41.896 6.96056 51.7185 6.92894 59.5705 6.89714C62.8104 6.88402 65.7153 6.87086 68.128 6.85993L68.1282 6.85993C71.5615 6.84438 73.9982 6.83334 74.9852 6.83334C75.2614 6.83334 75.4852 7.0572 75.4852 7.33334C75.4852 8.35805 75.4888 9.40566 75.4924 10.4737V10.4749V10.476V10.4772V10.4784C75.5189 18.2233 75.5489 27.0439 74.2514 36.0081C76.5289 37.041 78.2137 38.6849 79.4258 40.6546C81.4323 43.9152 82.1253 48.0335 82.1648 51.6667H85.6667C86.2189 51.6667 86.6667 52.1144 86.6667 52.6667V75.3334C86.6667 78.0948 84.4281 80.3333 81.6667 80.3333H56.3333C54.1985 80.3333 52.3762 78.9954 51.6591 77.1124C48.5893 79.4947 45.1277 81.727 41.225 83.776C41.0748 83.8549 40.8948 83.8522 40.747 83.7688C20.9391 72.5956 12.5839 58.1736 9.08672 44.1736C6.53849 33.9726 6.572 23.9621 6.59972 15.6836C6.60987 12.6503 6.61925 9.84954 6.50057 7.35712C6.49401 7.21934 6.54466 7.08497 6.64053 6.98581ZM52.4925 76.4542C52.9772 78.1178 54.5133 79.3333 56.3333 79.3333H81.6667C83.8758 79.3333 85.6667 77.5425 85.6667 75.3334V53.6667V52.6667H84.6667H53.3333H52.3333V53.6667V75.3333C52.3333 75.6351 52.3667 75.929 52.4301 76.2117L52.5733 76.3892C52.5464 76.4109 52.5195 76.4326 52.4925 76.4542ZM55.8343 51.6667C55.8545 48.0665 56.2155 43.9507 57.8884 40.6885C58.7561 38.9966 59.9811 37.5249 61.6983 36.4792C62.6885 35.8762 63.8319 35.4212 65.1483 35.1442C65.8762 28.8308 65.8564 22.6594 65.8387 17.1293V17.1292C65.8365 16.4658 65.8344 15.8116 65.8337 15.1675C64.9236 15.1699 63.3299 15.1775 61.2376 15.1874C50.9541 15.2362 28.6239 15.3422 16.1879 15.174C16.2561 17.0371 16.2504 19.0822 16.2443 21.2678C16.2019 36.5099 16.1405 58.5844 41.0088 73.4237C45.0781 71.159 48.4778 68.6132 51.319 65.8638L51.3333 65.8787V52.6667C51.3333 52.1144 51.781 51.6667 52.3333 51.6667H55.8343ZM62.2184 37.3333C63.2135 36.7273 64.4008 36.2761 65.8204 36.034L66.0451 36.0621L66.0533 35.9965C66.7563 35.8898 67.5148 35.8333 68.3333 35.8333C73.4892 35.8333 76.6631 38.0733 78.5741 41.1787C80.4175 44.1742 81.1034 48.0094 81.1624 51.5H56.8355C56.8665 47.9774 57.2427 44.1392 58.7782 41.1448C59.5773 39.5867 60.6856 38.2668 62.2184 37.3333ZM59.6667 60.1667C59.3905 60.1667 59.1667 60.3905 59.1667 60.6667V72C59.1667 72.2762 59.3905 72.5 59.6667 72.5H63C63.1326 72.5 63.2598 72.4473 63.3536 72.3536L67.3536 68.3536L66.6465 67.6465L62.7929 71.5H60.1667V61.1667H62.7929L73.9798 72.3536C74.0735 72.4473 74.2007 72.5 74.3333 72.5H77.6667C77.9428 72.5 78.1667 72.2762 78.1667 72V60.6667C78.1667 60.3905 77.9428 60.1667 77.6667 60.1667H74.3333C74.2007 60.1667 74.0735 60.2194 73.9798 60.3131L69.9798 64.3131L70.6869 65.0202L74.5404 61.1667H77.1667V71.5H74.5404L63.3536 60.3131C63.2598 60.2194 63.1326 60.1667 63 60.1667H59.6667Z" fill="url(#paint0_radial_595_6090)"/>
<g opacity="0.5" filter="url(#filter0_f_595_6090)">
<path d="M52.2594 76C48.9938 78.6332 45.2604 81.0926 40.9926 83.3334C1.63275 61.1311 7.89454 26.1199 7 7.33334C11.3288 7.39323 16.6237 7.42792 22.3333 7.44536M73.7474 36C75.2278 25.8203 74.9852 15.8241 74.9852 7.33334C71.6267 7.33334 51.4606 7.46129 32.3333 7.45984" stroke="#0038FF" stroke-width="3" stroke-linejoin="round"/>
<path d="M65.549 36C66.4986 28.4159 66.3334 21.0041 66.3334 14.6667C62.6 14.6667 31 14.8889 15.6667 14.6667C16.3334 29.3334 11.6667 56.6667 41 74C45.2172 71.6806 48.734 69.0611 51.6667 66.2231" stroke="#0038FF" stroke-width="3" stroke-linejoin="round"/>
<path d="M67 68L63 72H59.6667V60.6667H63L74.3334 72H77.6667V60.6667H74.3334L70.3334 64.6667" stroke="#0038FF" stroke-width="3" stroke-linejoin="round"/>
<path d="M68.3333 35.3333C57.6666 35.3333 56.3333 44.6667 56.3333 52H81.6666C81.6666 44.6667 79 35.3333 68.3333 35.3333Z" stroke="#0038FF" stroke-width="3" stroke-linejoin="round"/>
<path d="M52.3333 51.1667C51.5049 51.1667 50.8333 51.8383 50.8333 52.6667V75.3334C50.8333 78.3709 53.2957 80.8334 56.3333 80.8334H81.6666C84.7042 80.8334 87.1666 78.3709 87.1666 75.3334V52.6667C87.1666 51.8383 86.4951 51.1667 85.6666 51.1667H52.3333Z" stroke="#0038FF" stroke-width="3" stroke-linejoin="round"/>
</g>
<g opacity="0.8" filter="url(#filter1_f_595_6090)">
<path d="M58.3333 15.3333C58.3333 16.4379 34.5032 16.6667 25.6667 16.6667C16.8301 16.6667 15 16.4378 15 15.3333C15 14.2287 16.1634 14 25 14C33.8366 14 58.3333 14.2287 58.3333 15.3333Z" fill="#01EDFF"/>
</g>
<defs>
<filter id="filter0_f_595_6090" x="0.5" y="0.833344" width="93.1666" height="89" filterUnits="userSpaceOnUse" color-interpolation-filters="sRGB">
<feFlood flood-opacity="0" result="BackgroundImageFix"/>
<feBlend mode="normal" in="SourceGraphic" in2="BackgroundImageFix" result="shape"/>
<feGaussianBlur stdDeviation="2.5" result="effect1_foregroundBlur_595_6090"/>
</filter>
<filter id="filter1_f_595_6090" x="11" y="9.99997" width="51.3333" height="10.6667" filterUnits="userSpaceOnUse" color-interpolation-filters="sRGB">
<feFlood flood-opacity="0" result="BackgroundImageFix"/>
<feBlend mode="normal" in="SourceGraphic" in2="BackgroundImageFix" result="shape"/>
<feGaussianBlur stdDeviation="2" result="effect1_foregroundBlur_595_6090"/>
</filter>
<radialGradient id="paint0_radial_595_6090" cx="0" cy="0" r="1" gradientUnits="userSpaceOnUse" gradientTransform="translate(46.5795 45.3334) scale(39.5353 39.0526)">
<stop stop-color="#0069DA"/>
<stop offset="0.33" stop-color="#0083FF"/>
<stop offset="0.7" stop-color="#00CCFF"/>
<stop offset="1" stop-color="#00EDFF"/>
</radialGradient>
</defs>
</svg>
