<svg width="94" height="94" viewBox="0 0 94 94" fill="none" xmlns="http://www.w3.org/2000/svg">
<path fill-rule="evenodd" clip-rule="evenodd" d="M33.6804 47C33.6804 35.9946 35.2223 26.0524 37.7007 18.879C38.9407 15.2899 40.4059 12.4212 42.0081 10.4597C43.6135 8.4944 45.3033 7.5 47.0002 7.5C48.7077 7.5 50.4081 8.50697 52.0222 10.4965C53.633 12.4819 55.1041 15.3847 56.346 19.0137L57.2921 18.69C56.0296 15.0005 54.5113 11.9773 52.7988 9.86646C51.0896 7.75969 49.1327 6.5 47.0002 6.5C44.8809 6.5 42.9351 7.74418 41.2337 9.82709C39.5292 11.9138 38.0164 14.9029 36.7555 18.5524C34.2321 25.8563 32.6804 35.914 32.6804 47H33.6804ZM58.4314 26.8526C59.6307 32.7555 60.32 39.642 60.32 47H61.32C61.32 39.5822 60.6253 32.6285 59.4114 26.6535L58.4314 26.8526ZM34.348 59.29C34.7394 62.7842 35.2928 66.0636 35.9818 69.0538C36.149 69.0185 36.3223 69 36.5 69C37.4724 69 38.3152 69.5552 38.7286 70.3658C44.2979 67.0085 50.3801 62.2988 56.2846 56.556C62.4852 50.5252 67.553 44.2663 71.0959 38.5688C70.4345 38.119 70 37.3602 70 36.5C70 35.1193 71.1193 34 72.5 34C72.8764 34 73.2334 34.0832 73.5536 34.2322C75.2416 30.9111 76.2905 27.9091 76.6296 25.408C76.9912 22.7409 76.5371 20.7323 75.3081 19.4673C74.1437 18.2689 72.2942 17.7471 69.8255 17.9391C67.3607 18.1308 64.3551 19.0309 60.994 20.577C54.2764 23.6672 46.2428 29.2893 38.4612 36.7252L37.7708 36.0019C45.6095 28.5113 53.733 22.8162 60.5764 19.6682C63.9959 18.0952 67.1218 17.1461 69.748 16.9418C72.3703 16.7379 74.5711 17.2737 76.0249 18.7701C77.5596 20.3497 78.0015 22.7303 77.6202 25.5424C77.2555 28.2325 76.1294 31.3992 74.3672 34.8375C74.7608 35.2793 75 35.8617 75 36.5C75 37.8807 73.8807 39 72.5 39C72.3401 39 72.1837 38.985 72.0322 38.9563C68.4358 44.7711 63.2816 51.1456 56.9814 57.2732C50.9432 63.1461 44.7084 67.9595 38.9968 71.3713C38.9989 71.4139 39 71.4568 39 71.5C39 72.6054 38.2826 73.5433 37.2879 73.8733C38.5075 77.7232 39.9768 80.8426 41.6027 83.0208C43.3245 85.3273 45.1586 86.5 47.0002 86.5C48.3672 86.5 49.7265 85.8567 51.0458 84.5771C52.3674 83.2953 53.6193 81.4014 54.7517 78.9797C55.5974 77.1709 56.3703 75.0812 57.0533 72.7561C54.8364 71.5231 52.5253 70.0587 50.166 68.3866L50.7439 67.5704C53.0079 69.175 55.2186 70.5801 57.3344 71.7675C58.3452 68.0938 59.1383 63.8793 59.6523 59.29L60.6461 59.4013C60.1173 64.1225 59.2939 68.4708 58.2348 72.2627C60.9624 73.7322 63.5179 74.8256 65.8089 75.5021C70.1458 76.7828 73.3458 76.52 75.0709 74.7747C76.2123 73.6199 76.7024 71.831 76.5085 69.467C76.3147 67.1055 75.4412 64.2402 73.9465 61.039L74.8522 60.6156C76.3745 63.8758 77.2978 66.8616 77.5048 69.3852C77.7117 71.9062 77.2068 74.0362 75.7817 75.478C73.6368 77.6482 69.9217 77.7596 65.5259 76.4615C63.213 75.7785 60.659 74.6914 57.9513 73.2456C57.2704 75.5321 56.5011 77.5992 55.6576 79.4032C54.4954 81.8888 53.1811 83.8992 51.7421 85.2949C50.3008 86.6927 48.7051 87.5 47.0002 87.5C44.7005 87.5 42.6061 86.0366 40.8014 83.619C39.0583 81.2838 37.5261 77.9848 36.2763 73.9901C35.8256 73.9502 35.4092 73.7906 35.0592 73.5433C31.3017 75.4359 27.851 76.6306 24.9552 76.9873C22.0192 77.3488 19.5565 76.8573 17.9754 75.2299C15.8657 73.0586 15.8121 69.3811 17.1619 65.0563C17.8506 62.8495 18.9183 60.4255 20.3231 57.8616C17.6268 57.0378 15.2463 56.0881 13.2566 55.0361C9.14381 52.8613 6.52658 50.1501 6.52137 47.0686C6.51763 44.8569 7.86652 42.8322 10.1125 41.0728C12.2665 39.3855 15.3092 37.8884 19.004 36.643C19.0014 36.5957 19 36.548 19 36.5C19 35.7859 19.2995 35.1417 19.7796 34.6861C18.0333 31.2217 16.9226 28.034 16.5711 25.3303C16.2022 22.4931 16.6608 20.0979 18.218 18.5224C19.6292 17.0946 21.7251 16.5621 24.2143 16.7255C26.7056 16.8891 29.6592 17.7516 32.891 19.2005L32.4822 20.1133C29.3101 18.6912 26.4778 17.8766 24.1489 17.7237C21.8179 17.5706 20.0592 18.0822 18.9289 19.2258C17.6818 20.4875 17.2123 22.5083 17.5625 25.2013C17.8918 27.7338 18.9386 30.7808 20.6316 34.1549C20.9021 34.0547 21.1947 34 21.5 34C22.44 34 23.2589 34.5188 23.6858 35.2857C25.8545 34.7473 28.1809 34.2818 30.6354 33.8989L30.7895 34.887C28.3842 35.2621 26.1072 35.717 23.9868 36.2414C23.9955 36.3264 24 36.4127 24 36.5C24 37.299 23.6252 38.0105 23.0417 38.4682C26.5329 44.1678 31.523 50.4299 37.6339 56.4762C39.4034 58.227 41.1901 59.8838 42.9753 61.4377L42.3191 62.1923C40.5177 60.6243 38.7154 58.953 36.931 57.1875C30.7455 51.0673 25.6854 44.7148 22.1437 38.9163C21.9384 38.9709 21.7226 39 21.5 39C20.5188 39 19.6696 38.4347 19.2603 37.6119C15.6563 38.8321 12.7507 40.2765 10.7292 41.86C8.59794 43.5295 7.51837 45.2954 7.52137 47.0669C7.52556 49.5463 9.66266 52.0045 13.7241 54.152C15.7008 55.1973 18.0926 56.1457 20.8229 56.9683C22.1016 54.7293 23.6274 52.3927 25.3737 50.0082L26.1801 50.5993C24.5049 52.887 23.0415 55.1207 21.8105 57.2562C24.3827 57.9815 27.2311 58.5985 30.2973 59.085L30.1405 60.0727C26.9534 59.5669 23.9854 58.9196 21.3046 58.152C19.8746 60.7377 18.7992 63.1659 18.1161 65.3544C16.7856 69.6178 16.9959 72.7867 18.6922 74.5327C19.9585 75.836 22.0373 76.3388 24.8331 75.9945C27.5092 75.6649 30.7536 74.5668 34.3515 72.779C34.1283 72.4048 34 71.9674 34 71.5C34 70.6598 34.4145 69.9164 35.0502 69.4631C34.3317 66.382 33.7574 63.0014 33.3543 59.4013L34.348 59.29ZM36.5 70C37.1065 70 37.6289 70.3599 37.8653 70.8778L37.8643 70.8784L37.8701 70.8883C37.9536 71.0751 38 71.2822 38 71.5C38 72.3284 37.3285 73 36.5 73C35.6716 73 35 72.3284 35 71.5C35 70.6716 35.6716 70 36.5 70ZM84.0094 42.3689C82.3707 40.8924 79.9642 39.5208 76.9243 38.3229L77.2909 37.3925C80.3927 38.6148 82.9188 40.0402 84.6788 41.6259C86.4385 43.2114 87.4755 44.9992 87.4788 46.9315C87.4839 49.9794 84.9321 52.6734 80.9074 54.8482C76.8444 57.0438 71.1074 58.8103 64.3575 59.9407L64.1923 58.9544C70.8806 57.8344 76.5003 56.0931 80.432 53.9685C84.402 51.8232 86.4829 49.3848 86.4788 46.9332C86.4761 45.3849 85.6484 43.8456 84.0094 42.3689ZM21.5 38C22.3285 38 23 37.3284 23 36.5C23 35.6716 22.3285 35 21.5 35C20.6716 35 20 35.6716 20 36.5C20 37.3284 20.6716 38 21.5 38ZM74 36.5C74 37.3284 73.3285 38 72.5 38C71.6716 38 71 37.3284 71 36.5C71 35.6716 71.6716 35 72.5 35C73.3285 35 74 35.6716 74 36.5ZM48 46.5C48 47.3284 47.3285 48 46.5 48C45.6716 48 45 47.3284 45 46.5C45 45.6716 45.6716 45 46.5 45C47.3285 45 48 45.6716 48 46.5ZM49 46.5C49 47.8807 47.8807 49 46.5 49C45.1193 49 44 47.8807 44 46.5C44 45.1193 45.1193 44 46.5 44C47.8807 44 49 45.1193 49 46.5Z" fill="url(#paint0_radial_595_6106)"/>
<g opacity="0.5" filter="url(#filter0_f_595_6106)">
<path d="M60.8199 47C60.8199 39.6121 60.1279 32.692 58.9213 26.7531M33.1803 47C33.1803 24.9086 39.3676 7 47.0001 7C50.8402 7 54.3145 11.5333 56.819 18.8519M60.1491 59.3457C58.3517 75.3953 53.1441 87 47.0001 87C42.8588 87 39.143 81.7277 36.6102 73.3757M33.8511 59.3457C34.2662 63.0525 34.8633 66.5222 35.6118 69.6667" stroke="#0038FF" stroke-width="3" stroke-linejoin="round"/>
<path d="M25.7769 50.3038C17.806 61.1886 14.5279 70.964 18.3339 74.8814C21.1813 77.8121 27.4168 76.8699 35.0253 73M38.116 36.3636C53.7363 21.4371 70.4302 13.7292 75.6665 19.1187C78.4303 21.9634 77.4585 27.8971 73.6667 35.1016M71.8281 38.3334C68.2485 44.2037 63.0392 50.6839 56.6331 56.9147C50.3971 62.9799 43.957 67.9041 38.116 71.3105" stroke="#0038FF" stroke-width="3" stroke-linejoin="round"/>
<path d="M30.2188 59.5789C16.5299 57.4067 7.03067 52.6286 7.02126 47.0678C7.01452 43.0846 11.8782 39.4865 19.6666 36.9502M64.2748 59.4476C77.7131 57.1972 86.988 52.4319 86.9787 46.9324C86.9728 43.4518 83.2492 40.2779 77.1075 37.8577M30.7124 34.393C28.0736 34.8046 25.586 35.3119 23.2867 35.9021" stroke="#0038FF" stroke-width="3" stroke-linejoin="round"/>
<path d="M42.6472 61.8149C40.8539 60.254 39.0594 58.5899 37.2825 56.8318C30.9814 50.5973 25.8601 44.1276 22.3334 38.2647M50.4549 67.9784C61.5964 75.8746 71.5562 79.0419 75.4263 75.1263C77.9928 72.5297 77.4164 67.2886 74.3994 60.8273M32.6866 19.6568C26.2827 16.7858 21.115 16.3027 18.5735 18.874C15.7692 21.7113 16.7172 27.706 20.5017 35" stroke="#0038FF" stroke-width="3" stroke-linejoin="round"/>
<circle cx="21.5" cy="36.5" r="1.5" stroke="#0038FF" stroke-width="2" stroke-linejoin="round"/>
<circle cx="72.5" cy="36.5" r="1.5" stroke="#0038FF" stroke-width="2" stroke-linejoin="round"/>
<circle cx="36.5" cy="71.5" r="1.5" stroke="#0038FF" stroke-width="2" stroke-linejoin="round"/>
<circle cx="46.5" cy="46.5" r="1.5" stroke="#0038FF" stroke-width="2" stroke-linejoin="round"/>
</g>
<g opacity="0.8" filter="url(#filter1_f_595_6106)">
<path d="M65.6667 17.8173C66.3859 18.6989 49 27.5161 43.6667 33C39.2312 36.6185 37.7192 38.5482 37 37.6667C36.2808 36.7851 37.929 33.4619 42.3645 29.8434C46.7999 26.2249 64.9475 16.9357 65.6667 17.8173Z" fill="#01EDFF"/>
</g>
<g opacity="0.8" filter="url(#filter2_f_595_6106)">
<circle cx="46.3333" cy="46.3333" r="3.33333" fill="#01EDFF"/>
</g>
<g opacity="0.8" filter="url(#filter3_f_595_6106)">
<path d="M46.3334 29.6667C46.3334 31.5077 41.5076 37.6667 39.6667 37.6667C37.8257 37.6667 37.6667 38.1743 37.6667 36.3334C37.6667 34.4924 39.6667 32.3334 41.6667 31C43.5076 31 46.3334 27.8258 46.3334 29.6667Z" fill="#01EDFF"/>
</g>
<g opacity="0.8" filter="url(#filter4_f_595_6106)">
<circle cx="21" cy="37" r="3.33333" fill="#01EDFF"/>
</g>
<g opacity="0.4" filter="url(#filter5_f_595_6106)">
<circle cx="37" cy="71.6667" r="3.33333" fill="#01EDFF"/>
</g>
<g opacity="0.3" filter="url(#filter6_f_595_6106)">
<circle cx="73" cy="37" r="3.33333" fill="#01EDFF"/>
</g>
<defs>
<filter id="filter0_f_595_6106" x="0.52124" y="0.5" width="92.9574" height="93" filterUnits="userSpaceOnUse" color-interpolation-filters="sRGB">
<feFlood flood-opacity="0" result="BackgroundImageFix"/>
<feBlend mode="normal" in="SourceGraphic" in2="BackgroundImageFix" result="shape"/>
<feGaussianBlur stdDeviation="2.5" result="effect1_foregroundBlur_595_6106"/>
</filter>
<filter id="filter1_f_595_6106" x="32.8376" y="13.7587" width="36.8508" height="28.1199" filterUnits="userSpaceOnUse" color-interpolation-filters="sRGB">
<feFlood flood-opacity="0" result="BackgroundImageFix"/>
<feBlend mode="normal" in="SourceGraphic" in2="BackgroundImageFix" result="shape"/>
<feGaussianBlur stdDeviation="2" result="effect1_foregroundBlur_595_6106"/>
</filter>
<filter id="filter2_f_595_6106" x="39" y="39" width="14.6667" height="14.6667" filterUnits="userSpaceOnUse" color-interpolation-filters="sRGB">
<feFlood flood-opacity="0" result="BackgroundImageFix"/>
<feBlend mode="normal" in="SourceGraphic" in2="BackgroundImageFix" result="shape"/>
<feGaussianBlur stdDeviation="2" result="effect1_foregroundBlur_595_6106"/>
</filter>
<filter id="filter3_f_595_6106" x="33.6667" y="25.0925" width="16.6667" height="16.6384" filterUnits="userSpaceOnUse" color-interpolation-filters="sRGB">
<feFlood flood-opacity="0" result="BackgroundImageFix"/>
<feBlend mode="normal" in="SourceGraphic" in2="BackgroundImageFix" result="shape"/>
<feGaussianBlur stdDeviation="2" result="effect1_foregroundBlur_595_6106"/>
</filter>
<filter id="filter4_f_595_6106" x="13.6667" y="29.6667" width="14.6667" height="14.6667" filterUnits="userSpaceOnUse" color-interpolation-filters="sRGB">
<feFlood flood-opacity="0" result="BackgroundImageFix"/>
<feBlend mode="normal" in="SourceGraphic" in2="BackgroundImageFix" result="shape"/>
<feGaussianBlur stdDeviation="2" result="effect1_foregroundBlur_595_6106"/>
</filter>
<filter id="filter5_f_595_6106" x="29.6667" y="64.3333" width="14.6667" height="14.6667" filterUnits="userSpaceOnUse" color-interpolation-filters="sRGB">
<feFlood flood-opacity="0" result="BackgroundImageFix"/>
<feBlend mode="normal" in="SourceGraphic" in2="BackgroundImageFix" result="shape"/>
<feGaussianBlur stdDeviation="2" result="effect1_foregroundBlur_595_6106"/>
</filter>
<filter id="filter6_f_595_6106" x="65.6667" y="29.6667" width="14.6667" height="14.6667" filterUnits="userSpaceOnUse" color-interpolation-filters="sRGB">
<feFlood flood-opacity="0" result="BackgroundImageFix"/>
<feBlend mode="normal" in="SourceGraphic" in2="BackgroundImageFix" result="shape"/>
<feGaussianBlur stdDeviation="2" result="effect1_foregroundBlur_595_6106"/>
</filter>
<radialGradient id="paint0_radial_595_6106" cx="0" cy="0" r="1" gradientUnits="userSpaceOnUse" gradientTransform="translate(46.9962 47.0001) scale(39.9252 41.0813)">
<stop stop-color="#0069DA"/>
<stop offset="0.33" stop-color="#0083FF"/>
<stop offset="0.7" stop-color="#00CCFF"/>
<stop offset="1" stop-color="#00EDFF"/>
</radialGradient>
</defs>
</svg>
