<svg width="83" height="92" viewBox="0 0 83 92" fill="none" xmlns="http://www.w3.org/2000/svg">
<path fill-rule="evenodd" clip-rule="evenodd" d="M26.513 5.9939H26.013V6.4939C26.013 10.5266 27.1775 13.703 29.7856 16.7263C32.1424 19.4582 35.6717 22.0572 40.5408 25.0723C24.3504 25.9923 8.69408 41.664 6.18967 64.0961C5.24493 72.5581 7.69577 78.0687 11.5134 81.4513C15.3067 84.8125 20.3749 86.0062 24.5674 86.0062H40.8176H40.859H40.9004H40.9416H40.9828H41.024H41.0651H41.1061H41.147H41.1879H41.2288H41.2696H41.3103H41.351H41.3916H41.4321H41.4726H41.5131H41.5534H41.5938H41.634H41.6742H41.7144H41.7545H41.7945H41.8345H41.8744H41.9143H41.9541H41.9939H42.0336H42.0732H42.1128H42.1524H42.1919H42.2313H42.2707H42.31H42.3493H42.3885H42.4277H42.4668H42.5059H42.5449H42.5839H42.6228H42.6617H42.7005H42.7392H42.778H42.8166H42.8552H42.8938H42.9323H42.9708H43.0092H43.0476H43.0859H43.1242H43.1624H43.1634H43.2006H43.2388H43.2768H43.3149H43.3529H43.3908H43.4287H43.4666H43.5044H43.5422H43.5799H43.6176H43.6552H43.6928H43.7304H43.7679H43.8053H43.8427H43.8801H43.9174H43.9547H43.992H44.0292H44.0664H44.1035H44.1406H44.1776H44.2146H44.2516H44.2885H44.3254H44.3622H44.399H44.4358H44.4725H44.5092H44.5458H44.5824H44.619H44.6555H44.692H44.7285H44.7649H44.8013H44.8376H44.8739H44.9102H44.9465H44.9827H45.0188H45.055H45.0911H45.1271H45.1632H45.1992H45.2351H45.271H45.3069H45.3428H45.3786H45.4144H45.4502H45.4859H45.5216H45.5573H45.5929H45.6285H45.6641H45.6997H45.7352H45.7707H45.8061H45.8415H45.8769H45.9123H45.9477H45.983H46.0182H46.0535H46.0887H46.1239H46.1591H46.1942H46.2293H46.2644H46.2995H46.3345H46.3695H46.4045H46.4395H46.4744H46.5093H46.5442H46.5791H46.6139H46.6487H46.6835H46.7183H46.753H46.7877H46.8224H46.8571H46.8918H46.9264H46.961H46.9956H47.0301H47.0647H47.0992H47.1337H47.1682H47.2026H47.2371H47.2715H47.3059H47.3403H47.3747H47.409H47.4433H47.4776H47.5119H47.5462H47.5805H47.6147H47.6489H47.6831H47.7173H47.7515H47.7856H47.8198H47.8539H47.888H47.9221H47.9562H47.9903H48.0243H48.0584H48.0924H48.1264H48.1604H48.1944H48.2284H48.2623H48.2963H48.3302H48.3641H48.398H48.4319H48.4658H48.4997H48.5336H48.5674H48.6013H48.6351H48.6689H48.7028H48.7366H48.7704H48.8042H48.838H48.8717H48.9055H48.9393H48.973H49.0068H49.0405H49.0742H49.108H49.1417H49.1754H49.2091H49.2428H49.2765H49.3102H49.3439H49.3776H49.4113H49.4449H49.4786H49.5123H49.5459H49.5796H49.6133H49.6469H49.6806H49.7142H49.7479H49.7815H49.8152H49.8488H49.8825H49.9161H49.9498H49.9834H50.0171H50.0507H50.0844H50.118H50.1517H50.1853H50.219H50.2526H50.2863H50.3199H50.3536H50.3873H50.4209H50.4546H50.4883H50.522H50.5557H50.5893H50.623H50.6567H50.6904H50.7241H50.7579H50.7916H50.8253H50.859H50.8928H50.9265H50.9603H50.994H51.0278H51.0616H51.0954H51.1291H51.1629H51.1968H51.2306H51.2644H51.2982H51.3321H51.3659H51.3998H51.4337H51.4676H51.5015H51.5354H51.5693H51.6032H51.6372H51.6711H51.7051H51.7391H51.7731H51.8071H51.8411H51.8752H51.9092H51.9433H51.9773H52.0114H52.0455H52.0797H52.1138H52.148H52.1821H52.2163H52.2505H52.2847H52.319H52.3532H52.3875H52.4218H52.4561H52.4904H52.5248H52.5591H52.5935H52.6279H52.6623H52.6968H52.7312H52.7657H52.8002H52.8347H52.8692H52.9038H52.9384H52.973H53.0076H53.0423H53.0769H53.1116H53.1463H53.1811H53.2158H53.2506H53.2854H53.3202H53.3551H53.39H53.4249H53.4598H53.4948H53.5298H53.5648H53.5998H53.6348H53.6699H53.705H53.7402H53.7753H53.8105H53.8458H53.881H53.9163H53.9516H53.9869H54.0223H54.0577H54.0931H54.1285H54.164H54.1995H54.2351H54.2706H54.3062H54.3419H54.3775H54.4132H54.4489H54.4847H54.5205H54.5563H54.5922H54.6281H54.664H54.6999H54.7359H54.772H54.808H54.8441H54.8802H54.9164H54.9526H54.9888H55.0251H55.0614H55.0977H55.1341H55.1705H55.207H55.2435H55.28H55.3166H55.3531H55.3898H55.4265H55.4632H55.4999H55.5367H55.5736H55.6104H55.6473H55.6843H55.7213H55.7583H55.7954H55.8325H55.8697H55.9069H55.9441H55.9814H56.0187H56.0561H56.0935H56.1309H56.1684H56.206H56.2436H56.2812H56.3189H56.3566H56.3943H56.4321H56.47H56.5079H56.5458H56.5838H56.6219H56.6599H56.6981H56.7362H56.7745H56.8127H56.851H56.8894H56.9278H56.9663H57.0048H57.0433H57.082H57.1206H57.1593H57.1981H57.2369H57.2757H57.3146H57.3536H57.3926H57.4317H57.4708H57.51H57.5492H57.5884H57.6278H57.6671H57.7066H57.746H57.7856H57.8252H57.8648H57.9045H57.9443H57.9841H58.0239H58.0638H58.1038H58.1438H58.1839H58.2241H58.2642H58.3045H58.3448H58.3852H58.4256H58.4661H58.5066H58.5472H58.5879H58.6286H58.6694H58.7102H58.7511H58.792H58.8331H58.8741H58.9153H58.9565H58.9977H59.039H59.0804H59.1218H59.1633H59.2049H59.2465H59.2882H59.33H59.3718H59.4136C63.6061 86.0062 68.6743 84.8125 72.4676 81.4513C76.2852 78.0687 78.7361 72.5581 77.7913 64.0961C76.5082 52.6029 71.4513 42.846 64.8108 35.9589C58.6246 29.543 51.034 25.5895 43.8098 25.0852C47.4579 22.616 50.4659 20.3468 52.6903 17.6918C55.1883 14.7103 56.6859 11.259 57.0512 6.53243L57.0929 5.9939H56.5527H26.513ZM30.5428 16.0731C32.9749 18.8924 36.7629 21.6164 42.2354 24.938C46.3463 22.1958 49.5969 19.8269 51.9238 17.0496C54.1881 14.347 55.5888 11.2426 56.007 6.9939H27.0194C27.1116 10.552 28.2027 13.3606 30.5428 16.0731ZM40.859 85.0062H40.8176H24.5674C20.5347 85.0062 15.7323 83.8536 12.1765 80.7029C8.64499 77.5737 6.26802 72.4069 7.18349 64.207C9.73597 41.3444 26.1116 25.9024 42.2441 26.0303L42.2481 26.0303C49.5878 26.0303 57.5917 29.9125 64.0909 36.653C70.5833 43.3865 75.5396 52.9402 76.7975 64.207C77.713 72.4069 75.336 77.5737 71.8045 80.7029C68.2487 83.8536 63.4463 85.0062 59.4136 85.0062H59.3718H59.33H59.2882H59.2465H59.2049H59.1633H59.1218H59.0804H59.039H58.9977H58.9565H58.9153H58.8741H58.8331H58.792H58.7511H58.7102H58.6694H58.6286H58.5879H58.5472H58.5066H58.4661H58.4256H58.3852H58.3448H58.3045H58.2642H58.2241H58.1839H58.1438H58.1038H58.0638H58.0239H57.9841H57.9443H57.9045H57.8648H57.8252H57.7856H57.746H57.7066H57.6671H57.6278H57.5884H57.5492H57.51H57.4708H57.4317H57.3926H57.3536H57.3146H57.2757H57.2369H57.1981H57.1593H57.1206H57.082H57.0433H57.0048H56.9663H56.9278H56.8894H56.851H56.8127H56.7745H56.7362H56.6981H56.6599H56.6219H56.5838H56.5458H56.5079H56.47H56.4321H56.3943H56.3566H56.3189H56.2812H56.2436H56.206H56.1684H56.1309H56.0935H56.0561H56.0187H55.9814H55.9441H55.9069H55.8697H55.8325H55.7954H55.7583H55.7213H55.6843H55.6473H55.6104H55.5736H55.5367H55.4999H55.4632H55.4265H55.3898H55.3531H55.3166H55.28H55.2435H55.207H55.1705H55.1341H55.0977H55.0614H55.0251H54.9888H54.9526H54.9164H54.8802H54.8441H54.808H54.772H54.7359H54.6999H54.664H54.6281H54.5922H54.5563H54.5205H54.4847H54.4489H54.4132H54.3775H54.3419H54.3062H54.2706H54.2351H54.1995H54.164H54.1285H54.0931H54.0577H54.0223H53.9869H53.9516H53.9163H53.881H53.8458H53.8105H53.7753H53.7402H53.705H53.6699H53.6348H53.5998H53.5648H53.5298H53.4948H53.4598H53.4249H53.39H53.3551H53.3202H53.2854H53.2506H53.2158H53.1811H53.1463H53.1116H53.0769H53.0423H53.0076H52.973H52.9384H52.9038H52.8692H52.8347H52.8002H52.7657H52.7312H52.6968H52.6623H52.6279H52.5935H52.5591H52.5248H52.4904H52.4561H52.4218H52.3875H52.3532H52.319H52.2847H52.2505H52.2163H52.1821H52.148H52.1138H52.0797H52.0455H52.0114H51.9773H51.9433H51.9092H51.8752H51.8411H51.8071H51.7731H51.7391H51.7051H51.6711H51.6372H51.6032H51.5693H51.5354H51.5015H51.4676H51.4337H51.3998H51.3659H51.3321H51.2982H51.2644H51.2306H51.1968H51.1629H51.1291H51.0954H51.0616H51.0278H50.994H50.9603H50.9265H50.8928H50.859H50.8253H50.7916H50.7579H50.7241H50.6904H50.6567H50.623H50.5893H50.5557H50.522H50.4883H50.4546H50.4209H50.3873H50.3536H50.3199H50.2863H50.2526H50.219H50.1853H50.1517H50.118H50.0844H50.0507H50.0171H49.9834H49.9498H49.9161H49.8825H49.8488H49.8152H49.7815H49.7479H49.7142H49.6806H49.6469H49.6133H49.5796H49.5459H49.5123H49.4786H49.4449H49.4113H49.3776H49.3439H49.3102H49.2765H49.2428H49.2091H49.1754H49.1417H49.108H49.0742H49.0405H49.0068H48.973H48.9393H48.9055H48.8717H48.838H48.8042H48.7704H48.7366H48.7028H48.6689H48.6351H48.6013H48.5674H48.5336H48.4997H48.4658H48.4319H48.398H48.3641H48.3302H48.2963H48.2623H48.2284H48.1944H48.1604H48.1264H48.0924H48.0584H48.0243H47.9903H47.9562H47.9221H47.888H47.8539H47.8198H47.7856H47.7515H47.7173H47.6831H47.6489H47.6147H47.5805H47.5462H47.5119H47.4776H47.4433H47.409H47.3747H47.3403H47.3059H47.2715H47.2371H47.2026H47.1682H47.1337H47.0992H47.0647H47.0301H46.9956H46.961H46.9264H46.8918H46.8571H46.8224H46.7877H46.753H46.7183H46.6835H46.6487H46.6139H46.5791H46.5442H46.5093H46.4744H46.4395H46.4045H46.3695H46.3345H46.2995H46.2644H46.2293H46.1942H46.1591H46.1239H46.0887H46.0535H46.0182H45.983H45.9477H45.9123H45.8769H45.8415H45.8061H45.7707H45.7352H45.6997H45.6641H45.6285H45.5929H45.5573H45.5216H45.4859H45.4502H45.4144H45.3786H45.3428H45.3069H45.271H45.2351H45.1992H45.1632H45.1271H45.0911H45.055H45.0188H44.9827H44.9465H44.9102H44.8739H44.8376H44.8013H44.7649H44.7285H44.692H44.6555H44.619H44.5824H44.5458H44.5092H44.4725H44.4358H44.399H44.3622H44.3254H44.2885H44.2516H44.2146H44.1776H44.1406H44.1035H44.0664H44.0292H43.992H43.9547H43.9174H43.8801H43.8427H43.8053H43.7679H43.7304H43.6928H43.6552H43.6176H43.5799H43.5422H43.5044H43.4666H43.4287H43.3908H43.3529H43.3149H43.2768H43.2388H43.2006H43.1634H43.1624H43.1242H43.0859H43.0476H43.0092H42.9708H42.9323H42.8938H42.8552H42.8166H42.778H42.7392H42.7005H42.6617H42.6228H42.5839H42.5449H42.5059H42.4668H42.4277H42.3885H42.3493H42.31H42.2707H42.2313H42.1919H42.1524H42.1128H42.0732H42.0336H41.9939H41.9541H41.9143H41.8744H41.8345H41.7945H41.7545H41.7144H41.6742H41.634H41.5938H41.5534H41.5131H41.4726H41.4321H41.3916H41.351H41.3103H41.2696H41.2288H41.1879H41.147H41.1061H41.0651H41.024H40.9828H40.9416H40.9004H40.859ZM42.5253 35.8904C42.8014 35.8904 43.0253 36.1142 43.0253 36.3904L43.0253 41.5925C46.2734 41.6918 48.3081 42.7612 49.5037 44.1629C50.7466 45.6201 51.0216 47.3664 50.8898 48.5469C50.8591 48.8213 50.6118 49.019 50.3374 48.9883C50.0629 48.9577 49.8653 48.7104 49.8959 48.4359C50.0025 47.481 49.7768 46.024 48.7429 44.8119C47.7219 43.6148 45.8505 42.585 42.5253 42.585C39.2298 42.585 37.4153 43.772 36.4112 45.0615C35.3865 46.3774 35.1577 47.8626 35.1577 48.4914C35.1577 49.7327 35.7549 50.9103 37.0117 52.0313C38.2758 53.1588 40.1782 54.2 42.7001 55.1412C45.5466 56.2035 47.7722 57.1184 49.2767 58.3351C50.0402 58.9524 50.6296 59.6554 51.0248 60.5036C51.4195 61.3505 51.608 62.3153 51.608 63.4397C51.608 66.2112 49.7927 67.773 47.8175 68.6155C46.116 69.3412 44.2215 69.5742 43.0253 69.6235V74.8291C43.0253 75.1053 42.8014 75.3291 42.5253 75.3291C42.2491 75.3291 42.0253 75.1053 42.0253 74.8291V69.6139C40.8365 69.5224 39.0823 69.1109 37.5999 68.1273C36.7388 67.556 35.9566 66.7828 35.4403 65.7552C34.9222 64.724 34.6869 63.4661 34.8769 61.9538C34.9113 61.6798 35.1613 61.4855 35.4353 61.52C35.7093 61.5544 35.9035 61.8044 35.8691 62.0784C35.7014 63.4133 35.9132 64.4689 36.3339 65.3062C36.7563 66.1471 37.4046 66.7976 38.1527 67.294C39.6635 68.2964 41.5288 68.6343 42.5253 68.6343C43.5632 68.6343 45.6339 68.4597 47.4251 67.6956C49.2049 66.9365 50.608 65.651 50.608 63.4397C50.608 62.4287 50.439 61.6139 50.1184 60.9259C49.7984 60.2393 49.315 59.652 48.648 59.1127C47.2916 58.0159 45.2258 57.1512 42.3505 56.0781C39.7722 55.1158 37.7408 54.0215 36.3461 52.7776C34.9442 51.5272 34.1577 50.0974 34.1577 48.4914C34.1577 47.6966 34.4296 45.9785 35.6222 44.4471C36.7775 42.9634 38.7549 41.7097 42.0253 41.5937L42.0253 36.3904C42.0253 36.1142 42.2491 35.8904 42.5253 35.8904Z" fill="url(#paint0_linear_429_4046)"/>
<g opacity="0.5" filter="url(#filter0_f_429_4046)">
<path d="M50.3927 48.4914C50.6311 46.3559 49.3914 42.085 42.5252 42.085M42.5252 42.085C35.659 42.085 34.6576 47.0677 34.6576 48.4914C34.6576 51.3387 37.425 53.7062 42.5252 55.6096C48.247 57.7451 51.1079 59.1688 51.1079 63.4397C51.1079 68.4225 44.6709 69.1343 42.5252 69.1343C40.3795 69.1343 34.6576 67.7107 35.3729 62.0161M42.5252 42.085L42.5251 36.3904" stroke="#0038FF" stroke-width="3" stroke-linecap="round"/>
<path d="M42.5253 69.1345V74.8291" stroke="#0038FF" stroke-width="3" stroke-linecap="round"/>
<path d="M40.8175 85.5062C47.8864 85.5062 52.2612 85.5062 59.4135 85.5062C67.6387 85.5062 79.1545 80.8135 77.2943 64.1515C74.7533 41.3916 57.2679 25.5303 42.248 25.5303M43.1633 85.5062H24.5673C16.3421 85.5062 4.82627 80.8135 6.68648 64.1515C9.25901 41.1093 25.7902 25.3999 42.248 25.5303M42.248 25.5303C50.7143 19.8996 55.8374 15.7476 56.5526 6.4939H26.5129C26.5129 14.324 31.0043 18.7338 42.248 25.5303Z" stroke="#0038FF" stroke-width="3"/>
<g opacity="0.8" filter="url(#filter1_f_429_4046)">
<path d="M53.4999 7C53.4999 7.82843 35.6273 8.00002 28.9999 8.00002C22.3725 8.00002 20.9999 7.8284 20.9999 6.99998C20.9999 6.17155 21.8725 6 28.4999 6C35.1273 6 53.4999 6.17157 53.4999 7Z" fill="#01EDFF"/>
</g>
</g>
<g opacity="0.8" filter="url(#filter2_f_429_4046)">
<circle cx="26.9999" cy="7" r="2" fill="#01EDFF"/>
</g>
<g opacity="0.8" filter="url(#filter3_f_429_4046)">
<circle cx="36.9999" cy="44" r="2" fill="#01EDFF"/>
</g>
<defs>
<filter id="filter0_f_429_4046" x="0.986877" y="0.993896" width="82.007" height="90.0123" filterUnits="userSpaceOnUse" color-interpolation-filters="sRGB">
<feFlood flood-opacity="0" result="BackgroundImageFix"/>
<feBlend mode="normal" in="SourceGraphic" in2="BackgroundImageFix" result="shape"/>
<feGaussianBlur stdDeviation="2" result="effect1_foregroundBlur_429_4046"/>
</filter>
<filter id="filter1_f_429_4046" x="16.9999" y="2" width="40.5" height="10" filterUnits="userSpaceOnUse" color-interpolation-filters="sRGB">
<feFlood flood-opacity="0" result="BackgroundImageFix"/>
<feBlend mode="normal" in="SourceGraphic" in2="BackgroundImageFix" result="shape"/>
<feGaussianBlur stdDeviation="2" result="effect1_foregroundBlur_429_4046"/>
</filter>
<filter id="filter2_f_429_4046" x="20.9999" y="1" width="12" height="12" filterUnits="userSpaceOnUse" color-interpolation-filters="sRGB">
<feFlood flood-opacity="0" result="BackgroundImageFix"/>
<feBlend mode="normal" in="SourceGraphic" in2="BackgroundImageFix" result="shape"/>
<feGaussianBlur stdDeviation="2" result="effect1_foregroundBlur_429_4046"/>
</filter>
<filter id="filter3_f_429_4046" x="30.9999" y="38" width="12" height="12" filterUnits="userSpaceOnUse" color-interpolation-filters="sRGB">
<feFlood flood-opacity="0" result="BackgroundImageFix"/>
<feBlend mode="normal" in="SourceGraphic" in2="BackgroundImageFix" result="shape"/>
<feGaussianBlur stdDeviation="2" result="effect1_foregroundBlur_429_4046"/>
</filter>
<linearGradient id="paint0_linear_429_4046" x1="41.8915" y1="7.15366" x2="41.8915" y2="85.403" gradientUnits="userSpaceOnUse">
<stop stop-color="#01E5FF"/>
<stop offset="0.9999" stop-color="#017AF2"/>
<stop offset="1" stop-color="#41889E"/>
</linearGradient>
</defs>
</svg>
