<svg width="164" height="176" viewBox="0 0 164 176" fill="none" xmlns="http://www.w3.org/2000/svg">
<path fill-rule="evenodd" clip-rule="evenodd" d="M37.4578 11C37.8947 11 38.2809 11.2836 38.4118 11.7004C39.559 15.3527 42.9716 18 47 18H63C67.0284 18 70.441 15.3527 71.5882 11.7004C71.7191 11.2836 72.1053 11 72.5422 11H83C91.8366 11 99 18.1634 99 27V137H98V27C98 18.7157 91.2843 12 83 12H72.5422C71.2679 16.0571 67.4776 19 63 19H47C42.5224 19 38.7321 16.0571 37.4578 12H28C19.7157 12 13 18.7157 13 27V149C13 157.284 19.7157 164 28 164H83C91.2843 164 98 157.284 98 149V145H99V149C99 157.837 91.8366 165 83 165H28C19.1634 165 12 157.837 12 149V27C12 18.1634 19.1634 11 28 11H37.4578ZM7 33V150C7 160.493 15.5066 169 26 169H84C94.4934 169 103 160.493 103 150V26C103 15.5066 94.4934 7 84 7H26C15.842 7 7.54588 14.9714 7.02586 25H6.02457C6.5456 14.4189 15.2896 6 26 6H84C95.0457 6 104 14.9543 104 26V150C104 161.046 95.0457 170 84 170H26C14.9543 170 6 161.046 6 150V33H7ZM70.5 127H41.5C37.9101 127 35 129.91 35 133.5C35 137.09 37.9102 140 41.5 140H70.5C74.0899 140 77 137.09 77 133.5C77 129.91 74.0899 127 70.5 127ZM41.5 126C37.3579 126 34 129.358 34 133.5C34 137.642 37.3579 141 41.5 141H70.5C74.6421 141 78 137.642 78 133.5C78 129.358 74.6421 126 70.5 126H41.5Z" fill="url(#paint0_linear_768_2678)"/>
<g opacity="0.5" filter="url(#filter0_f_768_2678)">
<path d="M38.4118 11.7004L36.9808 12.1498L36.9808 12.1498L38.4118 11.7004ZM71.5882 11.7004L70.1571 11.2509L70.1571 11.2509L71.5882 11.7004ZM99 137V138.5C99.8284 138.5 100.5 137.828 100.5 137H99ZM98 137H96.5C96.5 137.828 97.1716 138.5 98 138.5V137ZM72.5422 12V10.5C71.8869 10.5 71.3075 10.9254 71.1111 11.5505L72.5422 12ZM37.4578 12L38.8889 11.5505C38.6925 10.9254 38.1131 10.5 37.4578 10.5V12ZM98 145V143.5C97.1716 143.5 96.5 144.172 96.5 145H98ZM99 145H100.5C100.5 144.172 99.8284 143.5 99 143.5V145ZM7 33H8.5C8.5 32.1716 7.82843 31.5 7 31.5V33ZM7.02586 25V26.5C7.8241 26.5 8.48252 25.8748 8.52385 25.0777L7.02586 25ZM6.02457 25L4.52638 24.9262C4.50618 25.3364 4.65501 25.7368 4.93814 26.0342C5.22126 26.3317 5.61394 26.5 6.02457 26.5V25ZM6 33V31.5C5.17157 31.5 4.5 32.1716 4.5 33H6ZM39.8429 11.2509C39.5157 10.2089 38.5499 9.5 37.4578 9.5V12.5C37.2394 12.5 37.0462 12.3582 36.9808 12.1498L39.8429 11.2509ZM47 16.5C43.6452 16.5 40.7992 14.2956 39.8429 11.2509L36.9808 12.1498C38.3187 16.4097 42.2981 19.5 47 19.5V16.5ZM63 16.5H47V19.5H63V16.5ZM70.1571 11.2509C69.2008 14.2956 66.3548 16.5 63 16.5V19.5C67.7019 19.5 71.6813 16.4097 73.0192 12.1498L70.1571 11.2509ZM72.5422 9.5C71.4501 9.5 70.4843 10.2089 70.1571 11.2509L73.0192 12.1498C72.9538 12.3582 72.7606 12.5 72.5422 12.5V9.5ZM83 9.5H72.5422V12.5H83V9.5ZM100.5 27C100.5 17.335 92.665 9.5 83 9.5V12.5C91.0081 12.5 97.5 18.9919 97.5 27H100.5ZM100.5 137V27H97.5V137H100.5ZM99 135.5H98V138.5H99V135.5ZM96.5 27V137H99.5V27H96.5ZM83 13.5C90.4558 13.5 96.5 19.5442 96.5 27H99.5C99.5 17.8873 92.1127 10.5 83 10.5V13.5ZM72.5422 13.5H83V10.5H72.5422V13.5ZM63 20.5C68.1516 20.5 72.5083 17.1138 73.9733 12.4495L71.1111 11.5505C70.0276 15.0004 66.8037 17.5 63 17.5V20.5ZM47 20.5H63V17.5H47V20.5ZM36.0267 12.4495C37.4917 17.1138 41.8484 20.5 47 20.5V17.5C43.1963 17.5 39.9724 15.0004 38.8889 11.5505L36.0267 12.4495ZM28 13.5H37.4578V10.5H28V13.5ZM14.5 27C14.5 19.5442 20.5442 13.5 28 13.5V10.5C18.8873 10.5 11.5 17.8873 11.5 27H14.5ZM14.5 149V27H11.5V149H14.5ZM28 162.5C20.5442 162.5 14.5 156.456 14.5 149H11.5C11.5 158.113 18.8873 165.5 28 165.5V162.5ZM83 162.5H28V165.5H83V162.5ZM96.5 149C96.5 156.456 90.4558 162.5 83 162.5V165.5C92.1127 165.5 99.5 158.113 99.5 149H96.5ZM96.5 145V149H99.5V145H96.5ZM98 146.5H99V143.5H98V146.5ZM100.5 149V145H97.5V149H100.5ZM83 166.5C92.665 166.5 100.5 158.665 100.5 149H97.5C97.5 157.008 91.0081 163.5 83 163.5V166.5ZM28 166.5H83V163.5H28V166.5ZM10.5 149C10.5 158.665 18.335 166.5 28 166.5V163.5C19.9919 163.5 13.5 157.008 13.5 149H10.5ZM10.5 27V149H13.5V27H10.5ZM28 9.5C18.335 9.5 10.5 17.335 10.5 27H13.5C13.5 18.9919 19.9919 12.5 28 12.5V9.5ZM37.4578 9.5H28V12.5H37.4578V9.5ZM8.5 150V33H5.5V150H8.5ZM26 167.5C16.335 167.5 8.5 159.665 8.5 150H5.5C5.5 161.322 14.6782 170.5 26 170.5V167.5ZM84 167.5H26V170.5H84V167.5ZM101.5 150C101.5 159.665 93.665 167.5 84 167.5V170.5C95.3218 170.5 104.5 161.322 104.5 150H101.5ZM101.5 26V150H104.5V26H101.5ZM84 8.5C93.665 8.5 101.5 16.335 101.5 26H104.5C104.5 14.6782 95.3218 5.5 84 5.5V8.5ZM26 8.5H84V5.5H26V8.5ZM8.52385 25.0777C9.00275 15.8421 16.6444 8.5 26 8.5V5.5C15.0396 5.5 6.08901 14.1008 5.52788 24.9223L8.52385 25.0777ZM7.02586 23.5H6.02457V26.5H7.02586V23.5ZM7.52275 25.0738C8.00464 15.2875 16.0933 7.5 26 7.5V4.5C14.4859 4.5 5.08655 13.5503 4.52638 24.9262L7.52275 25.0738ZM26 7.5H84V4.5H26V7.5ZM84 7.5C94.2173 7.5 102.5 15.7827 102.5 26H105.5C105.5 14.1259 95.8741 4.5 84 4.5V7.5ZM102.5 26V150H105.5V26H102.5ZM102.5 150C102.5 160.217 94.2173 168.5 84 168.5V171.5C95.8741 171.5 105.5 161.874 105.5 150H102.5ZM84 168.5H26V171.5H84V168.5ZM26 168.5C15.7827 168.5 7.5 160.217 7.5 150H4.5C4.5 161.874 14.1259 171.5 26 171.5V168.5ZM7.5 150V33H4.5V150H7.5ZM6 34.5H7V31.5H6V34.5ZM41.5 128.5H70.5V125.5H41.5V128.5ZM36.5 133.5C36.5 130.739 38.7386 128.5 41.5 128.5V125.5C37.0817 125.5 33.5 129.082 33.5 133.5H36.5ZM41.5 138.5C38.7386 138.5 36.5 136.261 36.5 133.5H33.5C33.5 137.918 37.0817 141.5 41.5 141.5V138.5ZM70.5 138.5H41.5V141.5H70.5V138.5ZM75.5 133.5C75.5 136.261 73.2614 138.5 70.5 138.5V141.5C74.9183 141.5 78.5 137.918 78.5 133.5H75.5ZM70.5 128.5C73.2614 128.5 75.5 130.739 75.5 133.5H78.5C78.5 129.082 74.9183 125.5 70.5 125.5V128.5ZM35.5 133.5C35.5 130.186 38.1863 127.5 41.5 127.5V124.5C36.5294 124.5 32.5 128.529 32.5 133.5H35.5ZM41.5 139.5C38.1863 139.5 35.5 136.814 35.5 133.5H32.5C32.5 138.471 36.5294 142.5 41.5 142.5V139.5ZM70.5 139.5H41.5V142.5H70.5V139.5ZM76.5 133.5C76.5 136.814 73.8137 139.5 70.5 139.5V142.5C75.4706 142.5 79.5 138.471 79.5 133.5H76.5ZM70.5 127.5C73.8137 127.5 76.5 130.186 76.5 133.5H79.5C79.5 128.529 75.4706 124.5 70.5 124.5V127.5ZM41.5 127.5H70.5V124.5H41.5V127.5Z" fill="#0038FF"/>
</g>
<g opacity="0.4" filter="url(#filter1_f_768_2678)">
<path d="M80 6.99999C80 7.8284 38.4196 8.50003 27 8.50003C24 8.50003 24 7.82838 24 6.99997C24 6.17155 25.5035 6 36.9231 6C48.3426 6 80 6.17157 80 6.99999Z" fill="#01EDFF"/>
</g>
<g opacity="0.6" filter="url(#filter2_f_768_2678)">
<circle cx="25" cy="7" r="1" fill="#01EDFF"/>
</g>
<g filter="url(#filter3_f_768_2678)">
<circle cx="30.5" cy="34.5" r="2.5" fill="#01EDFF"/>
</g>
<g opacity="0.8" filter="url(#filter4_f_768_2678)">
<path d="M60.5 33C60.5 33.8284 42.6274 34 36 34C29.3726 34 28 33.8284 28 33C28 32.1716 28.8726 32 35.5 32C42.1274 32 60.5 32.1716 60.5 33Z" fill="#01EDFF"/>
</g>
<g filter="url(#filter5_bi_768_2678)">
<rect x="26" y="31" width="132" height="82" rx="2.79" fill="url(#paint1_linear_768_2678)" fill-opacity="0.1"/>
<rect x="26.5" y="31.5" width="131" height="81" rx="2.29" stroke="url(#paint2_linear_768_2678)" stroke-opacity="0.1"/>
</g>
<path fill-rule="evenodd" clip-rule="evenodd" d="M46 46C45.4477 46 45 46.4477 45 47V61C45 61.5523 45.4477 62 46 62H66C66.5523 62 67 61.5523 67 61V47C67 46.4477 66.5523 46 66 46H46ZM46 47H47H65H66V48V60V61H65H47H46V60V48V47ZM90 49.5C90.2761 49.5 90.5 49.7239 90.5 50V57C90.5 57.2761 90.2761 57.5 90 57.5C89.7239 57.5 89.5 57.2761 89.5 57V50C89.5 49.7239 89.7239 49.5 90 49.5ZM102 49.5C102.276 49.5 102.5 49.7239 102.5 50V57C102.5 57.2761 102.276 57.5 102 57.5C101.724 57.5 101.5 57.2761 101.5 57V50C101.5 49.7239 101.724 49.5 102 49.5ZM112.5 50C112.5 49.7239 112.276 49.5 112 49.5C111.724 49.5 111.5 49.7239 111.5 50V57C111.5 57.2761 111.724 57.5 112 57.5C112.276 57.5 112.5 57.2761 112.5 57V50ZM129 49.5C129.276 49.5 129.5 49.7239 129.5 50V57C129.5 57.2761 129.276 57.5 129 57.5C128.724 57.5 128.5 57.2761 128.5 57V50C128.5 49.7239 128.724 49.5 129 49.5ZM139.5 50C139.5 49.7239 139.276 49.5 139 49.5C138.724 49.5 138.5 49.7239 138.5 50V57C138.5 57.2761 138.724 57.5 139 57.5C139.276 57.5 139.5 57.2761 139.5 57V50ZM26.5 82C26.5 81.7239 26.7239 81.5 27 81.5H57.5C62.4706 81.5 66.5 85.5294 66.5 90.5C66.5 95.4706 62.4706 99.5 57.5 99.5H27C26.7239 99.5 26.5 99.2761 26.5 99C26.5 98.7239 26.7239 98.5 27 98.5H57.5C61.9183 98.5 65.5 94.9183 65.5 90.5C65.5 86.0817 61.9183 82.5 57.5 82.5H27C26.7239 82.5 26.5 82.2761 26.5 82Z" fill="url(#paint3_linear_768_2678)"/>
<g opacity="0.5" filter="url(#filter6_f_768_2678)">
<path d="M46 47V45.5C45.1716 45.5 44.5 46.1716 44.5 47H46ZM66 47H67.5C67.5 46.1716 66.8284 45.5 66 45.5V47ZM66 61V62.5C66.8284 62.5 67.5 61.8284 67.5 61H66ZM46 61H44.5C44.5 61.8284 45.1716 62.5 46 62.5V61ZM46.5 47C46.5 47.2761 46.2761 47.5 46 47.5V44.5C44.6193 44.5 43.5 45.6193 43.5 47H46.5ZM46.5 61V47H43.5V61H46.5ZM46 60.5C46.2761 60.5 46.5 60.7239 46.5 61H43.5C43.5 62.3807 44.6193 63.5 46 63.5V60.5ZM66 60.5H46V63.5H66V60.5ZM65.5 61C65.5 60.7239 65.7239 60.5 66 60.5V63.5C67.3807 63.5 68.5 62.3807 68.5 61H65.5ZM65.5 47V61H68.5V47H65.5ZM66 47.5C65.7239 47.5 65.5 47.2761 65.5 47H68.5C68.5 45.6193 67.3807 44.5 66 44.5V47.5ZM46 47.5H66V44.5H46V47.5ZM47 45.5H46V48.5H47V45.5ZM65 45.5H47V48.5H65V45.5ZM66 45.5H65V48.5H66V45.5ZM67.5 48V47H64.5V48H67.5ZM67.5 60V48H64.5V60H67.5ZM67.5 61V60H64.5V61H67.5ZM65 62.5H66V59.5H65V62.5ZM47 62.5H65V59.5H47V62.5ZM46 62.5H47V59.5H46V62.5ZM44.5 60V61H47.5V60H44.5ZM44.5 48V60H47.5V48H44.5ZM44.5 47V48H47.5V47H44.5ZM92 50C92 48.8954 91.1046 48 90 48V51C89.4477 51 89 50.5523 89 50H92ZM92 57V50H89V57H92ZM90 59C91.1046 59 92 58.1046 92 57H89C89 56.4477 89.4477 56 90 56V59ZM88 57C88 58.1046 88.8954 59 90 59V56C90.5523 56 91 56.4477 91 57H88ZM88 50V57H91V50H88ZM90 48C88.8954 48 88 48.8954 88 50H91C91 50.5523 90.5523 51 90 51V48ZM104 50C104 48.8954 103.105 48 102 48V51C101.448 51 101 50.5523 101 50H104ZM104 57V50H101V57H104ZM102 59C103.105 59 104 58.1046 104 57H101C101 56.4477 101.448 56 102 56V59ZM100 57C100 58.1046 100.895 59 102 59V56C102.552 56 103 56.4477 103 57H100ZM100 50V57H103V50H100ZM102 48C100.895 48 100 48.8954 100 50H103C103 50.5523 102.552 51 102 51V48ZM112 51C111.448 51 111 50.5523 111 50H114C114 48.8954 113.105 48 112 48V51ZM113 50C113 50.5523 112.552 51 112 51V48C110.895 48 110 48.8954 110 50H113ZM113 57V50H110V57H113ZM112 56C112.552 56 113 56.4477 113 57H110C110 58.1046 110.895 59 112 59V56ZM111 57C111 56.4477 111.448 56 112 56V59C113.105 59 114 58.1046 114 57H111ZM111 50V57H114V50H111ZM131 50C131 48.8954 130.105 48 129 48V51C128.448 51 128 50.5523 128 50H131ZM131 57V50H128V57H131ZM129 59C130.105 59 131 58.1046 131 57H128C128 56.4477 128.448 56 129 56V59ZM127 57C127 58.1046 127.895 59 129 59V56C129.552 56 130 56.4477 130 57H127ZM127 50V57H130V50H127ZM129 48C127.895 48 127 48.8954 127 50H130C130 50.5523 129.552 51 129 51V48ZM139 51C138.448 51 138 50.5523 138 50H141C141 48.8954 140.105 48 139 48V51ZM140 50C140 50.5523 139.552 51 139 51V48C137.895 48 137 48.8954 137 50H140ZM140 57V50H137V57H140ZM139 56C139.552 56 140 56.4477 140 57H137C137 58.1046 137.895 59 139 59V56ZM138 57C138 56.4477 138.448 56 139 56V59C140.105 59 141 58.1046 141 57H138ZM138 50V57H141V50H138ZM27 80C25.8954 80 25 80.8954 25 82H28C28 82.5523 27.5523 83 27 83V80ZM57.5 80H27V83H57.5V80ZM68 90.5C68 84.701 63.299 80 57.5 80V83C61.6421 83 65 86.3579 65 90.5H68ZM57.5 101C63.299 101 68 96.299 68 90.5H65C65 94.6421 61.6421 98 57.5 98V101ZM27 101H57.5V98H27V101ZM25 99C25 100.105 25.8954 101 27 101V98C27.5523 98 28 98.4477 28 99H25ZM27 97C25.8954 97 25 97.8954 25 99H28C28 99.5523 27.5523 100 27 100V97ZM57.5 97H27V100H57.5V97ZM64 90.5C64 94.0899 61.0899 97 57.5 97V100C62.7467 100 67 95.7467 67 90.5H64ZM57.5 84C61.0899 84 64 86.9101 64 90.5H67C67 85.2533 62.7467 81 57.5 81V84ZM27 84H57.5V81H27V84ZM25 82C25 83.1046 25.8954 84 27 84V81C27.5523 81 28 81.4477 28 82H25Z" fill="#0038FF"/>
</g>
<defs>
<filter id="filter0_f_768_2678" x="0.5" y="0.5" width="109" height="175" filterUnits="userSpaceOnUse" color-interpolation-filters="sRGB">
<feFlood flood-opacity="0" result="BackgroundImageFix"/>
<feBlend mode="normal" in="SourceGraphic" in2="BackgroundImageFix" result="shape"/>
<feGaussianBlur stdDeviation="2" result="effect1_foregroundBlur_768_2678"/>
</filter>
<filter id="filter1_f_768_2678" x="20" y="2" width="64" height="10.5" filterUnits="userSpaceOnUse" color-interpolation-filters="sRGB">
<feFlood flood-opacity="0" result="BackgroundImageFix"/>
<feBlend mode="normal" in="SourceGraphic" in2="BackgroundImageFix" result="shape"/>
<feGaussianBlur stdDeviation="2" result="effect1_foregroundBlur_768_2678"/>
</filter>
<filter id="filter2_f_768_2678" x="20" y="2" width="10" height="10" filterUnits="userSpaceOnUse" color-interpolation-filters="sRGB">
<feFlood flood-opacity="0" result="BackgroundImageFix"/>
<feBlend mode="normal" in="SourceGraphic" in2="BackgroundImageFix" result="shape"/>
<feGaussianBlur stdDeviation="2" result="effect1_foregroundBlur_768_2678"/>
</filter>
<filter id="filter3_f_768_2678" x="24" y="28" width="13" height="13" filterUnits="userSpaceOnUse" color-interpolation-filters="sRGB">
<feFlood flood-opacity="0" result="BackgroundImageFix"/>
<feBlend mode="normal" in="SourceGraphic" in2="BackgroundImageFix" result="shape"/>
<feGaussianBlur stdDeviation="2" result="effect1_foregroundBlur_768_2678"/>
</filter>
<filter id="filter4_f_768_2678" x="24" y="28" width="40.5" height="10" filterUnits="userSpaceOnUse" color-interpolation-filters="sRGB">
<feFlood flood-opacity="0" result="BackgroundImageFix"/>
<feBlend mode="normal" in="SourceGraphic" in2="BackgroundImageFix" result="shape"/>
<feGaussianBlur stdDeviation="2" result="effect1_foregroundBlur_768_2678"/>
</filter>
<filter id="filter5_bi_768_2678" x="14" y="19" width="156" height="106" filterUnits="userSpaceOnUse" color-interpolation-filters="sRGB">
<feFlood flood-opacity="0" result="BackgroundImageFix"/>
<feGaussianBlur in="BackgroundImageFix" stdDeviation="6"/>
<feComposite in2="SourceAlpha" operator="in" result="effect1_backgroundBlur_768_2678"/>
<feBlend mode="normal" in="SourceGraphic" in2="effect1_backgroundBlur_768_2678" result="shape"/>
<feColorMatrix in="SourceAlpha" type="matrix" values="0 0 0 0 0 0 0 0 0 0 0 0 0 0 0 0 0 0 127 0" result="hardAlpha"/>
<feOffset dy="2.54662"/>
<feGaussianBlur stdDeviation="5.09324"/>
<feComposite in2="hardAlpha" operator="arithmetic" k2="-1" k3="1"/>
<feColorMatrix type="matrix" values="0 0 0 0 1 0 0 0 0 1 0 0 0 0 1 0 0 0 0.15 0"/>
<feBlend mode="normal" in2="shape" result="effect2_innerShadow_768_2678"/>
</filter>
<filter id="filter6_f_768_2678" x="21" y="40.5" width="124" height="64.5" filterUnits="userSpaceOnUse" color-interpolation-filters="sRGB">
<feFlood flood-opacity="0" result="BackgroundImageFix"/>
<feBlend mode="normal" in="SourceGraphic" in2="BackgroundImageFix" result="shape"/>
<feGaussianBlur stdDeviation="2" result="effect1_foregroundBlur_768_2678"/>
</filter>
<linearGradient id="paint0_linear_768_2678" x1="111.723" y1="170" x2="66.7003" y2="169.588" gradientUnits="userSpaceOnUse">
<stop stop-color="#0038FF"/>
<stop offset="1" stop-color="#16E3D8"/>
</linearGradient>
<linearGradient id="paint1_linear_768_2678" x1="91.8185" y1="32.1886" x2="129.692" y2="126.808" gradientUnits="userSpaceOnUse">
<stop stop-color="#CCEFF3"/>
<stop offset="0.9999" stop-color="#017AF2"/>
<stop offset="1" stop-color="#9DC8D6"/>
</linearGradient>
<linearGradient id="paint2_linear_768_2678" x1="91.8185" y1="32.1886" x2="91.8185" y2="112.382" gradientUnits="userSpaceOnUse">
<stop stop-color="#01E5FF"/>
<stop offset="0.9999" stop-color="#017AF2"/>
<stop offset="1" stop-color="#41889E"/>
</linearGradient>
<linearGradient id="paint3_linear_768_2678" x1="148.405" y1="99.5001" x2="96.541" y2="97.8236" gradientUnits="userSpaceOnUse">
<stop stop-color="#0038FF"/>
<stop offset="1" stop-color="#16E3D8"/>
</linearGradient>
</defs>
</svg>
