<svg width="164" height="172" viewBox="0 0 164 172" fill="none" xmlns="http://www.w3.org/2000/svg">
<path fill-rule="evenodd" clip-rule="evenodd" d="M151.974 6.0683C152.035 5.90254 152.004 5.71678 151.893 5.57967C151.781 5.44255 151.606 5.37444 151.431 5.4005L54.6181 19.8402C54.1762 19.9061 53.756 20.0121 53.3593 20.1534C53.2855 20.1394 53.2074 20.1419 53.1302 20.1638L52.6368 20.3041C52.4645 20.3532 52.3392 20.4868 52.2931 20.6472C51.9248 20.8611 51.5842 21.1088 51.2735 21.3843C51.2764 21.33 51.2705 21.2744 51.2546 21.2192C51.1783 20.9538 50.9012 20.8006 50.6359 20.8769C50.31 20.9706 49.9767 21.0667 49.6368 21.1649C49.3715 21.2416 49.2186 21.5188 49.2953 21.7841C49.3719 22.0494 49.6491 22.2023 49.9144 22.1256C50.2065 22.0412 50.4936 21.9584 50.7754 21.8773C48.6679 24.205 48.36 27.9677 50.7603 30.6253L61.5282 42.548L63.6993 68.4998C63.4159 68.6348 63.1317 68.7705 62.8466 68.9067C62.5974 69.0257 62.4919 69.3242 62.611 69.5734C62.73 69.8225 63.0285 69.928 63.2776 69.809L63.7884 69.5652L65.6833 92.2155L65.4631 92.299C65.2049 92.3971 65.0751 92.6858 65.1731 92.944C65.2711 93.2021 65.5599 93.3319 65.818 93.2339L65.8634 93.2167C65.8984 93.2572 65.9401 93.2923 65.9874 93.3202C66.1271 93.4027 66.298 93.4124 66.446 93.3461L99.1003 78.7197L110.704 90.9601C114.02 94.4579 119.852 93.261 121.518 88.741L151.974 6.0683ZM66.5873 91.0292L62.5412 42.663L62.5997 42.6392C62.6958 42.6621 62.7997 42.6568 62.8986 42.6178L63.3409 42.4435C63.4468 42.4019 63.5305 42.3282 63.5853 42.2379L148.365 7.71387L81.8272 59.7037C81.7671 59.7507 81.7186 59.8108 81.6853 59.8794L66.5873 91.0292ZM54.7663 20.8294L147.453 7.00508L62.1481 41.743L51.502 29.9553C48.5595 26.6972 50.4269 21.4766 54.7663 20.8294ZM82.9301 60.2098C82.9233 60.1838 82.9144 60.158 82.9031 60.1326L150.428 7.37119L120.579 88.3945C119.17 92.2191 114.236 93.2319 111.43 90.2723L99.5816 77.7745L82.9301 60.2098ZM98.3708 77.9502L82.27 60.9665L67.2905 91.8717L98.3708 77.9502ZM73.1412 132.831C71.1308 132.339 68.8688 133.474 67.0886 135.545C65.2886 137.638 63.885 140.78 63.5682 144.583C63.2536 148.361 63.8447 151.868 65.3981 154.601C65.5617 154.889 65.7359 155.168 65.9205 155.437C64.6969 156.387 63.43 157.214 62.1679 157.876C61.7773 158.081 61.3787 158.306 60.9808 158.53L60.9478 158.548C60.5365 158.78 60.125 159.012 59.7094 159.229C58.8757 159.666 58.0521 160.033 57.2406 160.219C57.0568 160.261 56.9199 160.4 56.8711 160.569C56.7527 160.534 56.6212 160.542 56.5023 160.602C56.3527 160.678 56.203 160.753 56.0533 160.827C55.8057 160.95 55.7043 161.25 55.8267 161.497C55.949 161.745 56.2489 161.846 56.4965 161.724C56.6493 161.648 56.8021 161.572 56.9548 161.494C57.0838 161.429 57.1722 161.315 57.2092 161.186C57.2889 161.21 57.3758 161.214 57.4627 161.194C58.3993 160.979 59.3125 160.566 60.1722 160.115C60.6034 159.889 61.0277 159.651 61.4374 159.42L61.4645 159.405L61.4647 159.405C61.8671 159.178 62.2543 158.96 62.6314 158.762C63.9447 158.073 65.2573 157.216 66.5217 156.236C68.0721 158.112 70.2167 159.421 72.9495 159.916C77.7791 160.79 82.8795 157.619 84.1677 151.15C84.4108 151.73 84.7245 152.396 85.1215 153.065C85.7789 154.173 86.6827 155.317 87.9032 156.08C89.1393 156.852 90.6749 157.215 92.537 156.789C94.4841 156.342 95.7022 154.921 96.4437 152.773C96.9867 151.199 97.2911 149.193 97.4476 146.795C98.4992 147.957 100.187 149.097 102.712 149.532C103.89 149.735 104.914 149.544 105.779 149.066C106.635 148.592 107.305 147.852 107.817 147C108.83 145.318 109.28 143.118 109.334 141.323C110.757 142.7 112.431 144.126 114.579 144.514C115.789 144.733 116.797 144.647 117.606 144.28C118.422 143.909 118.985 143.274 119.338 142.496C120.03 140.975 119.94 138.876 119.485 136.877C119.423 136.607 119.155 136.439 118.886 136.501C118.617 136.563 118.448 136.831 118.51 137.1C118.95 139.033 118.982 140.865 118.428 142.083C118.159 142.675 117.757 143.113 117.193 143.369C116.622 143.629 115.834 143.724 114.758 143.53C112.861 143.187 111.338 141.881 109.876 140.454C109.664 140.247 109.476 140.079 109.314 139.983C109.24 139.939 109.097 139.865 108.919 139.871C108.68 139.879 108.512 140.023 108.428 140.179C108.362 140.3 108.346 140.425 108.34 140.494C108.336 140.53 108.334 140.566 108.333 140.602L108.333 140.62C108.332 140.66 108.332 140.7 108.332 140.738C108.333 140.791 108.334 140.843 108.335 140.896C108.337 141.01 108.339 141.126 108.336 141.261C108.29 142.951 107.865 144.984 106.961 146.485C106.512 147.231 105.958 147.824 105.295 148.191C104.64 148.553 103.849 148.713 102.883 148.546C99.9163 148.035 98.2863 146.472 97.5268 145.249C97.541 144.881 97.5526 144.505 97.5617 144.122L97.5652 143.974L97.4877 143.848C97.3958 143.699 97.3034 143.57 97.2102 143.467C97.1243 143.373 97.0054 143.263 96.8532 143.202C96.6729 143.13 96.4105 143.123 96.2044 143.321C96.0477 143.471 96.0102 143.666 95.9986 143.775C95.9728 144.013 96.0262 144.304 96.1173 144.593C96.2031 144.866 96.3348 145.175 96.5159 145.502C96.3898 148.425 96.0875 150.741 95.4987 152.447C94.8261 154.396 93.8121 155.47 92.3148 155.814C90.7184 156.18 89.4523 155.868 88.4335 155.231C87.3992 154.585 86.5949 153.587 85.9811 152.553C85.3693 151.523 84.9647 150.487 84.7147 149.795C84.675 149.685 84.6374 149.578 84.6027 149.48C84.5349 149.288 84.4783 149.127 84.4389 149.035C84.4257 149.005 84.3969 148.938 84.3536 148.877L84.3524 148.876C84.3381 148.855 84.2666 148.754 84.1316 148.697C84.0435 148.659 83.9154 148.635 83.7751 148.681C83.6422 148.725 83.5616 148.81 83.5201 148.868C83.4501 148.966 83.4325 149.064 83.4282 149.088L83.428 149.09C83.4209 149.129 83.4184 149.165 83.4173 149.189C83.4166 149.205 83.4162 149.221 83.4162 149.238C83.416 149.264 83.4166 149.29 83.4175 149.317C82.8087 156.461 77.7083 159.761 73.1287 158.931C70.6426 158.481 68.7069 157.304 67.3023 155.61C68.604 154.531 69.842 153.325 70.9617 152.044C73.3691 149.288 75.2572 146.146 76.0377 143.106C76.3071 142.057 76.6278 139.81 76.3952 137.688C76.1676 135.612 75.3689 133.375 73.1412 132.831ZM70.2093 151.386C69.1335 152.617 67.9469 153.774 66.7028 154.808C66.5496 154.581 66.4045 154.347 66.2672 154.105C64.8389 151.592 64.2617 148.3 64.5645 144.665C64.8652 141.055 66.195 138.117 67.8461 136.197C69.5171 134.253 71.4241 133.441 72.9028 133.802C74.4551 134.182 75.1796 135.775 75.4015 137.799C75.6185 139.778 75.3149 141.902 75.0694 142.858C74.3399 145.7 72.5512 148.705 70.2093 151.386ZM96.9925 143.881C96.9934 143.872 96.994 143.874 96.9923 143.882L96.9925 143.881ZM64.1905 93.3216C64.2906 93.579 64.1632 93.8687 63.9058 93.9689C63.5902 94.0916 63.2762 94.2146 62.9637 94.3376C62.7067 94.4388 62.4164 94.3125 62.3153 94.0556C62.2141 93.7986 62.3403 93.5083 62.5973 93.4072C62.9111 93.2836 63.2264 93.1602 63.5433 93.0369C63.8006 92.9368 64.0904 93.0642 64.1905 93.3216ZM61.3837 94.4268C61.4871 94.6829 61.3632 94.9743 61.1071 95.0776C60.8008 95.2012 60.496 95.3249 60.1927 95.4488C59.9371 95.5532 59.6452 95.4306 59.5408 95.1749C59.4364 94.9193 59.559 94.6274 59.8146 94.523C60.1192 94.3986 60.4253 94.2744 60.733 94.1502C60.9891 94.0469 61.2804 94.1708 61.3837 94.4268ZM58.6596 95.5392C58.7662 95.794 58.6461 96.0869 58.3913 96.1935C58.0942 96.3178 57.7985 96.4423 57.5043 96.5669C57.2501 96.6747 56.9566 96.5558 56.8489 96.3016C56.7412 96.0473 56.86 95.7539 57.1143 95.6461C57.4098 95.521 57.7068 95.3959 58.0053 95.271C58.26 95.1644 58.553 95.2845 58.6596 95.5392ZM55.881 96.717C55.9911 96.9702 55.8751 97.2648 55.6219 97.3749C55.31 97.5106 54.9999 97.6464 54.6916 97.7823C54.4389 97.8936 54.1437 97.7791 54.0324 97.5264C53.921 97.2737 54.0355 96.9786 54.2882 96.8672C54.5981 96.7306 54.9097 96.5942 55.2231 96.4579C55.4763 96.3478 55.7708 96.4638 55.881 96.717ZM53.1118 97.9376C53.2257 98.1891 53.1141 98.4854 52.8625 98.5993C52.5611 98.7357 52.2615 98.8722 51.9637 99.0089C51.7127 99.124 51.4159 99.0139 51.3007 98.7629C51.1856 98.5119 51.2957 98.2151 51.5467 98.0999C51.8461 97.9626 52.1472 97.8253 52.4501 97.6882C52.7017 97.5744 52.9979 97.686 53.1118 97.9376ZM50.4365 99.1647C50.5542 99.4145 50.4471 99.7124 50.1973 99.8301C49.9064 99.9672 49.6172 100.104 49.3297 100.242C49.0805 100.361 48.782 100.255 48.663 100.006C48.544 99.757 48.6495 99.4585 48.8987 99.3394C49.1877 99.2014 49.4785 99.0634 49.771 98.9256C50.0208 98.8078 50.3188 98.9149 50.4365 99.1647ZM47.7085 100.469C47.8304 100.717 47.7283 101.016 47.4805 101.138C47.1761 101.288 46.8737 101.438 46.5733 101.588C46.3262 101.711 46.0259 101.611 45.9026 101.364C45.7793 101.117 45.8795 100.816 46.1266 100.693C46.4288 100.542 46.733 100.391 47.0391 100.241C47.2869 100.119 47.5866 100.221 47.7085 100.469ZM45.0107 101.816C45.137 102.061 45.0403 102.363 44.7948 102.489C44.5023 102.639 44.2119 102.79 43.9235 102.94C43.6787 103.068 43.3766 102.973 43.2488 102.729C43.121 102.484 43.2159 102.182 43.4607 102.054C43.7509 101.902 44.0432 101.751 44.3374 101.6C44.583 101.473 44.8844 101.57 45.0107 101.816ZM42.4198 103.168C42.5506 103.411 42.4595 103.714 42.2163 103.845C41.9156 104.007 41.617 104.169 41.3207 104.331C41.0784 104.463 40.7746 104.374 40.6421 104.132C40.5096 103.89 40.5986 103.586 40.8409 103.453C41.1392 103.29 41.4398 103.127 41.7426 102.964C41.9857 102.834 42.2889 102.925 42.4198 103.168ZM39.7304 104.639C39.8663 104.879 39.7816 105.184 39.5412 105.32C39.2492 105.485 38.9595 105.65 38.6721 105.816C38.4327 105.953 38.127 105.871 37.9894 105.631C37.8518 105.392 37.9343 105.086 38.1737 104.949C38.4632 104.782 38.755 104.616 39.049 104.45C39.2894 104.314 39.5945 104.398 39.7304 104.639ZM37.1492 106.122C37.2904 106.36 37.2124 106.667 36.975 106.808C36.6967 106.973 36.4207 107.139 36.1469 107.304C35.9106 107.447 35.6032 107.372 35.4603 107.135C35.3174 106.899 35.3931 106.592 35.6294 106.449C35.9053 106.282 36.1835 106.115 36.4639 105.948C36.7013 105.807 37.0081 105.885 37.1492 106.122ZM34.5935 107.669C34.7402 107.903 34.6696 108.212 34.4356 108.358C34.1469 108.54 33.8608 108.721 33.5774 108.902C33.3448 109.051 33.0356 108.983 32.8868 108.75C32.7381 108.517 32.8061 108.208 33.0387 108.06C33.3246 107.877 33.6131 107.694 33.9042 107.511C34.1381 107.365 34.4467 107.435 34.5935 107.669ZM32.0482 109.297C32.201 109.527 32.1385 109.837 31.9085 109.99C31.6356 110.171 31.3653 110.353 31.0976 110.534C30.869 110.689 30.5581 110.629 30.4032 110.401C30.2483 110.172 30.308 109.861 30.5366 109.706C30.8068 109.523 31.0796 109.34 31.355 109.157C31.585 109.004 31.8953 109.067 32.0482 109.297ZM29.6111 110.948C29.7703 111.174 29.7164 111.486 29.4908 111.645C29.2093 111.843 28.9309 112.042 28.6555 112.241C28.4315 112.402 28.119 112.352 27.9575 112.128C27.7959 111.904 27.8466 111.591 28.0705 111.43C28.3487 111.229 28.63 111.028 28.9143 110.828C29.1399 110.669 29.4519 110.722 29.6111 110.948ZM27.138 112.732C27.3043 112.952 27.2603 113.266 27.0398 113.432C26.7767 113.631 26.5165 113.829 26.2593 114.027C26.0407 114.196 25.7267 114.156 25.558 113.937C25.3893 113.718 25.4298 113.404 25.6485 113.236C25.9086 113.035 26.1716 112.834 26.4377 112.634C26.6582 112.467 26.9717 112.511 27.138 112.732ZM24.8152 114.523C24.9888 114.738 24.9554 115.053 24.7407 115.227C24.4718 115.444 24.2065 115.661 23.9448 115.878C23.7323 116.055 23.4171 116.025 23.2408 115.813C23.0644 115.6 23.0938 115.285 23.3063 115.109C23.5713 114.889 23.8399 114.669 24.112 114.449C24.3267 114.275 24.6416 114.309 24.8152 114.523ZM22.4639 116.474C22.6457 116.682 22.6246 116.998 22.4168 117.18C22.1691 117.396 21.925 117.613 21.6843 117.829C21.4789 118.014 21.1628 117.997 20.9782 117.792C20.7935 117.586 20.8104 117.27 21.0157 117.086C21.2598 116.866 21.5073 116.647 21.7584 116.427C21.9662 116.245 22.2821 116.266 22.4639 116.474ZM20.2694 118.447C20.4598 118.647 20.4519 118.963 20.2519 119.154C20.0031 119.39 19.7584 119.627 19.5178 119.863C19.3208 120.057 19.0043 120.054 18.8107 119.857C18.6172 119.66 18.6201 119.343 18.8171 119.15C19.0615 118.91 19.3099 118.67 19.5625 118.429C19.7625 118.239 20.079 118.247 20.2694 118.447ZM18.1061 120.571C18.306 120.762 18.3135 121.079 18.1229 121.278C17.8984 121.514 17.678 121.749 17.4616 121.983C17.2744 122.186 16.9581 122.199 16.7551 122.012C16.552 121.825 16.5392 121.509 16.7264 121.306C16.9467 121.067 17.171 120.828 17.3992 120.588C17.5898 120.388 17.9063 120.381 18.1061 120.571ZM16.0833 122.767C16.2931 122.947 16.3176 123.263 16.138 123.472C15.9188 123.729 15.7043 123.984 15.4944 124.24C15.3191 124.453 15.004 124.484 14.7907 124.308C14.5774 124.133 14.5466 123.818 14.7219 123.605C14.9361 123.344 15.1548 123.083 15.3783 122.822C15.5578 122.612 15.8735 122.588 16.0833 122.767ZM14.1931 125.066C14.4135 125.232 14.4572 125.546 14.2908 125.766C14.0904 126.031 13.8951 126.296 13.7046 126.56C13.5432 126.784 13.2307 126.835 13.0067 126.673C12.7826 126.512 12.7319 126.199 12.8934 125.975C13.0882 125.705 13.288 125.434 13.4928 125.163C13.6592 124.943 13.9728 124.899 14.1931 125.066ZM12.4263 127.52C12.6579 127.67 12.7237 127.98 12.5733 128.211C12.3954 128.485 12.2228 128.758 12.0555 129.031C11.9109 129.266 11.603 129.34 11.3677 129.195C11.1324 129.051 11.0588 128.743 11.2034 128.508C11.3752 128.228 11.5523 127.948 11.7347 127.667C11.8851 127.435 12.1947 127.369 12.4263 127.52ZM10.8654 130.064C11.1083 130.196 11.1987 130.499 11.0674 130.742C10.9085 131.036 10.7557 131.329 10.6088 131.621C10.4848 131.867 10.1842 131.967 9.9375 131.843C9.6908 131.719 9.59141 131.418 9.71549 131.171C9.86681 130.87 10.0242 130.569 10.1877 130.266C10.3191 130.023 10.6225 129.933 10.8654 130.064ZM9.53022 132.717C9.78413 132.825 9.90198 133.119 9.79344 133.373C9.66012 133.685 9.53364 133.996 9.4139 134.305C9.31422 134.563 9.02464 134.691 8.76712 134.591C8.5096 134.491 8.38165 134.202 8.48133 133.944C8.60529 133.624 8.73612 133.303 8.87393 132.98C8.98247 132.726 9.2763 132.608 9.53022 132.717ZM8.44415 135.52C8.70815 135.601 8.85654 135.881 8.77557 136.145C8.6788 136.46 8.58908 136.774 8.50628 137.087C8.43554 137.354 8.16181 137.513 7.89488 137.442C7.62795 137.371 7.46891 137.097 7.53965 136.831C7.62577 136.506 7.71903 136.179 7.81952 135.852C7.90049 135.588 8.18014 135.439 8.44415 135.52ZM7.67633 138.424C7.94816 138.472 8.12912 138.732 8.08051 139.004C8.02364 139.322 7.974 139.638 7.93148 139.952C7.89446 140.226 7.64261 140.418 7.36896 140.381C7.09531 140.344 6.90348 140.092 6.9405 139.818C6.98494 139.49 7.03678 139.16 7.09613 138.828C7.14473 138.556 7.4045 138.375 7.67633 138.424ZM7.27811 141.392C7.554 141.404 7.76805 141.637 7.7562 141.913C7.74236 142.235 7.7361 142.556 7.73727 142.873C7.7383 143.15 7.51527 143.374 7.23913 143.375C6.96299 143.376 6.73831 143.153 6.73728 142.877C6.73605 142.544 6.74261 142.208 6.75712 141.87C6.76897 141.594 7.00222 141.38 7.27811 141.392ZM7.29191 144.384C7.56662 144.356 7.81212 144.556 7.84026 144.831C7.87321 145.152 7.91396 145.471 7.96233 145.788C8.00406 146.061 7.8166 146.316 7.54362 146.358C7.27065 146.399 7.01554 146.212 6.97381 145.939C6.92294 145.606 6.8801 145.271 6.84546 144.933C6.81732 144.658 7.01721 144.412 7.29191 144.384ZM7.74542 147.341C8.01274 147.272 8.28557 147.433 8.35481 147.7C8.43602 148.013 8.52495 148.324 8.62144 148.632C8.70413 148.895 8.55757 149.176 8.2941 149.258C8.03063 149.341 7.75001 149.194 7.66733 148.931C7.56579 148.607 7.47221 148.281 7.38675 147.951C7.31751 147.683 7.4781 147.41 7.74542 147.341ZM8.64168 150.196C8.89545 150.087 9.18944 150.205 9.29832 150.458C9.42628 150.757 9.56166 151.052 9.70428 151.343C9.82564 151.591 9.72295 151.891 9.47491 152.012C9.22687 152.133 8.9274 152.031 8.80604 151.783C8.65618 151.476 8.51388 151.166 8.37933 150.853C8.27045 150.599 8.38791 150.305 8.64168 150.196ZM9.95658 152.885C10.1917 152.74 10.4997 152.813 10.6446 153.048C10.8153 153.325 10.9929 153.599 11.1772 153.868C11.333 154.096 11.2745 154.408 11.0465 154.563C10.8185 154.719 10.5074 154.661 10.3516 154.433C10.1585 154.15 9.97225 153.863 9.79318 153.573C9.64833 153.338 9.72149 153.03 9.95658 152.885ZM11.6448 155.357C11.8577 155.182 12.1729 155.212 12.3487 155.425C12.5566 155.676 12.7707 155.924 12.9909 156.168C13.1759 156.373 13.1598 156.689 12.9548 156.874C12.7498 157.059 12.4337 157.043 12.2486 156.838C12.0187 156.583 11.795 156.324 11.5777 156.061C11.4019 155.848 11.4319 155.533 11.6448 155.357ZM13.6503 157.582C13.8391 157.38 14.1556 157.37 14.3571 157.558C14.5958 157.782 14.8402 158.002 15.0899 158.217C15.2989 158.398 15.322 158.714 15.1415 158.923C14.961 159.132 14.6453 159.155 14.4363 158.974C14.1765 158.75 13.9221 158.521 13.6734 158.288C13.4719 158.099 13.4616 157.783 13.6503 157.582ZM15.9161 159.541C16.08 159.318 16.3931 159.271 16.6153 159.435C16.8789 159.63 17.1473 159.82 17.4205 160.006C17.6486 160.162 17.7074 160.473 17.5518 160.701C17.3962 160.929 17.0851 160.988 16.857 160.833C16.5737 160.639 16.2952 160.442 16.0215 160.24C15.7993 160.076 15.7521 159.763 15.9161 159.541ZM18.39 161.23C18.5292 160.991 18.8354 160.911 19.0739 161.05C19.3568 161.215 19.644 161.376 19.9351 161.533C20.1782 161.664 20.2691 161.967 20.1382 162.211C20.0072 162.454 19.7039 162.545 19.4608 162.414C19.1598 162.251 18.8627 162.085 18.5698 161.914C18.3313 161.775 18.2508 161.468 18.39 161.23ZM54.913 161.926C55.0249 162.178 54.911 162.473 54.6586 162.585C54.3518 162.721 54.0448 162.854 53.7376 162.982C53.4829 163.089 53.19 162.969 53.0833 162.714C52.9767 162.459 53.0967 162.166 53.3515 162.06C53.6522 161.934 53.9528 161.804 54.2532 161.671C54.5056 161.559 54.801 161.673 54.913 161.926ZM21.0275 162.652C21.1424 162.401 21.439 162.291 21.6902 162.406C21.9878 162.542 22.2889 162.674 22.5935 162.802C22.8481 162.909 22.9678 163.202 22.8609 163.456C22.754 163.711 22.4609 163.831 22.2063 163.724C21.8921 163.592 21.5814 163.456 21.2741 163.315C21.023 163.2 20.9126 162.903 21.0275 162.652ZM52.1525 163.081C52.2482 163.34 52.1157 163.627 51.8567 163.723C51.5386 163.84 51.2204 163.954 50.9023 164.064C50.6413 164.154 50.3567 164.015 50.2666 163.754C50.1766 163.493 50.3153 163.208 50.5763 163.118C50.8876 163.011 51.1989 162.9 51.5103 162.785C51.7693 162.689 52.0569 162.822 52.1525 163.081ZM23.7912 163.814C23.8824 163.553 24.1677 163.416 24.4283 163.507C24.7366 163.615 25.0478 163.719 25.3619 163.818C25.6251 163.902 25.7707 164.183 25.6872 164.446C25.6037 164.709 25.3226 164.855 25.0594 164.772C24.736 164.669 24.4154 164.562 24.0979 164.451C23.8372 164.36 23.6999 164.074 23.7912 163.814ZM49.3316 164.054C49.4102 164.319 49.2594 164.597 48.9946 164.676C48.6671 164.773 48.3398 164.866 48.0127 164.955C47.7463 165.028 47.4714 164.871 47.3988 164.605C47.3261 164.338 47.4831 164.063 47.7495 163.991C48.0694 163.903 48.3896 163.812 48.7099 163.717C48.9747 163.638 49.253 163.789 49.3316 164.054ZM26.6503 164.721C26.7186 164.454 26.9909 164.292 27.2585 164.361C27.574 164.441 27.892 164.518 28.2124 164.59C28.4817 164.651 28.6507 164.919 28.5898 165.188C28.5289 165.458 28.2612 165.627 27.9918 165.566C27.6625 165.491 27.3355 165.413 27.011 165.33C26.7434 165.261 26.5819 164.989 26.6503 164.721ZM46.4289 164.846C46.4895 165.116 46.3203 165.383 46.0509 165.444C45.7247 165.517 45.3988 165.587 45.0733 165.652C44.8026 165.707 44.5389 165.532 44.4843 165.261C44.4297 164.991 44.6049 164.727 44.8756 164.672C45.1937 164.608 45.5122 164.54 45.8312 164.468C46.1006 164.408 46.3682 164.577 46.4289 164.846ZM29.5789 165.383C29.625 165.111 29.8831 164.928 30.1554 164.974C30.4753 165.028 30.7973 165.078 31.1212 165.125C31.3946 165.164 31.5846 165.417 31.5457 165.69C31.5067 165.964 31.2535 166.154 30.9801 166.115C30.6476 166.067 30.3169 166.016 29.9883 165.96C29.716 165.914 29.5327 165.656 29.5789 165.383ZM43.4886 165.438C43.5307 165.711 43.3435 165.967 43.0706 166.009C42.7374 166.06 42.4049 166.107 42.0731 166.151C41.7992 166.186 41.5483 165.993 41.5126 165.72C41.4768 165.446 41.6699 165.195 41.9437 165.159C42.2678 165.117 42.5927 165.071 42.9183 165.02C43.1912 164.978 43.4466 165.165 43.4886 165.438ZM32.5443 165.806C32.569 165.531 32.812 165.328 33.087 165.352C33.4124 165.382 33.7395 165.407 34.0681 165.428C34.3437 165.446 34.5527 165.683 34.5351 165.959C34.5174 166.235 34.2796 166.444 34.0041 166.426C33.667 166.404 33.3315 166.378 32.9977 166.348C32.7226 166.324 32.5197 166.081 32.5443 165.806ZM40.5209 165.825C40.5437 166.101 40.3391 166.342 40.0639 166.365C39.7256 166.393 39.3882 166.417 39.0518 166.437C38.7761 166.453 38.5395 166.243 38.5233 165.967C38.5071 165.691 38.7174 165.455 38.993 165.438C39.3215 165.419 39.6509 165.396 39.9813 165.368C40.2565 165.346 40.4981 165.55 40.5209 165.825ZM35.529 165.998C35.5329 165.722 35.7599 165.501 36.0361 165.505C36.3669 165.51 36.6991 165.51 37.0325 165.507C37.3087 165.504 37.5349 165.725 37.5378 166.001C37.5407 166.277 37.3193 166.504 37.0431 166.507C36.7014 166.51 36.361 166.51 36.0219 166.505C35.7457 166.501 35.5251 166.274 35.529 165.998ZM61.087 43.3373C61.3434 43.2348 61.4682 42.9438 61.3657 42.6874C61.2632 42.431 60.9723 42.3062 60.7158 42.4087C60.4214 42.5263 60.1213 42.6466 59.8158 42.7694C59.5595 42.8724 59.4353 43.1636 59.5383 43.4198C59.6413 43.676 59.9325 43.8003 60.1887 43.6973C60.4936 43.5747 60.7932 43.4547 61.087 43.3373ZM58.3814 44.4275C58.6372 44.3236 58.7604 44.032 58.6565 43.7761C58.5526 43.5203 58.261 43.3971 58.0051 43.501C57.7094 43.6211 57.4097 43.7431 57.1063 43.8669C56.8506 43.9712 56.7279 44.2631 56.8323 44.5188C56.9366 44.7744 57.2284 44.8971 57.4841 44.7928C57.787 44.6692 58.0862 44.5474 58.3814 44.4275ZM55.6834 45.5311C55.9388 45.4259 56.0605 45.1336 55.9553 44.8783C55.8502 44.623 55.5579 44.5013 55.3026 44.6064C55.0049 44.729 54.7044 44.8531 54.4012 44.9786C54.146 45.0841 54.0248 45.3766 54.1304 45.6317C54.2359 45.8869 54.5284 46.0082 54.7835 45.9026C55.0863 45.7773 55.3863 45.6535 55.6834 45.5311ZM52.9883 46.6487C53.2432 46.5423 53.3635 46.2495 53.2571 45.9947C53.1507 45.7398 52.8579 45.6195 52.6031 45.7259C52.3043 45.8506 52.0034 45.9765 51.7006 46.1035C51.446 46.2102 51.3261 46.5033 51.4329 46.7579C51.5397 47.0126 51.8327 47.1325 52.0873 47.0257C52.3897 46.8989 52.69 46.7732 52.9883 46.6487ZM50.295 47.7805C50.5493 47.673 50.6682 47.3796 50.5607 47.1253C50.4531 46.8709 50.1597 46.752 49.9054 46.8596C49.6089 46.985 49.311 47.1113 49.0118 47.2384C48.7577 47.3464 48.6392 47.64 48.7472 47.8941C48.8552 48.1483 49.1487 48.2668 49.4029 48.1588C49.7016 48.0318 49.999 47.9057 50.295 47.7805ZM47.6136 48.9225C47.8674 48.8136 47.985 48.5197 47.8762 48.2659C47.7673 48.0121 47.4734 47.8946 47.2196 48.0034C46.9218 48.1311 46.6229 48.2595 46.3233 48.3886C46.0697 48.4978 45.9526 48.792 46.0619 49.0456C46.1711 49.2992 46.4653 49.4162 46.7189 49.307C47.018 49.1781 47.3163 49.0499 47.6136 48.9225ZM44.9342 50.0793C45.1875 49.9692 45.3035 49.6747 45.1934 49.4214C45.0833 49.1682 44.7887 49.0522 44.5355 49.1623C44.2384 49.2915 43.9409 49.4212 43.6429 49.5514C43.3899 49.6619 43.2744 49.9567 43.3849 50.2097C43.4955 50.4628 43.7903 50.5783 44.0433 50.4677C44.3407 50.3377 44.6378 50.2083 44.9342 50.0793ZM42.2626 51.2498C42.5152 51.1382 42.6296 50.8431 42.5181 50.5904C42.4066 50.3378 42.1114 50.2234 41.8587 50.3349C41.5618 50.466 41.2647 50.5975 40.9676 50.7293C40.7151 50.8413 40.6013 51.1367 40.7133 51.3891C40.8253 51.6416 41.1208 51.7554 41.3732 51.6434C41.6697 51.5118 41.9662 51.3806 42.2626 51.2498ZM39.5973 52.4357C39.8492 52.3227 39.9618 52.0268 39.8488 51.7749C39.7357 51.5229 39.4399 51.4103 39.1879 51.5233C38.8915 51.6563 38.5953 51.7896 38.2995 51.9231C38.0478 52.0367 37.9358 52.3328 38.0494 52.5845C38.163 52.8362 38.4591 52.9481 38.7108 52.8346C39.006 52.7014 39.3015 52.5684 39.5973 52.4357ZM36.9404 53.6383C37.1916 53.5235 37.3022 53.2269 37.1875 52.9757C37.0728 52.7246 36.7761 52.614 36.5249 52.7287C36.2288 52.864 35.9332 52.9994 35.6385 53.1349C35.3876 53.2503 35.2777 53.5472 35.3931 53.7981C35.5084 54.049 35.8053 54.1589 36.0562 54.0435C36.3502 53.9083 36.645 53.7732 36.9404 53.6383ZM34.2918 54.8602C34.5421 54.7436 34.6504 54.4461 34.5337 54.1958C34.4171 53.9455 34.1196 53.8372 33.8693 53.9539C33.5743 54.0914 33.2804 54.2289 32.9877 54.3663C32.7378 54.4837 32.6303 54.7815 32.7477 55.0315C32.8651 55.2814 33.1628 55.3889 33.4128 55.2715C33.7046 55.1345 33.9977 54.9974 34.2918 54.8602ZM31.6568 56.1026C31.906 55.9837 32.0117 55.6853 31.8927 55.436C31.7738 55.1868 31.4754 55.0812 31.2262 55.2001C30.9305 55.3412 30.6365 55.4821 30.3442 55.6228C30.0954 55.7425 29.9908 56.0413 30.1105 56.2901C30.2303 56.539 30.5291 56.6436 30.7779 56.5238C31.0692 56.3836 31.3622 56.2432 31.6568 56.1026ZM29.0301 57.3729C29.278 57.2513 29.3804 56.9517 29.2588 56.7038C29.1372 56.4559 28.8376 56.3535 28.5897 56.4751C28.2969 56.6187 28.0062 56.762 27.7179 56.9049C27.4704 57.0276 27.3693 57.3276 27.4919 57.575C27.6145 57.8224 27.9145 57.9236 28.1619 57.8009C28.449 57.6587 28.7384 57.516 29.0301 57.3729ZM26.424 58.6721C26.6702 58.5472 26.7686 58.2463 26.6437 58C26.5188 57.7538 26.2178 57.6554 25.9716 57.7803C25.6791 57.9287 25.3895 58.0765 25.1031 58.2237C24.8575 58.3499 24.7607 58.6513 24.8869 58.8969C25.0131 59.1425 25.3145 59.2393 25.5602 59.1131C25.845 58.9668 26.133 58.8197 26.424 58.6721ZM23.8433 60.0081C24.0873 59.8789 24.1805 59.5764 24.0513 59.3323C23.9221 59.0882 23.6196 58.9951 23.3755 59.1243C23.082 59.2796 22.7925 59.4341 22.5074 59.5876C22.2642 59.7185 22.1733 60.0218 22.3042 60.2649C22.4351 60.508 22.7383 60.599 22.9815 60.4681C23.2644 60.3158 23.5517 60.1624 23.8433 60.0081ZM21.2873 61.398C21.5282 61.263 21.6141 60.9583 21.4791 60.7174C21.3441 60.4765 21.0394 60.3907 20.7985 60.5257C20.507 60.689 20.2213 60.851 19.9417 61.0115C19.7022 61.149 19.6195 61.4546 19.757 61.6941C19.8945 61.9336 20.2001 62.0162 20.4396 61.8787C20.7161 61.72 20.9987 61.5597 21.2873 61.398ZM18.7814 62.858C19.0172 62.7144 19.0919 62.4067 18.9482 62.1709C18.8046 61.9351 18.4969 61.8604 18.2611 62.0041C17.973 62.1796 17.6936 62.3531 17.4233 62.5242C17.19 62.6719 17.1206 62.9808 17.2684 63.2141C17.4161 63.4474 17.725 63.5168 17.9583 63.3691C18.2233 63.2012 18.4979 63.0308 18.7814 62.858ZM16.3535 64.4364C16.5793 64.2774 16.6334 63.9655 16.4744 63.7397C16.3154 63.5139 16.0035 63.4598 15.7777 63.6188C15.6434 63.7134 15.5126 63.8071 15.3854 63.8999C15.1623 64.0627 15.1134 64.3755 15.2762 64.5985C15.4389 64.8216 15.7517 64.8705 15.9748 64.7078C16.0973 64.6184 16.2235 64.5279 16.3535 64.4364ZM80.641 61.1529C80.7555 61.4042 80.6446 61.7007 80.3933 61.8152C80.0991 61.9493 79.8013 62.0851 79.5001 62.2228C79.249 62.3375 78.9523 62.227 78.8375 61.9758C78.7228 61.7246 78.8333 61.428 79.0845 61.3132C79.386 61.1754 79.6841 61.0394 79.9787 60.9052C80.23 60.7907 80.5265 60.9016 80.641 61.1529ZM77.9342 62.3898C78.0495 62.6407 77.9396 62.9376 77.6887 63.0529C77.3908 63.1898 77.09 63.3282 76.7865 63.4681C76.5357 63.5836 76.2387 63.474 76.1231 63.2232C76.0076 62.9724 76.1172 62.6754 76.368 62.5599C76.6718 62.4199 76.9729 62.2813 77.2711 62.1442C77.522 62.0289 77.8189 62.1389 77.9342 62.3898ZM75.2252 63.6381C75.3412 63.8887 75.2322 64.1859 74.9816 64.302C74.6819 64.4408 74.3798 64.5809 74.0755 64.7222C73.8251 64.8385 73.5278 64.7298 73.4114 64.4793C73.2951 64.2289 73.4039 63.9316 73.6543 63.8153C73.9589 63.6738 74.2613 63.5336 74.5613 63.3946C74.8119 63.2785 75.1091 63.3876 75.2252 63.6381ZM72.5177 64.8954C72.6345 65.1456 72.5263 65.4432 72.2761 65.5599C71.9756 65.7002 71.6733 65.8414 71.3691 65.9837C71.119 66.1007 70.8214 65.9928 70.7044 65.7427C70.5874 65.4925 70.6953 65.1949 70.9454 65.0779C71.2498 64.9355 71.5525 64.7941 71.8532 64.6538C72.1034 64.537 72.4009 64.6452 72.5177 64.8954ZM69.8134 66.1605C69.9309 66.4104 69.8235 66.7082 69.5736 66.8256C69.2731 66.9669 68.9711 67.109 68.6676 67.252C68.4178 67.3696 68.1199 67.2625 68.0022 67.0127C67.8845 66.7629 67.9916 66.465 68.2414 66.3473C68.5452 66.2042 68.8475 66.062 69.1482 65.9206C69.3981 65.8032 69.6959 65.9105 69.8134 66.1605ZM67.1126 67.4328C67.2308 67.6824 67.1242 67.9805 66.8746 68.0986L66.3759 68.3348L65.9706 68.527C65.7211 68.6454 65.4229 68.539 65.3046 68.2896C65.1862 68.0401 65.2925 67.7419 65.542 67.6235C65.8448 67.4799 66.1464 67.3369 66.4468 67.1948C66.6964 67.0766 66.9945 67.1832 67.1126 67.4328ZM61.7217 69.9992C61.8412 70.2481 61.7362 70.5468 61.4872 70.6663C61.1884 70.8097 60.8887 70.9537 60.5883 71.0982C60.3394 71.218 60.0407 71.1133 59.921 70.8644C59.8012 70.6156 59.9059 70.3168 60.1548 70.1971L60.5305 70.0164L61.0546 69.7647C61.3035 69.6453 61.6022 69.7502 61.7217 69.9992ZM59.0314 71.2934C59.1516 71.542 59.0474 71.841 58.7988 71.9612C58.5005 72.1053 58.2017 72.25 57.9023 72.395C57.6538 72.5154 57.3548 72.4116 57.2344 72.1631C57.1139 71.9146 57.2178 71.6155 57.4663 71.4951C57.7659 71.3499 58.0651 71.2052 58.3636 71.0608C58.6122 70.9407 58.9112 71.0448 59.0314 71.2934ZM56.3446 72.5953C56.4655 72.8435 56.3623 73.1428 56.114 73.2637C55.8163 73.4087 55.5182 73.554 55.2198 73.6997C54.9716 73.8208 54.6723 73.7178 54.5511 73.4697C54.43 73.2215 54.533 72.9222 54.7811 72.801C55.0798 72.6552 55.3782 72.5097 55.6762 72.3646C55.9245 72.2437 56.2238 72.347 56.3446 72.5953ZM53.6617 73.905C53.7834 74.1529 53.681 74.4524 53.4331 74.5741C53.1359 74.7199 52.8384 74.866 52.5408 75.0125C52.293 75.1343 51.9933 75.0323 51.8714 74.7845C51.7495 74.5367 51.8516 74.237 52.0994 74.1152C52.3973 73.9686 52.6951 73.8223 52.9926 73.6763C53.2405 73.5547 53.5401 73.6571 53.6617 73.905ZM50.9829 75.2227C51.1054 75.4703 51.0039 75.7702 50.7564 75.8926C50.4596 76.0394 50.1626 76.1865 49.8657 76.3337C49.6183 76.4564 49.3183 76.3553 49.1956 76.1079C49.0729 75.8605 49.174 75.5605 49.4214 75.4378C49.7187 75.2904 50.0159 75.1432 50.3131 74.9962C50.5606 74.8738 50.8605 74.9752 50.9829 75.2227ZM48.3088 76.549C48.432 76.7961 48.3316 77.0963 48.0845 77.2196C47.7879 77.3675 47.4913 77.5156 47.1949 77.6639C46.948 77.7874 46.6476 77.6873 46.5241 77.4404C46.4005 77.1934 46.5006 76.893 46.7476 76.7695C47.0443 76.6211 47.3412 76.4728 47.6382 76.3247C47.8853 76.2014 48.1855 76.3018 48.3088 76.549ZM45.6397 77.884C45.7639 78.1307 45.6645 78.4313 45.4179 78.5554C45.1213 78.7046 44.825 78.8539 44.5291 79.0033C44.2825 79.1278 43.9818 79.0288 43.8574 78.7823C43.733 78.5358 43.8319 78.235 44.0784 78.1106C44.3748 77.961 44.6715 77.8115 44.9684 77.6621C45.215 77.538 45.5156 77.6373 45.6397 77.884ZM42.9764 79.2284C43.1014 79.4746 43.0032 79.7756 42.757 79.9006C42.4605 80.0513 42.1643 80.202 41.8687 80.3527C41.6226 80.4781 41.3215 80.3803 41.1961 80.1343C41.0707 79.8883 41.1685 79.5872 41.4145 79.4618C41.7106 79.3109 42.0072 79.16 42.3041 79.0091C42.5503 78.884 42.8513 78.9822 42.9764 79.2284ZM40.3171 80.5839C40.4432 80.8296 40.3463 81.131 40.1006 81.257C39.8046 81.409 39.5092 81.5609 39.2144 81.7128C38.9689 81.8392 38.6674 81.7427 38.5409 81.4972C38.4145 81.2518 38.5109 80.9502 38.7564 80.8238C39.0517 80.6717 39.3475 80.5196 39.644 80.3674C39.8896 80.2413 40.191 80.3382 40.3171 80.5839ZM37.6632 81.9511C37.7904 82.1962 37.6949 82.498 37.4498 82.6252C37.1547 82.7784 36.8603 82.9315 36.5668 83.0844C36.322 83.212 36.02 83.117 35.8924 82.8721C35.7647 82.6272 35.8598 82.3252 36.1047 82.1976C36.3987 82.0444 36.6935 81.8911 36.9891 81.7376C37.2342 81.6104 37.536 81.706 37.6632 81.9511ZM35.0156 83.3308C35.1441 83.5753 35.0501 83.8776 34.8056 84.006C34.5116 84.1605 34.2186 84.3148 33.9267 84.4689C33.6824 84.5978 33.38 84.5044 33.2511 84.2602C33.1222 84.0159 33.2157 83.7135 33.4599 83.5846C33.7524 83.4302 34.0459 83.2756 34.3404 83.1208C34.5849 82.9924 34.8872 83.0864 35.0156 83.3308ZM32.3754 84.7245C32.5052 84.9682 32.4129 85.271 32.1692 85.4008C31.8764 85.5568 31.5848 85.7125 31.2945 85.868C31.0511 85.9983 30.748 85.9066 30.6177 85.6631C30.4874 85.4197 30.5791 85.1167 30.8225 84.9863C31.1135 84.8306 31.4056 84.6746 31.699 84.5183C31.9427 84.3884 32.2455 84.4808 32.3754 84.7245ZM29.7436 86.1335C29.875 86.3764 29.7846 86.6798 29.5417 86.8112C29.2501 86.969 28.9598 87.1264 28.6712 87.2834C28.4286 87.4154 28.125 87.3257 27.993 87.0832C27.861 86.8406 27.9507 86.537 28.1933 86.405C28.4827 86.2476 28.7736 86.0898 29.0659 85.9316C29.3088 85.8002 29.6122 85.8906 29.7436 86.1335ZM27.1217 87.5599C27.2549 87.8018 27.1668 88.1059 26.9249 88.2391C26.634 88.3992 26.3449 88.5589 26.0576 88.718C25.8161 88.8519 25.5118 88.7646 25.378 88.523C25.2441 88.2815 25.3314 87.9772 25.573 87.8433C25.861 87.6837 26.1509 87.5236 26.4426 87.3631C26.6845 87.2299 26.9885 87.318 27.1217 87.5599ZM24.5119 89.0061C24.6472 89.2468 24.5616 89.5517 24.3209 89.6869C24.0303 89.8502 23.7418 90.0129 23.4556 90.1749C23.2153 90.3109 22.9102 90.2264 22.7741 89.9861C22.6381 89.7458 22.7226 89.4407 22.963 89.3047C23.2502 89.1421 23.5396 88.9789 23.8311 88.8151C24.0718 88.6798 24.3766 88.7654 24.5119 89.0061ZM21.9173 90.475C22.055 90.7143 21.9726 91.02 21.7333 91.1577C21.4421 91.3253 21.1536 91.4921 20.8678 91.658C20.629 91.7967 20.323 91.7155 20.1843 91.4767C20.0457 91.2379 20.1268 90.9319 20.3656 90.7932C20.6526 90.6266 20.9422 90.4592 21.2345 90.291C21.4739 90.1532 21.7796 90.2356 21.9173 90.475ZM19.3393 91.9721C19.4801 92.2097 19.4015 92.5164 19.164 92.6571C18.8724 92.8298 18.5843 93.0014 18.2995 93.172C18.0626 93.314 17.7556 93.237 17.6136 93.0001C17.4717 92.7632 17.5487 92.4561 17.7856 92.3142C18.0718 92.1427 18.3614 91.9702 18.6543 91.7967C18.8919 91.656 19.1986 91.7345 19.3393 91.9721ZM16.7703 93.5114C16.9148 93.7467 16.8413 94.0546 16.606 94.1992C16.32 94.3749 16.0381 94.5493 15.7605 94.7224C15.5261 94.8685 15.2177 94.7969 15.0717 94.5626C14.9256 94.3282 14.9971 94.0198 15.2315 93.8737C15.511 93.6995 15.7947 93.524 16.0825 93.3471C16.3178 93.2026 16.6257 93.2761 16.7703 93.5114ZM14.2331 95.0935C14.3827 95.3256 14.3158 95.635 14.0837 95.7846C13.807 95.963 13.5355 96.1396 13.2694 96.3145C13.0386 96.4661 12.7286 96.4019 12.5769 96.1712C12.4253 95.9404 12.4895 95.6304 12.7202 95.4787C12.9889 95.3022 13.2629 95.1239 13.542 94.9441C13.7741 94.7945 14.0835 94.8613 14.2331 95.0935ZM11.7536 96.724C11.9102 96.9514 11.8529 97.2627 11.6255 97.4194C11.3425 97.6144 11.0674 97.8067 10.8005 97.9963C10.5753 98.1561 10.2632 98.1032 10.1033 97.878C9.94346 97.6529 9.9964 97.3407 10.2216 97.1809C10.4926 96.9885 10.7715 96.7935 11.0581 96.596C11.2855 96.4393 11.5969 96.4966 11.7536 96.724ZM9.30558 98.4636C9.47357 98.6828 9.43208 98.9967 9.21292 99.1647C8.94498 99.37 8.68892 99.5712 8.44511 99.768C8.23023 99.9414 7.91544 99.9078 7.742 99.6929C7.56856 99.4781 7.60215 99.1633 7.81703 98.9898C8.06791 98.7873 8.33058 98.581 8.60457 98.371C8.82374 98.203 9.13759 98.2445 9.30558 98.4636ZM6.98592 100.343C7.17579 100.543 7.16715 100.86 6.96663 101.05C6.85168 101.159 6.74197 101.265 6.63756 101.37C6.4426 101.566 6.12602 101.566 5.93045 101.371C5.73488 101.176 5.73438 100.86 5.92934 100.664C6.04101 100.552 6.15764 100.439 6.27908 100.324C6.4796 100.134 6.79606 100.142 6.98592 100.343ZM47.9208 22.7042C48.1859 22.6269 48.3382 22.3494 48.2609 22.0842C48.1836 21.8191 47.9061 21.6668 47.641 21.7441C47.3125 21.8398 46.9798 21.937 46.6436 22.0354C46.3786 22.1129 46.2266 22.3907 46.3042 22.6557C46.3817 22.9207 46.6594 23.0727 46.9245 22.9951C47.2603 22.8968 47.5926 22.7998 47.9208 22.7042ZM44.9322 23.5806C45.1971 23.5024 45.3484 23.2244 45.2702 22.9595C45.1921 22.6947 44.914 22.5433 44.6492 22.6215C44.3188 22.719 43.9863 22.8173 43.6521 22.9164C43.3873 22.9949 43.2363 23.2731 43.3148 23.5379C43.3933 23.8026 43.6715 23.9536 43.9363 23.8751C44.2701 23.7762 44.6022 23.678 44.9322 23.5806ZM41.9456 24.4679C42.2102 24.3887 42.3605 24.1101 42.2813 23.8456C42.2022 23.581 41.9236 23.4307 41.659 23.5098C41.3276 23.609 40.9956 23.7085 40.6635 23.8084C40.3991 23.8879 40.2491 24.1667 40.3286 24.4311C40.4081 24.6956 40.687 24.8455 40.9514 24.766C41.2831 24.6663 41.6146 24.5669 41.9456 24.4679ZM38.964 25.3666C39.2282 25.2863 39.3773 25.0071 39.2971 24.7429C39.2168 24.4786 38.9375 24.3295 38.6733 24.4098C38.3407 24.5109 38.0089 24.612 37.6785 24.713C37.4144 24.7937 37.2658 25.0733 37.3465 25.3373C37.4272 25.6014 37.7068 25.7501 37.9708 25.6693C38.3007 25.5685 38.6319 25.4676 38.964 25.3666ZM35.9868 26.2798C36.2505 26.1981 36.3981 25.918 36.3164 25.6542C36.2347 25.3905 35.9546 25.2429 35.6908 25.3246C35.3572 25.428 35.0262 25.5309 34.6982 25.6333C34.4346 25.7156 34.2877 25.996 34.37 26.2596C34.4523 26.5232 34.7327 26.6702 34.9963 26.5879C35.3235 26.4857 35.6539 26.383 35.9868 26.2798ZM33.0189 27.2108C33.282 27.1271 33.4275 26.8459 33.3438 26.5828C33.2601 26.3196 32.979 26.1741 32.7158 26.2578C32.3808 26.3644 32.0505 26.4699 31.7257 26.5744C31.4628 26.6589 31.3182 26.9406 31.4027 27.2034C31.4873 27.4663 31.7689 27.6109 32.0318 27.5264C32.3555 27.4223 32.6848 27.317 33.0189 27.2108ZM30.0604 28.1688C30.3226 28.0821 30.4648 27.7993 30.3781 27.5371C30.2914 27.2749 30.0085 27.1327 29.7464 27.2194C29.4074 27.3315 29.0772 27.4417 28.7568 27.5497C28.4951 27.6379 28.3544 27.9215 28.4426 28.1832C28.5308 28.4449 28.8144 28.5855 29.0761 28.4973C29.3946 28.39 29.723 28.2804 30.0604 28.1688ZM27.1166 29.1744C27.3767 29.0818 27.5125 28.7958 27.4199 28.5356C27.3273 28.2755 27.0413 28.1397 26.7812 28.2323C26.4357 28.3553 26.109 28.474 25.8034 28.5877C25.5446 28.684 25.4128 28.9719 25.5092 29.2307C25.6055 29.4895 25.8933 29.6212 26.1521 29.5249C26.4527 29.4131 26.7748 29.2961 27.1166 29.1744ZM24.2584 30.293C24.5085 30.176 24.6165 29.8784 24.4995 29.6283C24.3825 29.3781 24.0849 29.2702 23.8348 29.3871C23.6477 29.4746 23.4825 29.5583 23.3444 29.6374C23.1049 29.7748 23.022 30.0803 23.1593 30.3199C23.2967 30.5594 23.6022 30.6423 23.8418 30.505C23.9477 30.4443 24.0862 30.3735 24.2584 30.293Z" fill="url(#paint0_linear_768_2752)"/>
<g opacity="0.5" filter="url(#filter0_bi_768_2752)">
<path d="M61.5588 42L65.5588 94L82.0588 60L152.559 5L61.5588 42Z" fill="url(#paint1_linear_768_2752)" fill-opacity="0.1"/>
</g>
<g opacity="0.5" filter="url(#filter1_f_768_2752)">
<path d="M57.3517 160.707C59.0997 160.306 60.8254 159.145 62.3997 158.319C68.2001 155.275 74.0435 148.864 75.5536 142.982C76.0685 140.977 76.802 134.24 73.0221 133.316C69.533 132.464 64.6839 137.211 64.0664 144.624C63.4489 152.037 66.4032 158.222 73.0391 159.424C77.9592 160.315 83.3007 156.741 83.9182 149.327C83.8467 147.728 85.5088 157.887 92.426 156.301C95.8703 155.511 96.8903 151.311 97.062 144.111C95.7544 141.987 96.3193 147.923 102.797 149.039C107.086 149.778 108.741 144.765 108.835 141.274C108.858 140.442 108.668 139.974 109.526 140.812C110.986 142.237 112.606 143.649 114.669 144.022C119.24 144.848 119.893 140.921 118.997 136.988" stroke="#0038FF" stroke-width="3" stroke-linecap="round"/>
<path d="M56.7286 161.048C14.691 182.382 -33.7759 130.288 66.1253 92.5829" stroke="#0038FF" stroke-width="3" stroke-linecap="round" stroke-linejoin="round" stroke-dasharray="1 2"/>
<path d="M63.158 41.9781C50.9589 46.774 24.3845 57.9534 15.6802 64.3038" stroke="#0038FF" stroke-width="3" stroke-linecap="round" stroke-linejoin="round" stroke-dasharray="1 2"/>
<path d="M82.4459 60.3348C60.85 70.092 15.3834 91.8884 6.28345 101.017" stroke="#0038FF" stroke-width="3" stroke-linecap="round" stroke-linejoin="round" stroke-dasharray="1 2"/>
<path d="M53.2667 20.6448C44.5294 23.1254 26.3626 28.4836 23.593 30.0712" stroke="#0038FF" stroke-width="3" stroke-linecap="round" stroke-linejoin="round" stroke-dasharray="1 2"/>
</g>
<g opacity="0.5" filter="url(#filter2_f_768_2752)">
<path d="M62.0123 42.3383L51.1311 30.2903C47.9211 26.7361 49.9583 21.0409 54.6922 20.3348L151.505 5.89507M62.0123 42.3383L151.505 5.89507M62.0123 42.3383L66.2414 92.8897M151.505 5.89507L82.1352 60.0978M151.505 5.89507L121.049 88.5677C119.511 92.74 114.128 93.8449 111.067 90.6162L99.219 78.1184M82.1352 60.0978L66.2414 92.8897M82.1352 60.0978L99.219 78.1184M66.2414 92.8897L99.219 78.1184" stroke="#0038FF" stroke-width="3" stroke-linecap="round" stroke-linejoin="round"/>
</g>
<g filter="url(#filter3_bi_768_2752)">
<path d="M123.773 69.0908L120.423 65.2959C119.366 64.099 120.067 62.2084 121.647 61.9911L152.593 57.7347L142.574 84.011C142.046 85.3958 140.248 85.7437 139.239 84.6559L135.57 80.6965L124.945 85.3115L123.773 69.0908Z" fill="url(#paint2_linear_768_2752)" fill-opacity="0.1"/>
<path d="M124.271 69.0552L124.259 68.8867L124.147 68.76L120.797 64.9651C120.005 64.0674 120.53 62.6495 121.716 62.4865L151.825 58.3452L142.107 83.8324C141.711 84.8711 140.362 85.132 139.606 84.3161L135.937 80.3568L135.696 80.0967L135.371 80.2378L125.393 84.5717L124.271 69.0552Z" stroke="url(#paint3_linear_768_2752)" stroke-opacity="0.1"/>
</g>
<g filter="url(#filter4_bi_768_2752)">
<path d="M11.2068 53.1233L8.54185 48.8182C7.70099 47.4599 8.70882 45.7135 10.3033 45.766L41.5215 46.7941L27.2372 71.0049C26.4844 72.2809 24.654 72.3205 23.843 71.0784L20.8895 66.555L9.64175 69.3106L11.2068 53.1233Z" fill="url(#paint4_linear_768_2752)" fill-opacity="0.1"/>
<path d="M11.7042 53.1723L11.7205 53.004L11.6315 52.8603L8.96652 48.5552C8.33588 47.5364 9.09175 46.2266 10.2876 46.266L40.6621 47.2663L26.8068 70.75C26.2422 71.707 24.8694 71.7367 24.2612 70.8051L21.3077 66.2817L21.1138 65.9848L20.77 66.0691L10.2071 68.6569L11.7042 53.1723Z" stroke="url(#paint5_linear_768_2752)" stroke-opacity="0.1"/>
</g>
<g opacity="0.8" filter="url(#filter5_f_768_2752)">
<circle cx="149.5" cy="7.5" r="2.5" fill="#01EDFF"/>
</g>
<g opacity="0.3" filter="url(#filter6_f_768_2752)">
<circle cx="150.5" cy="59.5" r="2.5" fill="#01EDFF"/>
</g>
<g opacity="0.2" filter="url(#filter7_f_768_2752)">
<path d="M41 47C40.4855 48.7983 39.8953 51.2017 38.5145 51.2017C31.5 55.5 31.5 50.8807 31.5 49.5C31.5 48.1193 33.6193 47 35 47C35.0001 45.7983 39 47 41 47Z" fill="#01EDFF"/>
</g>
<g opacity="0.8" filter="url(#filter8_f_768_2752)">
<path d="M151.647 5.78625C151.988 6.22047 142.409 14.3189 130.25 23.8745C118.092 33.4302 90.3586 53.5 82.5001 60C82.1588 59.5658 117.342 32.5557 129.5 23C141.658 13.4444 151.306 5.35202 151.647 5.78625Z" fill="#01EDFF"/>
</g>
<defs>
<filter id="filter0_bi_768_2752" x="49.5588" y="-7" width="115" height="113" filterUnits="userSpaceOnUse" color-interpolation-filters="sRGB">
<feFlood flood-opacity="0" result="BackgroundImageFix"/>
<feGaussianBlur in="BackgroundImageFix" stdDeviation="6"/>
<feComposite in2="SourceAlpha" operator="in" result="effect1_backgroundBlur_768_2752"/>
<feBlend mode="normal" in="SourceGraphic" in2="effect1_backgroundBlur_768_2752" result="shape"/>
<feColorMatrix in="SourceAlpha" type="matrix" values="0 0 0 0 0 0 0 0 0 0 0 0 0 0 0 0 0 0 127 0" result="hardAlpha"/>
<feOffset dy="2.54662"/>
<feGaussianBlur stdDeviation="5.09324"/>
<feComposite in2="hardAlpha" operator="arithmetic" k2="-1" k3="1"/>
<feColorMatrix type="matrix" values="0 0 0 0 1 0 0 0 0 1 0 0 0 0 1 0 0 0 0.15 0"/>
<feBlend mode="normal" in2="shape" result="effect2_innerShadow_768_2752"/>
</filter>
<filter id="filter1_f_768_2752" x="0.783447" y="15.1444" width="124.058" height="156.364" filterUnits="userSpaceOnUse" color-interpolation-filters="sRGB">
<feFlood flood-opacity="0" result="BackgroundImageFix"/>
<feBlend mode="normal" in="SourceGraphic" in2="BackgroundImageFix" result="shape"/>
<feGaussianBlur stdDeviation="2" result="effect1_foregroundBlur_768_2752"/>
</filter>
<filter id="filter2_f_768_2752" x="44.0742" y="0.394897" width="112.931" height="97.995" filterUnits="userSpaceOnUse" color-interpolation-filters="sRGB">
<feFlood flood-opacity="0" result="BackgroundImageFix"/>
<feBlend mode="normal" in="SourceGraphic" in2="BackgroundImageFix" result="shape"/>
<feGaussianBlur stdDeviation="2" result="effect1_foregroundBlur_768_2752"/>
</filter>
<filter id="filter3_bi_768_2752" x="107.919" y="45.7347" width="56.6743" height="51.5768" filterUnits="userSpaceOnUse" color-interpolation-filters="sRGB">
<feFlood flood-opacity="0" result="BackgroundImageFix"/>
<feGaussianBlur in="BackgroundImageFix" stdDeviation="6"/>
<feComposite in2="SourceAlpha" operator="in" result="effect1_backgroundBlur_768_2752"/>
<feBlend mode="normal" in="SourceGraphic" in2="effect1_backgroundBlur_768_2752" result="shape"/>
<feColorMatrix in="SourceAlpha" type="matrix" values="0 0 0 0 0 0 0 0 0 0 0 0 0 0 0 0 0 0 127 0" result="hardAlpha"/>
<feOffset dy="2.54662"/>
<feGaussianBlur stdDeviation="5.09324"/>
<feComposite in2="hardAlpha" operator="arithmetic" k2="-1" k3="1"/>
<feColorMatrix type="matrix" values="0 0 0 0 1 0 0 0 0 1 0 0 0 0 1 0 0 0 0.15 0"/>
<feBlend mode="normal" in2="shape" result="effect2_innerShadow_768_2752"/>
</filter>
<filter id="filter4_bi_768_2752" x="-3.76196" y="33.7649" width="57.2834" height="50.2216" filterUnits="userSpaceOnUse" color-interpolation-filters="sRGB">
<feFlood flood-opacity="0" result="BackgroundImageFix"/>
<feGaussianBlur in="BackgroundImageFix" stdDeviation="6"/>
<feComposite in2="SourceAlpha" operator="in" result="effect1_backgroundBlur_768_2752"/>
<feBlend mode="normal" in="SourceGraphic" in2="effect1_backgroundBlur_768_2752" result="shape"/>
<feColorMatrix in="SourceAlpha" type="matrix" values="0 0 0 0 0 0 0 0 0 0 0 0 0 0 0 0 0 0 127 0" result="hardAlpha"/>
<feOffset dy="2.54662"/>
<feGaussianBlur stdDeviation="5.09324"/>
<feComposite in2="hardAlpha" operator="arithmetic" k2="-1" k3="1"/>
<feColorMatrix type="matrix" values="0 0 0 0 1 0 0 0 0 1 0 0 0 0 1 0 0 0 0.15 0"/>
<feBlend mode="normal" in2="shape" result="effect2_innerShadow_768_2752"/>
</filter>
<filter id="filter5_f_768_2752" x="143" y="1" width="13" height="13" filterUnits="userSpaceOnUse" color-interpolation-filters="sRGB">
<feFlood flood-opacity="0" result="BackgroundImageFix"/>
<feBlend mode="normal" in="SourceGraphic" in2="BackgroundImageFix" result="shape"/>
<feGaussianBlur stdDeviation="2" result="effect1_foregroundBlur_768_2752"/>
</filter>
<filter id="filter6_f_768_2752" x="144" y="53" width="13" height="13" filterUnits="userSpaceOnUse" color-interpolation-filters="sRGB">
<feFlood flood-opacity="0" result="BackgroundImageFix"/>
<feBlend mode="normal" in="SourceGraphic" in2="BackgroundImageFix" result="shape"/>
<feGaussianBlur stdDeviation="2" result="effect1_foregroundBlur_768_2752"/>
</filter>
<filter id="filter7_f_768_2752" x="27.5" y="42.4659" width="17.5" height="14.525" filterUnits="userSpaceOnUse" color-interpolation-filters="sRGB">
<feFlood flood-opacity="0" result="BackgroundImageFix"/>
<feBlend mode="normal" in="SourceGraphic" in2="BackgroundImageFix" result="shape"/>
<feGaussianBlur stdDeviation="2" result="effect1_foregroundBlur_768_2752"/>
</filter>
<filter id="filter8_f_768_2752" x="78.4976" y="1.76953" width="77.1582" height="62.2305" filterUnits="userSpaceOnUse" color-interpolation-filters="sRGB">
<feFlood flood-opacity="0" result="BackgroundImageFix"/>
<feBlend mode="normal" in="SourceGraphic" in2="BackgroundImageFix" result="shape"/>
<feGaussianBlur stdDeviation="2" result="effect1_foregroundBlur_768_2752"/>
</filter>
<linearGradient id="paint0_linear_768_2752" x1="163.528" y1="166.509" x2="96.3591" y2="165.576" gradientUnits="userSpaceOnUse">
<stop stop-color="#0038FF"/>
<stop offset="1" stop-color="#16E3D8"/>
</linearGradient>
<linearGradient id="paint1_linear_768_2752" x1="106.934" y1="6.29004" x2="160.677" y2="91.5722" gradientUnits="userSpaceOnUse">
<stop stop-color="#CCEFF3"/>
<stop offset="0.9999" stop-color="#017AF2"/>
<stop offset="1" stop-color="#9DC8D6"/>
</linearGradient>
<linearGradient id="paint2_linear_768_2752" x1="135.839" y1="55.7998" x2="149.721" y2="88.8764" gradientUnits="userSpaceOnUse">
<stop stop-color="#CCEFF3"/>
<stop offset="0.9999" stop-color="#017AF2"/>
<stop offset="1" stop-color="#9DC8D6"/>
</linearGradient>
<linearGradient id="paint3_linear_768_2752" x1="135.839" y1="55.7998" x2="131.526" y2="86.0133" gradientUnits="userSpaceOnUse">
<stop stop-color="#01E5FF"/>
<stop offset="0.9999" stop-color="#017AF2"/>
<stop offset="1" stop-color="#41889E"/>
</linearGradient>
<linearGradient id="paint4_linear_768_2752" x1="25.3308" y1="42.0586" x2="33.4363" y2="77.0139" gradientUnits="userSpaceOnUse">
<stop stop-color="#CCEFF3"/>
<stop offset="0.9999" stop-color="#017AF2"/>
<stop offset="1" stop-color="#9DC8D6"/>
</linearGradient>
<linearGradient id="paint5_linear_768_2752" x1="25.3308" y1="42.0586" x2="15.9832" y2="71.1043" gradientUnits="userSpaceOnUse">
<stop stop-color="#01E5FF"/>
<stop offset="0.9999" stop-color="#017AF2"/>
<stop offset="1" stop-color="#41889E"/>
</linearGradient>
</defs>
</svg>
