<svg width="172" height="164" viewBox="0 0 172 164" fill="none" xmlns="http://www.w3.org/2000/svg">
<path fill-rule="evenodd" clip-rule="evenodd" d="M69.5 1V0.5H70.5V1H69.5ZM69.5 4V3H70.5V4H69.5ZM69.5 7V6H70.5V7H69.5ZM69.5 10V9H70.5V10H69.5ZM69.5 13V12H70.5V13H69.5ZM69.5 16V15H70.5V16H69.5ZM69.5 19V18H70.5V19H69.5ZM69.5 22V21H70.5V22H69.5ZM69.5 25V24H70.5V25H69.5ZM69.5 28V27H70.5V28H69.5ZM69.5 31V30H70.5V31H69.5ZM69.5 34V33H70.5V34H69.5ZM69.5 37V36H70.5V37H69.5ZM69.5 40V39H70.5V40H69.5ZM69.5 43V42H70.5V43H69.5ZM69.5 46V45H70.5V46H69.5ZM69.5 48H70.5V49H69.5V48ZM69.5 51H70.5V52H69.5V51ZM69.5 54H70.5V55H69.5V54ZM69.5 57H70.5V58H69.5V57ZM69.5 60H70.5V61H69.5V60ZM69.5 63H70.5V64H69.5V63ZM69.5 66H70.5V67H69.5V66ZM69.5 69H70.5V70H69.5V69ZM69.5 72H70.5V73H69.5V72ZM69.5 75H70.5V76H69.5V75ZM69.5 78H70.5V79H69.5V78ZM69.5 81H70.5V82H69.5V81ZM69.5 84.063V84H70H70.5V84.063C71.2028 84.2439 71.7561 84.7972 71.937 85.5H101.063C101.285 84.6374 102.068 84 103 84C104.105 84 105 84.8954 105 86C105 86.9319 104.363 87.715 103.5 87.937V88.0067H102.5V87.937C101.797 87.7561 101.244 87.2028 101.063 86.5H71.937C71.715 87.3626 70.9319 88 70 88C69.0681 88 68.285 87.3626 68.063 86.5H38.937C38.715 87.3626 37.9319 88 37 88C36.0681 88 35.285 87.3626 35.063 86.5H4V85.5H35.063C35.285 84.6374 36.0681 84 37 84C37.9319 84 38.715 84.6374 38.937 85.5H68.063C68.2439 84.7972 68.7972 84.2439 69.5 84.063ZM134.5 86V85.5H105V86V86.5H134.5V86ZM138.437 85.5C138.215 84.6374 137.432 84 136.5 84C135.395 84 134.5 84.8954 134.5 86C134.5 87.1046 135.395 88 136.5 88C137.432 88 138.215 87.3626 138.437 86.5H168V85.5H138.437ZM103 87C102.448 87 102 86.5523 102 86C102 85.4477 102.448 85 103 85C103.552 85 104 85.4477 104 86C104 86.5523 103.552 87 103 87ZM69 86C69 86.5523 69.4477 87 70 87C70.5523 87 71 86.5523 71 86C71 85.4477 70.5523 85 70 85C69.4477 85 69 85.4477 69 86ZM36.5 46.5V46H37.5V46.5H36.5ZM36.5 49.5V48.5H37.5V49.5H36.5ZM36.5 52.5V51.5H37.5V52.5H36.5ZM36.5 55.5V54.5H37.5V55.5H36.5ZM36.5 58.5V57.5H37.5V58.5H36.5ZM36.5 61.5V60.5H37.5V61.5H36.5ZM36.5 64.5V63.5H37.5V64.5H36.5ZM36.5 67.5V66.5H37.5V67.5H36.5ZM36.5 70.5V69.5H37.5V70.5H36.5ZM36.5 73.5V72.5H37.5V73.5H36.5ZM36.5 76.5V75.5H37.5V76.5H36.5ZM36.5 79.5V78.5H37.5V79.5H36.5ZM36.5 82.5V81.5H37.5V82.5H36.5ZM36 86C36 85.4477 36.4477 85 37 85C37.5523 85 38 85.4477 38 86C38 86.5523 37.5523 87 37 87C36.4477 87 36 86.5523 36 86ZM37.5 90.5833V89.5595H36.5V90.5833H37.5ZM37.5 93.6548V92.631H36.5V93.6548H37.5ZM37.5 96.7262V95.7024L36.5 95.7024V96.7262H37.5ZM37.5 99.7976V98.7738H36.5V99.7976L37.5 99.7976ZM37.5 102.869V101.845H36.5V102.869H37.5ZM37.5 105.94V104.917H36.5V105.94H37.5ZM37.5 108.5V107.988H36.5V108.5H37.5ZM69.5 89.4359V90.4103H70.5V89.4359H69.5ZM69.5 92.359V93.3333H70.5V92.359L69.5 92.359ZM69.5 95.2821V96.2564H70.5V95.2821H69.5ZM69.5 98.2051V99.1795H70.5V98.2051H69.5ZM69.5 101.128V102.103H70.5V101.128H69.5ZM69.5 104.051V105.026L70.5 105.026V104.051L69.5 104.051ZM69.5 106.974V107.949H70.5V106.974H69.5ZM69.5 109.897V110.872H70.5V109.897H69.5ZM69.5 112.821V113.795H70.5V112.821H69.5ZM69.5 115.744V116.718H70.5V115.744H69.5ZM69.5 118.667V119.641H70.5V118.667H69.5ZM69.5 121.59V122.564L70.5 122.564V121.59L69.5 121.59ZM69.5 124.513V125H70.5V124.513H69.5ZM102.5 91.0467V90.0333H103.5V91.0467H102.5ZM102.5 94.0867V93.0733H103.5V94.0867H102.5ZM102.5 97.1267V96.1133H103.5V97.1267H102.5ZM102.5 100.167V99.1533H103.5V100.167H102.5ZM102.5 103.207V102.193H103.5V103.207H102.5ZM102.5 106.247V105.233H103.5V106.247H102.5ZM102.5 109.287V108.273H103.5V109.287H102.5ZM102.5 112.327V111.313H103.5V112.327H102.5ZM102.5 115.367V114.353H103.5V115.367H102.5ZM102.5 118.407V117.393H103.5V118.407H102.5ZM102.5 121.447V120.433H103.5V121.447H102.5ZM102.5 124.487V123.473H103.5V124.487H102.5ZM102.5 127.527V126.513H103.5V127.527H102.5ZM102.5 130.567V129.553H103.5V130.567H102.5ZM102.5 133.607V132.593H103.5V133.607H102.5ZM102.5 136.647V135.633H103.5V136.647H102.5ZM102.5 139.687V138.673H103.5V139.687H102.5ZM102.5 142.727V141.713H103.5V142.727H102.5ZM102.5 145.767V144.753H103.5V145.767H102.5ZM102.5 148.807V147.793H103.5V148.807H102.5ZM102.5 151.847V150.833H103.5V151.847H102.5ZM102.5 154.887V153.873H103.5V154.887H102.5ZM102.5 157.927V156.913H103.5V157.927H102.5ZM102.5 160.967V159.953H103.5V160.967H102.5ZM102.5 163.5V162.993H103.5V163.5H102.5ZM102.5 44V44.4881H103.5V44H102.5ZM102.5 46.4405V47.4167H103.5V46.4405H102.5ZM102.5 49.369V50.3452H103.5V49.369L102.5 49.369ZM102.5 52.2976V53.2738L103.5 53.2738V52.2976H102.5ZM102.5 55.2262V56.2024H103.5V55.2262L102.5 55.2262ZM102.5 58.1548V59.131L103.5 59.131V58.1548H102.5ZM102.5 61.0833V62.0595H103.5V61.0833L102.5 61.0833ZM103.5 64.0119H102.5V64.9881H103.5V64.0119ZM102.5 66.9405V67.9167L103.5 67.9167V66.9405H102.5ZM102.5 69.869V70.8452L103.5 70.8452V69.869H102.5ZM102.5 72.7976V73.7738H103.5V72.7976H102.5ZM102.5 75.7262V76.7024L103.5 76.7024V75.7262H102.5ZM102.5 78.6548V79.631H103.5V78.6548H102.5ZM102.5 81.5833V82.5595L103.5 82.5595V81.5833L102.5 81.5833ZM136.5 87C137.052 87 137.5 86.5523 137.5 86C137.5 85.4477 137.052 85 136.5 85C135.948 85 135.5 85.4477 135.5 86C135.5 86.5523 135.948 87 136.5 87ZM136 90.5778V89.5556H137V90.5778H136ZM136 93.6444V92.6222H137V93.6444H136ZM136 96.7111V95.6889H137V96.7111H136ZM136 99.7778V98.7556H137V99.7778H136ZM136 102.844V101.822H137V102.844H136ZM136 105.911V104.889H137V105.911H136ZM136 108.978V107.956H137V108.978H136ZM136 112.044V111.022H137V112.044H136ZM136 115.111V114.089H137V115.111H136ZM136 118.178V117.156H137V118.178H136ZM136 121.244V120.222H137V121.244H136ZM136 124.311V123.289H137V124.311H136ZM136 127.378V126.356H137V127.378H136ZM136 130.444V129.422H137V130.444H136ZM136 133V132.489H137V133H136ZM136 65V65.4762H137V65H136ZM136 67.381V68.3333H137V67.381H136ZM136 70.2381V71.1905H137V70.2381H136ZM136 73.0952V74.0476H137V73.0952H136ZM136 75.9524V76.9048H137V75.9524H136ZM136 78.8095V79.7619H137V78.8095H136ZM136 81.6667V82.619H137V81.6667L136 81.6667Z" fill="url(#paint0_linear_321_3451)"/>
<g opacity="0.5" filter="url(#filter0_f_321_3451)">
<path d="M38 86H69" stroke="#0038FF" stroke-width="3" stroke-linejoin="round"/>
<path d="M71 86L102 86" stroke="#0038FF" stroke-width="3" stroke-linejoin="round"/>
<path d="M137 86L168 86" stroke="#0038FF" stroke-width="3" stroke-linejoin="round"/>
<path d="M105 86L134.5 86" stroke="#0038FF" stroke-width="3" stroke-linejoin="round"/>
<path d="M4 86H36" stroke="#0038FF" stroke-width="3" stroke-linejoin="round"/>
<path d="M37 46V85" stroke="#0038FF" stroke-width="3" stroke-linejoin="round"/>
<path d="M37 87L37 104" stroke="#0038FF" stroke-width="3" stroke-linejoin="round"/>
<path d="M70 6V85" stroke="#0038FF" stroke-width="3" stroke-linejoin="round"/>
<path d="M70 87L70 125" stroke="#0038FF" stroke-width="3" stroke-linejoin="round"/>
<path d="M103 87L103 158" stroke="#0038FF" stroke-width="3" stroke-linejoin="round"/>
<path d="M103 44L103 85" stroke="#0038FF" stroke-width="3" stroke-linejoin="round"/>
<path d="M136.5 87V133" stroke="#0038FF" stroke-width="3" stroke-linejoin="round"/>
<path d="M136 65L136 85" stroke="#0038FF" stroke-width="3" stroke-linejoin="round"/>
<circle cx="37" cy="86" r="3.5" stroke="#0038FF" stroke-width="3"/>
<circle cx="70" cy="86" r="3.5" stroke="#0038FF" stroke-width="3"/>
<circle cx="103" cy="86" r="3.5" stroke="#0038FF" stroke-width="3"/>
<circle cx="136" cy="86" r="3.5" stroke="#0038FF" stroke-width="3"/>
<g opacity="0.8" filter="url(#filter1_f_321_3451)">
<circle cx="37" cy="86" r="3" fill="#01EDFF"/>
</g>
<g opacity="0.8" filter="url(#filter2_f_321_3451)">
<circle cx="70" cy="86" r="3" fill="#01EDFF"/>
</g>
<g opacity="0.8" filter="url(#filter3_f_321_3451)">
<circle cx="103" cy="86" r="3" fill="#01EDFF"/>
</g>
<g opacity="0.8" filter="url(#filter4_f_321_3451)">
<circle cx="136" cy="86" r="3" fill="#01EDFF"/>
</g>
</g>
<g filter="url(#filter5_bi_321_3451)">
<rect x="16" y="49" width="24" height="8" rx="1" fill="url(#paint1_linear_321_3451)" fill-opacity="0.1"/>
<rect x="16.5" y="49.5" width="23" height="7" rx="0.5" stroke="url(#paint2_linear_321_3451)" stroke-opacity="0.1"/>
</g>
<g filter="url(#filter6_bi_321_3451)">
<rect x="34" y="97" width="15" height="8" rx="1" fill="url(#paint3_linear_321_3451)" fill-opacity="0.1"/>
<rect x="34.5" y="97.5" width="14" height="7" rx="0.5" stroke="url(#paint4_linear_321_3451)" stroke-opacity="0.1"/>
</g>
<g filter="url(#filter7_bi_321_3451)">
<rect x="67" y="114" width="24" height="8" rx="1" fill="url(#paint5_linear_321_3451)" fill-opacity="0.1"/>
<rect x="67.5" y="114.5" width="23" height="7" rx="0.5" stroke="url(#paint6_linear_321_3451)" stroke-opacity="0.1"/>
</g>
<g filter="url(#filter8_bi_321_3451)">
<path d="M101 153C101 152.448 101.448 152 102 152H126.5C127.052 152 127.5 152.448 127.5 153V159C127.5 159.552 127.052 160 126.5 160H102C101.448 160 101 159.552 101 159V153Z" fill="url(#paint7_linear_321_3451)" fill-opacity="0.1"/>
<path d="M101.5 153C101.5 152.724 101.724 152.5 102 152.5H126.5C126.776 152.5 127 152.724 127 153V159C127 159.276 126.776 159.5 126.5 159.5H102C101.724 159.5 101.5 159.276 101.5 159V153Z" stroke="url(#paint8_linear_321_3451)" stroke-opacity="0.1"/>
</g>
<g filter="url(#filter9_bi_321_3451)">
<rect x="134" y="122" width="19" height="8" rx="1" fill="url(#paint9_linear_321_3451)" fill-opacity="0.1"/>
<rect x="134.5" y="122.5" width="18" height="7" rx="0.5" stroke="url(#paint10_linear_321_3451)" stroke-opacity="0.1"/>
</g>
<g filter="url(#filter10_bi_321_3451)">
<rect x="54" y="4" width="18" height="8" rx="1" fill="url(#paint11_linear_321_3451)" fill-opacity="0.1"/>
<rect x="54.5" y="4.5" width="17" height="7" rx="0.5" stroke="url(#paint12_linear_321_3451)" stroke-opacity="0.1"/>
</g>
<g filter="url(#filter11_bi_321_3451)">
<rect x="75" y="47" width="30" height="8" rx="1" fill="url(#paint13_linear_321_3451)" fill-opacity="0.1"/>
<rect x="75.5" y="47.5" width="29" height="7" rx="0.5" stroke="url(#paint14_linear_321_3451)" stroke-opacity="0.1"/>
</g>
<g filter="url(#filter12_bi_321_3451)">
<rect x="122" y="68" width="16" height="8" rx="1" fill="url(#paint15_linear_321_3451)" fill-opacity="0.1"/>
<rect x="122.5" y="68.5" width="15" height="7" rx="0.5" stroke="url(#paint16_linear_321_3451)" stroke-opacity="0.1"/>
</g>
<g filter="url(#filter13_b_321_3451)">
<path fill-rule="evenodd" clip-rule="evenodd" d="M69.5 10H47.5V16H69.5V10ZM47.5 9C46.9477 9 46.5 9.44772 46.5 10V16C46.5 16.5523 46.9477 17 47.5 17H69.5C70.0523 17 70.5 16.5523 70.5 16V10C70.5 9.44772 70.0523 9 69.5 9H47.5ZM20.5 55H36.5V61H20.5V55ZM19.5 55C19.5 54.4477 19.9477 54 20.5 54H36.5C37.0523 54 37.5 54.4477 37.5 55V61C37.5 61.5523 37.0523 62 36.5 62H20.5C19.9477 62 19.5 61.5523 19.5 61V55ZM55.5 93V99H37.5V93H55.5ZM36.5 93C36.5 92.4477 36.9477 92 37.5 92H55.5C56.0523 92 56.5 92.4477 56.5 93V99C56.5 99.5523 56.0523 100 55.5 100H37.5C36.9477 100 36.5 99.5523 36.5 99V93ZM95.5 110H70.5V116H95.5V110ZM70.5 109C69.9477 109 69.5 109.448 69.5 110V116C69.5 116.552 69.9477 117 70.5 117H95.5C96.0523 117 96.5 116.552 96.5 116V110C96.5 109.448 96.0523 109 95.5 109H70.5ZM103.5 148H121.5V154H103.5V148ZM102.5 148C102.5 147.448 102.948 147 103.5 147H121.5C122.052 147 122.5 147.448 122.5 148V154C122.5 154.552 122.052 155 121.5 155H103.5C102.948 155 102.5 154.552 102.5 154V148ZM86.5 53H102.5V59H86.5V53ZM85.5 53C85.5 52.4477 85.9477 52 86.5 52H102.5C103.052 52 103.5 52.4477 103.5 53V59C103.5 59.5523 103.052 60 102.5 60H86.5C85.9477 60 85.5 59.5523 85.5 59V53ZM136 74H111V80H136V74ZM111 73C110.448 73 110 73.4477 110 74V80C110 80.5523 110.448 81 111 81H136C136.552 81 137 80.5523 137 80V74C137 73.4477 136.552 73 136 73H111ZM137 118H156V124H137V118ZM136 118C136 117.448 136.448 117 137 117H156C156.552 117 157 117.448 157 118V124C157 124.552 156.552 125 156 125H137C136.448 125 136 124.552 136 124V118Z" fill="url(#paint17_linear_321_3451)"/>
</g>
<g opacity="0.5" filter="url(#filter14_f_321_3451)">
<path fill-rule="evenodd" clip-rule="evenodd" d="M45.5 10C45.5 8.61929 46.6193 7.5 48 7.5H70C71.3807 7.5 72.5 8.61929 72.5 10V16C72.5 17.3807 71.3807 18.5 70 18.5H48C46.6193 18.5 45.5 17.3807 45.5 16V10ZM48.5 10.5V15.5H69.5V10.5H48.5ZM21 52.5C19.6193 52.5 18.5 53.6193 18.5 55V61C18.5 62.3807 19.6193 63.5 21 63.5H37C38.3807 63.5 39.5 62.3807 39.5 61V55C39.5 53.6193 38.3807 52.5 37 52.5H21ZM21.5 60.5V55.5H36.5V60.5H21.5ZM37 90.5C35.6193 90.5 34.5 91.6193 34.5 93V99C34.5 100.381 35.6193 101.5 37 101.5H55C56.3807 101.5 57.5 100.381 57.5 99V93C57.5 91.6193 56.3807 90.5 55 90.5H37ZM37.5 98.5V93.5H54.5V98.5H37.5ZM67.5 110C67.5 108.619 68.6193 107.5 70 107.5H95C96.3807 107.5 97.5 108.619 97.5 110V116C97.5 117.381 96.3807 118.5 95 118.5H70C68.6193 118.5 67.5 117.381 67.5 116V110ZM70.5 110.5V115.5H94.5V110.5H70.5ZM103 145.5C101.619 145.5 100.5 146.619 100.5 148V154C100.5 155.381 101.619 156.5 103 156.5H121C122.381 156.5 123.5 155.381 123.5 154V148C123.5 146.619 122.381 145.5 121 145.5H103ZM103.5 153.5V148.5H120.5V153.5H103.5ZM87 50.5C85.6193 50.5 84.5 51.6193 84.5 53V59C84.5 60.3807 85.6193 61.5 87 61.5H103C104.381 61.5 105.5 60.3807 105.5 59V53C105.5 51.6193 104.381 50.5 103 50.5H87ZM87.5 58.5V53.5H102.5V58.5H87.5ZM108.5 74C108.5 72.6193 109.619 71.5 111 71.5H136C137.381 71.5 138.5 72.6193 138.5 74V80C138.5 81.3807 137.381 82.5 136 82.5H111C109.619 82.5 108.5 81.3807 108.5 80V74ZM111.5 74.5V79.5H135.5V74.5H111.5ZM136 115.5C134.619 115.5 133.5 116.619 133.5 118V124C133.5 125.381 134.619 126.5 136 126.5H156C157.381 126.5 158.5 125.381 158.5 124V118C158.5 116.619 157.381 115.5 156 115.5H136ZM136.5 123.5V118.5H155.5V123.5H136.5Z" fill="#0038FF"/>
</g>
<defs>
<filter id="filter0_f_321_3451" x="0" y="2" width="172" height="160" filterUnits="userSpaceOnUse" color-interpolation-filters="sRGB">
<feFlood flood-opacity="0" result="BackgroundImageFix"/>
<feBlend mode="normal" in="SourceGraphic" in2="BackgroundImageFix" result="shape"/>
<feGaussianBlur stdDeviation="2" result="effect1_foregroundBlur_321_3451"/>
</filter>
<filter id="filter1_f_321_3451" x="30" y="79" width="14" height="14" filterUnits="userSpaceOnUse" color-interpolation-filters="sRGB">
<feFlood flood-opacity="0" result="BackgroundImageFix"/>
<feBlend mode="normal" in="SourceGraphic" in2="BackgroundImageFix" result="shape"/>
<feGaussianBlur stdDeviation="2" result="effect1_foregroundBlur_321_3451"/>
</filter>
<filter id="filter2_f_321_3451" x="63" y="79" width="14" height="14" filterUnits="userSpaceOnUse" color-interpolation-filters="sRGB">
<feFlood flood-opacity="0" result="BackgroundImageFix"/>
<feBlend mode="normal" in="SourceGraphic" in2="BackgroundImageFix" result="shape"/>
<feGaussianBlur stdDeviation="2" result="effect1_foregroundBlur_321_3451"/>
</filter>
<filter id="filter3_f_321_3451" x="96" y="79" width="14" height="14" filterUnits="userSpaceOnUse" color-interpolation-filters="sRGB">
<feFlood flood-opacity="0" result="BackgroundImageFix"/>
<feBlend mode="normal" in="SourceGraphic" in2="BackgroundImageFix" result="shape"/>
<feGaussianBlur stdDeviation="2" result="effect1_foregroundBlur_321_3451"/>
</filter>
<filter id="filter4_f_321_3451" x="129" y="79" width="14" height="14" filterUnits="userSpaceOnUse" color-interpolation-filters="sRGB">
<feFlood flood-opacity="0" result="BackgroundImageFix"/>
<feBlend mode="normal" in="SourceGraphic" in2="BackgroundImageFix" result="shape"/>
<feGaussianBlur stdDeviation="2" result="effect1_foregroundBlur_321_3451"/>
</filter>
<filter id="filter5_bi_321_3451" x="4" y="37" width="48" height="32" filterUnits="userSpaceOnUse" color-interpolation-filters="sRGB">
<feFlood flood-opacity="0" result="BackgroundImageFix"/>
<feGaussianBlur in="BackgroundImageFix" stdDeviation="6"/>
<feComposite in2="SourceAlpha" operator="in" result="effect1_backgroundBlur_321_3451"/>
<feBlend mode="normal" in="SourceGraphic" in2="effect1_backgroundBlur_321_3451" result="shape"/>
<feColorMatrix in="SourceAlpha" type="matrix" values="0 0 0 0 0 0 0 0 0 0 0 0 0 0 0 0 0 0 127 0" result="hardAlpha"/>
<feOffset dy="2.54662"/>
<feGaussianBlur stdDeviation="5.09324"/>
<feComposite in2="hardAlpha" operator="arithmetic" k2="-1" k3="1"/>
<feColorMatrix type="matrix" values="0 0 0 0 1 0 0 0 0 1 0 0 0 0 1 0 0 0 0.15 0"/>
<feBlend mode="normal" in2="shape" result="effect2_innerShadow_321_3451"/>
</filter>
<filter id="filter6_bi_321_3451" x="22" y="85" width="39" height="32" filterUnits="userSpaceOnUse" color-interpolation-filters="sRGB">
<feFlood flood-opacity="0" result="BackgroundImageFix"/>
<feGaussianBlur in="BackgroundImageFix" stdDeviation="6"/>
<feComposite in2="SourceAlpha" operator="in" result="effect1_backgroundBlur_321_3451"/>
<feBlend mode="normal" in="SourceGraphic" in2="effect1_backgroundBlur_321_3451" result="shape"/>
<feColorMatrix in="SourceAlpha" type="matrix" values="0 0 0 0 0 0 0 0 0 0 0 0 0 0 0 0 0 0 127 0" result="hardAlpha"/>
<feOffset dy="2.54662"/>
<feGaussianBlur stdDeviation="5.09324"/>
<feComposite in2="hardAlpha" operator="arithmetic" k2="-1" k3="1"/>
<feColorMatrix type="matrix" values="0 0 0 0 1 0 0 0 0 1 0 0 0 0 1 0 0 0 0.15 0"/>
<feBlend mode="normal" in2="shape" result="effect2_innerShadow_321_3451"/>
</filter>
<filter id="filter7_bi_321_3451" x="55" y="102" width="48" height="32" filterUnits="userSpaceOnUse" color-interpolation-filters="sRGB">
<feFlood flood-opacity="0" result="BackgroundImageFix"/>
<feGaussianBlur in="BackgroundImageFix" stdDeviation="6"/>
<feComposite in2="SourceAlpha" operator="in" result="effect1_backgroundBlur_321_3451"/>
<feBlend mode="normal" in="SourceGraphic" in2="effect1_backgroundBlur_321_3451" result="shape"/>
<feColorMatrix in="SourceAlpha" type="matrix" values="0 0 0 0 0 0 0 0 0 0 0 0 0 0 0 0 0 0 127 0" result="hardAlpha"/>
<feOffset dy="2.54662"/>
<feGaussianBlur stdDeviation="5.09324"/>
<feComposite in2="hardAlpha" operator="arithmetic" k2="-1" k3="1"/>
<feColorMatrix type="matrix" values="0 0 0 0 1 0 0 0 0 1 0 0 0 0 1 0 0 0 0.15 0"/>
<feBlend mode="normal" in2="shape" result="effect2_innerShadow_321_3451"/>
</filter>
<filter id="filter8_bi_321_3451" x="89" y="140" width="50.5" height="32" filterUnits="userSpaceOnUse" color-interpolation-filters="sRGB">
<feFlood flood-opacity="0" result="BackgroundImageFix"/>
<feGaussianBlur in="BackgroundImageFix" stdDeviation="6"/>
<feComposite in2="SourceAlpha" operator="in" result="effect1_backgroundBlur_321_3451"/>
<feBlend mode="normal" in="SourceGraphic" in2="effect1_backgroundBlur_321_3451" result="shape"/>
<feColorMatrix in="SourceAlpha" type="matrix" values="0 0 0 0 0 0 0 0 0 0 0 0 0 0 0 0 0 0 127 0" result="hardAlpha"/>
<feOffset dy="2.54662"/>
<feGaussianBlur stdDeviation="5.09324"/>
<feComposite in2="hardAlpha" operator="arithmetic" k2="-1" k3="1"/>
<feColorMatrix type="matrix" values="0 0 0 0 1 0 0 0 0 1 0 0 0 0 1 0 0 0 0.15 0"/>
<feBlend mode="normal" in2="shape" result="effect2_innerShadow_321_3451"/>
</filter>
<filter id="filter9_bi_321_3451" x="122" y="110" width="43" height="32" filterUnits="userSpaceOnUse" color-interpolation-filters="sRGB">
<feFlood flood-opacity="0" result="BackgroundImageFix"/>
<feGaussianBlur in="BackgroundImageFix" stdDeviation="6"/>
<feComposite in2="SourceAlpha" operator="in" result="effect1_backgroundBlur_321_3451"/>
<feBlend mode="normal" in="SourceGraphic" in2="effect1_backgroundBlur_321_3451" result="shape"/>
<feColorMatrix in="SourceAlpha" type="matrix" values="0 0 0 0 0 0 0 0 0 0 0 0 0 0 0 0 0 0 127 0" result="hardAlpha"/>
<feOffset dy="2.54662"/>
<feGaussianBlur stdDeviation="5.09324"/>
<feComposite in2="hardAlpha" operator="arithmetic" k2="-1" k3="1"/>
<feColorMatrix type="matrix" values="0 0 0 0 1 0 0 0 0 1 0 0 0 0 1 0 0 0 0.15 0"/>
<feBlend mode="normal" in2="shape" result="effect2_innerShadow_321_3451"/>
</filter>
<filter id="filter10_bi_321_3451" x="42" y="-8" width="42" height="32" filterUnits="userSpaceOnUse" color-interpolation-filters="sRGB">
<feFlood flood-opacity="0" result="BackgroundImageFix"/>
<feGaussianBlur in="BackgroundImageFix" stdDeviation="6"/>
<feComposite in2="SourceAlpha" operator="in" result="effect1_backgroundBlur_321_3451"/>
<feBlend mode="normal" in="SourceGraphic" in2="effect1_backgroundBlur_321_3451" result="shape"/>
<feColorMatrix in="SourceAlpha" type="matrix" values="0 0 0 0 0 0 0 0 0 0 0 0 0 0 0 0 0 0 127 0" result="hardAlpha"/>
<feOffset dy="2.54662"/>
<feGaussianBlur stdDeviation="5.09324"/>
<feComposite in2="hardAlpha" operator="arithmetic" k2="-1" k3="1"/>
<feColorMatrix type="matrix" values="0 0 0 0 1 0 0 0 0 1 0 0 0 0 1 0 0 0 0.15 0"/>
<feBlend mode="normal" in2="shape" result="effect2_innerShadow_321_3451"/>
</filter>
<filter id="filter11_bi_321_3451" x="63" y="35" width="54" height="32" filterUnits="userSpaceOnUse" color-interpolation-filters="sRGB">
<feFlood flood-opacity="0" result="BackgroundImageFix"/>
<feGaussianBlur in="BackgroundImageFix" stdDeviation="6"/>
<feComposite in2="SourceAlpha" operator="in" result="effect1_backgroundBlur_321_3451"/>
<feBlend mode="normal" in="SourceGraphic" in2="effect1_backgroundBlur_321_3451" result="shape"/>
<feColorMatrix in="SourceAlpha" type="matrix" values="0 0 0 0 0 0 0 0 0 0 0 0 0 0 0 0 0 0 127 0" result="hardAlpha"/>
<feOffset dy="2.54662"/>
<feGaussianBlur stdDeviation="5.09324"/>
<feComposite in2="hardAlpha" operator="arithmetic" k2="-1" k3="1"/>
<feColorMatrix type="matrix" values="0 0 0 0 1 0 0 0 0 1 0 0 0 0 1 0 0 0 0.15 0"/>
<feBlend mode="normal" in2="shape" result="effect2_innerShadow_321_3451"/>
</filter>
<filter id="filter12_bi_321_3451" x="110" y="56" width="40" height="32" filterUnits="userSpaceOnUse" color-interpolation-filters="sRGB">
<feFlood flood-opacity="0" result="BackgroundImageFix"/>
<feGaussianBlur in="BackgroundImageFix" stdDeviation="6"/>
<feComposite in2="SourceAlpha" operator="in" result="effect1_backgroundBlur_321_3451"/>
<feBlend mode="normal" in="SourceGraphic" in2="effect1_backgroundBlur_321_3451" result="shape"/>
<feColorMatrix in="SourceAlpha" type="matrix" values="0 0 0 0 0 0 0 0 0 0 0 0 0 0 0 0 0 0 127 0" result="hardAlpha"/>
<feOffset dy="2.54662"/>
<feGaussianBlur stdDeviation="5.09324"/>
<feComposite in2="hardAlpha" operator="arithmetic" k2="-1" k3="1"/>
<feColorMatrix type="matrix" values="0 0 0 0 1 0 0 0 0 1 0 0 0 0 1 0 0 0 0.15 0"/>
<feBlend mode="normal" in2="shape" result="effect2_innerShadow_321_3451"/>
</filter>
<filter id="filter13_b_321_3451" x="7.5" y="-3" width="161.5" height="170" filterUnits="userSpaceOnUse" color-interpolation-filters="sRGB">
<feFlood flood-opacity="0" result="BackgroundImageFix"/>
<feGaussianBlur in="BackgroundImageFix" stdDeviation="6"/>
<feComposite in2="SourceAlpha" operator="in" result="effect1_backgroundBlur_321_3451"/>
<feBlend mode="normal" in="SourceGraphic" in2="effect1_backgroundBlur_321_3451" result="shape"/>
</filter>
<filter id="filter14_f_321_3451" x="14.5" y="3.5" width="148" height="157" filterUnits="userSpaceOnUse" color-interpolation-filters="sRGB">
<feFlood flood-opacity="0" result="BackgroundImageFix"/>
<feBlend mode="normal" in="SourceGraphic" in2="BackgroundImageFix" result="shape"/>
<feGaussianBlur stdDeviation="2" result="effect1_foregroundBlur_321_3451"/>
</filter>
<linearGradient id="paint0_linear_321_3451" x1="180.923" y1="163.5" x2="105.592" y2="162.34" gradientUnits="userSpaceOnUse">
<stop stop-color="#0038FF"/>
<stop offset="1" stop-color="#16E3D8"/>
</linearGradient>
<linearGradient id="paint1_linear_321_3451" x1="27.967" y1="49.116" x2="30.1659" y2="59.3538" gradientUnits="userSpaceOnUse">
<stop stop-color="#CCEFF3"/>
<stop offset="0.9999" stop-color="#017AF2"/>
<stop offset="1" stop-color="#9DC8D6"/>
</linearGradient>
<linearGradient id="paint2_linear_321_3451" x1="27.967" y1="49.116" x2="27.967" y2="56.9397" gradientUnits="userSpaceOnUse">
<stop stop-color="#01E5FF"/>
<stop offset="0.9999" stop-color="#017AF2"/>
<stop offset="1" stop-color="#41889E"/>
</linearGradient>
<linearGradient id="paint3_linear_321_3451" x1="41.4794" y1="97.116" x2="44.7712" y2="106.695" gradientUnits="userSpaceOnUse">
<stop stop-color="#CCEFF3"/>
<stop offset="0.9999" stop-color="#017AF2"/>
<stop offset="1" stop-color="#9DC8D6"/>
</linearGradient>
<linearGradient id="paint4_linear_321_3451" x1="41.4794" y1="97.116" x2="41.4794" y2="104.94" gradientUnits="userSpaceOnUse">
<stop stop-color="#01E5FF"/>
<stop offset="0.9999" stop-color="#017AF2"/>
<stop offset="1" stop-color="#41889E"/>
</linearGradient>
<linearGradient id="paint5_linear_321_3451" x1="78.967" y1="114.116" x2="81.1659" y2="124.354" gradientUnits="userSpaceOnUse">
<stop stop-color="#CCEFF3"/>
<stop offset="0.9999" stop-color="#017AF2"/>
<stop offset="1" stop-color="#9DC8D6"/>
</linearGradient>
<linearGradient id="paint6_linear_321_3451" x1="78.967" y1="114.116" x2="78.967" y2="121.94" gradientUnits="userSpaceOnUse">
<stop stop-color="#01E5FF"/>
<stop offset="0.9999" stop-color="#017AF2"/>
<stop offset="1" stop-color="#41889E"/>
</linearGradient>
<linearGradient id="paint7_linear_321_3451" x1="112.967" y1="152.116" x2="115.166" y2="162.354" gradientUnits="userSpaceOnUse">
<stop stop-color="#CCEFF3"/>
<stop offset="0.9999" stop-color="#017AF2"/>
<stop offset="1" stop-color="#9DC8D6"/>
</linearGradient>
<linearGradient id="paint8_linear_321_3451" x1="112.967" y1="152.116" x2="112.967" y2="159.94" gradientUnits="userSpaceOnUse">
<stop stop-color="#01E5FF"/>
<stop offset="0.9999" stop-color="#017AF2"/>
<stop offset="1" stop-color="#41889E"/>
</linearGradient>
<linearGradient id="paint9_linear_321_3451" x1="143.474" y1="122.116" x2="146.18" y2="132.092" gradientUnits="userSpaceOnUse">
<stop stop-color="#CCEFF3"/>
<stop offset="0.9999" stop-color="#017AF2"/>
<stop offset="1" stop-color="#9DC8D6"/>
</linearGradient>
<linearGradient id="paint10_linear_321_3451" x1="143.474" y1="122.116" x2="143.474" y2="129.94" gradientUnits="userSpaceOnUse">
<stop stop-color="#01E5FF"/>
<stop offset="0.9999" stop-color="#017AF2"/>
<stop offset="1" stop-color="#41889E"/>
</linearGradient>
<linearGradient id="paint11_linear_321_3451" x1="62.9752" y1="4.11596" x2="65.8099" y2="14.0143" gradientUnits="userSpaceOnUse">
<stop stop-color="#CCEFF3"/>
<stop offset="0.9999" stop-color="#017AF2"/>
<stop offset="1" stop-color="#9DC8D6"/>
</linearGradient>
<linearGradient id="paint12_linear_321_3451" x1="62.9752" y1="4.11596" x2="62.9752" y2="11.9397" gradientUnits="userSpaceOnUse">
<stop stop-color="#01E5FF"/>
<stop offset="0.9999" stop-color="#017AF2"/>
<stop offset="1" stop-color="#41889E"/>
</linearGradient>
<linearGradient id="paint13_linear_321_3451" x1="89.9587" y1="47.116" x2="91.7462" y2="57.519" gradientUnits="userSpaceOnUse">
<stop stop-color="#CCEFF3"/>
<stop offset="0.9999" stop-color="#017AF2"/>
<stop offset="1" stop-color="#9DC8D6"/>
</linearGradient>
<linearGradient id="paint14_linear_321_3451" x1="89.9587" y1="47.116" x2="89.9587" y2="54.9397" gradientUnits="userSpaceOnUse">
<stop stop-color="#01E5FF"/>
<stop offset="0.9999" stop-color="#017AF2"/>
<stop offset="1" stop-color="#41889E"/>
</linearGradient>
<linearGradient id="paint15_linear_321_3451" x1="129.978" y1="68.116" x2="133.104" y2="77.819" gradientUnits="userSpaceOnUse">
<stop stop-color="#CCEFF3"/>
<stop offset="0.9999" stop-color="#017AF2"/>
<stop offset="1" stop-color="#9DC8D6"/>
</linearGradient>
<linearGradient id="paint16_linear_321_3451" x1="129.978" y1="68.116" x2="129.978" y2="75.9397" gradientUnits="userSpaceOnUse">
<stop stop-color="#01E5FF"/>
<stop offset="0.9999" stop-color="#017AF2"/>
<stop offset="1" stop-color="#41889E"/>
</linearGradient>
<linearGradient id="paint17_linear_321_3451" x1="88.0609" y1="11.1162" x2="88.0609" y2="153.899" gradientUnits="userSpaceOnUse">
<stop stop-color="#01E5FF"/>
<stop offset="0.9999" stop-color="#017AF2"/>
<stop offset="1" stop-color="#41889E"/>
</linearGradient>
</defs>
</svg>
