<svg width="90" height="90" viewBox="0 0 90 90" fill="none" xmlns="http://www.w3.org/2000/svg">
<path fill-rule="evenodd" clip-rule="evenodd" d="M84.6666 9.00001C84.6666 11.0251 83.025 12.6667 81 12.6667C78.9749 12.6667 77.3333 11.0251 77.3333 9.00001C77.3333 6.97497 78.9749 5.33334 81 5.33334C83.025 5.33334 84.6666 6.97497 84.6666 9.00001ZM81 11.6667C82.4727 11.6667 83.6666 10.4728 83.6666 9.00001C83.6666 7.52725 82.4727 6.33334 81 6.33334C79.5272 6.33334 78.3333 7.52725 78.3333 9.00001C78.3333 10.4728 79.5272 11.6667 81 11.6667ZM36.1849 18.8181C35.5531 19.9225 34.3634 20.6667 33 20.6667C31.9861 20.6667 31.0683 20.2552 30.4046 19.5901L11.9686 34.8474C12.4077 35.4519 12.6666 36.1957 12.6666 37C12.6666 39.0251 11.025 40.6667 8.99998 40.6667C6.97494 40.6667 5.33331 39.0251 5.33331 37C5.33331 34.975 6.97494 33.3333 8.99998 33.3333C9.8592 33.3333 10.6494 33.6289 11.2744 34.1238L29.8003 18.7921C29.5029 18.2622 29.3333 17.6509 29.3333 17C29.3333 14.975 30.9749 13.3333 33 13.3333C35.025 13.3333 36.6666 14.975 36.6666 17C36.6666 17.3059 36.6292 17.603 36.5586 17.887L52.4818 25.8486C53.1136 24.7442 54.3032 24 55.6666 24C57.6917 24 59.3333 25.6416 59.3333 27.6667C59.3333 29.6917 57.6917 31.3333 55.6666 31.3333C53.6416 31.3333 52 29.6917 52 27.6667C52 27.3608 52.0374 27.0637 52.108 26.7797L36.1849 18.8181ZM33 19.6667C34.4727 19.6667 35.6666 18.4728 35.6666 17C35.6666 15.5273 34.4727 14.3333 33 14.3333C31.5272 14.3333 30.3333 15.5273 30.3333 17C30.3333 18.4728 31.5272 19.6667 33 19.6667ZM69 29.3333C68.4477 29.3333 68 29.7811 68 30.3333V83.6667C68 84.219 68.4477 84.6667 69 84.6667H78.3333C78.8856 84.6667 79.3333 84.219 79.3333 83.6667V50.3333H78.3333V82.6667V83.6667H77.3333H70H69V82.6667V31.3333V30.3333H70H77.3333H78.3333V31.3333V41H79.3333V30.3333C79.3333 29.7811 78.8856 29.3333 78.3333 29.3333H69ZM29.3333 37C29.3333 36.4477 29.781 36 30.3333 36H39.6666C40.2189 36 40.6666 36.4477 40.6666 37V83.6667C40.6666 84.219 40.2189 84.6667 39.6666 84.6667H30.3333C29.781 84.6667 29.3333 84.219 29.3333 83.6667V71.6667H30.3333V82.6667V83.6667H31.3333H38.6666H39.6666V82.6667V38V37H38.6666H31.3333H30.3333V38V63.6667H29.3333V37ZM49.3333 43.6667C49.3333 43.1144 49.781 42.6667 50.3333 42.6667H59.6666C60.2189 42.6667 60.6666 43.1144 60.6666 43.6667V83.6667C60.6666 84.219 60.2189 84.6667 59.6666 84.6667H50.3333C49.781 84.6667 49.3333 84.219 49.3333 83.6667V43.6667ZM51.3333 43.6667H50.3333V44.6667V82.6667V83.6667H51.3333H58.6666H59.6666V82.6667V44.6667V43.6667H58.6666H51.3333ZM9.33331 65C9.33331 64.4477 9.78103 64 10.3333 64H19.6666C20.2189 64 20.6666 64.4477 20.6666 65V83.6667C20.6666 84.219 20.2189 84.6667 19.6666 84.6667H10.3333C9.78103 84.6667 9.33331 84.219 9.33331 83.6667V65ZM11.3333 65H10.3333V66V82.6667V83.6667H11.3333H18.6666H19.6666V82.6667V66V65H18.6666H11.3333ZM11.6666 37C11.6666 38.4728 10.4727 39.6667 8.99998 39.6667C7.52722 39.6667 6.33331 38.4728 6.33331 37C6.33331 35.5273 7.52722 34.3333 8.99998 34.3333C10.4727 34.3333 11.6666 35.5273 11.6666 37ZM58.3333 27.6667C58.3333 29.1394 57.1394 30.3333 55.6666 30.3333C54.1939 30.3333 53 29.1394 53 27.6667C53 26.1939 54.1939 25 55.6666 25C57.1394 25 58.3333 26.1939 58.3333 27.6667ZM77.3734 10.595L58.0401 24.595L58.6266 25.405L77.9599 11.405L77.3734 10.595Z" fill="url(#paint0_radial_595_6132)"/>
<g opacity="0.5" filter="url(#filter0_f_595_6132)">
<rect x="10.3333" y="65" width="9.33333" height="18.6667" stroke="#0038FF" stroke-width="3" stroke-linejoin="round"/>
<rect x="50.3333" y="43.6667" width="9.33333" height="40" stroke="#0038FF" stroke-width="3" stroke-linejoin="round"/>
<path d="M39.6666 37H30.3333V83.6667H39.6666V37Z" stroke="#0038FF" stroke-width="3" stroke-linejoin="round"/>
<rect x="69" y="30.3333" width="9.33333" height="53.3333" stroke="#0038FF" stroke-width="3" stroke-linejoin="round"/>
<circle cx="8.99998" cy="37" r="2.66667" stroke="#0038FF" stroke-width="3"/>
<circle cx="33" cy="17" r="2.66667" stroke="#0038FF" stroke-width="3"/>
<circle cx="55.6667" cy="27.6667" r="2.66667" stroke="#0038FF" stroke-width="3"/>
<circle cx="81" cy="9.00001" r="2.66667" stroke="#0038FF" stroke-width="3"/>
<path d="M11 35L30.3333 19M52.3333 26.3333L36.3333 18.3333M77.6667 11L58.3333 25" stroke="#0038FF" stroke-width="3" stroke-linejoin="round"/>
</g>
<g opacity="0.8" filter="url(#filter1_f_595_6132)">
<circle cx="8.33333" cy="36.3333" r="3.33333" fill="#01EDFF"/>
</g>
<g opacity="0.6" filter="url(#filter2_f_595_6132)">
<circle cx="32.3333" cy="16.3333" r="3.33333" fill="#01EDFF"/>
</g>
<g opacity="0.3" filter="url(#filter3_f_595_6132)">
<circle cx="55" cy="27" r="3.33333" fill="#01EDFF"/>
</g>
<g opacity="0.8" filter="url(#filter4_f_595_6132)">
<circle cx="80.3333" cy="8.33333" r="3.33333" fill="#01EDFF"/>
</g>
<g opacity="0.8" filter="url(#filter5_f_595_6132)">
<path d="M19.6667 84.3333C19.6667 84.8856 13.8008 85 11.6256 85C9.45049 85 9 84.8856 9 84.3333C9 83.781 9.28639 83.6667 11.4615 83.6667C13.6367 83.6667 19.6667 83.781 19.6667 84.3333Z" fill="#01EDFF"/>
</g>
<g opacity="0.8" filter="url(#filter6_f_595_6132)">
<path d="M29.6667 47.6667C29.1144 47.6667 29 41.8008 29 39.6256C29 37.4505 29.1144 37 29.6667 37C30.2189 37 30.3333 37.2864 30.3333 39.4615C30.3333 41.6367 30.2189 47.6667 29.6667 47.6667Z" fill="#01EDFF"/>
</g>
<defs>
<filter id="filter0_f_595_6132" x="0.833313" y="0.833344" width="88.3333" height="88.3333" filterUnits="userSpaceOnUse" color-interpolation-filters="sRGB">
<feFlood flood-opacity="0" result="BackgroundImageFix"/>
<feBlend mode="normal" in="SourceGraphic" in2="BackgroundImageFix" result="shape"/>
<feGaussianBlur stdDeviation="2" result="effect1_foregroundBlur_595_6132"/>
</filter>
<filter id="filter1_f_595_6132" x="1" y="29" width="14.6667" height="14.6667" filterUnits="userSpaceOnUse" color-interpolation-filters="sRGB">
<feFlood flood-opacity="0" result="BackgroundImageFix"/>
<feBlend mode="normal" in="SourceGraphic" in2="BackgroundImageFix" result="shape"/>
<feGaussianBlur stdDeviation="2" result="effect1_foregroundBlur_595_6132"/>
</filter>
<filter id="filter2_f_595_6132" x="25" y="9" width="14.6667" height="14.6667" filterUnits="userSpaceOnUse" color-interpolation-filters="sRGB">
<feFlood flood-opacity="0" result="BackgroundImageFix"/>
<feBlend mode="normal" in="SourceGraphic" in2="BackgroundImageFix" result="shape"/>
<feGaussianBlur stdDeviation="2" result="effect1_foregroundBlur_595_6132"/>
</filter>
<filter id="filter3_f_595_6132" x="47.6667" y="19.6667" width="14.6667" height="14.6667" filterUnits="userSpaceOnUse" color-interpolation-filters="sRGB">
<feFlood flood-opacity="0" result="BackgroundImageFix"/>
<feBlend mode="normal" in="SourceGraphic" in2="BackgroundImageFix" result="shape"/>
<feGaussianBlur stdDeviation="2" result="effect1_foregroundBlur_595_6132"/>
</filter>
<filter id="filter4_f_595_6132" x="73" y="1" width="14.6667" height="14.6667" filterUnits="userSpaceOnUse" color-interpolation-filters="sRGB">
<feFlood flood-opacity="0" result="BackgroundImageFix"/>
<feBlend mode="normal" in="SourceGraphic" in2="BackgroundImageFix" result="shape"/>
<feGaussianBlur stdDeviation="2" result="effect1_foregroundBlur_595_6132"/>
</filter>
<filter id="filter5_f_595_6132" x="5" y="79.6667" width="18.6667" height="9.33334" filterUnits="userSpaceOnUse" color-interpolation-filters="sRGB">
<feFlood flood-opacity="0" result="BackgroundImageFix"/>
<feBlend mode="normal" in="SourceGraphic" in2="BackgroundImageFix" result="shape"/>
<feGaussianBlur stdDeviation="2" result="effect1_foregroundBlur_595_6132"/>
</filter>
<filter id="filter6_f_595_6132" x="25" y="33" width="9.33331" height="18.6667" filterUnits="userSpaceOnUse" color-interpolation-filters="sRGB">
<feFlood flood-opacity="0" result="BackgroundImageFix"/>
<feBlend mode="normal" in="SourceGraphic" in2="BackgroundImageFix" result="shape"/>
<feGaussianBlur stdDeviation="2" result="effect1_foregroundBlur_595_6132"/>
</filter>
<radialGradient id="paint0_radial_595_6132" cx="0" cy="0" r="1" gradientUnits="userSpaceOnUse" gradientTransform="translate(44.9962 45.0001) scale(39.1243 40.2361)">
<stop stop-color="#0069DA"/>
<stop offset="0.33" stop-color="#0083FF"/>
<stop offset="0.7" stop-color="#00CCFF"/>
<stop offset="1" stop-color="#00EDFF"/>
</radialGradient>
</defs>
</svg>
