<svg width="131" height="131" viewBox="0 0 131 131" fill="none" xmlns="http://www.w3.org/2000/svg">
<path d="M110.085 21.6709C107.701 24.9965 104.822 27.9769 101.581 30.4611C100.754 31.0959 100.285 32.0915 100.301 33.1277C100.307 33.5304 100.307 33.933 100.307 34.3378C100.307 61.577 79.4098 93.0129 41.166 93.0129C31.1576 93.0129 21.7903 90.5462 13.5282 86.2193C13.211 86.0531 13.118 85.7417 13.2142 85.4266C13.3128 85.104 13.5939 84.8489 13.98 84.8489C21.2158 84.8489 28.0727 83.0415 34.0659 79.8533C35.3592 79.1653 35.7079 77.8196 35.4393 76.5995C35.1732 75.3901 34.2919 74.2128 33.001 73.7222C28.4215 71.9819 24.6337 68.662 22.3048 64.4388C21.9744 63.8397 22.0764 63.2224 22.4545 62.7296C22.8407 62.2263 23.5085 61.8703 24.2551 61.8703C24.7097 61.8703 25.0924 61.7089 25.3669 61.4278C25.6356 61.1526 25.7738 60.7911 25.8034 60.4283C25.8621 59.7095 25.5012 58.8957 24.7083 58.499C18.1433 55.2143 13.6084 48.5328 13.4264 40.7826C14.1791 41.1642 14.9583 41.5035 15.7606 41.7968C16.313 41.9988 16.8399 41.9744 17.2888 41.7623C17.7302 41.5538 18.0582 41.1822 18.2615 40.7526C18.6645 39.9007 18.6166 38.7394 17.9138 37.8436C15.206 34.3926 13.591 30.0526 13.591 25.3299C13.591 22.8412 14.0218 20.4899 14.8214 18.3239C15.067 17.6587 15.6088 17.2947 16.2267 17.222C16.8539 17.1482 17.5568 17.3784 18.0682 17.9277C27.6582 28.2257 40.8724 35.182 55.7125 36.7238C57.748 36.9353 59.221 35.059 59.0949 33.1502C59.0652 32.7001 59.0499 32.245 59.0499 31.7847C59.0499 20.5613 68.2245 11.4452 79.5464 11.4452C84.9497 11.4452 89.8601 13.5211 93.5151 16.9104C94.2565 17.5978 95.2961 17.9626 96.3285 17.7222C98.8131 17.1438 101.215 16.3606 103.512 15.3896C104.217 15.0914 104.907 15.2768 105.312 15.6654C105.702 16.0391 105.843 16.6059 105.454 17.2072C104.738 18.3147 104.884 19.7867 105.455 20.8499C106.025 21.9109 107.151 22.7653 108.494 22.2805C109.029 22.0874 109.559 21.8841 110.085 21.6709Z" stroke="url(#paint0_linear_768_2800)" stroke-width="0.89046"/>
<path d="M110.085 21.6709C107.701 24.9965 104.822 27.9769 101.581 30.4611C100.754 31.0959 100.285 32.0915 100.301 33.1277C100.307 33.5304 100.307 33.933 100.307 34.3378C100.307 61.577 79.4098 93.0129 41.166 93.0129C31.1576 93.0129 21.7903 90.5462 13.5282 86.2193C13.211 86.0531 13.118 85.7417 13.2142 85.4266C13.3128 85.104 13.5939 84.8489 13.98 84.8489C21.2158 84.8489 28.0727 83.0415 34.0659 79.8533C35.3592 79.1653 35.7079 77.8196 35.4393 76.5995C35.1732 75.3901 34.2919 74.2128 33.001 73.7222C28.4215 71.9819 24.6337 68.662 22.3048 64.4388C21.9744 63.8397 22.0764 63.2224 22.4545 62.7296C22.8407 62.2263 23.5085 61.8703 24.2551 61.8703C24.7097 61.8703 25.0924 61.7089 25.3669 61.4278C25.6356 61.1526 25.7738 60.7911 25.8034 60.4283C25.8621 59.7095 25.5012 58.8957 24.7083 58.499C18.1433 55.2143 13.6084 48.5328 13.4264 40.7826C14.1791 41.1642 14.9583 41.5035 15.7606 41.7968C16.313 41.9988 16.8399 41.9744 17.2888 41.7623C17.7302 41.5538 18.0582 41.1822 18.2615 40.7526C18.6645 39.9007 18.6166 38.7394 17.9138 37.8436C15.206 34.3926 13.591 30.0526 13.591 25.3299C13.591 22.8412 14.0218 20.4899 14.8214 18.3239C15.067 17.6587 15.6088 17.2947 16.2267 17.222C16.8539 17.1482 17.5568 17.3784 18.0682 17.9277C27.6582 28.2257 40.8724 35.182 55.7125 36.7238C57.748 36.9353 59.221 35.059 59.0949 33.1502C59.0652 32.7001 59.0499 32.245 59.0499 31.7847C59.0499 20.5613 68.2245 11.4452 79.5464 11.4452C84.9497 11.4452 89.8601 13.5211 93.5151 16.9104C94.2565 17.5978 95.2961 17.9626 96.3285 17.7222C98.8131 17.1438 101.215 16.3606 103.512 15.3896C104.217 15.0914 104.907 15.2768 105.312 15.6654C105.702 16.0391 105.843 16.6059 105.454 17.2072C104.738 18.3147 104.884 19.7867 105.455 20.8499C106.025 21.9109 107.151 22.7653 108.494 22.2805C109.029 22.0874 109.559 21.8841 110.085 21.6709Z" stroke="url(#paint1_linear_768_2800)" stroke-width="0.89046"/>
<g filter="url(#filter0_f_768_2800)">
<path fill-rule="evenodd" clip-rule="evenodd" d="M106.606 24.5748C106.834 24.3057 107.058 24.0338 107.278 23.7592C107.458 23.5352 107.635 23.3095 107.81 23.0819C108.189 22.5899 108.557 22.0897 108.913 21.5817C109.024 21.4237 109.134 21.2649 109.242 21.1054C109.258 21.0822 109.274 21.059 109.29 21.0358C109.336 20.9674 109.308 20.8742 109.231 20.8419C109.198 20.8277 109.159 20.8279 109.126 20.8425C109.1 20.8536 109.075 20.8647 109.049 20.8757C108.303 21.1988 107.546 21.5013 106.779 21.7826C106.712 21.8073 106.645 21.8318 106.578 21.8561C106.153 22.0094 105.748 21.9991 105.38 21.8697C103.921 21.3562 103.061 18.9681 104.03 17.4757C105.062 15.8859 103.266 14.2598 101.51 14.9996C99.2541 15.9501 96.8961 16.7178 94.4568 17.2863C93.5863 17.4892 92.6874 17.1865 92.0343 16.5811C88.3002 13.1198 83.2839 11 77.7659 11C66.2011 11 56.8242 20.3123 56.8242 31.7847C56.8242 32.2669 56.8406 32.7438 56.8725 33.2151C56.9866 34.9 55.6786 36.4575 53.9837 36.2816C39.2573 34.753 26.143 27.8525 16.6232 17.6346C15.4068 16.329 13.2368 16.5063 12.6212 18.1752C11.8044 20.3897 11.3653 22.7913 11.3653 25.3299C11.3653 30.1735 13.028 34.6243 15.8131 38.1569C16.9978 39.6594 15.9609 42.0447 14.1549 41.3867C14.0673 41.3548 13.9801 41.3223 13.8931 41.2893C13.8273 41.2643 13.7616 41.239 13.6961 41.2134C13.0038 40.9427 12.3298 40.6367 11.6768 40.2981C11.5919 40.254 11.5073 40.2094 11.4231 40.1643C11.3205 40.1093 11.195 40.1824 11.195 40.2981C11.195 40.3917 11.1956 40.4853 11.1969 40.5787C11.2068 41.3275 11.2565 42.0667 11.344 42.7945C11.3565 42.899 11.3699 43.0034 11.384 43.1075C12.3234 50.0319 16.6871 55.8761 22.7326 58.8992C23.97 59.518 23.8607 61.4251 22.4746 61.4251C20.7043 61.4251 19.2734 63.0874 20.1201 64.6279C22.5072 68.9712 26.403 72.382 31.1145 74.1582C33.378 75.0115 34.2721 78.2872 32.1404 79.426C26.4228 82.4803 19.9071 84.2635 13.0243 84.3957C13.0099 84.396 12.9956 84.3963 12.9812 84.3965C12.8906 84.3982 12.8 84.3996 12.7093 84.4006C12.5396 84.4026 12.3697 84.4036 12.1995 84.4036C10.9732 84.4036 10.4471 86.0404 11.5311 86.6084C11.7531 86.7248 11.9759 86.8397 12.1995 86.9534C12.257 86.9826 12.3145 87.0117 12.3721 87.0408C12.3784 87.0439 12.3847 87.0471 12.391 87.0503C20.5051 91.1384 29.6444 93.4581 39.3855 93.4581C77.9234 93.4581 98.9715 61.7717 98.9715 34.3378C98.9715 33.9265 98.9715 33.5133 98.9651 33.0995C98.9513 32.2134 99.3539 31.3645 100.061 30.8224C102.456 28.9878 104.655 26.8855 106.606 24.5748ZM17.9969 86.6795C24.5989 89.3394 31.7996 90.8111 39.3855 90.8111C76.1371 90.8111 96.3002 60.6382 96.3002 34.3378C96.3002 33.9231 96.3001 33.5303 96.294 33.1404C96.2676 31.4404 97.0383 29.7926 98.4274 28.7283C100.293 27.2991 102.033 25.6948 103.619 23.9481C102.753 23.4054 102.1 22.6229 101.712 21.917C101.139 20.8734 100.791 19.4629 101.015 18.052C99.0927 18.7816 97.1068 19.388 95.0684 19.8631C93.1889 20.3011 91.4031 19.6206 90.2094 18.5142C86.9503 15.4932 82.5794 13.6471 77.7659 13.6471C67.681 13.6471 59.4955 21.7697 59.4955 31.7847C59.4955 32.2075 59.5099 32.6252 59.5379 33.0378C59.7357 35.9584 57.4304 39.3009 53.7054 38.9142C38.4371 37.3294 24.8349 30.2225 14.9154 19.7022C14.3447 21.4502 14.0366 23.3345 14.0366 25.3299C14.0366 29.5626 15.4873 33.4438 17.9183 36.5272C19.1689 38.1134 19.2642 40.1641 18.5179 41.7189C18.1342 42.5183 17.468 43.3069 16.4765 43.7676C15.772 44.0949 15.0156 44.2034 14.2706 44.118C15.4407 49.5597 19.0607 54.098 23.9361 56.536C25.6146 57.3754 26.3763 59.0845 26.2498 60.6108C26.1849 61.3947 25.8758 62.2663 25.1844 62.9674C24.5523 63.6085 23.733 63.9702 22.8663 64.0535C24.9741 67.5189 28.2095 70.2309 32.0644 71.6842C34.1298 72.4628 35.4709 74.2751 35.8832 76.1097C36.3097 78.0077 35.7964 80.4802 33.4081 81.756C28.707 84.2673 23.4988 85.9705 17.9969 86.6795ZM22.4068 64.0916C22.4069 64.0915 22.4074 64.0911 22.4081 64.0906C22.4072 64.0914 22.4067 64.0917 22.4068 64.0916ZM14.6419 19.4151C14.6419 19.4151 14.6425 19.4153 14.6436 19.4159C14.6424 19.4155 14.6419 19.4151 14.6419 19.4151Z" fill="#0181FB"/>
</g>
<g filter="url(#filter1_bi_768_2800)">
<path d="M55.1343 64.2966C55.1343 61.4509 57.4412 59.144 60.2868 59.144H124.95C127.796 59.144 130.102 61.4509 130.102 64.2966V119.412C130.102 123.234 126.087 125.726 122.662 124.029L108.116 116.822C107.405 116.47 106.622 116.287 105.829 116.287H60.2868C57.4412 116.287 55.1343 113.98 55.1343 111.134V64.2966Z" fill="url(#paint2_linear_768_2800)" fill-opacity="0.1"/>
<path d="M55.7783 64.2966C55.7783 61.8066 57.7969 59.7881 60.2868 59.7881H124.95C127.44 59.7881 129.458 61.8066 129.458 64.2966V119.412C129.458 122.757 125.945 124.937 122.948 123.452L108.402 116.245C107.602 115.849 106.722 115.643 105.829 115.643H60.2868C57.7969 115.643 55.7783 113.624 55.7783 111.134V64.2966Z" stroke="url(#paint3_linear_768_2800)" stroke-opacity="0.1" stroke-width="1.28814"/>
</g>
<rect x="74.2764" y="78.9209" width="36.7697" height="1.78092" fill="url(#paint4_linear_768_2800)"/>
<rect x="74.2764" y="78.9209" width="36.7697" height="1.78092" fill="url(#paint5_linear_768_2800)"/>
<rect x="74.2764" y="87.8257" width="36.7697" height="1.78092" fill="url(#paint6_linear_768_2800)"/>
<rect x="74.2764" y="87.8257" width="36.7697" height="1.78092" fill="url(#paint7_linear_768_2800)"/>
<rect x="85.8442" y="96.7305" width="25.2017" height="1.78092" fill="url(#paint8_linear_768_2800)"/>
<rect x="85.8442" y="96.7305" width="25.2017" height="1.78092" fill="url(#paint9_linear_768_2800)"/>
<defs>
<filter id="filter0_f_768_2800" x="0.257356" y="0.314485" width="119.74" height="103.829" filterUnits="userSpaceOnUse" color-interpolation-filters="sRGB">
<feFlood flood-opacity="0" result="BackgroundImageFix"/>
<feBlend mode="normal" in="SourceGraphic" in2="BackgroundImageFix" result="shape"/>
<feGaussianBlur stdDeviation="5.34276" result="effect1_foregroundBlur_768_2800"/>
</filter>
<filter id="filter1_bi_768_2800" x="44.4488" y="48.4585" width="96.3393" height="86.7983" filterUnits="userSpaceOnUse" color-interpolation-filters="sRGB">
<feFlood flood-opacity="0" result="BackgroundImageFix"/>
<feGaussianBlur in="BackgroundImageFix" stdDeviation="5.34276"/>
<feComposite in2="SourceAlpha" operator="in" result="effect1_backgroundBlur_768_2800"/>
<feBlend mode="normal" in="SourceGraphic" in2="effect1_backgroundBlur_768_2800" result="shape"/>
<feColorMatrix in="SourceAlpha" type="matrix" values="0 0 0 0 0 0 0 0 0 0 0 0 0 0 0 0 0 0 127 0" result="hardAlpha"/>
<feOffset dy="2.26766"/>
<feGaussianBlur stdDeviation="4.53532"/>
<feComposite in2="hardAlpha" operator="arithmetic" k2="-1" k3="1"/>
<feColorMatrix type="matrix" values="0 0 0 0 1 0 0 0 0 1 0 0 0 0 1 0 0 0 0.15 0"/>
<feBlend mode="normal" in2="shape" result="effect2_innerShadow_768_2800"/>
</filter>
<linearGradient id="paint0_linear_768_2800" x1="111.159" y1="-28.1676" x2="123.57" y2="116.362" gradientUnits="userSpaceOnUse">
<stop stop-color="#E9A5C9"/>
<stop offset="1" stop-color="#F3B771" stop-opacity="0"/>
</linearGradient>
<linearGradient id="paint1_linear_768_2800" x1="59.9391" y1="12.1952" x2="59.9391" y2="92.8364" gradientUnits="userSpaceOnUse">
<stop stop-color="#01E5FF"/>
<stop offset="0.9999" stop-color="#017AF2"/>
<stop offset="1" stop-color="#41889E"/>
</linearGradient>
<linearGradient id="paint2_linear_768_2800" x1="92.5153" y1="60.138" x2="132.672" y2="128.273" gradientUnits="userSpaceOnUse">
<stop stop-color="#CCEFF3"/>
<stop offset="0.9999" stop-color="#017AF2"/>
<stop offset="1" stop-color="#9DC8D6"/>
</linearGradient>
<linearGradient id="paint3_linear_768_2800" x1="92.5153" y1="60.138" x2="92.5153" y2="127.198" gradientUnits="userSpaceOnUse">
<stop stop-color="#01E5FF"/>
<stop offset="0.9999" stop-color="#017AF2"/>
<stop offset="1" stop-color="#41889E"/>
</linearGradient>
<linearGradient id="paint4_linear_768_2800" x1="123.364" y1="78.7205" x2="115.339" y2="103.543" gradientUnits="userSpaceOnUse">
<stop stop-color="#EB7C48"/>
<stop offset="0.675103" stop-color="#A13369"/>
</linearGradient>
<linearGradient id="paint5_linear_768_2800" x1="92.6107" y1="78.9467" x2="92.6107" y2="80.6884" gradientUnits="userSpaceOnUse">
<stop stop-color="#01E5FF"/>
<stop offset="0.9999" stop-color="#017AF2"/>
<stop offset="1" stop-color="#41889E"/>
</linearGradient>
<linearGradient id="paint6_linear_768_2800" x1="123.364" y1="87.6253" x2="115.339" y2="112.448" gradientUnits="userSpaceOnUse">
<stop stop-color="#EB7C48"/>
<stop offset="0.675103" stop-color="#A13369"/>
</linearGradient>
<linearGradient id="paint7_linear_768_2800" x1="92.6107" y1="87.8515" x2="92.6107" y2="89.5932" gradientUnits="userSpaceOnUse">
<stop stop-color="#01E5FF"/>
<stop offset="0.9999" stop-color="#017AF2"/>
<stop offset="1" stop-color="#41889E"/>
</linearGradient>
<linearGradient id="paint8_linear_768_2800" x1="119.489" y1="96.5301" x2="108.91" y2="118.957" gradientUnits="userSpaceOnUse">
<stop stop-color="#EB7C48"/>
<stop offset="0.675103" stop-color="#A13369"/>
</linearGradient>
<linearGradient id="paint9_linear_768_2800" x1="98.4104" y1="96.7563" x2="98.4104" y2="98.498" gradientUnits="userSpaceOnUse">
<stop stop-color="#01E5FF"/>
<stop offset="0.9999" stop-color="#017AF2"/>
<stop offset="1" stop-color="#41889E"/>
</linearGradient>
</defs>
</svg>
