<svg width="32" height="24" viewBox="0 0 32 24" fill="none" xmlns="http://www.w3.org/2000/svg">
<path d="M26.6568 2.00999C24.6498 1.071 22.5039 0.388577 20.2604 0C19.9849 0.498142 19.663 1.16815 19.4411 1.70115C17.0562 1.34249 14.6932 1.34249 12.3522 1.70115C12.1303 1.16815 11.8011 0.498142 11.5231 0C9.2772 0.388577 7.12883 1.07351 5.12189 2.01497C1.07389 8.13203 -0.0234615 14.0972 0.525213 19.9776C3.21006 21.9826 5.81201 23.2005 8.37004 23.9975C9.00163 23.1283 9.56493 22.2042 10.0502 21.2304C9.12599 20.8792 8.2408 20.4459 7.4044 19.9427C7.62629 19.7783 7.84334 19.6065 8.05303 19.4296C13.1545 21.8157 18.6973 21.8157 23.7378 19.4296C23.95 19.6065 24.167 19.7783 24.3865 19.9427C23.5476 20.4483 22.66 20.8817 21.7358 21.2329C22.221 22.2042 22.7819 23.1308 23.4159 24C25.9764 23.203 28.5808 21.9851 31.2656 19.9776C31.9094 13.1607 30.1659 7.25033 26.6568 2.00999ZM10.7452 16.3612C9.21379 16.3612 7.95791 14.9315 7.95791 13.1906C7.95791 11.4496 9.18697 10.0175 10.7452 10.0175C12.3035 10.0175 13.5593 11.4471 13.5325 13.1906C13.5349 14.9315 12.3035 16.3612 10.7452 16.3612ZM21.0457 16.3612C19.5143 16.3612 18.2584 14.9315 18.2584 13.1906C18.2584 11.4496 19.4874 10.0175 21.0457 10.0175C22.6039 10.0175 23.8598 11.4471 23.8329 13.1906C23.8329 14.9315 22.6039 16.3612 21.0457 16.3612Z" fill="white" fill-opacity="0.6"/>
</svg>
