<svg width="16" height="16" viewBox="0 0 16 16" fill="none" xmlns="http://www.w3.org/2000/svg">
<circle cx="8" cy="8" r="7.5" fill="white" stroke="#9FC131"/>
<g clip-path="url(#clip0_1302_268)">
<path d="M9.39139 4.78263C9.39139 5.53498 8.41052 6.46994 7.92182 6.86194C7.84535 6.92324 7.75027 6.95665 7.65226 6.95665C7.55425 6.95665 7.45916 6.92324 7.38269 6.86194C6.894 6.46959 5.91313 5.53498 5.91313 4.78263C5.90216 4.54062 5.98749 4.30412 6.15045 4.12486C6.31341 3.9456 6.54074 3.83819 6.78269 3.82611C7.02465 3.83819 7.25198 3.9456 7.41494 4.12486C7.5779 4.30412 7.66323 4.54062 7.65226 4.78263C7.64129 4.54062 7.72662 4.30412 7.88958 4.12486C8.05254 3.9456 8.27987 3.83819 8.52182 3.82611C8.76378 3.83819 8.99111 3.9456 9.15407 4.12486C9.31703 4.30412 9.40236 4.54062 9.39139 4.78263V4.78263ZM11.9437 8.12176L9.26548 11.0466C8.9394 11.4022 8.54292 11.686 8.10125 11.8801C7.65957 12.0742 7.18235 12.1742 6.69991 12.1739H5.21748C4.84848 12.1739 4.4946 12.0274 4.23368 11.7664C3.97276 11.5055 3.82617 11.1516 3.82617 10.7826V9.0435C3.82617 8.67451 3.97276 8.32062 4.23368 8.0597C4.4946 7.79878 4.84848 7.6522 5.21748 7.6522H7.926C8.04097 7.65242 8.15445 7.67834 8.25812 7.72806C8.36179 7.77778 8.45303 7.85004 8.52518 7.93956C8.59733 8.02908 8.64856 8.13359 8.67512 8.24546C8.70168 8.35733 8.7029 8.47371 8.67869 8.58611C8.64104 8.74334 8.55622 8.8853 8.43562 8.99297C8.31502 9.10065 8.16439 9.16888 8.00391 9.18855L6.55591 9.39133C6.46465 9.40442 6.38232 9.45321 6.32701 9.52698C6.2717 9.60074 6.24794 9.69345 6.26095 9.78472C6.27396 9.87605 6.32272 9.95847 6.39649 10.0138C6.47027 10.0692 6.56302 10.093 6.65435 10.08L8.1333 9.87133C8.48164 9.82003 8.80007 9.64562 9.03087 9.37972C9.26168 9.11382 9.38958 8.77403 9.39139 8.42194C9.38969 8.34749 9.38213 8.27329 9.36878 8.20003L10.6008 6.9002C10.7632 6.72428 10.9887 6.6198 11.228 6.60957C11.4672 6.59934 11.7008 6.68419 11.8777 6.84559C12.0536 7.00688 12.1592 7.23088 12.1716 7.46928C12.1839 7.70768 12.1021 7.94139 11.9437 8.12003V8.12176Z" fill="#005C53"/>
</g>
<defs>
<clipPath id="clip0_1302_268">
<rect width="8.34783" height="8.34783" fill="white" transform="translate(3.82617 3.82611)"/>
</clipPath>
</defs>
</svg>
