<svg width="25" height="24" viewBox="0 0 25 24" fill="none" xmlns="http://www.w3.org/2000/svg">
<path d="M12.6969 0C5.90341 0 0.393555 5.50883 0.393555 12.3034C0.393555 17.7394 3.91847 22.3511 8.80803 23.9782C9.42217 24.092 9.62108 23.7106 9.62108 23.3866V21.0962C6.19869 21.8405 5.48612 19.6444 5.48612 19.6444C4.92632 18.2223 4.11942 17.844 4.11942 17.844C3.00289 17.0801 4.20452 17.0965 4.20452 17.0965C5.43998 17.1827 6.09001 18.3648 6.09001 18.3648C7.18706 20.2452 8.96797 19.7018 9.67029 19.387C9.78 18.5924 10.0989 18.049 10.4516 17.7425C7.71918 17.4298 4.84635 16.3748 4.84635 11.6615C4.84635 10.3174 5.3272 9.22035 6.11359 8.35911C5.98646 8.04845 5.56507 6.79658 6.23355 5.10282C6.23355 5.10282 7.26703 4.77268 9.618 6.36391C10.5992 6.09119 11.6511 5.95483 12.6969 5.9497C13.7427 5.95483 14.7957 6.09119 15.7789 6.36391C18.1278 4.77268 19.1593 5.10282 19.1593 5.10282C19.8288 6.79761 19.4074 8.04948 19.2802 8.35911C20.0697 9.22035 20.5465 10.3184 20.5465 11.6615C20.5465 16.3871 17.6685 17.4277 14.929 17.7322C15.3698 18.1136 15.7728 18.8621 15.7728 20.0104V23.3866C15.7728 23.7137 15.9696 24.0982 16.594 23.9772C21.4795 22.348 25.0003 17.7374 25.0003 12.3034C25.0003 5.50883 19.4915 0 12.6969 0Z" fill="white" fill-opacity="0.6"/>
</svg>
