<svg width="30" height="24" viewBox="0 0 30 24" fill="none" xmlns="http://www.w3.org/2000/svg">
<path d="M29.0429 2.76979C28.5824 2.97401 28.109 3.1464 27.6252 3.28639C28.1979 2.63863 28.6346 1.87647 28.9012 1.04247C28.961 0.855534 28.899 0.650911 28.7453 0.528618C28.5918 0.406268 28.3786 0.391612 28.2097 0.491747C27.1823 1.10109 26.0738 1.53902 24.9116 1.79506C23.7408 0.651083 22.1507 0 20.5069 0C17.037 0 14.214 2.82292 14.214 6.29269C14.214 6.56596 14.2313 6.83774 14.2656 7.10574C9.95978 6.7277 5.95675 4.61134 3.20791 1.23942C3.10995 1.11924 2.95904 1.05443 2.80451 1.06686C2.64993 1.07894 2.51097 1.16613 2.43288 1.30016C1.87535 2.2568 1.58061 3.35097 1.58061 4.46426C1.58061 5.98055 2.12194 7.41915 3.07824 8.54331C2.78745 8.44261 2.5053 8.31676 2.23599 8.16728C2.09142 8.08678 1.91497 8.08804 1.77132 8.17037C1.62761 8.25275 1.5375 8.40419 1.53366 8.56977C1.53297 8.59765 1.53297 8.62553 1.53297 8.65381C1.53297 10.9171 2.75109 12.9548 4.61348 14.0654C4.45346 14.0494 4.29361 14.0262 4.13473 13.9959C3.97093 13.9646 3.80255 14.022 3.6921 14.1469C3.58149 14.2717 3.54485 14.4457 3.59586 14.6046C4.28519 16.7568 6.05998 18.3398 8.20554 18.8224C6.426 19.937 4.39099 20.5208 2.25471 20.5208C1.80893 20.5208 1.36064 20.4947 0.921911 20.4427C0.703949 20.4168 0.495547 20.5455 0.42129 20.7528C0.347033 20.9602 0.425756 21.1914 0.611141 21.3102C3.35557 23.0699 6.52888 24 9.7879 24C16.1947 24 20.2027 20.9788 22.4366 18.4443C25.2224 15.284 26.82 11.101 26.82 6.96788C26.82 6.7952 26.8174 6.62087 26.8121 6.44705C27.9112 5.61899 28.8574 4.61684 29.6274 3.46502C29.7443 3.29011 29.7317 3.05886 29.5962 2.89787C29.461 2.73659 29.2354 2.68449 29.0429 2.76979Z" fill="white" fill-opacity="0.6"/>
</svg>
