<svg width="364" height="311" viewBox="0 0 364 311" fill="none" xmlns="http://www.w3.org/2000/svg">
<g opacity="0.4" filter="url(#filter0_f_595_5975)">
<path d="M181 60.7578C181 62.4146 99.3241 63.7578 76.8929 63.7578C71 63.7578 71 62.4145 71 60.7577C71 59.1009 73.9534 58.7578 96.3846 58.7578C118.816 58.7578 181 59.1009 181 60.7578Z" fill="#01EDFF"/>
</g>
<g opacity="0.6" filter="url(#filter1_f_595_5975)">
<circle cx="73" cy="61.7578" r="2" fill="#01EDFF"/>
</g>
<g opacity="0.8" filter="url(#filter2_f_595_5975)">
<path d="M71 89.7578C71 91.4146 35.8048 91.7578 22.7538 91.7578C9.70293 91.7578 7 91.4146 7 89.7577C7 88.1009 8.71832 87.7578 21.7692 87.7578C34.8201 87.7578 71 88.101 71 89.7578Z" fill="#01EDFF"/>
</g>
<g filter="url(#filter3_f_595_5975)">
<circle cx="9" cy="92.7578" r="5" fill="#01EDFF"/>
</g>
<g opacity="0.8" filter="url(#filter4_f_595_5975)">
<circle cx="32" cy="153.758" r="2" fill="#01EDFF"/>
</g>
<path fill-rule="evenodd" clip-rule="evenodd" d="M303.543 33.2743L303.268 34.3571L304.374 34.511C314.131 35.8682 321.641 44.2456 321.641 54.3756C321.641 56.6455 321.264 58.8272 320.569 60.8617C320.492 60.9497 320.445 61.0651 320.445 61.1914C320.445 61.1986 320.445 61.2058 320.446 61.2129C317.65 68.9237 310.26 74.4327 301.584 74.4327H245.674C234.597 74.4327 225.617 65.4528 225.617 54.3756C225.617 45.7203 231.1 38.3431 238.785 35.5326L239.487 35.2759L239.44 34.53C239.422 34.2497 239.413 33.9668 239.413 33.6817C239.413 26.4141 245.305 20.5226 252.572 20.5226C255.217 20.5226 257.677 21.3019 259.738 22.6431L260.886 23.3897L261.248 22.0696C263.79 12.8054 272.273 6 282.343 6C294.422 6 304.215 15.7926 304.215 27.8723C304.215 29.7379 303.982 31.5476 303.543 33.2743ZM321.336 61.6914C318.363 69.7145 310.641 75.4327 301.584 75.4327H245.674C236.617 75.4327 228.896 69.7145 225.923 61.6914H75.5352C69.1839 61.6914 64.0352 66.8401 64.0352 73.1914V232.478C64.0468 232.477 64.0585 232.477 64.0703 232.477H335.965V73.1914C335.965 66.8401 330.816 61.6914 324.465 61.6914H321.336ZM225.581 60.6914C224.955 58.6976 224.617 56.576 224.617 54.3756C224.617 45.2871 230.375 37.5435 238.442 34.5934C238.423 34.292 238.413 33.988 238.413 33.6817C238.413 25.8619 244.752 19.5226 252.572 19.5226C255.046 19.5226 257.371 20.157 259.395 21.2718C259.698 21.4389 259.995 21.6168 260.284 21.8049C260.376 21.4699 260.475 21.1379 260.582 20.8091C263.558 11.6338 272.175 5 282.343 5C294.975 5 305.215 15.2403 305.215 27.8723C305.215 29.4727 305.051 31.0348 304.738 32.5424C304.67 32.8711 304.594 33.1972 304.512 33.5205C304.845 33.5668 305.175 33.6209 305.503 33.6825C315.26 35.5187 322.641 44.0851 322.641 54.3756C322.641 56.576 322.304 58.6976 321.678 60.6914H324.465C331.368 60.6914 336.965 66.2878 336.965 73.1914V232.977V246.129C336.965 253.032 331.368 258.629 324.465 258.629H236.419L239.51 284.387H250.305C256.196 284.387 260.973 289.163 260.973 295.055C260.973 300.946 256.196 305.723 250.305 305.723H149.695C143.804 305.723 139.027 300.946 139.027 295.055C139.027 289.163 143.804 284.387 149.695 284.387H161.56L164.651 258.629H139.527C139.251 258.629 139.027 258.405 139.027 258.129C139.027 257.853 139.251 257.629 139.527 257.629H165.207H165.222H235.849H235.864H324.465C330.816 257.629 335.965 252.48 335.965 246.129V233.477H64.0703C64.0585 233.477 64.0468 233.476 64.0352 233.475V246.129C64.0352 252.48 69.1839 257.629 75.5352 257.629H118.656C118.932 257.629 119.156 257.853 119.156 258.129C119.156 258.405 118.932 258.629 118.656 258.629H75.5352C68.6316 258.629 63.0352 253.032 63.0352 246.129V73.1914C63.0352 66.2878 68.6316 60.6914 75.5352 60.6914H225.581ZM235.412 258.629H165.658L162.567 284.387H203.211C203.487 284.387 203.711 284.611 203.711 284.887C203.711 285.163 203.487 285.387 203.211 285.387H162.012H161.997H149.695C144.356 285.387 140.027 289.715 140.027 295.055C140.027 300.394 144.356 304.723 149.695 304.723H250.305C255.644 304.723 259.973 300.394 259.973 295.055C259.973 289.715 255.644 285.387 250.305 285.387H239.073H239.058H224.082C223.806 285.387 223.582 285.163 223.582 284.887C223.582 284.611 223.806 284.387 224.082 284.387H238.503L235.412 258.629ZM87.6523 92.7656C87.6523 92.4895 87.8762 92.2656 88.1523 92.2656H183.945C184.221 92.2656 184.445 92.4895 184.445 92.7656C184.445 93.0418 184.221 93.2656 183.945 93.2656H88.1523C87.8762 93.2656 87.6523 93.0418 87.6523 92.7656ZM87.6523 115.242C87.6523 114.966 87.8762 114.742 88.1523 114.742H150.766C151.042 114.742 151.266 114.966 151.266 115.242C151.266 115.518 151.042 115.742 150.766 115.742H88.1523C87.8762 115.742 87.6523 115.518 87.6523 115.242ZM162.039 115.242C162.039 114.966 162.263 114.742 162.539 114.742H183.945C184.221 114.742 184.445 114.966 184.445 115.242C184.445 115.518 184.221 115.742 183.945 115.742H162.539C162.263 115.742 162.039 115.518 162.039 115.242ZM88.1523 137.219C87.8762 137.219 87.6523 137.443 87.6523 137.719C87.6523 137.995 87.8762 138.219 88.1523 138.219H183.945C184.221 138.219 184.445 137.995 184.445 137.719C184.445 137.443 184.221 137.219 183.945 137.219H88.1523ZM87.6523 160.195C87.6523 159.919 87.8762 159.695 88.1523 159.695H110.629C110.905 159.695 111.129 159.919 111.129 160.195C111.129 160.471 110.905 160.695 110.629 160.695H88.1523C87.8762 160.695 87.6523 160.471 87.6523 160.195ZM121.902 160.195C121.902 159.919 122.126 159.695 122.402 159.695H183.945C184.221 159.695 184.445 159.919 184.445 160.195C184.445 160.471 184.221 160.695 183.945 160.695H122.402C122.126 160.695 121.902 160.471 121.902 160.195ZM88.1523 182.172C87.8762 182.172 87.6523 182.396 87.6523 182.672C87.6523 182.948 87.8762 183.172 88.1523 183.172H183.945C184.221 183.172 184.445 182.948 184.445 182.672C184.445 182.396 184.221 182.172 183.945 182.172H88.1523ZM87.6523 205.148C87.6523 204.872 87.8762 204.648 88.1523 204.648H136.852C137.128 204.648 137.352 204.872 137.352 205.148C137.352 205.425 137.128 205.648 136.852 205.648H88.1523C87.8762 205.648 87.6523 205.425 87.6523 205.148ZM249.77 113.707C249.217 113.707 248.77 114.155 248.77 114.707V148.957C248.77 149.509 249.217 149.957 249.77 149.957H274.387C274.939 149.957 275.387 149.509 275.387 148.957V114.707C275.387 114.155 274.939 113.707 274.387 113.707H249.77ZM249.77 114.707H250.77H273.387H274.387V115.707V147.957V148.957H273.387H250.77H249.77V147.957V115.707V114.707ZM286.23 90.0898C286.23 89.5376 286.678 89.0898 287.23 89.0898H311.848C312.4 89.0898 312.848 89.5376 312.848 90.0898V148.957C312.848 149.509 312.4 149.957 311.848 149.957H287.23C286.678 149.957 286.23 149.509 286.23 148.957V90.0898ZM288.23 90.0898H287.23V91.0898V147.957V148.957H288.23H310.848H311.848V147.957V91.0898V90.0898H310.848H288.23Z" fill="url(#paint0_linear_595_5975)"/>
<g opacity="0.4" filter="url(#filter5_f_595_5975)">
<mask id="path-7-outside-1_595_5975" maskUnits="userSpaceOnUse" x="62.0352" y="4" width="276" height="303" fill="black">
<rect fill="white" x="62.0352" y="4" width="276" height="303"/>
<path fill-rule="evenodd" clip-rule="evenodd" d="M303.543 33.2743L303.268 34.3571L304.374 34.511C314.131 35.8682 321.641 44.2456 321.641 54.3756C321.641 56.6455 321.264 58.8272 320.569 60.8617C320.492 60.9497 320.445 61.0651 320.445 61.1914C320.445 61.1986 320.445 61.2058 320.446 61.2129C317.65 68.9237 310.26 74.4327 301.584 74.4327H245.674C234.597 74.4327 225.617 65.4528 225.617 54.3756C225.617 45.7203 231.1 38.3431 238.785 35.5326L239.487 35.2759L239.44 34.53C239.422 34.2497 239.413 33.9668 239.413 33.6817C239.413 26.4141 245.305 20.5226 252.572 20.5226C255.217 20.5226 257.677 21.3019 259.738 22.6431L260.886 23.3897L261.248 22.0696C263.79 12.8054 272.273 6 282.343 6C294.422 6 304.215 15.7926 304.215 27.8723C304.215 29.7379 303.982 31.5476 303.543 33.2743ZM321.336 61.6914C318.363 69.7145 310.641 75.4327 301.584 75.4327H245.674C236.617 75.4327 228.896 69.7145 225.923 61.6914H75.5352C69.1839 61.6914 64.0352 66.8401 64.0352 73.1914V232.478C64.0468 232.477 64.0585 232.477 64.0703 232.477H335.965V73.1914C335.965 66.8401 330.816 61.6914 324.465 61.6914H321.336ZM225.581 60.6914C224.955 58.6976 224.617 56.576 224.617 54.3756C224.617 45.2871 230.375 37.5435 238.442 34.5934C238.423 34.292 238.413 33.988 238.413 33.6817C238.413 25.8619 244.752 19.5226 252.572 19.5226C255.046 19.5226 257.371 20.157 259.395 21.2718C259.698 21.4389 259.995 21.6168 260.284 21.8049C260.376 21.4699 260.475 21.1379 260.582 20.8091C263.558 11.6338 272.175 5 282.343 5C294.975 5 305.215 15.2403 305.215 27.8723C305.215 29.4727 305.051 31.0348 304.738 32.5424C304.67 32.8711 304.594 33.1972 304.512 33.5205C304.845 33.5668 305.175 33.6209 305.503 33.6825C315.26 35.5187 322.641 44.0851 322.641 54.3756C322.641 56.576 322.304 58.6976 321.678 60.6914H324.465C331.368 60.6914 336.965 66.2878 336.965 73.1914V232.977V246.129C336.965 253.032 331.368 258.629 324.465 258.629H236.419L239.51 284.387H250.305C256.196 284.387 260.973 289.163 260.973 295.055C260.973 300.946 256.196 305.723 250.305 305.723H149.695C143.804 305.723 139.027 300.946 139.027 295.055C139.027 289.163 143.804 284.387 149.695 284.387H161.56L164.651 258.629H139.527C139.251 258.629 139.027 258.405 139.027 258.129C139.027 257.853 139.251 257.629 139.527 257.629H165.207H165.222H235.849H235.864H324.465C330.816 257.629 335.965 252.48 335.965 246.129V233.477H64.0703C64.0585 233.477 64.0468 233.476 64.0352 233.475V246.129C64.0352 252.48 69.1839 257.629 75.5352 257.629H118.656C118.932 257.629 119.156 257.853 119.156 258.129C119.156 258.405 118.932 258.629 118.656 258.629H75.5352C68.6316 258.629 63.0352 253.032 63.0352 246.129V73.1914C63.0352 66.2878 68.6316 60.6914 75.5352 60.6914H225.581ZM235.412 258.629H165.658L162.567 284.387H203.211C203.487 284.387 203.711 284.611 203.711 284.887C203.711 285.163 203.487 285.387 203.211 285.387H162.012H161.997H149.695C144.356 285.387 140.027 289.715 140.027 295.055C140.027 300.394 144.356 304.723 149.695 304.723H250.305C255.644 304.723 259.973 300.394 259.973 295.055C259.973 289.715 255.644 285.387 250.305 285.387H239.073H239.058H224.082C223.806 285.387 223.582 285.163 223.582 284.887C223.582 284.611 223.806 284.387 224.082 284.387H238.503L235.412 258.629ZM87.6523 92.7656C87.6523 92.4895 87.8762 92.2656 88.1523 92.2656H183.945C184.221 92.2656 184.445 92.4895 184.445 92.7656C184.445 93.0418 184.221 93.2656 183.945 93.2656H88.1523C87.8762 93.2656 87.6523 93.0418 87.6523 92.7656ZM87.6523 115.242C87.6523 114.966 87.8762 114.742 88.1523 114.742H150.766C151.042 114.742 151.266 114.966 151.266 115.242C151.266 115.518 151.042 115.742 150.766 115.742H88.1523C87.8762 115.742 87.6523 115.518 87.6523 115.242ZM162.039 115.242C162.039 114.966 162.263 114.742 162.539 114.742H183.945C184.221 114.742 184.445 114.966 184.445 115.242C184.445 115.518 184.221 115.742 183.945 115.742H162.539C162.263 115.742 162.039 115.518 162.039 115.242ZM88.1523 137.219C87.8762 137.219 87.6523 137.443 87.6523 137.719C87.6523 137.995 87.8762 138.219 88.1523 138.219H183.945C184.221 138.219 184.445 137.995 184.445 137.719C184.445 137.443 184.221 137.219 183.945 137.219H88.1523ZM87.6523 160.195C87.6523 159.919 87.8762 159.695 88.1523 159.695H110.629C110.905 159.695 111.129 159.919 111.129 160.195C111.129 160.471 110.905 160.695 110.629 160.695H88.1523C87.8762 160.695 87.6523 160.471 87.6523 160.195ZM121.902 160.195C121.902 159.919 122.126 159.695 122.402 159.695H183.945C184.221 159.695 184.445 159.919 184.445 160.195C184.445 160.471 184.221 160.695 183.945 160.695H122.402C122.126 160.695 121.902 160.471 121.902 160.195ZM88.1523 182.172C87.8762 182.172 87.6523 182.396 87.6523 182.672C87.6523 182.948 87.8762 183.172 88.1523 183.172H183.945C184.221 183.172 184.445 182.948 184.445 182.672C184.445 182.396 184.221 182.172 183.945 182.172H88.1523ZM87.6523 205.148C87.6523 204.872 87.8762 204.648 88.1523 204.648H136.852C137.128 204.648 137.352 204.872 137.352 205.148C137.352 205.425 137.128 205.648 136.852 205.648H88.1523C87.8762 205.648 87.6523 205.425 87.6523 205.148ZM249.77 113.707C249.217 113.707 248.77 114.155 248.77 114.707V148.957C248.77 149.509 249.217 149.957 249.77 149.957H274.387C274.939 149.957 275.387 149.509 275.387 148.957V114.707C275.387 114.155 274.939 113.707 274.387 113.707H249.77ZM249.77 114.707H250.77H273.387H274.387V115.707V147.957V148.957H273.387H250.77H249.77V147.957V115.707V114.707ZM286.23 90.0898C286.23 89.5376 286.678 89.0898 287.23 89.0898H311.848C312.4 89.0898 312.848 89.5376 312.848 90.0898V148.957C312.848 149.509 312.4 149.957 311.848 149.957H287.23C286.678 149.957 286.23 149.509 286.23 148.957V90.0898ZM288.23 90.0898H287.23V91.0898V147.957V148.957H288.23H310.848H311.848V147.957V91.0898V90.0898H310.848H288.23Z"/>
</mask>
<path fill-rule="evenodd" clip-rule="evenodd" d="M303.543 33.2743L303.268 34.3571L304.374 34.511C314.131 35.8682 321.641 44.2456 321.641 54.3756C321.641 56.6455 321.264 58.8272 320.569 60.8617C320.492 60.9497 320.445 61.0651 320.445 61.1914C320.445 61.1986 320.445 61.2058 320.446 61.2129C317.65 68.9237 310.26 74.4327 301.584 74.4327H245.674C234.597 74.4327 225.617 65.4528 225.617 54.3756C225.617 45.7203 231.1 38.3431 238.785 35.5326L239.487 35.2759L239.44 34.53C239.422 34.2497 239.413 33.9668 239.413 33.6817C239.413 26.4141 245.305 20.5226 252.572 20.5226C255.217 20.5226 257.677 21.3019 259.738 22.6431L260.886 23.3897L261.248 22.0696C263.79 12.8054 272.273 6 282.343 6C294.422 6 304.215 15.7926 304.215 27.8723C304.215 29.7379 303.982 31.5476 303.543 33.2743ZM321.336 61.6914C318.363 69.7145 310.641 75.4327 301.584 75.4327H245.674C236.617 75.4327 228.896 69.7145 225.923 61.6914H75.5352C69.1839 61.6914 64.0352 66.8401 64.0352 73.1914V232.478C64.0468 232.477 64.0585 232.477 64.0703 232.477H335.965V73.1914C335.965 66.8401 330.816 61.6914 324.465 61.6914H321.336ZM225.581 60.6914C224.955 58.6976 224.617 56.576 224.617 54.3756C224.617 45.2871 230.375 37.5435 238.442 34.5934C238.423 34.292 238.413 33.988 238.413 33.6817C238.413 25.8619 244.752 19.5226 252.572 19.5226C255.046 19.5226 257.371 20.157 259.395 21.2718C259.698 21.4389 259.995 21.6168 260.284 21.8049C260.376 21.4699 260.475 21.1379 260.582 20.8091C263.558 11.6338 272.175 5 282.343 5C294.975 5 305.215 15.2403 305.215 27.8723C305.215 29.4727 305.051 31.0348 304.738 32.5424C304.67 32.8711 304.594 33.1972 304.512 33.5205C304.845 33.5668 305.175 33.6209 305.503 33.6825C315.26 35.5187 322.641 44.0851 322.641 54.3756C322.641 56.576 322.304 58.6976 321.678 60.6914H324.465C331.368 60.6914 336.965 66.2878 336.965 73.1914V232.977V246.129C336.965 253.032 331.368 258.629 324.465 258.629H236.419L239.51 284.387H250.305C256.196 284.387 260.973 289.163 260.973 295.055C260.973 300.946 256.196 305.723 250.305 305.723H149.695C143.804 305.723 139.027 300.946 139.027 295.055C139.027 289.163 143.804 284.387 149.695 284.387H161.56L164.651 258.629H139.527C139.251 258.629 139.027 258.405 139.027 258.129C139.027 257.853 139.251 257.629 139.527 257.629H165.207H165.222H235.849H235.864H324.465C330.816 257.629 335.965 252.48 335.965 246.129V233.477H64.0703C64.0585 233.477 64.0468 233.476 64.0352 233.475V246.129C64.0352 252.48 69.1839 257.629 75.5352 257.629H118.656C118.932 257.629 119.156 257.853 119.156 258.129C119.156 258.405 118.932 258.629 118.656 258.629H75.5352C68.6316 258.629 63.0352 253.032 63.0352 246.129V73.1914C63.0352 66.2878 68.6316 60.6914 75.5352 60.6914H225.581ZM235.412 258.629H165.658L162.567 284.387H203.211C203.487 284.387 203.711 284.611 203.711 284.887C203.711 285.163 203.487 285.387 203.211 285.387H162.012H161.997H149.695C144.356 285.387 140.027 289.715 140.027 295.055C140.027 300.394 144.356 304.723 149.695 304.723H250.305C255.644 304.723 259.973 300.394 259.973 295.055C259.973 289.715 255.644 285.387 250.305 285.387H239.073H239.058H224.082C223.806 285.387 223.582 285.163 223.582 284.887C223.582 284.611 223.806 284.387 224.082 284.387H238.503L235.412 258.629ZM87.6523 92.7656C87.6523 92.4895 87.8762 92.2656 88.1523 92.2656H183.945C184.221 92.2656 184.445 92.4895 184.445 92.7656C184.445 93.0418 184.221 93.2656 183.945 93.2656H88.1523C87.8762 93.2656 87.6523 93.0418 87.6523 92.7656ZM87.6523 115.242C87.6523 114.966 87.8762 114.742 88.1523 114.742H150.766C151.042 114.742 151.266 114.966 151.266 115.242C151.266 115.518 151.042 115.742 150.766 115.742H88.1523C87.8762 115.742 87.6523 115.518 87.6523 115.242ZM162.039 115.242C162.039 114.966 162.263 114.742 162.539 114.742H183.945C184.221 114.742 184.445 114.966 184.445 115.242C184.445 115.518 184.221 115.742 183.945 115.742H162.539C162.263 115.742 162.039 115.518 162.039 115.242ZM88.1523 137.219C87.8762 137.219 87.6523 137.443 87.6523 137.719C87.6523 137.995 87.8762 138.219 88.1523 138.219H183.945C184.221 138.219 184.445 137.995 184.445 137.719C184.445 137.443 184.221 137.219 183.945 137.219H88.1523ZM87.6523 160.195C87.6523 159.919 87.8762 159.695 88.1523 159.695H110.629C110.905 159.695 111.129 159.919 111.129 160.195C111.129 160.471 110.905 160.695 110.629 160.695H88.1523C87.8762 160.695 87.6523 160.471 87.6523 160.195ZM121.902 160.195C121.902 159.919 122.126 159.695 122.402 159.695H183.945C184.221 159.695 184.445 159.919 184.445 160.195C184.445 160.471 184.221 160.695 183.945 160.695H122.402C122.126 160.695 121.902 160.471 121.902 160.195ZM88.1523 182.172C87.8762 182.172 87.6523 182.396 87.6523 182.672C87.6523 182.948 87.8762 183.172 88.1523 183.172H183.945C184.221 183.172 184.445 182.948 184.445 182.672C184.445 182.396 184.221 182.172 183.945 182.172H88.1523ZM87.6523 205.148C87.6523 204.872 87.8762 204.648 88.1523 204.648H136.852C137.128 204.648 137.352 204.872 137.352 205.148C137.352 205.425 137.128 205.648 136.852 205.648H88.1523C87.8762 205.648 87.6523 205.425 87.6523 205.148ZM249.77 113.707C249.217 113.707 248.77 114.155 248.77 114.707V148.957C248.77 149.509 249.217 149.957 249.77 149.957H274.387C274.939 149.957 275.387 149.509 275.387 148.957V114.707C275.387 114.155 274.939 113.707 274.387 113.707H249.77ZM249.77 114.707H250.77H273.387H274.387V115.707V147.957V148.957H273.387H250.77H249.77V147.957V115.707V114.707ZM286.23 90.0898C286.23 89.5376 286.678 89.0898 287.23 89.0898H311.848C312.4 89.0898 312.848 89.5376 312.848 90.0898V148.957C312.848 149.509 312.4 149.957 311.848 149.957H287.23C286.678 149.957 286.23 149.509 286.23 148.957V90.0898ZM288.23 90.0898H287.23V91.0898V147.957V148.957H288.23H310.848H311.848V147.957V91.0898V90.0898H310.848H288.23Z" fill="#0038FF"/>
<path d="M303.268 34.3571L302.299 34.1109L302.024 35.1936L303.13 35.3475L303.268 34.3571ZM303.543 33.2743L302.574 33.0281V33.0282L303.543 33.2743ZM304.374 34.511L304.237 35.5014L304.374 34.511ZM320.569 60.8617L321.321 61.5213L321.452 61.3724L321.516 61.1849L320.569 60.8617ZM320.446 61.2129L321.386 61.5538L321.453 61.3678L321.445 61.1702L320.446 61.2129ZM238.785 35.5326L239.129 36.4718L239.129 36.4718L238.785 35.5326ZM239.487 35.2759L239.831 36.2151L240.533 35.9584L240.485 35.2125L239.487 35.2759ZM239.44 34.53L238.442 34.5934V34.5934L239.44 34.53ZM259.738 22.6431L259.193 23.4813V23.4813L259.738 22.6431ZM260.886 23.3897L260.34 24.2279L261.488 24.9744L261.85 23.6543L260.886 23.3897ZM261.248 22.0696L260.284 21.8049V21.8049L261.248 22.0696ZM321.336 61.6914V60.6914H320.64L320.398 61.344L321.336 61.6914ZM225.923 61.6914L226.86 61.344L226.619 60.6914H225.923V61.6914ZM64.0352 232.478H63.0352V233.55L64.1046 233.475L64.0352 232.478ZM335.965 232.477V233.477H336.965V232.477H335.965ZM225.581 60.6914V61.6914H226.943L226.535 60.3918L225.581 60.6914ZM238.442 34.5934L238.785 35.5326L239.487 35.2759L239.44 34.53L238.442 34.5934ZM259.395 21.2718L259.877 20.3959L259.877 20.3959L259.395 21.2718ZM260.284 21.8049L259.738 22.6431L260.886 23.3897L261.248 22.0696L260.284 21.8049ZM260.582 20.8091L261.533 21.1177V21.1177L260.582 20.8091ZM304.738 32.5424L305.717 32.7456L305.717 32.7456L304.738 32.5424ZM304.512 33.5205L303.543 33.2743L303.268 34.3571L304.374 34.511L304.512 33.5205ZM305.503 33.6825L305.688 32.6997H305.688L305.503 33.6825ZM321.678 60.6914L320.724 60.3918L320.316 61.6914H321.678V60.6914ZM236.419 258.629V257.629H235.292L235.426 258.748L236.419 258.629ZM239.51 284.387L238.517 284.506L238.623 285.387H239.51V284.387ZM161.56 284.387V285.387H162.447L162.553 284.506L161.56 284.387ZM164.651 258.629L165.644 258.748L165.778 257.629H164.651V258.629ZM335.965 233.477H336.965V232.477H335.965V233.477ZM64.0352 233.475L64.1046 232.478L63.0352 232.403V233.475H64.0352ZM165.658 258.629V257.629H164.771L164.666 258.51L165.658 258.629ZM235.412 258.629L236.405 258.51L236.299 257.629H235.412V258.629ZM162.567 284.387L161.575 284.268L161.44 285.387H162.567V284.387ZM238.503 284.387V285.387H239.63L239.496 284.268L238.503 284.387ZM249.77 114.707V113.707H248.77V114.707H249.77ZM274.387 114.707H275.387V113.707H274.387V114.707ZM274.387 148.957V149.957H275.387V148.957H274.387ZM249.77 148.957H248.77V149.957H249.77V148.957ZM287.23 90.0898V89.0898H286.23V90.0898H287.23ZM287.23 148.957H286.23V149.957H287.23V148.957ZM311.848 148.957V149.957H312.848V148.957H311.848ZM311.848 90.0898H312.848V89.0898H311.848V90.0898ZM304.237 34.6032L304.512 33.5205L302.574 33.0282L302.299 34.1109L304.237 34.6032ZM304.512 33.5205L303.406 33.3666L303.13 35.3475L304.237 35.5014L304.512 33.5205ZM322.641 54.3756C322.641 43.7398 314.756 34.9455 304.512 33.5205L304.237 35.5014C313.505 36.7908 320.641 44.7515 320.641 54.3756H322.641ZM321.516 61.1849C322.246 59.0478 322.641 56.7569 322.641 54.3756H320.641C320.641 56.5341 320.283 58.6067 319.623 60.5385L321.516 61.1849ZM321.445 61.1914C321.445 61.3171 321.398 61.434 321.321 61.5213L319.818 60.2021C319.587 60.4655 319.445 60.8131 319.445 61.1914H321.445ZM321.445 61.1702C321.445 61.1773 321.445 61.1844 321.445 61.1914H319.445C319.445 61.2128 319.446 61.2342 319.447 61.2556L321.445 61.1702ZM301.584 75.4327C310.695 75.4327 318.451 69.6476 321.386 61.5538L319.506 60.872C316.849 68.1999 309.826 73.4327 301.584 73.4327V75.4327ZM245.674 75.4327H301.584V73.4327H245.674V75.4327ZM224.617 54.3756C224.617 66.0051 234.045 75.4327 245.674 75.4327V73.4327C235.149 73.4327 226.617 64.9005 226.617 54.3756H224.617ZM238.442 34.5934C230.375 37.5435 224.617 45.2872 224.617 54.3756H226.617C226.617 46.1534 231.825 39.1426 239.129 36.4718L238.442 34.5934ZM239.144 34.3367L238.442 34.5934L239.129 36.4718L239.831 36.2151L239.144 34.3367ZM238.442 34.5934L238.489 35.3393L240.485 35.2125L240.438 34.4666L238.442 34.5934ZM238.413 33.6817C238.413 33.988 238.423 34.292 238.442 34.5934L240.438 34.4666C240.422 34.2074 240.413 33.9456 240.413 33.6817H238.413ZM252.572 19.5226C244.752 19.5226 238.413 25.8619 238.413 33.6817H240.413C240.413 26.9664 245.857 21.5226 252.572 21.5226V19.5226ZM260.284 21.8049C258.065 20.3613 255.417 19.5226 252.572 19.5226V21.5226C255.018 21.5226 257.289 22.2425 259.193 23.4813L260.284 21.8049ZM261.431 22.5515L260.284 21.8049L259.193 23.4813L260.34 24.2279L261.431 22.5515ZM260.284 21.8049L259.921 23.125L261.85 23.6543L262.212 22.3342L260.284 21.8049ZM282.343 5C271.811 5 262.942 12.1176 260.284 21.8049L262.212 22.3342C264.639 13.4933 272.735 7 282.343 7V5ZM305.215 27.8723C305.215 15.2403 294.975 5 282.343 5V7C293.87 7 303.215 16.3448 303.215 27.8723H305.215ZM304.512 33.5205C304.971 31.714 305.215 29.8216 305.215 27.8723H303.215C303.215 29.6542 302.992 31.3812 302.574 33.0281L304.512 33.5205ZM320.398 61.344C317.566 68.9876 310.21 74.4327 301.584 74.4327V76.4327C311.073 76.4327 319.16 70.4415 322.273 62.0389L320.398 61.344ZM301.584 74.4327H245.674V76.4327H301.584V74.4327ZM245.674 74.4327C237.049 74.4327 229.693 68.9876 226.86 61.344L224.985 62.0389C228.099 70.4415 236.185 76.4327 245.674 76.4327V74.4327ZM225.923 60.6914H75.5352V62.6914H225.923V60.6914ZM75.5352 60.6914C68.6316 60.6914 63.0352 66.2878 63.0352 73.1914H65.0352C65.0352 67.3924 69.7362 62.6914 75.5352 62.6914V60.6914ZM63.0352 73.1914V232.478H65.0352V73.1914H63.0352ZM64.1046 233.475C64.0932 233.476 64.0817 233.477 64.0703 233.477V231.477C64.0352 231.477 64.0004 231.478 63.9657 231.48L64.1046 233.475ZM64.0703 233.477H335.965V231.477H64.0703V233.477ZM336.965 232.477V73.1914H334.965V232.477H336.965ZM336.965 73.1914C336.965 66.2878 331.368 60.6914 324.465 60.6914V62.6914C330.264 62.6914 334.965 67.3924 334.965 73.1914H336.965ZM324.465 60.6914H321.336V62.6914H324.465V60.6914ZM226.535 60.3918C225.939 58.4938 225.617 56.4732 225.617 54.3756H223.617C223.617 56.6788 223.971 58.9014 224.627 60.991L226.535 60.3918ZM225.617 54.3756C225.617 45.7203 231.1 38.3431 238.785 35.5326L238.099 33.6543C229.65 36.7438 223.617 44.8539 223.617 54.3756H225.617ZM239.44 34.53C239.422 34.2497 239.413 33.9668 239.413 33.6817H237.413C237.413 34.0091 237.424 34.3343 237.444 34.6568L239.44 34.53ZM239.413 33.6817C239.413 26.4141 245.305 20.5226 252.572 20.5226V18.5226C244.2 18.5226 237.413 25.3096 237.413 33.6817H239.413ZM252.572 20.5226C254.873 20.5226 257.033 21.1122 258.912 22.1477L259.877 20.3959C257.71 19.2017 255.219 18.5226 252.572 18.5226V20.5226ZM258.912 22.1477C259.194 22.3029 259.47 22.4683 259.738 22.6431L260.829 20.9667C260.519 20.7653 260.202 20.5749 259.877 20.3959L258.912 22.1477ZM261.248 22.0696C261.336 21.7493 261.431 21.4319 261.533 21.1177L259.63 20.5006C259.519 20.8438 259.415 21.1905 259.319 21.5403L261.248 22.0696ZM261.533 21.1177C264.379 12.3425 272.621 6 282.343 6V4C271.729 4 262.736 10.9251 259.63 20.5006L261.533 21.1177ZM282.343 6C294.422 6 304.215 15.7926 304.215 27.8723H306.215C306.215 14.688 295.527 4 282.343 4V6ZM304.215 27.8723C304.215 29.4041 304.058 30.8981 303.759 32.3393L305.717 32.7456C306.043 31.1715 306.215 29.5414 306.215 27.8723H304.215ZM303.759 32.3393C303.693 32.6535 303.621 32.9653 303.543 33.2743L305.481 33.7667C305.567 33.4291 305.646 33.0887 305.717 32.7456L303.759 32.3393ZM304.374 34.511C304.691 34.5551 305.006 34.6065 305.318 34.6652L305.688 32.6997C305.344 32.6352 304.998 32.5785 304.65 32.5301L304.374 34.511ZM305.318 34.6652C314.611 36.4141 321.641 44.5749 321.641 54.3756H323.641C323.641 43.5953 315.909 34.6232 305.688 32.6997L305.318 34.6652ZM321.641 54.3756C321.641 56.4733 321.32 58.4938 320.724 60.3918L322.632 60.991C323.288 58.9014 323.641 56.6788 323.641 54.3756H321.641ZM321.678 61.6914H324.465V59.6914H321.678V61.6914ZM324.465 61.6914C330.816 61.6914 335.965 66.8401 335.965 73.1914H337.965C337.965 65.7356 331.921 59.6914 324.465 59.6914V61.6914ZM335.965 73.1914V232.977H337.965V73.1914H335.965ZM335.965 232.977V246.129H337.965V232.977H335.965ZM335.965 246.129C335.965 252.48 330.816 257.629 324.465 257.629V259.629C331.921 259.629 337.965 253.585 337.965 246.129H335.965ZM324.465 257.629H236.419V259.629H324.465V257.629ZM235.426 258.748L238.517 284.506L240.503 284.268L237.412 258.51L235.426 258.748ZM239.51 285.387H250.305V283.387H239.51V285.387ZM250.305 285.387C255.644 285.387 259.973 289.715 259.973 295.055H261.973C261.973 288.611 256.749 283.387 250.305 283.387V285.387ZM259.973 295.055C259.973 300.394 255.644 304.723 250.305 304.723V306.723C256.749 306.723 261.973 301.499 261.973 295.055H259.973ZM250.305 304.723H149.695V306.723H250.305V304.723ZM149.695 304.723C144.356 304.723 140.027 300.394 140.027 295.055H138.027C138.027 301.499 143.251 306.723 149.695 306.723V304.723ZM140.027 295.055C140.027 289.715 144.356 285.387 149.695 285.387V283.387C143.251 283.387 138.027 288.611 138.027 295.055H140.027ZM149.695 285.387H161.56V283.387H149.695V285.387ZM162.553 284.506L165.644 258.748L163.658 258.51L160.567 284.268L162.553 284.506ZM164.651 257.629H139.527V259.629H164.651V257.629ZM139.527 257.629C139.803 257.629 140.027 257.853 140.027 258.129H138.027C138.027 258.957 138.699 259.629 139.527 259.629V257.629ZM140.027 258.129C140.027 258.405 139.803 258.629 139.527 258.629V256.629C138.699 256.629 138.027 257.3 138.027 258.129H140.027ZM139.527 258.629H165.207V256.629H139.527V258.629ZM165.207 258.629H165.222V256.629H165.207V258.629ZM165.222 258.629H235.849V256.629H165.222V258.629ZM235.849 258.629H235.864V256.629H235.849V258.629ZM235.864 258.629H324.465V256.629H235.864V258.629ZM324.465 258.629C331.368 258.629 336.965 253.032 336.965 246.129H334.965C334.965 251.928 330.264 256.629 324.465 256.629V258.629ZM336.965 246.129V233.477H334.965V246.129H336.965ZM335.965 232.477H64.0703V234.477H335.965V232.477ZM64.0703 232.477C64.0817 232.477 64.0932 232.477 64.1046 232.478L63.9657 234.473C64.0004 234.475 64.0352 234.477 64.0703 234.477V232.477ZM63.0352 233.475V246.129H65.0352V233.475H63.0352ZM63.0352 246.129C63.0352 253.032 68.6316 258.629 75.5352 258.629V256.629C69.7362 256.629 65.0352 251.928 65.0352 246.129H63.0352ZM75.5352 258.629H118.656V256.629H75.5352V258.629ZM118.656 258.629C118.38 258.629 118.156 258.405 118.156 258.129H120.156C120.156 257.3 119.485 256.629 118.656 256.629V258.629ZM118.156 258.129C118.156 257.853 118.38 257.629 118.656 257.629V259.629C119.485 259.629 120.156 258.957 120.156 258.129H118.156ZM118.656 257.629H75.5352V259.629H118.656V257.629ZM75.5352 257.629C69.1839 257.629 64.0352 252.48 64.0352 246.129H62.0352C62.0352 253.585 68.0793 259.629 75.5352 259.629V257.629ZM64.0352 246.129V73.1914H62.0352V246.129H64.0352ZM64.0352 73.1914C64.0352 66.8401 69.1839 61.6914 75.5352 61.6914V59.6914C68.0793 59.6914 62.0352 65.7356 62.0352 73.1914H64.0352ZM75.5352 61.6914H225.581V59.6914H75.5352V61.6914ZM165.658 259.629H235.412V257.629H165.658V259.629ZM163.56 284.506L166.651 258.748L164.666 258.51L161.575 284.268L163.56 284.506ZM203.211 283.387H162.567V285.387H203.211V283.387ZM204.711 284.887C204.711 284.058 204.039 283.387 203.211 283.387V285.387C202.935 285.387 202.711 285.163 202.711 284.887H204.711ZM203.211 286.387C204.039 286.387 204.711 285.715 204.711 284.887H202.711C202.711 284.611 202.935 284.387 203.211 284.387V286.387ZM162.012 286.387H203.211V284.387H162.012V286.387ZM161.997 286.387H162.012V284.387H161.997V286.387ZM149.695 286.387H161.997V284.387H149.695V286.387ZM141.027 295.055C141.027 290.267 144.908 286.387 149.695 286.387V284.387C143.804 284.387 139.027 289.163 139.027 295.055H141.027ZM149.695 303.723C144.908 303.723 141.027 299.842 141.027 295.055H139.027C139.027 300.946 143.804 305.723 149.695 305.723V303.723ZM250.305 303.723H149.695V305.723H250.305V303.723ZM258.973 295.055C258.973 299.842 255.092 303.723 250.305 303.723V305.723C256.196 305.723 260.973 300.946 260.973 295.055H258.973ZM250.305 286.387C255.092 286.387 258.973 290.267 258.973 295.055H260.973C260.973 289.163 256.196 284.387 250.305 284.387V286.387ZM239.073 286.387H250.305V284.387H239.073V286.387ZM239.058 286.387H239.073V284.387H239.058V286.387ZM224.082 286.387H239.058V284.387H224.082V286.387ZM222.582 284.887C222.582 285.715 223.254 286.387 224.082 286.387V284.387C224.358 284.387 224.582 284.611 224.582 284.887H222.582ZM224.082 283.387C223.254 283.387 222.582 284.058 222.582 284.887H224.582C224.582 285.163 224.358 285.387 224.082 285.387V283.387ZM238.503 283.387H224.082V285.387H238.503V283.387ZM234.419 258.748L237.51 284.506L239.496 284.268L236.405 258.51L234.419 258.748ZM88.1523 91.2656C87.3239 91.2656 86.6523 91.9372 86.6523 92.7656H88.6523C88.6523 93.0418 88.4285 93.2656 88.1523 93.2656V91.2656ZM183.945 91.2656H88.1523V93.2656H183.945V91.2656ZM185.445 92.7656C185.445 91.9372 184.774 91.2656 183.945 91.2656V93.2656C183.669 93.2656 183.445 93.0418 183.445 92.7656H185.445ZM183.945 94.2656C184.774 94.2656 185.445 93.594 185.445 92.7656H183.445C183.445 92.4895 183.669 92.2656 183.945 92.2656V94.2656ZM88.1523 94.2656H183.945V92.2656H88.1523V94.2656ZM86.6523 92.7656C86.6523 93.594 87.3239 94.2656 88.1523 94.2656V92.2656C88.4285 92.2656 88.6523 92.4895 88.6523 92.7656H86.6523ZM88.1523 113.742C87.3239 113.742 86.6523 114.414 86.6523 115.242H88.6523C88.6523 115.518 88.4285 115.742 88.1523 115.742V113.742ZM150.766 113.742H88.1523V115.742H150.766V113.742ZM152.266 115.242C152.266 114.414 151.594 113.742 150.766 113.742V115.742C150.489 115.742 150.266 115.518 150.266 115.242H152.266ZM150.766 116.742C151.594 116.742 152.266 116.071 152.266 115.242H150.266C150.266 114.966 150.489 114.742 150.766 114.742V116.742ZM88.1523 116.742H150.766V114.742H88.1523V116.742ZM86.6523 115.242C86.6523 116.071 87.3239 116.742 88.1523 116.742V114.742C88.4285 114.742 88.6523 114.966 88.6523 115.242H86.6523ZM162.539 113.742C161.711 113.742 161.039 114.414 161.039 115.242H163.039C163.039 115.518 162.815 115.742 162.539 115.742V113.742ZM183.945 113.742H162.539V115.742H183.945V113.742ZM185.445 115.242C185.445 114.414 184.774 113.742 183.945 113.742V115.742C183.669 115.742 183.445 115.518 183.445 115.242H185.445ZM183.945 116.742C184.774 116.742 185.445 116.071 185.445 115.242H183.445C183.445 114.966 183.669 114.742 183.945 114.742V116.742ZM162.539 116.742H183.945V114.742H162.539V116.742ZM161.039 115.242C161.039 116.071 161.711 116.742 162.539 116.742V114.742C162.815 114.742 163.039 114.966 163.039 115.242H161.039ZM88.6523 137.719C88.6523 137.995 88.4285 138.219 88.1523 138.219V136.219C87.3239 136.219 86.6523 136.89 86.6523 137.719H88.6523ZM88.1523 137.219C88.4285 137.219 88.6523 137.443 88.6523 137.719H86.6523C86.6523 138.547 87.3239 139.219 88.1523 139.219V137.219ZM183.945 137.219H88.1523V139.219H183.945V137.219ZM183.445 137.719C183.445 137.443 183.669 137.219 183.945 137.219V139.219C184.774 139.219 185.445 138.547 185.445 137.719H183.445ZM183.945 138.219C183.669 138.219 183.445 137.995 183.445 137.719H185.445C185.445 136.89 184.774 136.219 183.945 136.219V138.219ZM88.1523 138.219H183.945V136.219H88.1523V138.219ZM88.1523 158.695C87.3239 158.695 86.6523 159.367 86.6523 160.195H88.6523C88.6523 160.471 88.4285 160.695 88.1523 160.695V158.695ZM110.629 158.695H88.1523V160.695H110.629V158.695ZM112.129 160.195C112.129 159.367 111.457 158.695 110.629 158.695V160.695C110.353 160.695 110.129 160.471 110.129 160.195H112.129ZM110.629 161.695C111.457 161.695 112.129 161.024 112.129 160.195H110.129C110.129 159.919 110.353 159.695 110.629 159.695V161.695ZM88.1523 161.695H110.629V159.695H88.1523V161.695ZM86.6523 160.195C86.6523 161.024 87.3239 161.695 88.1523 161.695V159.695C88.4285 159.695 88.6523 159.919 88.6523 160.195H86.6523ZM122.402 158.695C121.574 158.695 120.902 159.367 120.902 160.195H122.902C122.902 160.471 122.678 160.695 122.402 160.695V158.695ZM183.945 158.695H122.402V160.695H183.945V158.695ZM185.445 160.195C185.445 159.367 184.774 158.695 183.945 158.695V160.695C183.669 160.695 183.445 160.471 183.445 160.195H185.445ZM183.945 161.695C184.774 161.695 185.445 161.024 185.445 160.195H183.445C183.445 159.919 183.669 159.695 183.945 159.695V161.695ZM122.402 161.695H183.945V159.695H122.402V161.695ZM120.902 160.195C120.902 161.024 121.574 161.695 122.402 161.695V159.695C122.678 159.695 122.902 159.919 122.902 160.195H120.902ZM88.6523 182.672C88.6523 182.948 88.4285 183.172 88.1523 183.172V181.172C87.3239 181.172 86.6523 181.843 86.6523 182.672H88.6523ZM88.1523 182.172C88.4285 182.172 88.6523 182.396 88.6523 182.672H86.6523C86.6523 183.5 87.3239 184.172 88.1523 184.172V182.172ZM183.945 182.172H88.1523V184.172H183.945V182.172ZM183.445 182.672C183.445 182.396 183.669 182.172 183.945 182.172V184.172C184.774 184.172 185.445 183.5 185.445 182.672H183.445ZM183.945 183.172C183.669 183.172 183.445 182.948 183.445 182.672H185.445C185.445 181.843 184.774 181.172 183.945 181.172V183.172ZM88.1523 183.172H183.945V181.172H88.1523V183.172ZM88.1523 203.648C87.3239 203.648 86.6523 204.32 86.6523 205.148H88.6523C88.6523 205.425 88.4285 205.648 88.1523 205.648V203.648ZM136.852 203.648H88.1523V205.648H136.852V203.648ZM138.352 205.148C138.352 204.32 137.68 203.648 136.852 203.648V205.648C136.575 205.648 136.352 205.425 136.352 205.148H138.352ZM136.852 206.648C137.68 206.648 138.352 205.977 138.352 205.148H136.352C136.352 204.872 136.575 204.648 136.852 204.648V206.648ZM88.1523 206.648H136.852V204.648H88.1523V206.648ZM86.6523 205.148C86.6523 205.977 87.3239 206.648 88.1523 206.648V204.648C88.4285 204.648 88.6523 204.872 88.6523 205.148H86.6523ZM249.77 114.707V112.707C248.665 112.707 247.77 113.602 247.77 114.707H249.77ZM249.77 148.957V114.707H247.77V148.957H249.77ZM249.77 148.957H247.77C247.77 150.062 248.665 150.957 249.77 150.957V148.957ZM274.387 148.957H249.77V150.957H274.387V148.957ZM274.387 148.957V150.957C275.491 150.957 276.387 150.062 276.387 148.957H274.387ZM274.387 114.707V148.957H276.387V114.707H274.387ZM274.387 114.707H276.387C276.387 113.602 275.491 112.707 274.387 112.707V114.707ZM249.77 114.707H274.387V112.707H249.77V114.707ZM250.77 113.707H249.77V115.707H250.77V113.707ZM273.387 113.707H250.77V115.707H273.387V113.707ZM274.387 113.707H273.387V115.707H274.387V113.707ZM275.387 115.707V114.707H273.387V115.707H275.387ZM275.387 147.957V115.707H273.387V147.957H275.387ZM275.387 148.957V147.957H273.387V148.957H275.387ZM273.387 149.957H274.387V147.957H273.387V149.957ZM250.77 149.957H273.387V147.957H250.77V149.957ZM249.77 149.957H250.77V147.957H249.77V149.957ZM248.77 147.957V148.957H250.77V147.957H248.77ZM248.77 115.707V147.957H250.77V115.707H248.77ZM248.77 114.707V115.707H250.77V114.707H248.77ZM287.23 88.0898C286.126 88.0898 285.23 88.9853 285.23 90.0898H287.23V88.0898ZM311.848 88.0898H287.23V90.0898H311.848V88.0898ZM313.848 90.0898C313.848 88.9853 312.952 88.0898 311.848 88.0898V90.0898H313.848ZM313.848 148.957V90.0898H311.848V148.957H313.848ZM311.848 150.957C312.952 150.957 313.848 150.062 313.848 148.957H311.848V150.957ZM287.23 150.957H311.848V148.957H287.23V150.957ZM285.23 148.957C285.23 150.062 286.126 150.957 287.23 150.957V148.957H285.23ZM285.23 90.0898V148.957H287.23V90.0898H285.23ZM287.23 91.0898H288.23V89.0898H287.23V91.0898ZM288.23 91.0898V90.0898H286.23V91.0898H288.23ZM288.23 147.957V91.0898H286.23V147.957H288.23ZM288.23 148.957V147.957H286.23V148.957H288.23ZM288.23 147.957H287.23V149.957H288.23V147.957ZM310.848 147.957H288.23V149.957H310.848V147.957ZM311.848 147.957H310.848V149.957H311.848V147.957ZM310.848 147.957V148.957H312.848V147.957H310.848ZM310.848 91.0898V147.957H312.848V91.0898H310.848ZM310.848 90.0898V91.0898H312.848V90.0898H310.848ZM310.848 91.0898H311.848V89.0898H310.848V91.0898ZM288.23 91.0898H310.848V89.0898H288.23V91.0898Z" fill="#0038FF" mask="url(#path-7-outside-1_595_5975)"/>
</g>
<path fill-rule="evenodd" clip-rule="evenodd" d="M63 153.534C62.157 153.642 61.316 153.978 60.556 154.584C58.0204 156.606 54.2575 155.679 52.952 152.71C51.221 148.774 45.6364 148.774 43.9055 152.71C42.6 155.679 38.837 156.606 36.3015 154.584C32.9395 151.903 27.9946 154.499 28.2912 158.788C28.5148 162.024 25.6139 164.594 22.4291 163.982C18.2064 163.17 15.034 167.766 17.2901 171.427C18.9917 174.188 17.6174 177.811 14.513 178.749C10.3968 179.993 9.72368 185.537 13.4226 187.73C16.2123 189.384 16.6794 193.231 14.3666 195.504C11.2999 198.519 13.2803 203.74 17.5745 203.963C20.8132 204.131 23.0148 207.321 22.0234 210.408C20.7088 214.503 24.8889 218.206 28.7948 216.407C31.7405 215.051 35.1722 216.852 35.7293 220.047C36.468 224.283 41.8903 225.619 44.5129 222.212C46.4909 219.642 50.3665 219.642 52.3445 222.212C54.9672 225.619 60.3895 224.283 61.1281 220.047C61.3541 218.751 62.0527 217.685 63 216.965V215.765C61.5572 216.606 60.4609 218.052 60.143 219.875C59.5538 223.254 55.2289 224.32 53.137 221.602C50.7587 218.512 46.0988 218.512 43.7205 221.602C41.6286 224.32 37.3036 223.254 36.7144 219.875C36.0446 216.034 31.9185 213.868 28.3765 215.499C25.2611 216.933 21.927 213.98 22.9755 210.714C24.1676 207.001 21.5204 203.166 17.6263 202.964C14.2011 202.787 12.6215 198.622 15.0676 196.218C17.8485 193.484 17.2868 188.858 13.9325 186.87C10.9822 185.121 11.5191 180.699 14.8023 179.707C18.535 178.579 20.1874 174.222 18.1414 170.902C16.3419 167.982 18.8722 164.316 22.2404 164.964C26.0697 165.7 29.5577 162.609 29.2888 158.719C29.0522 155.298 32.9964 153.228 35.678 155.366C38.7267 157.797 43.2512 156.682 44.8209 153.113C46.2015 149.973 50.6559 149.973 52.0366 153.113C53.6062 156.682 58.1308 157.797 61.1795 155.366C61.747 154.914 62.371 154.649 63 154.547V153.534ZM63 175.913C59.6068 171.942 54.5618 169.424 48.9287 169.424C38.7115 169.424 30.4287 177.707 30.4287 187.924C30.4287 198.141 38.7115 206.424 48.9287 206.424C54.5618 206.424 59.6068 203.906 63 199.935V198.33C59.8119 202.634 54.6961 205.424 48.9287 205.424C39.2637 205.424 31.4287 197.589 31.4287 187.924C31.4287 178.259 39.2637 170.424 48.9287 170.424C54.6961 170.424 59.8119 173.214 63 177.518V175.913Z" fill="url(#paint1_linear_595_5975)"/>
<g filter="url(#filter6_bi_595_5975)">
<rect x="148" y="167.758" width="216" height="44" rx="2.79" fill="url(#paint2_linear_595_5975)" fill-opacity="0.1"/>
<rect x="148.5" y="168.258" width="215" height="43" rx="2.29" stroke="url(#paint3_linear_595_5975)" stroke-opacity="0.1"/>
</g>
<g filter="url(#filter7_bi_595_5975)">
<rect x="4" y="87.7578" width="216" height="44" rx="2.79" fill="url(#paint4_linear_595_5975)" fill-opacity="0.1"/>
<rect x="4.5" y="88.2578" width="215" height="43" rx="2.29" stroke="url(#paint5_linear_595_5975)" stroke-opacity="0.1"/>
</g>
<path fill-rule="evenodd" clip-rule="evenodd" d="M345.524 185.887H332.469C332.508 184.042 332.74 182.106 333.518 180.588C333.947 179.752 334.537 179.052 335.348 178.559C336.158 178.065 337.222 177.758 338.629 177.758C341.415 177.758 343.107 178.961 344.129 180.622C345.063 182.14 345.453 184.071 345.524 185.887ZM346.525 185.887C346.454 183.958 346.043 181.824 344.981 180.098C343.781 178.148 341.77 176.758 338.629 176.758C337.073 176.758 335.822 177.099 334.827 177.705C333.832 178.311 333.126 179.162 332.629 180.132C331.744 181.857 331.507 183.987 331.469 185.887H329.74C329.188 185.887 328.74 186.335 328.74 186.887V197.702C328.74 200.464 330.979 202.702 333.74 202.702H344.259C347.02 202.702 349.259 200.464 349.259 197.702V186.887C349.259 186.335 348.811 185.887 348.259 185.887H346.525ZM331.627 186.887C331.715 186.968 331.833 187.017 331.962 187.017H346.036C346.166 187.017 346.284 186.968 346.372 186.887H347.259H348.259V187.887V197.702C348.259 199.911 346.468 201.702 344.259 201.702H333.74C331.531 201.702 329.74 199.911 329.74 197.702V187.887V186.887H330.74H331.627ZM333.314 191.332C333.314 191.056 333.538 190.832 333.814 190.832H335.666C335.799 190.832 335.926 190.885 336.02 190.978L342.17 197.128H343.314V191.832H342.17L340.094 193.908L339.387 193.201L341.609 190.978C341.703 190.885 341.83 190.832 341.962 190.832H343.814C344.09 190.832 344.314 191.056 344.314 191.332V197.628C344.314 197.904 344.09 198.128 343.814 198.128H341.962C341.83 198.128 341.703 198.076 341.609 197.982L335.459 191.832H334.314V197.128H335.459L337.535 195.052L338.242 195.76L336.02 197.982C335.926 198.076 335.799 198.128 335.666 198.128H333.814C333.538 198.128 333.314 197.904 333.314 197.628V191.332Z" fill="url(#paint6_linear_595_5975)"/>
<rect x="187.5" y="100.258" width="19" height="19" rx="1.5" stroke="url(#paint7_linear_595_5975)"/>
<defs>
<filter id="filter0_f_595_5975" x="67" y="54.7578" width="118" height="13" filterUnits="userSpaceOnUse" color-interpolation-filters="sRGB">
<feFlood flood-opacity="0" result="BackgroundImageFix"/>
<feBlend mode="normal" in="SourceGraphic" in2="BackgroundImageFix" result="shape"/>
<feGaussianBlur stdDeviation="2" result="effect1_foregroundBlur_595_5975"/>
</filter>
<filter id="filter1_f_595_5975" x="67" y="55.7578" width="12" height="12" filterUnits="userSpaceOnUse" color-interpolation-filters="sRGB">
<feFlood flood-opacity="0" result="BackgroundImageFix"/>
<feBlend mode="normal" in="SourceGraphic" in2="BackgroundImageFix" result="shape"/>
<feGaussianBlur stdDeviation="2" result="effect1_foregroundBlur_595_5975"/>
</filter>
<filter id="filter2_f_595_5975" x="3" y="83.7578" width="72" height="12" filterUnits="userSpaceOnUse" color-interpolation-filters="sRGB">
<feFlood flood-opacity="0" result="BackgroundImageFix"/>
<feBlend mode="normal" in="SourceGraphic" in2="BackgroundImageFix" result="shape"/>
<feGaussianBlur stdDeviation="2" result="effect1_foregroundBlur_595_5975"/>
</filter>
<filter id="filter3_f_595_5975" x="0" y="83.7578" width="18" height="18" filterUnits="userSpaceOnUse" color-interpolation-filters="sRGB">
<feFlood flood-opacity="0" result="BackgroundImageFix"/>
<feBlend mode="normal" in="SourceGraphic" in2="BackgroundImageFix" result="shape"/>
<feGaussianBlur stdDeviation="2" result="effect1_foregroundBlur_595_5975"/>
</filter>
<filter id="filter4_f_595_5975" x="26" y="147.758" width="12" height="12" filterUnits="userSpaceOnUse" color-interpolation-filters="sRGB">
<feFlood flood-opacity="0" result="BackgroundImageFix"/>
<feBlend mode="normal" in="SourceGraphic" in2="BackgroundImageFix" result="shape"/>
<feGaussianBlur stdDeviation="2" result="effect1_foregroundBlur_595_5975"/>
</filter>
<filter id="filter5_f_595_5975" x="58.0352" y="0" width="283.93" height="310.723" filterUnits="userSpaceOnUse" color-interpolation-filters="sRGB">
<feFlood flood-opacity="0" result="BackgroundImageFix"/>
<feBlend mode="normal" in="SourceGraphic" in2="BackgroundImageFix" result="shape"/>
<feGaussianBlur stdDeviation="2" result="effect1_foregroundBlur_595_5975"/>
</filter>
<filter id="filter6_bi_595_5975" x="136" y="155.758" width="240" height="68" filterUnits="userSpaceOnUse" color-interpolation-filters="sRGB">
<feFlood flood-opacity="0" result="BackgroundImageFix"/>
<feGaussianBlur in="BackgroundImageFix" stdDeviation="6"/>
<feComposite in2="SourceAlpha" operator="in" result="effect1_backgroundBlur_595_5975"/>
<feBlend mode="normal" in="SourceGraphic" in2="effect1_backgroundBlur_595_5975" result="shape"/>
<feColorMatrix in="SourceAlpha" type="matrix" values="0 0 0 0 0 0 0 0 0 0 0 0 0 0 0 0 0 0 127 0" result="hardAlpha"/>
<feOffset dy="2.54662"/>
<feGaussianBlur stdDeviation="5.09324"/>
<feComposite in2="hardAlpha" operator="arithmetic" k2="-1" k3="1"/>
<feColorMatrix type="matrix" values="0 0 0 0 1 0 0 0 0 1 0 0 0 0 1 0 0 0 0.15 0"/>
<feBlend mode="normal" in2="shape" result="effect2_innerShadow_595_5975"/>
</filter>
<filter id="filter7_bi_595_5975" x="-8" y="75.7578" width="240" height="68" filterUnits="userSpaceOnUse" color-interpolation-filters="sRGB">
<feFlood flood-opacity="0" result="BackgroundImageFix"/>
<feGaussianBlur in="BackgroundImageFix" stdDeviation="6"/>
<feComposite in2="SourceAlpha" operator="in" result="effect1_backgroundBlur_595_5975"/>
<feBlend mode="normal" in="SourceGraphic" in2="effect1_backgroundBlur_595_5975" result="shape"/>
<feColorMatrix in="SourceAlpha" type="matrix" values="0 0 0 0 0 0 0 0 0 0 0 0 0 0 0 0 0 0 127 0" result="hardAlpha"/>
<feOffset dy="2.54662"/>
<feGaussianBlur stdDeviation="5.09324"/>
<feComposite in2="hardAlpha" operator="arithmetic" k2="-1" k3="1"/>
<feColorMatrix type="matrix" values="0 0 0 0 1 0 0 0 0 1 0 0 0 0 1 0 0 0 0.15 0"/>
<feBlend mode="normal" in2="shape" result="effect2_innerShadow_595_5975"/>
</filter>
<linearGradient id="paint0_linear_595_5975" x1="200" y1="5" x2="200" y2="305.723" gradientUnits="userSpaceOnUse">
<stop stop-color="#00C2FF"/>
<stop offset="1" stop-color="#0038FF"/>
</linearGradient>
<linearGradient id="paint1_linear_595_5975" x1="37" y1="149.758" x2="37" y2="224.143" gradientUnits="userSpaceOnUse">
<stop stop-color="#00C2FF"/>
<stop offset="1" stop-color="#0038FF"/>
</linearGradient>
<linearGradient id="paint2_linear_595_5975" x1="255.703" y1="168.396" x2="263.304" y2="226.304" gradientUnits="userSpaceOnUse">
<stop stop-color="#CCEFF3"/>
<stop offset="0.9999" stop-color="#017AF2"/>
<stop offset="1" stop-color="#9DC8D6"/>
</linearGradient>
<linearGradient id="paint3_linear_595_5975" x1="255.703" y1="168.396" x2="255.703" y2="211.426" gradientUnits="userSpaceOnUse">
<stop stop-color="#01E5FF"/>
<stop offset="0.9999" stop-color="#017AF2"/>
<stop offset="1" stop-color="#41889E"/>
</linearGradient>
<linearGradient id="paint4_linear_595_5975" x1="111.703" y1="88.3956" x2="119.304" y2="146.304" gradientUnits="userSpaceOnUse">
<stop stop-color="#CCEFF3"/>
<stop offset="0.9999" stop-color="#017AF2"/>
<stop offset="1" stop-color="#9DC8D6"/>
</linearGradient>
<linearGradient id="paint5_linear_595_5975" x1="111.703" y1="88.3956" x2="111.703" y2="131.426" gradientUnits="userSpaceOnUse">
<stop stop-color="#01E5FF"/>
<stop offset="0.9999" stop-color="#017AF2"/>
<stop offset="1" stop-color="#41889E"/>
</linearGradient>
<linearGradient id="paint6_linear_595_5975" x1="338.971" y1="177.134" x2="338.971" y2="202.507" gradientUnits="userSpaceOnUse">
<stop stop-color="#01E5FF"/>
<stop offset="0.9999" stop-color="#017AF2"/>
<stop offset="1" stop-color="#41889E"/>
</linearGradient>
<linearGradient id="paint7_linear_595_5975" x1="196.972" y1="100.048" x2="196.972" y2="119.607" gradientUnits="userSpaceOnUse">
<stop stop-color="#01E5FF"/>
<stop offset="0.9999" stop-color="#017AF2"/>
<stop offset="1" stop-color="#41889E"/>
</linearGradient>
</defs>
</svg>
