<svg width="500" height="288" viewBox="0 0 500 288" fill="none" xmlns="http://www.w3.org/2000/svg">
<g opacity="0.5">
<path d="M476 0H24C10.7452 0 0 10.7452 0 24V264C0 277.255 10.7452 288 24 288H476C489.255 288 500 277.255 500 264V24C500 10.7452 489.255 0 476 0Z" fill="white" fill-opacity="0.06"/>
<path d="M0 24C0 10.7452 10.7452 0 24 0H476C489.255 0 500 10.7452 500 24V96C500 109.255 489.255 120 476 120H24C10.7452 120 0 109.255 0 96V24Z" fill="white" fill-opacity="0.06"/>
<mask id="mask0_306_9" style="mask-type:luminance" maskUnits="userSpaceOnUse" x="24" y="24" width="72" height="72">
<path d="M88.4805 24H31.5195C27.3666 24 24 27.3666 24 31.5195V88.4805C24 92.6334 27.3666 96 31.5195 96H88.4805C92.6334 96 96 92.6334 96 88.4805V31.5195C96 27.3666 92.6334 24 88.4805 24Z" fill="white"/>
</mask>
<g mask="url(#mask0_306_9)">
<path d="M96 24H24V96H96V24Z" fill="white" fill-opacity="0.06"/>
</g>
<path opacity="0.1" d="M129.6 33.7998V57.7998H120V33.7998H129.6ZM138.6 33.7998V57.7998H129V33.7998H138.6ZM147.6 33.7998V57.7998H138V33.7998H147.6ZM156.6 33.7998V57.7998H147V33.7998H156.6ZM165.6 33.7998V57.7998H156V33.7998H165.6ZM174.6 33.7998V57.7998H165V33.7998H174.6ZM183.6 33.7998V57.7998H174V33.7998H183.6ZM192.6 33.7998V57.7998H183V33.7998H192.6ZM201.6 33.7998V57.7998H192V33.7998H201.6ZM210.6 33.7998V57.7998H201V33.7998H210.6ZM219.6 33.7998V57.7998H210V33.7998H219.6ZM228.6 33.7998V57.7998H219V33.7998H228.6ZM237.6 33.7998V57.7998H228V33.7998H237.6ZM246.6 33.7998V57.7998H237V33.7998H246.6Z" fill="white"/>
<path d="M126.4 66.2002V82.2002H120V66.2002H126.4ZM132.4 66.2002V82.2002H126V66.2002H132.4ZM138.4 66.2002V82.2002H132V66.2002H138.4ZM144.4 66.2002V82.2002H138V66.2002H144.4ZM150.4 66.2002V82.2002H144V66.2002H150.4ZM156.4 66.2002V82.2002H150V66.2002H156.4ZM162.4 66.2002V82.2002H156V66.2002H162.4ZM168.4 66.2002V82.2002H162V66.2002H168.4ZM174.4 66.2002V82.2002H168V66.2002H174.4ZM180.4 66.2002V82.2002H174V66.2002H180.4ZM186.4 66.2002V82.2002H180V66.2002H186.4ZM192.4 66.2002V82.2002H186V66.2002H192.4Z" fill="white" fill-opacity="0.06"/>
<path d="M379.016 61.2581H381.164C381.107 62.0181 380.896 62.6931 380.531 63.2811C380.167 63.8651 379.659 64.3231 379.008 64.6561C378.357 64.9901 377.568 65.1561 376.641 65.1561C375.927 65.1561 375.284 65.0311 374.711 64.7811C374.143 64.5261 373.656 64.1641 373.25 63.6951C372.849 63.2211 372.542 62.6541 372.328 61.9921C372.115 61.3261 372.008 60.5781 372.008 59.7501V58.8831C372.008 58.0551 372.117 57.3071 372.336 56.6411C372.555 55.9741 372.867 55.4061 373.273 54.9381C373.685 54.4641 374.177 54.0991 374.75 53.8441C375.328 53.5891 375.974 53.4611 376.688 53.4611C377.615 53.4611 378.398 53.6331 379.039 53.9771C379.68 54.3151 380.177 54.7811 380.531 55.3751C380.885 55.9691 381.099 56.6511 381.172 57.4221H379.023C378.982 56.9431 378.878 56.5361 378.711 56.2031C378.549 55.8701 378.305 55.6171 377.977 55.4451C377.654 55.2681 377.224 55.1801 376.688 55.1801C376.271 55.1801 375.904 55.2581 375.586 55.4141C375.273 55.5701 375.013 55.8051 374.805 56.1171C374.596 56.4241 374.44 56.8101 374.336 57.2731C374.232 57.7321 374.18 58.2631 374.18 58.8671V59.7501C374.18 60.3281 374.227 60.8461 374.32 61.3051C374.414 61.7631 374.56 62.1511 374.758 62.4691C374.956 62.7861 375.211 63.0291 375.523 63.1951C375.836 63.3621 376.208 63.4451 376.641 63.4451C377.167 63.4451 377.594 63.3621 377.922 63.1951C378.255 63.0291 378.508 62.7841 378.68 62.4611C378.857 62.1381 378.969 61.7371 379.016 61.2581ZM382.305 60.8591V60.6951C382.305 60.0761 382.393 59.5051 382.57 58.9841C382.747 58.4581 383.005 58.0031 383.344 57.6171C383.682 57.2321 384.096 56.9321 384.586 56.7191C385.076 56.5001 385.633 56.3911 386.258 56.3911C386.893 56.3911 387.456 56.5001 387.945 56.7191C388.44 56.9321 388.857 57.2321 389.195 57.6171C389.534 58.0031 389.792 58.4581 389.969 58.9841C390.146 59.5051 390.234 60.0761 390.234 60.6951V60.8591C390.234 61.4741 390.146 62.0441 389.969 62.5701C389.792 63.0911 389.534 63.5471 389.195 63.9381C388.857 64.3231 388.443 64.6221 387.953 64.8361C387.464 65.0491 386.904 65.1561 386.273 65.1561C385.648 65.1561 385.089 65.0491 384.594 64.8361C384.099 64.6221 383.682 64.3231 383.344 63.9381C383.005 63.5471 382.747 63.0911 382.57 62.5701C382.393 62.0441 382.305 61.4741 382.305 60.8591ZM384.367 60.6951V60.8591C384.367 61.2291 384.404 61.5761 384.477 61.8981C384.549 62.2211 384.661 62.5051 384.812 62.7501C384.964 62.9951 385.159 63.1881 385.398 63.3281C385.643 63.4641 385.935 63.5311 386.273 63.5311C386.607 63.5311 386.893 63.4641 387.133 63.3281C387.372 63.1881 387.568 62.9951 387.719 62.7501C387.875 62.5051 387.99 62.2211 388.062 61.8981C388.135 61.5761 388.172 61.2291 388.172 60.8591V60.6951C388.172 60.3311 388.135 59.9901 388.062 59.6721C387.99 59.3491 387.875 59.0651 387.719 58.8201C387.568 58.5701 387.37 58.3751 387.125 58.2341C386.885 58.0891 386.596 58.0161 386.258 58.0161C385.924 58.0161 385.638 58.0891 385.398 58.2341C385.159 58.3751 384.964 58.5701 384.812 58.8201C384.661 59.0651 384.549 59.3491 384.477 59.6721C384.404 59.9901 384.367 60.3311 384.367 60.6951ZM393.789 58.2811V65.0001H391.727V56.5471H393.672L393.789 58.2811ZM393.484 60.4691H392.852C392.852 59.8801 392.922 59.3391 393.062 58.8441C393.208 58.3491 393.422 57.9191 393.703 57.5551C393.984 57.1851 394.331 56.8981 394.742 56.6951C395.159 56.4921 395.641 56.3911 396.188 56.3911C396.568 56.3911 396.917 56.4481 397.234 56.5621C397.552 56.6721 397.826 56.8461 398.055 57.0861C398.289 57.3201 398.469 57.6281 398.594 58.0081C398.719 58.3831 398.781 58.8331 398.781 59.3591V65.0001H396.719V59.5701C396.719 59.1741 396.661 58.8651 396.547 58.6411C396.438 58.4171 396.279 58.2601 396.07 58.1721C395.862 58.0781 395.612 58.0311 395.32 58.0311C394.997 58.0311 394.719 58.0961 394.484 58.2271C394.255 58.3521 394.065 58.5261 393.914 58.7501C393.768 58.9741 393.659 59.2321 393.586 59.5231C393.518 59.8151 393.484 60.1301 393.484 60.4691ZM398.625 60.0861L397.773 60.2421C397.779 59.7111 397.852 59.2141 397.992 58.7501C398.133 58.2811 398.339 57.8721 398.609 57.5231C398.885 57.1691 399.227 56.8931 399.633 56.6951C400.044 56.4921 400.518 56.3911 401.055 56.3911C401.471 56.3911 401.846 56.4511 402.18 56.5701C402.518 56.6851 402.807 56.8701 403.047 57.1251C403.286 57.3751 403.469 57.7011 403.594 58.1021C403.724 58.5031 403.789 58.9921 403.789 59.5701V65.0001H401.711V59.5621C401.711 59.1511 401.654 58.8361 401.539 58.6171C401.43 58.3981 401.271 58.2471 401.062 58.1641C400.854 58.0761 400.609 58.0311 400.328 58.0311C400.042 58.0311 399.792 58.0861 399.578 58.1951C399.37 58.2991 399.193 58.4451 399.047 58.6331C398.906 58.8201 398.799 59.0391 398.727 59.2891C398.659 59.5341 398.625 59.7991 398.625 60.0861ZM407.828 56.5471V65.0001H405.758V56.5471H407.828ZM405.617 54.3361C405.617 54.0291 405.721 53.7731 405.93 53.5701C406.143 53.3671 406.43 53.2661 406.789 53.2661C407.148 53.2661 407.432 53.3671 407.641 53.5701C407.854 53.7731 407.961 54.0291 407.961 54.3361C407.961 54.6381 407.854 54.8911 407.641 55.0941C407.432 55.2971 407.148 55.3981 406.789 55.3981C406.43 55.3981 406.143 55.2971 405.93 55.0941C405.721 54.8911 405.617 54.6381 405.617 54.3361ZM411.82 58.3521V65.0001H409.758V56.5471H411.695L411.82 58.3521ZM411.492 60.4691H410.883C410.888 59.8541 410.971 59.2971 411.133 58.7971C411.294 58.2971 411.521 57.8671 411.812 57.5081C412.109 57.1481 412.461 56.8721 412.867 56.6801C413.273 56.4871 413.727 56.3911 414.227 56.3911C414.633 56.3911 415 56.4481 415.328 56.5621C415.656 56.6771 415.938 56.8591 416.172 57.1091C416.411 57.3591 416.594 57.6881 416.719 58.0941C416.849 58.4951 416.914 58.9901 416.914 59.5781V65.0001H414.836V59.5621C414.836 59.1771 414.779 58.8721 414.664 58.6481C414.555 58.4241 414.393 58.2661 414.18 58.1721C413.971 58.0781 413.714 58.0311 413.406 58.0311C413.089 58.0311 412.81 58.0961 412.57 58.2271C412.336 58.3521 412.138 58.5261 411.977 58.7501C411.82 58.9741 411.701 59.2321 411.617 59.5231C411.534 59.8151 411.492 60.1301 411.492 60.4691ZM424.109 56.5471H425.984V64.7421C425.984 65.5081 425.818 66.1561 425.484 66.6881C425.156 67.2241 424.695 67.6301 424.102 67.9061C423.508 68.1881 422.818 68.3281 422.031 68.3281C421.693 68.3281 421.326 68.2811 420.93 68.1881C420.539 68.0941 420.161 67.9451 419.797 67.7421C419.438 67.5441 419.138 67.2861 418.898 66.9691L419.828 65.7501C420.109 66.0781 420.427 66.3261 420.781 66.4921C421.135 66.6641 421.518 66.7501 421.93 66.7501C422.346 66.7501 422.701 66.6721 422.992 66.5161C423.289 66.3651 423.516 66.1411 423.672 65.8441C423.833 65.5521 423.914 65.1931 423.914 64.7661V58.4771L424.109 56.5471ZM418.398 60.8751V60.7111C418.398 60.0651 418.477 59.4791 418.633 58.9531C418.789 58.4221 419.013 57.9661 419.305 57.5861C419.602 57.2061 419.958 56.9111 420.375 56.7031C420.797 56.4951 421.271 56.3911 421.797 56.3911C422.354 56.3911 422.823 56.4921 423.203 56.6951C423.589 56.8981 423.906 57.1881 424.156 57.5621C424.411 57.9381 424.609 58.3831 424.75 58.8981C424.896 59.4091 425.008 59.9711 425.086 60.5861V61.0311C425.013 61.6301 424.896 62.1801 424.734 62.6801C424.578 63.1801 424.37 63.6171 424.109 63.9921C423.849 64.3621 423.526 64.6481 423.141 64.8521C422.755 65.0551 422.302 65.1561 421.781 65.1561C421.26 65.1561 420.792 65.0491 420.375 64.8361C419.958 64.6221 419.602 64.3231 419.305 63.9381C419.013 63.5521 418.789 63.0991 418.633 62.5781C418.477 62.0571 418.398 61.4901 418.398 60.8751ZM420.461 60.7111V60.8751C420.461 61.2401 420.497 61.5811 420.57 61.8981C420.643 62.2161 420.755 62.4971 420.906 62.7421C421.057 62.9821 421.247 63.1691 421.477 63.3051C421.706 63.4401 421.979 63.5081 422.297 63.5081C422.724 63.5081 423.073 63.4191 423.344 63.2421C423.62 63.0601 423.828 62.8121 423.969 62.5001C424.115 62.1821 424.208 61.8261 424.25 61.4301V60.2031C424.224 59.8911 424.167 59.6021 424.078 59.3361C423.995 59.0701 423.878 58.8411 423.727 58.6481C423.576 58.4561 423.383 58.3051 423.148 58.1951C422.914 58.0861 422.635 58.0311 422.312 58.0311C422 58.0311 421.727 58.1021 421.492 58.2421C421.258 58.3781 421.065 58.5681 420.914 58.8121C420.763 59.0571 420.648 59.3411 420.57 59.6641C420.497 59.9871 420.461 60.3361 420.461 60.7111ZM437.938 62.0471C437.938 61.8281 437.904 61.6331 437.836 61.4611C437.773 61.2841 437.656 61.1251 437.484 60.9841C437.318 60.8391 437.081 60.6981 436.773 60.5621C436.471 60.4221 436.081 60.2761 435.602 60.1251C435.07 59.9581 434.576 59.7711 434.117 59.5621C433.659 59.3541 433.255 59.1121 432.906 58.8361C432.562 58.5601 432.294 58.2421 432.102 57.8831C431.909 57.5181 431.812 57.0961 431.812 56.6171C431.812 56.1481 431.911 55.7211 432.109 55.3361C432.312 54.9511 432.599 54.6201 432.969 54.3441C433.339 54.0621 433.773 53.8461 434.273 53.6951C434.779 53.5441 435.336 53.4691 435.945 53.4691C436.789 53.4691 437.518 53.6221 438.133 53.9301C438.753 54.2371 439.232 54.6541 439.57 55.1801C439.909 55.7061 440.078 56.2971 440.078 56.9531H437.938C437.938 56.5991 437.862 56.2861 437.711 56.0161C437.565 55.7451 437.341 55.5311 437.039 55.3751C436.742 55.2191 436.367 55.1411 435.914 55.1411C435.477 55.1411 435.112 55.2061 434.82 55.3361C434.534 55.4661 434.318 55.6431 434.172 55.8671C434.031 56.0911 433.961 56.3411 433.961 56.6171C433.961 56.8261 434.01 57.0131 434.109 57.1801C434.208 57.3411 434.357 57.4951 434.555 57.6411C434.753 57.7811 434.997 57.9141 435.289 58.0391C435.586 58.1591 435.93 58.2791 436.32 58.3981C436.945 58.5861 437.492 58.7941 437.961 59.0231C438.435 59.2531 438.828 59.5131 439.141 59.8051C439.458 60.0961 439.695 60.4241 439.852 60.7891C440.013 61.1541 440.094 61.5681 440.094 62.0311C440.094 62.5211 439.997 62.9581 439.805 63.3441C439.612 63.7291 439.336 64.0571 438.977 64.3281C438.617 64.5991 438.185 64.8051 437.68 64.9451C437.18 65.0861 436.62 65.1561 436 65.1561C435.448 65.1561 434.901 65.0831 434.359 64.9381C433.823 64.7861 433.336 64.5621 432.898 64.2661C432.461 63.9641 432.112 63.5831 431.852 63.1251C431.591 62.6611 431.461 62.1201 431.461 61.5001H433.617C433.617 61.8591 433.674 62.1671 433.789 62.4221C433.909 62.6721 434.076 62.8781 434.289 63.0391C434.508 63.1951 434.763 63.3101 435.055 63.3831C435.346 63.4561 435.661 63.4921 436 63.4921C436.438 63.4921 436.797 63.4321 437.078 63.3121C437.365 63.1881 437.578 63.0161 437.719 62.7971C437.865 62.5781 437.938 62.3281 437.938 62.0471ZM441.227 60.8591V60.6951C441.227 60.0761 441.315 59.5051 441.492 58.9841C441.669 58.4581 441.927 58.0031 442.266 57.6171C442.604 57.2321 443.018 56.9321 443.508 56.7191C443.997 56.5001 444.555 56.3911 445.18 56.3911C445.815 56.3911 446.378 56.5001 446.867 56.7191C447.362 56.9321 447.779 57.2321 448.117 57.6171C448.456 58.0031 448.714 58.4581 448.891 58.9841C449.068 59.5051 449.156 60.0761 449.156 60.6951V60.8591C449.156 61.4741 449.068 62.0441 448.891 62.5701C448.714 63.0911 448.456 63.5471 448.117 63.9381C447.779 64.3231 447.365 64.6221 446.875 64.8361C446.385 65.0491 445.826 65.1561 445.195 65.1561C444.57 65.1561 444.01 65.0491 443.516 64.8361C443.021 64.6221 442.604 64.3231 442.266 63.9381C441.927 63.5471 441.669 63.0911 441.492 62.5701C441.315 62.0441 441.227 61.4741 441.227 60.8591ZM443.289 60.6951V60.8591C443.289 61.2291 443.326 61.5761 443.398 61.8981C443.471 62.2211 443.583 62.5051 443.734 62.7501C443.885 62.9951 444.081 63.1881 444.32 63.3281C444.565 63.4641 444.857 63.5311 445.195 63.5311C445.529 63.5311 445.815 63.4641 446.055 63.3281C446.294 63.1881 446.49 62.9951 446.641 62.7501C446.797 62.5051 446.911 62.2211 446.984 61.8981C447.057 61.5761 447.094 61.2291 447.094 60.8591V60.6951C447.094 60.3311 447.057 59.9901 446.984 59.6721C446.911 59.3491 446.797 59.0651 446.641 58.8201C446.49 58.5701 446.292 58.3751 446.047 58.2341C445.807 58.0891 445.518 58.0161 445.18 58.0161C444.846 58.0161 444.56 58.0891 444.32 58.2341C444.081 58.3751 443.885 58.5701 443.734 58.8201C443.583 59.0651 443.471 59.3491 443.398 59.6721C443.326 59.9901 443.289 60.3311 443.289 60.6951ZM450.289 60.8591V60.6951C450.289 60.0761 450.378 59.5051 450.555 58.9841C450.732 58.4581 450.99 58.0031 451.328 57.6171C451.667 57.2321 452.081 56.9321 452.57 56.7191C453.06 56.5001 453.617 56.3911 454.242 56.3911C454.878 56.3911 455.44 56.5001 455.93 56.7191C456.424 56.9321 456.841 57.2321 457.18 57.6171C457.518 58.0031 457.776 58.4581 457.953 58.9841C458.13 59.5051 458.219 60.0761 458.219 60.6951V60.8591C458.219 61.4741 458.13 62.0441 457.953 62.5701C457.776 63.0911 457.518 63.5471 457.18 63.9381C456.841 64.3231 456.427 64.6221 455.938 64.8361C455.448 65.0491 454.888 65.1561 454.258 65.1561C453.633 65.1561 453.073 65.0491 452.578 64.8361C452.083 64.6221 451.667 64.3231 451.328 63.9381C450.99 63.5471 450.732 63.0911 450.555 62.5701C450.378 62.0441 450.289 61.4741 450.289 60.8591ZM452.352 60.6951V60.8591C452.352 61.2291 452.388 61.5761 452.461 61.8981C452.534 62.2211 452.646 62.5051 452.797 62.7501C452.948 62.9951 453.143 63.1881 453.383 63.3281C453.628 63.4641 453.919 63.5311 454.258 63.5311C454.591 63.5311 454.878 63.4641 455.117 63.3281C455.357 63.1881 455.552 62.9951 455.703 62.7501C455.859 62.5051 455.974 62.2211 456.047 61.8981C456.12 61.5761 456.156 61.2291 456.156 60.8591V60.6951C456.156 60.3311 456.12 59.9901 456.047 59.6721C455.974 59.3491 455.859 59.0651 455.703 58.8201C455.552 58.5701 455.354 58.3751 455.109 58.2341C454.87 58.0891 454.581 58.0161 454.242 58.0161C453.909 58.0161 453.622 58.0891 453.383 58.2341C453.143 58.3751 452.948 58.5701 452.797 58.8201C452.646 59.0651 452.534 59.3491 452.461 59.6721C452.388 59.9901 452.352 60.3311 452.352 60.6951ZM461.742 58.3521V65.0001H459.68V56.5471H461.617L461.742 58.3521ZM461.414 60.4691H460.805C460.81 59.8541 460.893 59.2971 461.055 58.7971C461.216 58.2971 461.443 57.8671 461.734 57.5081C462.031 57.1481 462.383 56.8721 462.789 56.6801C463.195 56.4871 463.648 56.3911 464.148 56.3911C464.555 56.3911 464.922 56.4481 465.25 56.5621C465.578 56.6771 465.859 56.8591 466.094 57.1091C466.333 57.3591 466.516 57.6881 466.641 58.0941C466.771 58.4951 466.836 58.9901 466.836 59.5781V65.0001H464.758V59.5621C464.758 59.1771 464.701 58.8721 464.586 58.6481C464.477 58.4241 464.315 58.2661 464.102 58.1721C463.893 58.0781 463.635 58.0311 463.328 58.0311C463.01 58.0311 462.732 58.0961 462.492 58.2271C462.258 58.3521 462.06 58.5261 461.898 58.7501C461.742 58.9741 461.622 59.2321 461.539 59.5231C461.456 59.8151 461.414 60.1301 461.414 60.4691Z" fill="#A4A4A4"/>
<path d="M38.4 148.2V164.2H32V148.2H38.4ZM44.4 148.2V164.2H38V148.2H44.4ZM50.4 148.2V164.2H44V148.2H50.4ZM56.4 148.2V164.2H50V148.2H56.4ZM62.4 148.2V164.2H56V148.2H62.4ZM68.4 148.2V164.2H62V148.2H68.4ZM74.4 148.2V164.2H68V148.2H74.4ZM80.4 148.2V164.2H74V148.2H80.4ZM86.4 148.2V164.2H80V148.2H86.4ZM92.4 148.2V164.2H86V148.2H92.4ZM98.4 148.2V164.2H92V148.2H98.4ZM104.4 148.2V164.2H98V148.2H104.4ZM110.4 148.2V164.2H104V148.2H110.4ZM116.4 148.2V164.2H110V148.2H116.4ZM122.4 148.2V164.2H116V148.2H122.4ZM128.4 148.2V164.2H122V148.2H128.4ZM134.4 148.2V164.2H128V148.2H134.4ZM140.4 148.2V164.2H134V148.2H140.4ZM146.4 148.2V164.2H140V148.2H146.4ZM152.4 148.2V164.2H146V148.2H152.4ZM158.4 148.2V164.2H152V148.2H158.4ZM164.4 148.2V164.2H158V148.2H164.4ZM170.4 148.2V164.2H164V148.2H170.4ZM176.4 148.2V164.2H170V148.2H176.4ZM182.4 148.2V164.2H176V148.2H182.4ZM188.4 148.2V164.2H182V148.2H188.4ZM194.4 148.2V164.2H188V148.2H194.4ZM200.4 148.2V164.2H194V148.2H200.4ZM206.4 148.2V164.2H200V148.2H206.4ZM212.4 148.2V164.2H206V148.2H212.4ZM218.4 148.2V164.2H212V148.2H218.4ZM224.4 148.2V164.2H218V148.2H224.4ZM230.4 148.2V164.2H224V148.2H230.4ZM236.4 148.2V164.2H230V148.2H236.4ZM242.4 148.2V164.2H236V148.2H242.4ZM248.4 148.2V164.2H242V148.2H248.4ZM254.4 148.2V164.2H248V148.2H254.4ZM260.4 148.2V164.2H254V148.2H260.4ZM266.4 148.2V164.2H260V148.2H266.4ZM272.4 148.2V164.2H266V148.2H272.4ZM278.4 148.2V164.2H272V148.2H278.4ZM284.4 148.2V164.2H278V148.2H284.4ZM290.4 148.2V164.2H284V148.2H290.4ZM296.4 148.2V164.2H290V148.2H296.4ZM302.4 148.2V164.2H296V148.2H302.4ZM308.4 148.2V164.2H302V148.2H308.4ZM314.4 148.2V164.2H308V148.2H314.4ZM320.4 148.2V164.2H314V148.2H320.4ZM326.4 148.2V164.2H320V148.2H326.4ZM332.4 148.2V164.2H326V148.2H332.4ZM338.4 148.2V164.2H332V148.2H338.4ZM344.4 148.2V164.2H338V148.2H344.4ZM350.4 148.2V164.2H344V148.2H350.4ZM356.4 148.2V164.2H350V148.2H356.4ZM362.4 148.2V164.2H356V148.2H362.4ZM368.4 148.2V164.2H362V148.2H368.4ZM374.4 148.2V164.2H368V148.2H374.4ZM380.4 148.2V164.2H374V148.2H380.4ZM386.4 148.2V164.2H380V148.2H386.4ZM392.4 148.2V164.2H386V148.2H392.4ZM398.4 148.2V164.2H392V148.2H398.4ZM404.4 148.2V164.2H398V148.2H404.4ZM410.4 148.2V164.2H404V148.2H410.4ZM38.4 172.2V188.2H32V172.2H38.4ZM44.4 172.2V188.2H38V172.2H44.4ZM50.4 172.2V188.2H44V172.2H50.4ZM56.4 172.2V188.2H50V172.2H56.4ZM62.4 172.2V188.2H56V172.2H62.4ZM68.4 172.2V188.2H62V172.2H68.4ZM74.4 172.2V188.2H68V172.2H74.4ZM80.4 172.2V188.2H74V172.2H80.4ZM86.4 172.2V188.2H80V172.2H86.4ZM92.4 172.2V188.2H86V172.2H92.4ZM98.4 172.2V188.2H92V172.2H98.4ZM104.4 172.2V188.2H98V172.2H104.4ZM110.4 172.2V188.2H104V172.2H110.4ZM116.4 172.2V188.2H110V172.2H116.4ZM122.4 172.2V188.2H116V172.2H122.4ZM128.4 172.2V188.2H122V172.2H128.4ZM134.4 172.2V188.2H128V172.2H134.4ZM140.4 172.2V188.2H134V172.2H140.4ZM146.4 172.2V188.2H140V172.2H146.4ZM152.4 172.2V188.2H146V172.2H152.4ZM158.4 172.2V188.2H152V172.2H158.4ZM164.4 172.2V188.2H158V172.2H164.4ZM170.4 172.2V188.2H164V172.2H170.4ZM176.4 172.2V188.2H170V172.2H176.4ZM182.4 172.2V188.2H176V172.2H182.4ZM188.4 172.2V188.2H182V172.2H188.4ZM194.4 172.2V188.2H188V172.2H194.4ZM200.4 172.2V188.2H194V172.2H200.4ZM206.4 172.2V188.2H200V172.2H206.4ZM212.4 172.2V188.2H206V172.2H212.4ZM218.4 172.2V188.2H212V172.2H218.4ZM224.4 172.2V188.2H218V172.2H224.4ZM230.4 172.2V188.2H224V172.2H230.4ZM236.4 172.2V188.2H230V172.2H236.4ZM242.4 172.2V188.2H236V172.2H242.4ZM248.4 172.2V188.2H242V172.2H248.4ZM254.4 172.2V188.2H248V172.2H254.4ZM260.4 172.2V188.2H254V172.2H260.4ZM266.4 172.2V188.2H260V172.2H266.4ZM272.4 172.2V188.2H266V172.2H272.4ZM278.4 172.2V188.2H272V172.2H278.4ZM284.4 172.2V188.2H278V172.2H284.4ZM290.4 172.2V188.2H284V172.2H290.4ZM296.4 172.2V188.2H290V172.2H296.4ZM302.4 172.2V188.2H296V172.2H302.4ZM308.4 172.2V188.2H302V172.2H308.4ZM314.4 172.2V188.2H308V172.2H314.4ZM320.4 172.2V188.2H314V172.2H320.4ZM326.4 172.2V188.2H320V172.2H326.4ZM332.4 172.2V188.2H326V172.2H332.4ZM338.4 172.2V188.2H332V172.2H338.4ZM344.4 172.2V188.2H338V172.2H344.4ZM350.4 172.2V188.2H344V172.2H350.4ZM356.4 172.2V188.2H350V172.2H356.4ZM362.4 172.2V188.2H356V172.2H362.4ZM368.4 172.2V188.2H362V172.2H368.4ZM374.4 172.2V188.2H368V172.2H374.4ZM380.4 172.2V188.2H374V172.2H380.4ZM386.4 172.2V188.2H380V172.2H386.4ZM392.4 172.2V188.2H386V172.2H392.4ZM398.4 172.2V188.2H392V172.2H398.4ZM404.4 172.2V188.2H398V172.2H404.4ZM410.4 172.2V188.2H404V172.2H410.4ZM38.4 196.2V212.2H32V196.2H38.4ZM44.4 196.2V212.2H38V196.2H44.4ZM50.4 196.2V212.2H44V196.2H50.4ZM56.4 196.2V212.2H50V196.2H56.4ZM62.4 196.2V212.2H56V196.2H62.4ZM68.4 196.2V212.2H62V196.2H68.4ZM74.4 196.2V212.2H68V196.2H74.4ZM80.4 196.2V212.2H74V196.2H80.4ZM86.4 196.2V212.2H80V196.2H86.4ZM92.4 196.2V212.2H86V196.2H92.4ZM98.4 196.2V212.2H92V196.2H98.4ZM104.4 196.2V212.2H98V196.2H104.4ZM110.4 196.2V212.2H104V196.2H110.4ZM116.4 196.2V212.2H110V196.2H116.4ZM122.4 196.2V212.2H116V196.2H122.4ZM128.4 196.2V212.2H122V196.2H128.4ZM134.4 196.2V212.2H128V196.2H134.4ZM140.4 196.2V212.2H134V196.2H140.4ZM146.4 196.2V212.2H140V196.2H146.4ZM152.4 196.2V212.2H146V196.2H152.4ZM158.4 196.2V212.2H152V196.2H158.4ZM164.4 196.2V212.2H158V196.2H164.4ZM170.4 196.2V212.2H164V196.2H170.4ZM176.4 196.2V212.2H170V196.2H176.4ZM182.4 196.2V212.2H176V196.2H182.4ZM188.4 196.2V212.2H182V196.2H188.4ZM194.4 196.2V212.2H188V196.2H194.4ZM200.4 196.2V212.2H194V196.2H200.4ZM206.4 196.2V212.2H200V196.2H206.4ZM212.4 196.2V212.2H206V196.2H212.4ZM218.4 196.2V212.2H212V196.2H218.4ZM224.4 196.2V212.2H218V196.2H224.4ZM230.4 196.2V212.2H224V196.2H230.4ZM236.4 196.2V212.2H230V196.2H236.4ZM242.4 196.2V212.2H236V196.2H242.4ZM248.4 196.2V212.2H242V196.2H248.4ZM38.4 220.2V236.2H32V220.2H38.4ZM44.4 220.2V236.2H38V220.2H44.4ZM50.4 220.2V236.2H44V220.2H50.4ZM56.4 220.2V236.2H50V220.2H56.4ZM62.4 220.2V236.2H56V220.2H62.4ZM68.4 220.2V236.2H62V220.2H68.4ZM74.4 220.2V236.2H68V220.2H74.4ZM80.4 220.2V236.2H74V220.2H80.4ZM86.4 220.2V236.2H80V220.2H86.4ZM92.4 220.2V236.2H86V220.2H92.4ZM98.4 220.2V236.2H92V220.2H98.4ZM104.4 220.2V236.2H98V220.2H104.4ZM110.4 220.2V236.2H104V220.2H110.4ZM116.4 220.2V236.2H110V220.2H116.4Z" fill="white" fill-opacity="0.1"/>
</g>
</svg>
