<svg width="1053" height="196" viewBox="0 0 1053 196" fill="none" xmlns="http://www.w3.org/2000/svg">
<path style="mix-blend-mode:color-dodge" d="M491.08 104.489H617.29L667.256 154.455H869.178L882.815 168.091H937.841L939.539 169.79C940.362 169.275 941.46 169.361 942.181 170.081C943.021 170.922 943.021 172.277 942.181 173.1C941.34 173.941 939.985 173.941 939.162 173.1C938.441 172.38 938.338 171.282 938.87 170.459L937.446 169.035H882.42L868.784 155.398H666.861L616.895 105.432H491.08C490.857 106.393 490.016 107.096 489.004 107.096C487.821 107.096 486.86 106.136 486.86 104.952C486.86 103.769 487.821 102.808 489.004 102.808C490.016 102.808 490.874 103.528 491.08 104.472V104.489Z" fill="url(#paint0_radial_464_4026)"/>
<path style="mix-blend-mode:color-dodge" d="M960.671 155.158H890.757L878.887 143.289H676.964L627.496 93.8199H505.711C505.488 94.7805 504.648 95.4838 503.636 95.4838C502.452 95.4838 501.491 94.5232 501.491 93.3397C501.491 92.1561 502.452 91.1956 503.636 91.1956C504.648 91.1956 505.505 91.916 505.711 92.8594H627.89L677.359 142.328H879.281L891.151 154.198H961.066L970.466 163.597C971.289 163.083 972.387 163.169 973.107 163.889C973.948 164.73 973.948 166.085 973.107 166.908C972.267 167.748 970.912 167.748 970.088 166.908C969.368 166.188 969.265 165.09 969.797 164.266L960.671 155.141V155.158Z" fill="url(#paint1_radial_464_4026)"/>
<path style="mix-blend-mode:color-dodge" d="M1052.47 123.7C1052.47 122.517 1051.51 121.556 1050.33 121.556C1049.32 121.556 1048.46 122.276 1048.25 123.22H1029.39L1020.86 114.695H965.2L956.486 105.981H876.588L865.988 116.582H865.439V117.131L860.19 122.379H679.623L651.304 94.06H739.949L755.85 78.1594H880.036L894.427 63.7854H960.671L968.527 71.6242C968.013 72.4475 968.099 73.5453 968.819 74.2657C969.659 75.1062 971.014 75.1062 971.838 74.2657C972.678 73.4253 972.678 72.0702 971.838 71.2468C971.117 70.5264 970.02 70.4407 969.196 70.9552L961.066 62.8248H894.033L879.642 77.1989H755.456L739.555 93.0995H651.167V93.9057L639.434 82.1732H725.301L743.483 63.9912H869.178L884.016 49.1712H884.376V48.811L889.625 43.5623H998.528C998.751 44.5228 999.591 45.2261 1000.6 45.2261C1001.79 45.2261 1002.75 44.2655 1002.75 43.082C1002.75 41.8985 1001.79 40.9379 1000.6 40.9379C999.591 40.9379 998.733 41.6583 998.528 42.6017H957.275L957.447 42.4302L937.189 22.1728H888.064L878.51 12.6187H786.313L775.147 23.7851H759.624L734.118 49.2913L734.735 49.9088H708.268L695.146 63.0307H586.947L602.916 47.0786H671.939C672.162 48.0391 673.002 48.7424 674.014 48.7424C675.198 48.7424 676.158 47.7818 676.158 46.5983C676.158 45.4148 675.198 44.4542 674.014 44.4542C673.002 44.4542 672.145 45.1746 671.939 46.118H602.521L585.609 63.0307H551.372L578.696 35.7063H719.538L752.094 3.15031H896.846C897.069 4.11087 897.909 4.81413 898.921 4.81413C900.105 4.81413 901.065 3.85358 901.065 2.67004C901.065 1.4865 900.105 0.52594 898.921 0.52594C897.909 0.52594 897.052 1.24636 896.846 2.18976H751.699L741.853 12.0355H647.959L625.866 34.1282L626.484 34.7457H578.302L536.14 76.9244L536.809 77.5934L550.994 63.408V63.9741H695.558L708.68 50.8522H775.318L792.986 33.1848H841.065C841.288 34.1454 842.129 34.8487 843.141 34.8487C844.324 34.8487 845.285 33.8881 845.285 32.7046C845.285 31.521 844.324 30.5605 843.141 30.5605C842.129 30.5605 841.271 31.2809 841.065 32.2243H792.591L774.924 49.8916H734.872L760.052 24.7114H775.576L786.742 13.5449H878.167L887.721 23.099H936.846L956.315 42.5674H889.264L883.655 48.1764H808.303L793.586 62.8934L793.689 62.9964H743.123L724.941 81.1783H638.508L634.974 77.6448H494.116C493.893 76.6843 493.052 75.981 492.04 75.981C490.857 75.981 489.896 76.9416 489.896 78.1251C489.896 79.3087 490.857 80.2692 492.04 80.2692C493.052 80.2692 493.91 79.5488 494.116 78.6054H634.58L679.263 123.288H860.619L866.417 117.491H922.815L940.603 135.278H1012.92L1027.77 150.132C1027.26 150.956 1027.34 152.054 1028.06 152.774C1028.91 153.614 1030.26 153.614 1031.08 152.774C1031.91 151.934 1031.92 150.578 1031.08 149.755C1030.36 149.035 1029.27 148.932 1028.44 149.464L1013.3 134.318H940.98L923.193 116.53H867.343L877 106.873H956.109L964.822 115.587H1020.48L1029.01 124.112H1048.27C1048.49 125.072 1049.33 125.776 1050.35 125.776C1051.53 125.776 1052.49 124.815 1052.49 123.631L1052.47 123.7ZM719.109 34.8144H626.552L648.319 13.0475H740.876L719.109 34.8144ZM868.784 63.0821H794.787L808.663 49.2055H882.678L868.784 63.0821Z" fill="url(#paint2_radial_464_4026)"/>
<path style="mix-blend-mode:color-dodge" d="M613.568 114.558C614.288 115.278 614.391 116.376 613.859 117.199L666.261 169.601H802.557L811.442 178.486V178.177H959.042L963.261 182.397C964.085 181.882 965.182 181.968 965.903 182.688C966.743 183.529 966.743 184.884 965.903 185.707C965.062 186.531 963.707 186.548 962.884 185.707C962.164 184.987 962.061 183.889 962.592 183.066L958.647 179.121H812.077L825.765 192.809H934.428C934.651 191.848 935.491 191.145 936.503 191.145C937.687 191.145 938.647 192.105 938.647 193.289C938.647 194.472 937.687 195.433 936.503 195.433C935.491 195.433 934.633 194.713 934.428 193.769H825.387L802.163 170.544H665.867L613.19 117.868C612.367 118.383 611.269 118.297 610.549 117.577C609.708 116.736 609.708 115.381 610.549 114.558C611.389 113.717 612.744 113.717 613.568 114.558Z" fill="url(#paint3_radial_464_4026)"/>
<path style="mix-blend-mode:color-dodge" d="M1032.94 108.606C1032.22 107.885 1032.11 106.787 1032.64 105.964L1028.05 101.384H967.756L948.544 82.1731H894.616L880.791 95.9811H780.464L767.222 109.223H667.067V108.28H766.828L780.07 95.0377H880.396L894.222 81.2297H948.939L968.15 100.441H1028.44L1033.31 105.312C1034.14 104.798 1035.23 104.883 1035.95 105.604C1036.8 106.444 1036.8 107.799 1035.95 108.623C1035.11 109.463 1033.76 109.463 1032.94 108.623V108.606Z" fill="url(#paint4_radial_464_4026)"/>
<path style="mix-blend-mode:color-dodge" d="M562.281 91.5557H436.071L386.105 41.5896H184.182L170.546 27.9532H115.537L113.839 26.2551C113.015 26.7696 111.918 26.6839 111.197 25.9635C110.357 25.123 110.357 23.7679 111.197 22.9446C112.038 22.1041 113.393 22.1041 114.216 22.9446C114.937 23.665 115.039 24.7628 114.508 25.5861L115.931 27.0098H170.94L184.577 40.6462H386.499L436.465 90.6123H562.281C562.504 89.6517 563.344 88.9485 564.356 88.9485C565.54 88.9485 566.501 89.909 566.501 91.0926C566.501 92.2761 565.54 93.2367 564.356 93.2367C563.344 93.2367 562.487 92.5162 562.281 91.5728V91.5557Z" fill="url(#paint5_radial_464_4026)"/>
<path style="mix-blend-mode:color-dodge" d="M92.7065 40.8864H162.621L174.491 52.7562H376.413L425.882 102.225H547.667C547.89 101.264 548.73 100.561 549.742 100.561C550.926 100.561 551.886 101.522 551.886 102.705C551.886 103.889 550.926 104.849 549.742 104.849C548.73 104.849 547.873 104.129 547.667 103.185H425.488L376.019 53.7167H174.096L162.227 41.847H92.312L82.9123 32.4473C82.0889 32.9618 80.9912 32.8761 80.2707 32.1557C79.4303 31.3152 79.4303 29.9601 80.2707 29.1368C81.1112 28.2963 82.4663 28.2963 83.2896 29.1368C84.0101 29.8572 84.113 30.955 83.5812 31.7783L92.7065 40.9036V40.8864Z" fill="url(#paint6_radial_464_4026)"/>
<path style="mix-blend-mode:color-dodge" d="M0.887695 72.3446C0.887695 73.5281 1.84825 74.4887 3.03179 74.4887C4.04381 74.4887 4.90144 73.7683 5.10728 72.8249H23.9753L32.5003 81.3498H88.1439L96.8575 90.0634H176.755L187.356 79.463H187.904V78.9141L193.153 73.6653H373.72L402.04 101.985H313.394L297.494 117.885H173.325L158.933 132.259H92.7065L84.8505 124.42C85.3651 123.597 85.2794 122.499 84.5589 121.779C83.7185 120.938 82.3634 120.938 81.5401 121.779C80.6996 122.619 80.6996 123.974 81.5401 124.798C82.2605 125.518 83.3583 125.604 84.1816 125.089L92.312 133.22H159.345L173.736 118.846H297.905L313.806 102.945H402.194V102.139L413.927 113.871H328.06L309.878 132.053H184.182L169.345 146.873H168.985V147.234L163.736 152.482H54.8332C54.6102 151.522 53.7697 150.819 52.7577 150.819C51.5742 150.819 50.6136 151.779 50.6136 152.963C50.6136 154.146 51.5742 155.107 52.7577 155.107C53.7697 155.107 54.6273 154.386 54.8332 153.443H96.0856L95.9141 153.614L116.172 173.872H165.28L174.834 183.426H267.03L278.197 172.26H293.72L319.226 146.753L318.609 146.136H345.075L358.197 133.014H466.397L450.428 148.966H381.405C381.182 148.005 380.341 147.302 379.329 147.302C378.146 147.302 377.185 148.263 377.185 149.446C377.185 150.63 378.146 151.59 379.329 151.59C380.341 151.59 381.199 150.87 381.405 149.927H450.822L467.735 133.014H501.972L474.647 160.338H333.857L301.301 192.894H156.549C156.326 191.934 155.486 191.23 154.474 191.23C153.29 191.23 152.33 192.191 152.33 193.375C152.33 194.558 153.29 195.519 154.474 195.519C155.486 195.519 156.343 194.798 156.549 193.855H301.696L311.542 184.009H405.436L427.529 161.916L426.911 161.299H475.093L517.255 119.12L516.586 118.451L502.401 132.637V132.071H357.837L344.715 145.192H278.077L260.409 162.86H212.33C212.107 161.899 211.266 161.196 210.254 161.196C209.071 161.196 208.11 162.157 208.11 163.34C208.11 164.524 209.071 165.484 210.254 165.484C211.266 165.484 212.124 164.764 212.33 163.82H260.804L278.471 146.153H318.523L293.343 171.333H277.819L266.653 182.5H175.246L165.692 172.946H116.566L97.0976 153.477H164.131L169.74 147.868H245.092L259.809 133.151L259.706 133.048H310.272L328.454 114.866H414.887L418.421 118.4H559.279C559.502 119.36 560.343 120.064 561.355 120.064C562.538 120.064 563.499 119.103 563.499 117.92C563.499 116.736 562.538 115.775 561.355 115.775C560.343 115.775 559.485 116.496 559.279 117.439H418.815L374.132 72.7563H192.776L186.978 78.5539H130.563L112.775 60.7665H40.4592L25.6049 45.9122C26.1194 45.0888 26.0337 43.991 25.3133 43.2706C24.4728 42.4301 23.1177 42.4301 22.2944 43.2706C21.4539 44.1111 21.4539 45.4662 22.2944 46.2895C23.0148 47.0099 24.1126 47.1128 24.9359 46.5811L40.0818 61.727H112.381L130.168 79.5145H186.018L176.361 89.1715H97.252L88.5384 80.4579H32.8948L24.3699 71.9329H5.10728C4.88429 70.9724 4.04381 70.2691 3.03179 70.2691C1.84825 70.2691 0.887695 71.2297 0.887695 72.4132V72.3446ZM334.252 161.23H426.808L405.041 182.997H312.485L334.252 161.23ZM184.577 132.963H258.574L244.697 146.839H170.683L184.577 132.963Z" fill="url(#paint7_radial_464_4026)"/>
<path style="mix-blend-mode:color-dodge" d="M439.81 81.487C439.09 80.7666 438.987 79.6688 439.518 78.8455L387.117 26.4438H250.821L241.936 17.5586V17.8674H94.336L90.1164 13.6478C89.293 14.1624 88.1953 14.0766 87.4748 13.3562C86.6344 12.5157 86.6344 11.1606 87.4748 10.3373C88.3153 9.51398 89.6704 9.49683 90.4937 10.3373C91.2141 11.0577 91.3171 12.1555 90.7853 12.9788L94.7305 16.924H241.284L227.596 3.23607H118.933C118.71 4.19662 117.87 4.89989 116.858 4.89989C115.674 4.89989 114.713 3.93933 114.713 2.75579C114.713 1.57225 115.674 0.611694 116.858 0.611694C117.87 0.611694 118.727 1.33211 118.933 2.27552H227.99L251.215 25.5004H387.511L440.187 78.1766C441.011 77.662 442.109 77.7477 442.829 78.4681C443.669 79.3086 443.669 80.6637 442.829 81.487C441.988 82.3275 440.633 82.3275 439.81 81.487Z" fill="url(#paint8_radial_464_4026)"/>
<path style="mix-blend-mode:color-dodge" d="M20.4246 87.4391C21.1451 88.1595 21.248 89.2573 20.7162 90.0806L25.3132 94.6604H85.6052L104.816 113.872H158.762L172.587 100.064H272.914L286.155 86.8216H386.311V87.765H286.55L273.308 101.007H172.964L159.139 114.815H104.422L85.2107 95.6038H24.9187L20.0473 90.7324C19.224 91.247 18.1262 91.1612 17.4058 90.4408C16.5653 89.6003 16.5653 88.2453 17.4058 87.4219C18.2462 86.5814 19.6013 86.5814 20.4246 87.4219V87.4391Z" fill="url(#paint9_radial_464_4026)"/>
<defs>
<radialGradient id="paint0_radial_464_4026" cx="0" cy="0" r="1" gradientUnits="userSpaceOnUse" gradientTransform="translate(714.838 138.28) scale(163.14 163.14)">
<stop offset="0.2" stop-color="#9C9C9C"/>
<stop offset="0.24" stop-color="#8C8C8C"/>
<stop offset="0.36" stop-color="#616161"/>
<stop offset="0.49" stop-color="#3E3E3E"/>
<stop offset="0.61" stop-color="#232323"/>
<stop offset="0.74" stop-color="#0F0F0F"/>
<stop offset="0.87" stop-color="#030303"/>
<stop offset="1"/>
</radialGradient>
<radialGradient id="paint1_radial_464_4026" cx="0" cy="0" r="1" gradientUnits="userSpaceOnUse" gradientTransform="translate(737.617 129.378) scale(169.126 169.126)">
<stop offset="0.2" stop-color="#9C9C9C"/>
<stop offset="0.24" stop-color="#8C8C8C"/>
<stop offset="0.36" stop-color="#616161"/>
<stop offset="0.49" stop-color="#3E3E3E"/>
<stop offset="0.61" stop-color="#232323"/>
<stop offset="0.74" stop-color="#0F0F0F"/>
<stop offset="0.87" stop-color="#030303"/>
<stop offset="1"/>
</radialGradient>
<radialGradient id="paint2_radial_464_4026" cx="0" cy="0" r="1" gradientUnits="userSpaceOnUse" gradientTransform="translate(771.185 77.0445) scale(206.125 206.125)">
<stop offset="0.2" stop-color="#9C9C9C"/>
<stop offset="0.24" stop-color="#8C8C8C"/>
<stop offset="0.36" stop-color="#616161"/>
<stop offset="0.49" stop-color="#3E3E3E"/>
<stop offset="0.61" stop-color="#232323"/>
<stop offset="0.74" stop-color="#0F0F0F"/>
<stop offset="0.87" stop-color="#030303"/>
<stop offset="1"/>
</radialGradient>
<radialGradient id="paint3_radial_464_4026" cx="0" cy="0" r="1" gradientUnits="userSpaceOnUse" gradientTransform="translate(788.217 154.678) scale(129.332 129.332)">
<stop offset="0.2" stop-color="#9C9C9C"/>
<stop offset="0.24" stop-color="#8C8C8C"/>
<stop offset="0.36" stop-color="#616161"/>
<stop offset="0.49" stop-color="#3E3E3E"/>
<stop offset="0.61" stop-color="#232323"/>
<stop offset="0.74" stop-color="#0F0F0F"/>
<stop offset="0.87" stop-color="#030303"/>
<stop offset="1"/>
</radialGradient>
<radialGradient id="paint4_radial_464_4026" cx="0" cy="0" r="1" gradientUnits="userSpaceOnUse" gradientTransform="translate(851.837 95.2264) scale(131.013 131.013)">
<stop offset="0.2" stop-color="#9C9C9C"/>
<stop offset="0.24" stop-color="#8C8C8C"/>
<stop offset="0.36" stop-color="#616161"/>
<stop offset="0.49" stop-color="#3E3E3E"/>
<stop offset="0.61" stop-color="#232323"/>
<stop offset="0.74" stop-color="#0F0F0F"/>
<stop offset="0.87" stop-color="#030303"/>
<stop offset="1"/>
</radialGradient>
<radialGradient id="paint5_radial_464_4026" cx="0" cy="0" r="1" gradientUnits="userSpaceOnUse" gradientTransform="translate(338.54 57.7647) rotate(180) scale(163.14 163.14)">
<stop offset="0.2" stop-color="#9C9C9C"/>
<stop offset="0.24" stop-color="#8C8C8C"/>
<stop offset="0.36" stop-color="#616161"/>
<stop offset="0.49" stop-color="#3E3E3E"/>
<stop offset="0.61" stop-color="#232323"/>
<stop offset="0.74" stop-color="#0F0F0F"/>
<stop offset="0.87" stop-color="#030303"/>
<stop offset="1"/>
</radialGradient>
<radialGradient id="paint6_radial_464_4026" cx="0" cy="0" r="1" gradientUnits="userSpaceOnUse" gradientTransform="translate(315.744 66.6671) rotate(180) scale(169.126 169.126)">
<stop offset="0.2" stop-color="#9C9C9C"/>
<stop offset="0.24" stop-color="#8C8C8C"/>
<stop offset="0.36" stop-color="#616161"/>
<stop offset="0.49" stop-color="#3E3E3E"/>
<stop offset="0.61" stop-color="#232323"/>
<stop offset="0.74" stop-color="#0F0F0F"/>
<stop offset="0.87" stop-color="#030303"/>
<stop offset="1"/>
</radialGradient>
<radialGradient id="paint7_radial_464_4026" cx="0" cy="0" r="1" gradientUnits="userSpaceOnUse" gradientTransform="translate(282.176 119) rotate(-180) scale(206.125 206.125)">
<stop offset="0.2" stop-color="#9C9C9C"/>
<stop offset="0.24" stop-color="#8C8C8C"/>
<stop offset="0.36" stop-color="#616161"/>
<stop offset="0.49" stop-color="#3E3E3E"/>
<stop offset="0.61" stop-color="#232323"/>
<stop offset="0.74" stop-color="#0F0F0F"/>
<stop offset="0.87" stop-color="#030303"/>
<stop offset="1"/>
</radialGradient>
<radialGradient id="paint8_radial_464_4026" cx="0" cy="0" r="1" gradientUnits="userSpaceOnUse" gradientTransform="translate(265.143 41.3667) rotate(180) scale(129.332 129.332)">
<stop offset="0.2" stop-color="#9C9C9C"/>
<stop offset="0.24" stop-color="#8C8C8C"/>
<stop offset="0.36" stop-color="#616161"/>
<stop offset="0.49" stop-color="#3E3E3E"/>
<stop offset="0.61" stop-color="#232323"/>
<stop offset="0.74" stop-color="#0F0F0F"/>
<stop offset="0.87" stop-color="#030303"/>
<stop offset="1"/>
</radialGradient>
<radialGradient id="paint9_radial_464_4026" cx="0" cy="0" r="1" gradientUnits="userSpaceOnUse" gradientTransform="translate(201.541 100.818) rotate(180) scale(131.013 131.013)">
<stop offset="0.2" stop-color="#9C9C9C"/>
<stop offset="0.24" stop-color="#8C8C8C"/>
<stop offset="0.36" stop-color="#616161"/>
<stop offset="0.49" stop-color="#3E3E3E"/>
<stop offset="0.61" stop-color="#232323"/>
<stop offset="0.74" stop-color="#0F0F0F"/>
<stop offset="0.87" stop-color="#030303"/>
<stop offset="1"/>
</radialGradient>
</defs>
</svg>
